<svg width="40" height="40" viewBox="0 0 40 40" fill="none" xmlns="http://www.w3.org/2000/svg">
<path fill-rule="evenodd" clip-rule="evenodd" d="M19.1673 33.7699H4.91732C4.82898 33.7699 4.74398 33.7332 4.68232 33.6716C4.61898 33.6082 4.58398 33.5249 4.58398 33.4366C4.58398 33.4349 4.58398 31.0199 4.58398 31.0199C4.58398 29.6349 5.57232 28.4149 7.09565 27.3782C9.81565 25.5216 14.2173 24.3516 19.1673 24.3516C19.8573 24.3516 20.4173 23.7916 20.4173 23.1016C20.4173 22.4132 19.8573 21.8516 19.1673 21.8516C13.6307 21.8516 8.72898 23.2366 5.68565 25.3116C3.36398 26.8949 2.08398 28.9066 2.08398 31.0182V33.4366C2.08398 34.1866 2.38232 34.9082 2.91398 35.4399C3.44565 35.9699 4.16565 36.2699 4.91732 36.2699H19.1673C19.8573 36.2682 20.4173 35.7082 20.4173 35.0182C20.4173 34.3299 19.8573 33.7682 19.1673 33.7699V33.7699Z" fill="#F7F8FA"/>
<path fill-rule="evenodd" clip-rule="evenodd" d="M19.1667 2.08203C14.1067 2.08203 10 6.1887 10 11.2487C10 16.3087 14.1067 20.4154 19.1667 20.4154C24.2267 20.4154 28.3333 16.3087 28.3333 11.2487C28.3333 6.1887 24.2267 2.08203 19.1667 2.08203ZM19.1667 4.58203C22.8467 4.58203 25.8333 7.5687 25.8333 11.2487C25.8333 14.9287 22.8467 17.9154 19.1667 17.9154C15.4867 17.9154 12.5 14.9287 12.5 11.2487C12.5 7.5687 15.4867 4.58203 19.1667 4.58203Z" fill="#F7F8FA"/>
<path fill-rule="evenodd" clip-rule="evenodd" d="M27.918 29.1641V33.3307C27.918 34.0207 28.478 34.5807 29.168 34.5807C29.858 34.5807 30.418 34.0207 30.418 33.3307V29.1641C30.418 28.4741 29.858 27.9141 29.168 27.9141C28.478 27.9141 27.918 28.4741 27.918 29.1641Z" fill="#F7F8FA"/>
<path d="M29.1667 27.0833C30.0871 27.0833 30.8333 26.3371 30.8333 25.4167C30.8333 24.4962 30.0871 23.75 29.1667 23.75C28.2462 23.75 27.5 24.4962 27.5 25.4167C27.5 26.3371 28.2462 27.0833 29.1667 27.0833Z" fill="#F7F8FA"/>
<path fill-rule="evenodd" clip-rule="evenodd" d="M29.168 20.4141C24.338 20.4141 20.418 24.3341 20.418 29.1641C20.418 33.9941 24.338 37.9141 29.168 37.9141C33.998 37.9141 37.918 33.9941 37.918 29.1641C37.918 24.3341 33.998 20.4141 29.168 20.4141ZM29.168 22.9141C32.618 22.9141 35.418 25.7141 35.418 29.1641C35.418 32.6141 32.618 35.4141 29.168 35.4141C25.718 35.4141 22.918 32.6141 22.918 29.1641C22.918 25.7141 25.718 22.9141 29.168 22.9141Z" fill="#F7F8FA"/>
</svg>
