<svg width="24" height="24" viewBox="0 0 24 24" fill="none" xmlns="http://www.w3.org/2000/svg">
<g clip-path="url(#clip0_1217_280)">
<path d="M18.3281 14.8125V12.7031H19.7812C22.1074 12.7031 23.9999 10.8106 23.9999 8.48435C23.9999 6.15814 22.1074 4.26562 19.7812 4.26562H18.3281V2.15625H5.67185V4.26562H4.26561V5.67186H5.67185V7.78123H18.3281V5.67186H19.7812C21.332 5.67186 22.5937 6.93354 22.5937 8.48435C22.5937 10.0352 21.332 11.2968 19.7812 11.2968H18.3281V9.18747H5.67185V11.2968H4.21873C1.89252 11.2968 0 13.1894 0 15.5156C0 17.8418 1.89252 19.7343 4.21873 19.7343H5.67185V21.8437H18.3281V19.7343H19.7812V18.3281H18.3281V16.2187H5.67185V18.3281H4.21873C2.66793 18.3281 1.40624 17.0664 1.40624 15.5156C1.40624 13.9648 2.66793 12.7031 4.21873 12.7031H5.67185V14.8125H18.3281ZM16.9218 6.37498H7.0781C7.0781 5.39427 7.0781 4.54729 7.0781 3.56249H16.9218V6.37498ZM7.0781 17.6249H16.9218V20.4374H7.0781C7.0781 19.4567 7.0781 18.6097 7.0781 17.6249ZM7.0781 10.5937H16.9218V13.4062H7.0781C7.0781 12.4255 7.0781 11.5785 7.0781 10.5937Z" fill="white"/>
<path d="M21.5236 16.6309L20.5449 17.6406L21.9797 19.0314L20.5449 20.4221L21.5236 21.4318L24.0002 19.0314L21.5236 16.6309Z" fill="white"/>
<path d="M0.975828 7.3692L3.47628 4.96878L0.975828 2.56836L0.00195312 3.58283L1.44566 4.96878L0.00195312 6.35473L0.975828 7.3692Z" fill="white"/>
</g>
<defs>
<clipPath id="clip0_1217_280">
<rect width="24" height="24" fill="white"/>
</clipPath>
</defs>
</svg>
