<svg width="19" height="16" viewBox="0 0 19 16" fill="none" xmlns="http://www.w3.org/2000/svg">
<mask id="path-1-inside-1_1385_23248" fill="white">
<path d="M17.3333 6.66675H4L8.38667 2.28008C8.51164 2.15613 8.61083 2.00866 8.67852 1.84618C8.74621 1.6837 8.78106 1.50943 8.78106 1.33341C8.78106 1.1574 8.74621 0.983123 8.67852 0.820644C8.61083 0.658165 8.51164 0.510697 8.38667 0.386747C8.13685 0.138412 7.79891 -0.000976562 7.44667 -0.000976562C7.09442 -0.000976562 6.75648 0.138412 6.50667 0.386747L0.786667 6.12008C0.285883 6.61788 0.00297705 7.29398 0 8.00008C0.00648878 8.70155 0.289126 9.37222 0.786667 9.86675L6.50667 15.6001C6.63099 15.7235 6.7784 15.8213 6.94049 15.8877C7.10259 15.9542 7.27619 15.9881 7.45138 15.9875C7.62657 15.9869 7.79993 15.9517 7.96155 15.8841C8.12317 15.8165 8.26989 15.7177 8.39333 15.5934C8.51678 15.4691 8.61452 15.3217 8.68099 15.1596C8.74747 14.9975 8.78136 14.8239 8.78074 14.6487C8.78012 14.4735 8.745 14.3001 8.67739 14.1385C8.60977 13.9769 8.51099 13.8302 8.38667 13.7067L4 9.33341H17.3333C17.687 9.33341 18.0261 9.19294 18.2761 8.94289C18.5262 8.69284 18.6667 8.3537 18.6667 8.00008C18.6667 7.64646 18.5262 7.30732 18.2761 7.05727C18.0261 6.80722 17.687 6.66675 17.3333 6.66675Z"/>
</mask>
<path d="M17.3333 6.66675H4L8.38667 2.28008C8.51164 2.15613 8.61083 2.00866 8.67852 1.84618C8.74621 1.6837 8.78106 1.50943 8.78106 1.33341C8.78106 1.1574 8.74621 0.983123 8.67852 0.820644C8.61083 0.658165 8.51164 0.510697 8.38667 0.386747C8.13685 0.138412 7.79891 -0.000976562 7.44667 -0.000976562C7.09442 -0.000976562 6.75648 0.138412 6.50667 0.386747L0.786667 6.12008C0.285883 6.61788 0.00297705 7.29398 0 8.00008C0.00648878 8.70155 0.289126 9.37222 0.786667 9.86675L6.50667 15.6001C6.63099 15.7235 6.7784 15.8213 6.94049 15.8877C7.10259 15.9542 7.27619 15.9881 7.45138 15.9875C7.62657 15.9869 7.79993 15.9517 7.96155 15.8841C8.12317 15.8165 8.26989 15.7177 8.39333 15.5934C8.51678 15.4691 8.61452 15.3217 8.68099 15.1596C8.74747 14.9975 8.78136 14.8239 8.78074 14.6487C8.78012 14.4735 8.745 14.3001 8.67739 14.1385C8.60977 13.9769 8.51099 13.8302 8.38667 13.7067L4 9.33341H17.3333C17.687 9.33341 18.0261 9.19294 18.2761 8.94289C18.5262 8.69284 18.6667 8.3537 18.6667 8.00008C18.6667 7.64646 18.5262 7.30732 18.2761 7.05727C18.0261 6.80722 17.687 6.66675 17.3333 6.66675Z" fill="#F7F8FA"/>
<path d="M4 6.66675L-11.0849 -8.4182L-47.5032 28.0001H4V6.66675ZM8.38667 2.28008L-6.6363 -12.8666L-6.66735 -12.8358L-6.69828 -12.8049L8.38667 2.28008ZM8.78106 1.33341H-12.5523H8.78106ZM8.38667 0.386747L-6.65333 15.5165L-6.64482 15.525L-6.6363 15.5334L8.38667 0.386747ZM7.44667 -0.000976562V-21.3343V-0.000976562ZM6.50667 0.386747L-8.53333 -14.743L-8.56465 -14.7119L-8.59583 -14.6806L6.50667 0.386747ZM0.786667 6.12008L15.8265 21.25L15.8579 21.2188L15.8892 21.1875L0.786667 6.12008ZM0.786667 9.86675L15.8892 -5.20063L15.8575 -5.23234L15.8258 -5.26392L0.786667 9.86675ZM6.50667 15.6001L-8.59583 30.6675L-8.56044 30.7029L-8.52488 30.7382L6.50667 15.6001ZM7.96155 15.8841L-0.271955 -3.79633L7.96155 15.8841ZM8.38667 13.7067L-6.6753 28.8146L-6.66011 28.8298L-6.64488 28.8449L8.38667 13.7067ZM4 9.33341V-11.9999H-47.6143L-11.062 24.4413L4 9.33341ZM17.3333 -14.6666H4V28.0001H17.3333V-14.6666ZM19.0849 21.7517L23.4716 17.365L-6.69828 -12.8049L-11.0849 -8.4182L19.0849 21.7517ZM23.4096 17.4267C25.5342 15.3196 27.2204 12.8126 28.3712 10.0505L-11.0141 -6.35812C-9.99876 -8.79529 -8.51088 -11.0073 -6.6363 -12.8666L23.4096 17.4267ZM28.3712 10.0505C29.5219 7.28836 30.1144 4.32571 30.1144 1.33341H-12.5523C-12.5523 -1.30685 -12.0295 -3.92095 -11.0141 -6.35812L28.3712 10.0505ZM30.1144 1.33341C30.1144 -1.65888 29.5219 -4.62153 28.3712 -7.38366L-11.0141 9.02495C-12.0295 6.58778 -12.5523 3.97367 -12.5523 1.33341H30.1144ZM28.3712 -7.38366C27.2204 -10.1458 25.5342 -12.6528 23.4096 -14.7599L-6.6363 15.5334C-8.51088 13.6741 -9.99876 11.4621 -11.0141 9.02495L28.3712 -7.38366ZM23.4267 -14.743C19.1798 -18.9647 13.4349 -21.3343 7.44667 -21.3343V21.3324C2.16296 21.3324 -2.90608 19.2415 -6.65333 15.5165L23.4267 -14.743ZM7.44667 -21.3343C1.45847 -21.3343 -4.28644 -18.9647 -8.53333 -14.743L21.5467 15.5165C17.7994 19.2415 12.7304 21.3324 7.44667 21.3324V-21.3343ZM-8.59583 -14.6806L-14.3158 -8.94729L15.8892 21.1875L21.6092 15.4541L-8.59583 -14.6806ZM-14.2531 -9.00987C-18.7602 -4.52967 -21.3064 1.55521 -21.3331 7.91014L21.3331 8.09002C21.3123 13.0327 19.332 17.7654 15.8265 21.25L-14.2531 -9.00987ZM-21.3324 8.19741C-21.274 14.5107 -18.7303 20.5466 -14.2524 24.9974L15.8258 -5.26392C19.3085 -1.80222 21.287 2.89243 21.3324 7.80275L-21.3324 8.19741ZM-14.3158 24.9341L-8.59583 30.6675L21.6092 0.532708L15.8892 -5.20063L-14.3158 24.9341ZM-8.52488 30.7382C-6.41258 32.8357 -3.90786 34.4965 -1.15372 35.6259L15.0347 -3.85041C17.4647 -2.85394 19.6746 -1.38861 21.5382 0.461926L-8.52488 30.7382ZM-1.15372 35.6259C1.6004 36.7553 4.55003 37.3312 7.52676 37.3207L7.376 -5.34571C10.0023 -5.35499 12.6048 -4.84688 15.0347 -3.85041L-1.15372 35.6259ZM7.52676 37.3207C10.5035 37.3102 13.449 36.7134 16.1951 35.5646L-0.271955 -3.79633C2.15083 -4.80992 4.7496 -5.33643 7.376 -5.34571L7.52676 37.3207ZM16.1951 35.5646C18.9412 34.4157 21.4341 32.7372 23.5315 30.625L-6.74482 0.561864C-4.8943 -1.30178 -2.69483 -2.7827 -0.271955 -3.79633L16.1951 35.5646ZM23.5315 30.625C25.629 28.5126 27.2898 26.0079 28.4191 23.2538L-11.0572 7.06537C-10.0607 4.63547 -8.5954 2.42557 -6.74482 0.561864L23.5315 30.625ZM28.4191 23.2538C29.5486 20.4997 30.1245 17.55 30.1139 14.5733L-12.5525 14.7241C-12.5617 12.0977 -12.0536 9.4953 -11.0572 7.06537L28.4191 23.2538ZM30.1139 14.5733C30.1034 11.5966 29.5067 8.65111 28.3578 5.90502L-11.0031 22.372C-12.0167 19.9492 -12.5432 17.3504 -12.5525 14.7241L30.1139 14.5733ZM28.3578 5.90502C27.209 3.15891 25.5305 0.665992 23.4182 -1.43141L-6.64488 28.8449C-8.50852 26.9944 -9.98944 24.7949 -11.0031 22.372L28.3578 5.90502ZM23.4486 -1.40114L19.062 -5.77447L-11.062 24.4413L-6.6753 28.8146L23.4486 -1.40114ZM4 30.6667H17.3333V-11.9999H4V30.6667ZM17.3333 30.6667C23.3449 30.6667 29.1103 28.2787 33.3611 24.0278L3.1912 -6.14206C6.94193 -9.89279 12.029 -11.9999 17.3333 -11.9999V30.6667ZM33.3611 24.0278C37.6119 19.777 40 14.0116 40 8.00008H-2.66667C-2.66667 2.69579 -0.559555 -2.3913 3.1912 -6.14206L33.3611 24.0278ZM40 8.00008C40 1.98854 37.6119 -3.77682 33.3611 -8.02767L3.1912 22.1422C-0.559555 18.3915 -2.66667 13.3044 -2.66667 8.00008H40ZM33.3611 -8.02767C29.1103 -12.2785 23.3449 -14.6666 17.3333 -14.6666V28.0001C12.029 28.0001 6.94193 25.8929 3.1912 22.1422L33.3611 -8.02767Z" fill="#F7F8FA" mask="url(#path-1-inside-1_1385_23248)"/>
</svg>
