<svg width="48" height="48" viewBox="0 0 48 48" fill="none" xmlns="http://www.w3.org/2000/svg">
<circle cx="24" cy="24" r="24" fill="#2EBB9F"/>
<g clip-path="url(#clip0_994_34701)">
<path d="M24 25.9951C22.8954 25.9951 22 26.8906 22 27.9951V31.9951H26V27.9951C26 26.8906 25.1046 25.9951 24 25.9951Z" fill="#F7F8FA"/>
<path d="M27.3333 27.9949V31.9949H30C31.1046 31.9949 32 31.0995 32 29.9949V23.9143C32.0002 23.5679 31.8656 23.2351 31.6247 22.9863L25.9593 16.8616C24.9597 15.78 23.2726 15.7136 22.191 16.7132C22.1397 16.7607 22.0902 16.8102 22.0427 16.8616L16.3873 22.9843C16.1392 23.2341 15.9999 23.5721 16 23.9243V29.9949C16 31.0995 16.8954 31.9949 18 31.9949H20.6667V27.9949C20.6791 26.177 22.1468 24.6925 23.9189 24.6498C25.7503 24.6056 27.3194 26.1154 27.3333 27.9949Z" fill="#F7F8FA"/>
<path d="M24 25.9951C22.8954 25.9951 22 26.8906 22 27.9951V31.9951H26V27.9951C26 26.8906 25.1046 25.9951 24 25.9951Z" fill="#F7F8FA"/>
</g>
<defs>
<clipPath id="clip0_994_34701">
<rect width="16" height="16" fill="white" transform="translate(16 16)"/>
</clipPath>
</defs>
</svg>
