<svg width="40" height="40" viewBox="0 0 40 40" fill="none" xmlns="http://www.w3.org/2000/svg">
<g clip-path="url(#clip0_1217_4200)">
<path d="M34.2015 5.23993C30.8223 1.86068 26.3292 -0.000189003 21.5504 1.43981e-08C20.7673 1.43981e-08 20.1328 0.63472 20.1328 1.41763C20.1328 2.20054 20.7675 2.83526 21.5504 2.83526C25.572 2.83507 29.3529 4.40108 32.1966 7.24484C35.0406 10.0886 36.6066 13.8697 36.6064 17.8914C36.6064 18.6743 37.2409 19.309 38.024 19.309C38.807 19.309 39.4417 18.6743 39.4417 17.8916C39.4419 13.1123 37.581 8.61918 34.2015 5.23993Z" fill="#F7F8FA"/>
<path d="M28.37 17.8929C28.37 18.6758 29.0047 19.3105 29.7878 19.3103C30.5707 19.3103 31.2052 18.6756 31.2052 17.8927C31.2049 12.57 26.8737 8.23904 21.5506 8.23828C21.5504 8.23828 21.5506 8.23828 21.5504 8.23828C20.7675 8.23828 20.133 8.87281 20.1328 9.65572C20.1328 10.4386 20.7673 11.0733 21.5503 11.0735C25.3104 11.0741 28.3696 14.1332 28.37 17.8929Z" fill="#F7F8FA"/>
<path d="M25.233 25.1177C23.0722 25.0058 21.9713 26.6129 21.4434 27.3848C21.0013 28.031 21.1669 28.9132 21.8131 29.3553C22.4594 29.7974 23.3415 29.6318 23.7836 28.9856C24.4074 28.0736 24.69 27.9301 25.0733 27.9483C26.3002 28.0925 31.1324 31.6335 31.6163 32.7408C31.7377 33.0668 31.7331 33.3865 31.6029 33.7753C31.0956 35.281 30.2558 36.3391 29.1738 36.8351C28.146 37.3063 26.8858 37.2636 25.5303 36.712C20.469 34.6491 16.0472 31.7702 12.3878 28.155C12.3863 28.1535 12.3848 28.1522 12.3834 28.1507C8.77586 24.4949 5.90223 20.0787 3.8427 15.0252C3.29096 13.6686 3.24824 12.4082 3.71946 11.3805C4.21545 10.2986 5.27356 9.45879 6.77795 8.95203C7.16808 8.82123 7.48714 8.81707 7.81017 8.93729C8.92141 9.42287 12.4623 14.2549 12.6052 15.468C12.6256 15.8657 12.481 16.1481 11.5697 16.7707C10.9233 17.2123 10.7571 18.0944 11.1989 18.7409C11.6404 19.3873 12.5224 19.5532 13.169 19.1117C13.9413 18.5843 15.548 17.4865 15.4365 15.3183C15.3136 13.0535 10.908 7.05581 8.80289 6.28179C7.86669 5.93286 6.88191 5.92681 5.87483 6.26477C3.60889 7.02784 1.97238 8.38838 1.14222 10.1992C0.337003 11.9559 0.36252 13.9941 1.21688 16.0944C3.42101 21.5026 6.50482 26.2346 10.3825 30.1596C10.392 30.1692 10.4016 30.1787 10.4114 30.1879C14.3335 34.0584 19.0601 37.1366 24.4611 39.3381C25.5426 39.7779 26.6077 39.9981 27.6264 39.9981C28.5854 39.9981 29.5037 39.803 30.3554 39.4125C32.1664 38.5826 33.5267 36.9462 34.2903 34.6788C34.6275 33.6736 34.6221 32.6892 34.2758 31.7573C33.4991 29.6466 27.5014 25.241 25.233 25.1177Z" fill="#F7F8FA"/>
</g>
<defs>
<clipPath id="clip0_1217_4200">
<rect width="40" height="40" fill="white"/>
</clipPath>
</defs>
</svg>
