<svg width="16" height="16" viewBox="0 0 16 16" fill="none" xmlns="http://www.w3.org/2000/svg">
<g clip-path="url(#clip0_650_29655)">
<path d="M8 9.99512C6.89544 9.99512 6 10.8906 6 11.9951V15.9951H10V11.9951C10 10.8906 9.10456 9.99512 8 9.99512Z" fill="#F7F8FA"/>
<path d="M11.3333 11.9949V15.9949H14C15.1046 15.9949 16 15.0995 16 13.9949V7.91426C16.0002 7.56792 15.8656 7.23511 15.6247 6.98626L9.95934 0.861577C8.95972 -0.219986 7.27259 -0.286392 6.19103 0.713233C6.13966 0.760733 6.09016 0.810202 6.04269 0.861577L0.387344 6.98426C0.139156 7.23414 -9.37027e-05 7.57208 4.73072e-08 7.92426V13.9949C4.73072e-08 15.0995 0.895437 15.9949 2 15.9949H4.66666V11.9949C4.67912 10.177 6.14684 8.69255 7.91894 8.6498C9.75031 8.60561 11.3194 10.1154 11.3333 11.9949Z" fill="#F7F8FA"/>
<path d="M8 9.99512C6.89544 9.99512 6 10.8906 6 11.9951V15.9951H10V11.9951C10 10.8906 9.10456 9.99512 8 9.99512Z" fill="#F7F8FA"/>
</g>
<defs>
<clipPath id="clip0_650_29655">
<rect width="16" height="16" fill="white"/>
</clipPath>
</defs>
</svg>
