<svg width="65" height="62" viewBox="0 0 65 62" fill="none" xmlns="http://www.w3.org/2000/svg">
<path d="M33.9993 56.8346C48.2667 56.8346 59.8327 45.2687 59.8327 31.0013C59.8327 16.7339 48.2667 5.16797 33.9993 5.16797C19.732 5.16797 8.16602 16.7339 8.16602 31.0013C8.16602 45.2687 19.732 56.8346 33.9993 56.8346Z" stroke="#F7FDFF" stroke-width="4" stroke-linecap="round" stroke-linejoin="round"/>
<path d="M34 41.3333V31" stroke="#F7FDFF" stroke-width="4" stroke-linecap="round" stroke-linejoin="round"/>
<path d="M34 20.668H34.0258" stroke="#F7FDFF" stroke-width="4" stroke-linecap="round" stroke-linejoin="round"/>
<path d="M30.9993 56.8346C45.2667 56.8346 56.8327 45.2687 56.8327 31.0013C56.8327 16.7339 45.2667 5.16797 30.9993 5.16797C16.732 5.16797 5.16602 16.7339 5.16602 31.0013C5.16602 45.2687 16.732 56.8346 30.9993 56.8346Z" stroke="#FF3B30" stroke-width="4" stroke-linecap="round" stroke-linejoin="round"/>
<path d="M31 41.3333V31" stroke="#FF3B30" stroke-width="4" stroke-linecap="round" stroke-linejoin="round"/>
<path d="M31 20.668H31.0258" stroke="#FF3B30" stroke-width="4" stroke-linecap="round" stroke-linejoin="round"/>
</svg>
