<svg width="40" height="40" viewBox="0 0 40 40" fill="none" xmlns="http://www.w3.org/2000/svg">
<path d="M31.2507 28.3343C31.2507 27.644 30.691 27.0843 30.0007 27.0843C29.3103 27.0843 28.7507 27.644 28.7507 28.3343H31.2507ZM28.7507 35.001C28.7507 35.6913 29.3103 36.251 30.0007 36.251C30.691 36.251 31.2507 35.6913 31.2507 35.001H28.7507ZM8.52528 12.5234C7.84307 12.4178 7.20437 12.8852 7.09872 13.5674C6.99305 14.2496 7.46045 14.8883 8.14268 14.994L8.52528 12.5234ZM14.5498 16.6466C15.1937 16.8956 15.9175 16.5755 16.1665 15.9316C16.4155 15.2877 16.0954 14.5639 15.4515 14.3149L14.5498 16.6466ZM21.2507 10.0899C21.2507 9.39955 20.691 8.83992 20.0007 8.83992C19.3103 8.83992 18.7507 9.39955 18.7507 10.0899H21.2507ZM20.0007 35.001V36.251C20.691 36.251 21.2507 35.6913 21.2507 35.001H20.0007ZM6.65787 5.01975L6.79822 3.77765L6.65787 5.01975ZM18.862 9.04172L19.5793 8.01802L18.862 9.04172ZM6.65787 30.6215L6.79822 29.3795L6.65787 30.6215ZM18.862 34.6435L19.5793 33.6198L18.862 34.6435ZM33.3435 5.01975L33.2032 3.77765L33.3435 5.01975ZM21.1393 9.04172L20.422 8.01802L21.1393 9.04172ZM35.4173 23.3343C35.4173 24.0246 35.977 24.5843 36.6673 24.5843C37.3577 24.5843 37.9173 24.0246 37.9173 23.3343H35.4173ZM8.52528 19.1901C7.84307 19.0845 7.20437 19.5518 7.09872 20.2341C6.99305 20.9163 7.46045 21.555 8.14268 21.6606L8.52528 19.1901ZM11.3615 22.3103C12.0309 22.4791 12.7105 22.0735 12.8793 21.404C13.0482 20.7346 12.6425 20.0551 11.9731 19.8861L11.3615 22.3103ZM28.7507 28.3343V35.001H31.2507V28.3343H28.7507ZM8.14268 14.994C10.1906 15.3111 12.4521 15.8354 14.5498 16.6466L15.4515 14.3149C13.1418 13.4218 10.6966 12.8597 8.52528 12.5234L8.14268 14.994ZM18.7507 10.0899V35.001H21.2507V10.0899H18.7507ZM6.51752 6.26185C10.1448 6.67172 14.862 7.7651 18.1447 10.0654L19.5793 8.01802C15.7831 5.3579 10.5656 4.20337 6.79822 3.77765L6.51752 6.26185ZM6.51752 31.8636C10.1448 32.2735 14.862 33.3668 18.1447 35.6671L19.5793 33.6198C15.7831 30.9596 10.5656 29.8051 6.79822 29.3795L6.51752 31.8636ZM2.08398 8.22627V27.001H4.58398V8.22627H2.08398ZM6.79822 29.3795C5.5486 29.2381 4.58398 28.1993 4.58398 27.001H2.08398C2.08398 29.573 4.10745 31.5913 6.51752 31.8636L6.79822 29.3795ZM6.79822 3.77765C4.11155 3.47407 2.08398 5.71645 2.08398 8.22627H4.58398C4.58398 6.96557 5.5445 6.1519 6.51752 6.26185L6.79822 3.77765ZM33.2032 3.77765C29.4358 4.20337 24.2182 5.3579 20.422 8.01802L21.8567 10.0654C25.1393 7.7651 29.8565 6.67172 33.4838 6.26185L33.2032 3.77765ZM35.4173 8.22627V23.3343H37.9173V8.22627H35.4173ZM33.4838 6.26185C34.4568 6.1519 35.4173 6.96557 35.4173 8.22627H37.9173C37.9173 5.71645 35.8898 3.47407 33.2032 3.77765L33.4838 6.26185ZM18.1447 10.0654C19.2557 10.8438 20.7457 10.8438 21.8567 10.0654L20.422 8.01802C20.1723 8.19295 19.829 8.19295 19.5793 8.01802L18.1447 10.0654ZM18.1447 35.6671C18.7022 36.0578 19.3537 36.251 20.0007 36.251V33.751C19.8492 33.751 19.7022 33.7058 19.5793 33.6198L18.1447 35.6671ZM8.14268 21.6606C9.17475 21.8205 10.2642 22.0335 11.3615 22.3103L11.9731 19.8861C10.7914 19.5881 9.62485 19.3603 8.52528 19.1901L8.14268 21.6606Z" fill="#F7F8FA"/>
<path d="M31.6673 23.3346C31.6673 24.2551 30.9212 25.0013 30.0007 25.0013C29.0802 25.0013 28.334 24.2551 28.334 23.3346C28.334 22.4141 29.0802 21.668 30.0007 21.668C30.9212 21.668 31.6673 22.4141 31.6673 23.3346Z" fill="#F7F8FA"/>
</svg>
