<svg width="40" height="40" viewBox="0 0 40 40" fill="none" xmlns="http://www.w3.org/2000/svg">
<g clip-path="url(#clip0_1217_4392)">
<path d="M37.8074 5.75216C36.4008 4.34459 34.4923 3.55404 32.5025 3.55471C30.5134 3.55002 28.605 4.34031 27.2015 5.74973L17.5176 15.4337C15.6016 17.3528 14.8691 20.1558 15.6014 22.7668C15.8158 23.5269 16.6059 23.9693 17.366 23.7549C18.1261 23.5405 18.5686 22.7505 18.3541 21.9903C17.9027 20.3756 18.3556 18.6429 19.5396 17.4558L29.2235 7.77324C31.034 5.9623 33.9698 5.96197 35.7808 7.77257C37.5917 9.58308 37.592 12.5189 35.7815 14.3298L26.0976 24.0137C25.463 24.6492 24.657 25.086 23.7781 25.2708C23.0049 25.4317 22.5087 26.189 22.6696 26.9622C22.808 27.6271 23.395 28.1028 24.0741 28.1007C24.174 28.1008 24.2738 28.0903 24.3715 28.0693C25.7918 27.7698 27.0942 27.0632 28.1196 26.0358L37.8036 16.3533C40.732 13.4269 40.7337 8.68067 37.8074 5.75216Z" fill="#F7F8FA"/>
<path d="M24.3577 17.274C24.1433 16.5139 23.3533 16.0715 22.5931 16.2859C21.833 16.5003 21.3906 17.2904 21.605 18.0505C22.0565 19.6652 21.6035 21.3979 20.4196 22.585L10.7355 32.269C8.92503 34.0799 5.98923 34.0803 4.17829 32.2697C2.36736 30.4592 2.36702 27.5233 4.17754 25.7124L13.8615 16.027C14.4952 15.3917 15.3002 14.9549 16.1781 14.77C16.9526 14.6151 17.4548 13.8617 17.2999 13.0873C17.145 12.3129 16.3916 11.8106 15.6173 11.9656C15.6078 11.9675 15.5984 11.9694 15.589 11.9715C14.1685 12.2714 12.8657 12.9779 11.8395 14.005L2.15554 23.689C-0.749932 26.6393 -0.713568 31.3863 2.23673 34.2917C5.15485 37.1655 9.839 37.1658 12.7575 34.2924L22.4415 24.607C24.3576 22.688 25.09 19.885 24.3577 17.274Z" fill="#F7F8FA"/>
</g>
<defs>
<clipPath id="clip0_1217_4392">
<rect width="40" height="40" fill="white"/>
</clipPath>
</defs>
</svg>
