<svg width="40" height="40" viewBox="0 0 40 40" fill="none" xmlns="http://www.w3.org/2000/svg">
<g clip-path="url(#clip0_1217_4364)">
<path d="M13.8495 7.70703H6.85547C6.20819 7.70703 5.68359 8.23163 5.68359 8.87891C5.68359 9.52618 6.20819 10.0508 6.85547 10.0508H13.8495C14.4965 10.0508 15.0214 9.52618 15.0214 8.87891C15.0214 8.23163 14.4965 7.70703 13.8495 7.70703Z" fill="#F7F8FA"/>
<path d="M13.8495 12.3945H6.85547C6.20819 12.3945 5.68359 12.9191 5.68359 13.5664C5.68359 14.2137 6.20819 14.7383 6.85547 14.7383H13.8495C14.4965 14.7383 15.0214 14.2137 15.0214 13.5664C15.0214 12.9191 14.4965 12.3945 13.8495 12.3945Z" fill="#F7F8FA"/>
<path d="M13.8495 17.082H6.85547C6.20819 17.082 5.68359 17.6066 5.68359 18.2539C5.68359 18.9012 6.20819 19.4258 6.85547 19.4258H13.8495C14.4965 19.4258 15.0214 18.9012 15.0214 18.2539C15.0214 17.6066 14.4965 17.082 13.8495 17.082Z" fill="#F7F8FA"/>
<path d="M13.8495 21.7695H6.85547C6.20819 21.7695 5.68359 22.2941 5.68359 22.9414C5.68359 23.5887 6.20819 24.1133 6.85547 24.1133H13.8495C14.4965 24.1133 15.0214 23.5887 15.0214 22.9414C15.0214 22.2941 14.4965 21.7695 13.8495 21.7695Z" fill="#F7F8FA"/>
<path d="M13.8495 26.5352H6.85547C6.20819 26.5352 5.68359 27.0601 5.68359 27.707C5.68359 28.3543 6.20819 28.8789 6.85547 28.8789H13.8495C14.4965 28.8789 15.0214 28.3543 15.0214 27.707C15.0214 27.0601 14.4965 26.5352 13.8495 26.5352Z" fill="#F7F8FA"/>
<path d="M17.7852 10.0508H24.7792C25.4265 10.0508 25.951 9.52618 25.951 8.87891C25.951 8.23163 25.4265 7.70703 24.7792 7.70703H17.7852C17.1382 7.70703 16.6133 8.23163 16.6133 8.87891C16.6133 9.52618 17.1382 10.0508 17.7852 10.0508Z" fill="#F7F8FA"/>
<path d="M17.7852 14.7383H24.7792C25.4265 14.7383 25.951 14.2137 25.951 13.5664C25.951 12.9191 25.4265 12.3945 24.7792 12.3945H17.7852C17.1382 12.3945 16.6133 12.9191 16.6133 13.5664C16.6133 14.2137 17.1382 14.7383 17.7852 14.7383Z" fill="#F7F8FA"/>
<path d="M22.3256 18.2539C22.3256 17.6066 21.801 17.082 21.1537 17.082H17.7852C17.1382 17.082 16.6133 17.6066 16.6133 18.2539C16.6133 18.9012 17.1382 19.4258 17.7852 19.4258H21.1537C21.801 19.4258 22.3256 18.9012 22.3256 18.2539Z" fill="#F7F8FA"/>
<path d="M33.4268 27.0313C32.9221 26.6263 32.1848 26.7072 31.7795 27.2119L28.7613 30.9748L26.8927 29.621C26.3687 29.2411 25.6357 29.3582 25.2561 29.8822C24.8764 30.4065 24.9936 31.1392 25.5176 31.5189L28.2895 33.5273C28.497 33.6774 28.7375 33.7503 28.9765 33.7503C29.3204 33.7503 29.6604 33.5993 29.8911 33.3115L33.6078 28.6786C34.0128 28.1739 33.9319 27.4362 33.4268 27.0313Z" fill="#F7F8FA"/>
<path d="M36.3895 23.4329C34.863 21.8796 32.9016 20.9006 30.7764 20.6122V4.71954C30.7764 2.11731 28.6591 0 26.0568 0H5.57922C2.97668 0 0.859375 2.11731 0.859375 4.71954V31.8658C0.859375 34.4684 2.97668 36.5857 5.57892 36.5857H22.049C23.9023 38.7628 26.5671 40 29.4501 40C34.8166 40 39.1824 35.6311 39.1824 30.2609C39.1824 27.6901 38.1906 25.2652 36.3895 23.4329ZM3.20312 31.8658V4.71954C3.20312 3.40973 4.2691 2.34375 5.57922 2.34375H26.0568C27.3669 2.34375 28.4326 3.40973 28.4326 4.71954V20.575C23.5425 21.0855 19.7177 25.2344 19.7177 30.2609C19.7177 31.6541 20.0082 33.0011 20.5655 34.2416H5.57922C4.2691 34.2416 3.20312 33.176 3.20312 31.8658ZM29.4501 37.6562C27.1097 37.6562 24.9582 36.5817 23.5468 34.7086C22.5751 33.4186 22.0612 31.8808 22.0612 30.2609C22.0612 26.1832 25.376 22.8656 29.4501 22.8656C29.4885 22.8656 29.5273 22.8662 29.5657 22.8668L29.5837 22.8671C31.5286 22.9016 33.3521 23.6859 34.718 25.0757C36.0855 26.467 36.8387 28.3087 36.8387 30.2609C36.8387 34.3387 33.5242 37.6562 29.4501 37.6562Z" fill="#F7F8FA"/>
</g>
<defs>
<clipPath id="clip0_1217_4364">
<rect width="40" height="40" fill="white"/>
</clipPath>
</defs>
</svg>
