<svg width="40" height="40" viewBox="0 0 40 40" fill="none" xmlns="http://www.w3.org/2000/svg">
<path d="M20.0001 17.7875C27.6251 17.55 27.6251 6.4875 20.0001 6.25C12.3751 6.4875 12.3751 17.55 20.0001 17.7875ZM20.0001 8.75C24.3126 8.8625 24.3126 15.175 20.0001 15.2875C15.6876 15.175 15.6876 8.8625 20.0001 8.75ZM9.80013 19.4C14.9751 19.2625 14.9626 11.7 9.80013 11.5625C4.62513 11.7 4.62513 19.2625 9.80013 19.4ZM9.80013 14.0625C11.6626 14.1 11.6626 16.875 9.80013 16.9C7.93763 16.8625 7.93763 14.0875 9.80013 14.0625ZM30.2126 19.4C35.3876 19.2625 35.3876 11.7 30.2126 11.5625C25.0376 11.7 25.0501 19.2625 30.2126 19.4ZM30.2126 14.0625C32.0751 14.1 32.0751 16.875 30.2126 16.9C28.3501 16.8625 28.3501 14.0875 30.2126 14.0625ZM29.8751 19.9375C28.7876 19.975 27.5251 20.175 26.6501 20.9375C22.7001 18.525 17.3126 18.525 13.3626 20.9375C8.12513 17.6 2.45013 23.0125 2.55013 29.5125C2.55013 30.2 3.11263 30.7625 3.80013 30.7625C4.48763 30.7625 5.05013 30.2 5.05013 29.5125C5.08763 25.25 7.73763 21.7125 11.1376 22.6C8.53763 24.9875 6.90013 28.4 6.90013 32.2C6.90013 32.8875 7.46263 33.45 8.15013 33.45C8.83763 33.45 9.40013 32.8875 9.40013 32.2C9.40013 28.1375 11.7126 24.6 15.1001 22.825C15.9126 24.1625 17.2251 25.1125 18.7626 25.45V32.5125C18.7626 33.2 19.3251 33.7625 20.0126 33.7625C20.7001 33.7625 21.2626 33.2 21.2626 32.5125V25.45C22.8001 25.1125 24.1126 24.1625 24.9251 22.825C28.3126 24.6 30.6251 28.125 30.6251 32.2C30.6251 32.8875 31.1876 33.45 31.8751 33.45C32.5626 33.45 33.1251 32.8875 33.1251 32.2C33.1251 28.4 31.4876 24.9875 28.8876 22.6C32.2876 21.7125 34.9376 25.25 34.9751 29.5125C34.9751 30.2 35.5376 30.7625 36.2251 30.7625C36.9126 30.7625 37.4751 30.2 37.4751 29.5125C37.4751 24.2375 34.0626 19.9375 29.8876 19.9375H29.8751ZM20.0001 23.0875C19.0001 23.0875 18.1001 22.6375 17.5001 21.9125C19.0876 21.5 20.9001 21.5 22.5001 21.9125C21.9001 22.6375 21.0001 23.0875 20.0001 23.0875Z" fill="#F7F8FA"/>
</svg>
