<svg width="24" height="24" viewBox="0 0 24 24" fill="none" xmlns="http://www.w3.org/2000/svg">
<path fill-rule="evenodd" clip-rule="evenodd" d="M5.25316 1.49951C4.65691 1.49951 4.08503 1.73689 3.66316 2.15876C3.24166 2.58026 3.00391 3.15514 3.00391 3.75176V20.2499C3.00391 20.8465 3.24166 21.4214 3.66316 21.8429C4.08503 22.2648 4.65691 22.5021 5.25316 22.5021H18.7547C19.3513 22.5021 19.9262 22.2648 20.3477 21.8429C20.7695 21.4214 21.0039 20.8465 21.0039 20.2499V3.75176C21.0039 3.15514 20.7695 2.58026 20.3477 2.15876C19.9262 1.73689 19.3513 1.49951 18.7547 1.49951H5.25316ZM5.25316 3.00101H18.7547C18.9549 3.00101 19.1447 3.07976 19.2857 3.22076C19.4263 3.36139 19.5054 3.55114 19.5054 3.75176V20.2499C19.5054 20.4505 19.4263 20.6403 19.2857 20.7809C19.145 20.9219 18.9549 21.0006 18.7547 21.0006H5.25316C5.05291 21.0006 4.86616 20.9219 4.72516 20.7809C4.58453 20.6403 4.50541 20.4505 4.50541 20.2499V3.75176C4.50541 3.55114 4.58453 3.36139 4.72516 3.22076C4.86616 3.07976 5.05291 3.00101 5.25316 3.00101Z" fill="#F7FDFF"/>
<path fill-rule="evenodd" clip-rule="evenodd" d="M9.37966 6.75195C8.96903 6.75158 8.63041 7.0887 8.62891 7.4997V7.50008C8.62891 7.91183 8.96753 8.25045 9.37891 8.25045H14.6297C15.041 8.25045 15.3797 7.91183 15.3797 7.50008V7.4997C15.3785 7.0887 15.0399 6.75158 14.6289 6.75195H9.37966Z" fill="#F7FDFF"/>
<path fill-rule="evenodd" clip-rule="evenodd" d="M9.37966 11.25C9.37966 11.25 9.37928 11.25 9.37891 11.25C8.96753 11.25 8.62891 11.5886 8.62891 12V12.0015C8.62891 12.4133 8.96753 12.7515 9.37891 12.7515H14.6297C15.041 12.7515 15.3797 12.4133 15.3797 12.0015V12C15.3797 11.5886 15.041 11.25 14.6297 11.25C14.6293 11.25 14.6293 11.25 14.6289 11.25H9.37966Z" fill="#F7FDFF"/>
<path fill-rule="evenodd" clip-rule="evenodd" d="M9.37966 15.7515C9.37966 15.7515 9.37928 15.7515 9.37891 15.7515C8.96753 15.7515 8.62891 16.0901 8.62891 16.5015V16.5022C8.63041 16.9132 8.96903 17.2503 9.37966 17.25H14.6289C15.0399 17.2503 15.3785 16.9132 15.3797 16.5022C15.3797 16.5022 15.3797 16.5018 15.3797 16.5015C15.3797 16.0901 15.041 15.7515 14.6297 15.7515C14.6293 15.7515 14.6293 15.7515 14.6289 15.7515H9.37966Z" fill="#F7FDFF"/>
</svg>
