<svg width="56" height="56" viewBox="0 0 56 56" fill="none" xmlns="http://www.w3.org/2000/svg">
<g clip-path="url(#clip0_651_14999)">
<path d="M19.25 1.09375H36.75V12.0312H19.25V1.09375Z" fill="#33D1D1"/>
<path d="M20.8906 47.25H35.1094V54.9062H20.8906V47.25Z" fill="#FF7D97"/>
<path d="M20.8906 32.8125H35.1094V40.4688H20.8906V32.8125Z" fill="#33D1D1"/>
<path d="M1.09375 32.8125H15.3125V40.4688H1.09375V32.8125Z" fill="#FDDF81"/>
<path d="M1.09375 18.5938H15.3125V26.25H1.09375V18.5938Z" fill="#FF7D97"/>
<path d="M40.6875 18.5938H54.9062V26.25H40.6875V18.5938Z" fill="#FF7D97"/>
<path d="M21.9805 22.4224L27.9952 16.4076L34.0099 22.4224L27.9952 28.4371L21.9805 22.4224Z" fill="#CCF5FC"/>
<path d="M54.9062 17.5H40.6875C40.0834 17.5 39.5938 17.9897 39.5938 18.5938V21.3281H34.4688L29.0938 15.9531V13.125H36.75C37.3541 13.125 37.8438 12.6353 37.8438 12.0312V1.09375C37.8438 0.489672 37.3541 0 36.75 0H19.25C18.6459 0 18.1562 0.489672 18.1562 1.09375V12.0312C18.1562 12.6353 18.6459 13.125 19.25 13.125H26.9062V15.9531L21.5312 21.3281H16.4062V18.5938C16.4062 17.9897 15.9166 17.5 15.3125 17.5H1.09375C0.489672 17.5 0 17.9897 0 18.5938V26.25C0 26.8541 0.489672 27.3438 1.09375 27.3438H7.10938V31.7188H1.09375C0.489672 31.7188 0 32.2084 0 32.8125V40.4688C0 41.0728 0.489672 41.5625 1.09375 41.5625H15.3125C15.9166 41.5625 16.4062 41.0728 16.4062 40.4688V32.8125C16.4062 32.2084 15.9166 31.7188 15.3125 31.7188H9.29688V27.3438H15.3125C15.9166 27.3438 16.4062 26.8541 16.4062 26.25V23.5156H21.5312L26.9062 28.8906V31.7188H20.8906C20.2865 31.7188 19.7969 32.2084 19.7969 32.8125V40.4688C19.7969 41.0728 20.2865 41.5625 20.8906 41.5625H26.9062V46.1562H20.8906C20.2865 46.1562 19.7969 46.6459 19.7969 47.25V54.9062C19.7969 55.5103 20.2865 56 20.8906 56H35.1094C35.7135 56 36.2031 55.5103 36.2031 54.9062V47.25C36.2031 46.6459 35.7135 46.1562 35.1094 46.1562H29.0938V41.5625H35.1094C35.7135 41.5625 36.2031 41.0728 36.2031 40.4688V37.7344H42.7656C43.3683 37.7344 43.8594 37.2433 43.8594 36.6406C43.8594 36.038 43.3683 35.5469 42.7656 35.5469H36.2031V32.8125C36.2031 32.2084 35.7135 31.7188 35.1094 31.7188H29.0938V28.8906L34.4688 23.5156H39.5938V26.25C39.5938 26.8541 40.0834 27.3438 40.6875 27.3438H46.7031V31.8281C46.7031 32.4308 47.1942 32.9219 47.7969 32.9219C48.3995 32.9219 48.8906 32.4308 48.8906 31.8281V27.3438H54.9062C55.5103 27.3438 56 26.8541 56 26.25V18.5938C56 17.9897 55.5103 17.5 54.9062 17.5ZM20.3438 2.1875H35.6562V10.9375H20.3438V2.1875ZM14.2188 39.375H2.1875V33.9062H14.2188V39.375ZM14.2188 25.1562H2.1875V19.6875H14.2188V25.1562ZM34.0156 53.8125H21.9844V48.3438H34.0156V53.8125ZM34.0156 39.375H21.9844V33.9062H34.0156V39.375ZM28 26.8907L23.5312 22.4219L28 17.953L32.4688 22.4219L28 26.8907ZM53.8125 25.1562H41.7812V19.6875H53.8125V25.1562Z" fill="#F7F8FA"/>
<path d="M33.4688 6.5625C33.4688 5.95842 32.9791 5.46875 32.375 5.46875H23.625C23.0209 5.46875 22.5312 5.95842 22.5312 6.5625C22.5312 7.16658 23.0209 7.65625 23.625 7.65625H32.375C32.9791 7.65625 33.4688 7.16658 33.4688 6.5625Z" fill="#33D1D1"/>
<path d="M47.6875 37.7344C48.2916 37.7344 48.7812 37.2447 48.7812 36.6406C48.7812 36.0366 48.2916 35.5469 47.6875 35.5469C47.0834 35.5469 46.5938 36.0366 46.5938 36.6406C46.5938 37.2447 47.0834 37.7344 47.6875 37.7344Z" fill="#F7F8FA"/>
</g>
<defs>
<clipPath id="clip0_651_14999">
<rect width="56" height="56" fill="white"/>
</clipPath>
</defs>
</svg>
