<?xml version="1.0" standalone="no"?>
<!DOCTYPE svg PUBLIC "-//W3C//DTD SVG 20010904//EN"
 "http://www.w3.org/TR/2001/REC-SVG-20010904/DTD/svg10.dtd">
<svg version="1.0" xmlns="http://www.w3.org/2000/svg"
 width="1080" height="346" viewBox="0 0 1080 346"
 preserveAspectRatio="xMidYMid meet">

<g transform="translate(0.000000,346.000000) scale(0.100000,-0.100000)"
fill="#000000" stroke="none">
<path d="M5410 2950 c0 -6 7 -13 15 -16 12 -5 15 -31 15 -150 0 -119 -3 -146
-15 -150 -32 -13 -13 -24 40 -24 53 0 72 11 40 24 -12 4 -15 32 -15 166 l0
160 -40 0 c-22 0 -40 -5 -40 -10z"/>
<path d="M2280 2943 c-36 -13 -60 -47 -60 -85 0 -42 19 -67 72 -94 50 -25 68
-45 68 -74 0 -36 -21 -52 -62 -48 -23 2 -36 10 -43 26 -5 12 -18 22 -27 22
-14 0 -18 -8 -18 -34 0 -41 11 -46 91 -46 77 0 109 27 109 90 0 47 -18 69 -94
113 -42 24 -47 31 -44 59 2 17 10 35 19 41 23 14 67 1 74 -23 3 -11 15 -20 26
-20 15 0 19 7 19 34 0 26 -5 35 -22 40 -28 7 -87 7 -108 -1z"/>
<path d="M4167 2943 c-4 -3 1 -16 12 -27 10 -12 35 -77 55 -146 20 -69 39
-133 42 -143 4 -12 13 -17 27 -15 16 2 28 20 49 78 16 41 40 106 55 144 14 38
34 76 44 84 26 23 14 32 -41 32 -49 0 -75 -15 -46 -26 23 -9 20 -38 -18 -149
l-33 -100 -12 40 c-48 168 -52 190 -36 201 30 22 16 34 -38 34 -30 0 -57 -3
-60 -7z"/>
<path d="M6100 2937 c0 -8 7 -17 15 -21 12 -4 15 -29 15 -135 0 -102 -3 -133
-15 -145 -23 -23 -19 -26 40 -26 53 0 72 11 40 24 -11 4 -15 21 -15 61 0 55 0
56 27 53 23 -2 34 -15 63 -68 33 -60 38 -65 73 -68 37 -3 49 10 23 25 -8 4
-24 26 -37 48 -12 22 -29 48 -38 58 -15 17 -14 20 5 36 33 27 46 60 39 97 -9
50 -40 66 -145 72 -76 4 -90 2 -90 -11z m168 -44 c33 -45 -2 -113 -58 -113
l-30 0 0 63 c0 35 3 67 7 71 12 12 67 -3 81 -21z"/>
<path d="M3750 2915 c0 -21 5 -25 30 -25 25 0 30 4 30 25 0 21 -5 25 -30 25
-25 0 -30 -4 -30 -25z"/>
<path d="M6870 2915 c0 -21 5 -25 30 -25 25 0 30 4 30 25 0 21 -5 25 -30 25
-25 0 -30 -4 -30 -25z"/>
<path d="M2935 2883 c-3 -16 -16 -36 -28 -45 l-22 -18 23 -6 c20 -6 22 -12 22
-83 0 -93 15 -121 64 -121 18 0 40 6 51 13 23 17 11 41 -13 28 -11 -6 -24 -6
-35 0 -14 8 -17 24 -17 84 l0 74 37 3 c27 2 39 8 41 21 3 14 -4 17 -37 17 -39
0 -41 2 -41 30 0 41 -35 43 -45 3z"/>
<path d="M7227 2904 c-4 -4 -7 -15 -7 -25 0 -10 -10 -28 -22 -39 l-23 -21 23
-6 c21 -5 22 -11 22 -88 0 -63 4 -88 16 -99 21 -22 77 -20 97 2 21 23 11 35
-15 21 -35 -19 -48 5 -48 87 l0 73 38 3 c51 4 51 32 0 36 -32 3 -37 7 -40 30
-3 26 -26 40 -41 26z"/>
<path d="M2430 2845 c0 -3 9 -18 20 -33 10 -15 33 -66 50 -114 30 -83 31 -88
15 -118 -14 -28 -19 -30 -50 -24 -33 6 -35 4 -35 -20 0 -24 4 -26 38 -26 25 0
45 7 55 18 9 10 44 79 77 153 33 74 67 139 75 145 21 16 8 24 -42 24 -47 0
-49 -1 -31 -29 9 -15 7 -31 -12 -80 -12 -33 -26 -61 -30 -61 -4 0 -15 27 -25
61 -15 48 -16 65 -7 80 18 28 16 29 -43 29 -30 0 -55 -2 -55 -5z"/>
<path d="M2734 2836 c-49 -35 -34 -85 36 -121 39 -20 50 -31 50 -49 0 -43 -67
-43 -84 -1 -3 8 -13 15 -21 15 -12 0 -15 -8 -13 -32 3 -33 4 -33 61 -36 76 -4
107 14 107 63 0 24 -7 39 -26 54 -15 12 -33 21 -40 21 -22 0 -54 38 -48 55 8
19 58 20 74 0 21 -25 42 -18 38 13 -3 25 -6 27 -58 30 -37 2 -62 -2 -76 -12z"/>
<path d="M3134 2839 c-58 -28 -74 -144 -28 -198 22 -26 33 -31 70 -31 47 0 94
23 94 46 0 18 -10 18 -46 -1 -37 -18 -68 -10 -83 21 -22 50 -17 54 65 54 l77
0 -6 38 c-11 67 -80 101 -143 71z m87 -51 c7 -28 7 -28 -42 -28 -53 0 -57 4
-33 38 23 33 65 27 75 -10z"/>
<path d="M3315 2840 c-3 -6 1 -13 9 -16 13 -5 16 -24 16 -94 0 -49 -4 -92 -10
-95 -23 -14 -7 -25 40 -25 51 0 61 8 35 30 -21 17 -20 118 1 148 18 25 59 29
68 6 3 -9 6 -47 6 -85 0 -53 -4 -71 -15 -75 -32 -13 -13 -24 40 -24 53 0 72
11 40 24 -22 8 -21 138 1 160 21 22 51 20 64 -3 16 -31 13 -137 -5 -155 -23
-23 -19 -26 35 -26 49 0 59 6 41 26 -5 5 -11 49 -13 97 -2 74 -6 91 -22 103
-28 20 -69 17 -98 -5 -24 -19 -24 -19 -36 0 -15 23 -60 25 -88 4 -25 -19 -34
-19 -34 0 0 17 -65 22 -75 5z"/>
<path d="M3725 2840 c-3 -6 1 -13 9 -16 13 -5 16 -24 16 -94 0 -49 -4 -92 -10
-95 -23 -14 -7 -25 40 -25 51 0 61 8 35 30 -11 10 -15 36 -15 111 l0 99 -34 0
c-19 0 -38 -5 -41 -10z"/>
<path d="M3907 2829 c-54 -41 -60 -147 -12 -195 31 -31 91 -33 129 -3 36 28
20 44 -23 23 -29 -15 -34 -15 -56 0 -22 14 -25 24 -25 72 0 30 5 64 10 75 14
26 54 24 72 -3 18 -27 48 -18 48 16 0 28 -16 36 -74 36 -29 0 -52 -7 -69 -21z"/>
<path d="M4523 2835 c-22 -9 -33 -21 -33 -35 0 -27 31 -26 48 1 21 32 65 22
73 -17 6 -31 5 -31 -45 -43 -27 -6 -58 -19 -68 -28 -25 -22 -24 -79 1 -93 28
-15 73 -12 99 6 20 14 22 14 22 0 0 -12 10 -16 35 -16 38 0 42 5 20 34 -10 14
-15 45 -15 96 0 62 -4 80 -18 93 -22 21 -75 21 -119 2z m89 -145 c-5 -52 -74
-68 -80 -19 -2 18 3 29 20 37 38 18 63 11 60 -18z"/>
<path d="M4747 2830 c-47 -37 -32 -80 44 -118 46 -24 59 -49 35 -68 -28 -20
-42 -18 -70 12 -29 32 -47 25 -37 -14 7 -25 11 -27 68 -30 53 -2 64 0 82 19
40 43 26 79 -45 118 -60 32 -68 64 -16 69 22 2 34 -2 38 -12 3 -9 15 -16 26
-16 15 0 19 6 16 28 -3 25 -6 27 -59 30 -44 2 -61 -1 -82 -18z"/>
<path d="M4983 2830 c-58 -35 -67 -147 -17 -197 30 -30 91 -31 128 -2 19 15
24 25 17 32 -7 7 -14 7 -23 0 -53 -43 -98 -11 -98 68 0 28 5 59 10 70 14 25
56 25 72 -1 7 -11 21 -20 30 -20 24 0 25 55 2 64 -31 12 -90 6 -121 -14z"/>
<path d="M5140 2841 c0 -5 7 -14 15 -21 11 -9 15 -34 15 -95 0 -67 3 -85 18
-98 23 -21 71 -22 100 -1 20 14 22 14 22 0 0 -12 10 -16 40 -16 40 0 53 13 25
23 -11 5 -15 30 -17 109 l-3 103 -37 3 c-40 3 -48 -7 -23 -28 10 -9 15 -32 15
-74 0 -53 -4 -66 -24 -85 -20 -19 -28 -21 -45 -12 -19 11 -21 21 -21 106 l0
95 -40 0 c-22 0 -40 -4 -40 -9z"/>
<path d="M5593 2835 c-22 -9 -33 -21 -33 -35 0 -26 31 -27 48 0 23 37 72 19
72 -27 0 -19 -7 -24 -42 -30 -55 -8 -103 -53 -92 -85 3 -13 11 -29 16 -35 14
-18 79 -16 106 3 20 14 22 14 22 0 0 -12 10 -16 35 -16 39 0 42 4 20 26 -11
11 -15 38 -15 98 0 68 -3 86 -18 99 -22 21 -75 21 -119 2z m87 -137 c0 -48
-59 -77 -79 -39 -16 29 14 58 62 60 11 1 17 -6 17 -21z"/>
<path d="M5780 2840 c0 -6 7 -13 15 -16 12 -5 15 -25 15 -95 0 -70 -3 -91 -15
-95 -32 -13 -13 -24 40 -24 53 0 72 11 40 24 -11 4 -15 22 -15 74 0 57 4 72
21 88 16 15 24 16 39 6 32 -19 46 -14 45 16 -1 22 -7 28 -29 30 -15 2 -38 -4
-52 -13 -21 -14 -24 -14 -24 0 0 11 -11 15 -40 15 -22 0 -40 -5 -40 -10z"/>
<path d="M6438 2821 c-31 -28 -33 -33 -33 -96 0 -61 3 -69 28 -91 37 -32 103
-33 141 -3 37 29 20 44 -27 24 -44 -18 -73 -8 -87 31 -16 42 -13 44 65 44 74
0 75 0 75 25 0 33 -25 81 -45 89 -39 15 -85 6 -117 -23z m102 -20 c18 -34 12
-41 -40 -41 -43 0 -49 2 -43 18 16 45 63 58 83 23z"/>
<path d="M6674 2836 c-49 -35 -34 -85 36 -121 39 -20 50 -31 50 -49 0 -43 -67
-43 -84 -1 -3 8 -13 15 -21 15 -12 0 -15 -8 -13 -32 3 -33 4 -33 61 -36 76 -4
107 14 107 63 0 24 -7 39 -26 54 -15 12 -33 21 -40 21 -22 0 -54 38 -48 55 8
19 58 20 74 0 21 -25 42 -18 38 13 -3 25 -6 27 -58 30 -37 2 -62 -2 -76 -12z"/>
<path d="M6847 2844 c-4 -4 0 -12 9 -19 24 -17 31 -134 10 -175 -9 -18 -16
-35 -16 -37 0 -1 23 -3 50 -3 49 0 59 7 40 26 -5 5 -11 54 -12 109 l-3 100
-35 3 c-20 2 -39 0 -43 -4z"/>
<path d="M7015 2826 c-14 -14 -25 -31 -25 -39 0 -20 39 -67 54 -67 20 0 66
-39 66 -56 0 -8 -12 -20 -26 -26 -24 -11 -29 -9 -50 15 -31 36 -46 34 -42 -5
3 -33 3 -33 65 -36 52 -2 66 1 83 18 21 21 26 55 11 79 -5 7 -31 25 -57 40
-60 32 -68 64 -16 69 22 2 34 -2 38 -12 3 -9 15 -16 26 -16 15 0 19 6 16 28
-3 26 -6 27 -60 30 -51 3 -61 0 -83 -22z"/>
<path d="M7403 2835 c-22 -9 -33 -21 -33 -35 0 -26 31 -27 48 0 16 26 58 26
72 1 19 -37 12 -50 -29 -57 -62 -10 -101 -38 -101 -73 0 -16 7 -37 16 -45 20
-20 73 -20 102 0 20 14 22 14 22 0 0 -12 10 -16 35 -16 35 0 43 8 26 25 -5 6
-11 50 -13 98 -2 74 -6 91 -22 103 -25 18 -81 17 -123 -1z m97 -135 c0 -20
-32 -60 -49 -60 -43 0 -55 39 -19 64 33 23 68 21 68 -4z"/>
<path d="M7600 2840 c0 -6 7 -13 15 -16 12 -5 15 -25 15 -94 0 -49 -4 -92 -10
-95 -23 -14 -7 -25 40 -25 48 0 66 12 35 24 -24 9 -21 137 3 159 23 21 58 22
66 1 3 -9 6 -47 6 -85 0 -53 -4 -71 -15 -75 -32 -13 -13 -24 40 -24 53 0 72
11 40 24 -12 4 -15 24 -15 88 0 100 -14 128 -63 128 -18 0 -43 -7 -55 -16 -20
-14 -22 -14 -22 0 0 12 -10 16 -40 16 -22 0 -40 -5 -40 -10z"/>
<path d="M7915 2817 c-32 -32 -35 -41 -35 -90 0 -45 5 -61 26 -86 21 -26 33
-31 69 -31 46 0 94 28 81 48 -5 9 -15 8 -37 -4 -38 -19 -64 -11 -79 27 -14 33
-8 102 10 124 18 22 57 18 70 -5 18 -33 42 -25 38 13 -3 31 -4 32 -56 35 -49
3 -56 0 -87 -31z"/>
<path d="M8137 2829 c-54 -41 -60 -147 -12 -195 32 -32 101 -33 139 -3 37 29
20 44 -24 23 -30 -15 -36 -16 -59 -3 -18 10 -27 25 -29 47 l-3 32 76 0 c66 0
76 2 71 16 -3 9 -6 24 -6 35 0 11 -11 31 -25 44 -31 32 -91 34 -128 4z m93
-28 c18 -34 11 -41 -35 -41 -25 0 -45 5 -45 11 0 25 22 49 45 49 14 0 29 -8
35 -19z"/>
<path d="M8450 2800 c0 -19 7 -20 150 -20 143 0 150 1 150 20 0 19 -7 20 -150
20 -143 0 -150 -1 -150 -20z"/>
<path d="M8454 2715 c-12 -30 7 -35 152 -35 l144 0 0 25 0 25 -145 0 c-118 0
-147 -3 -151 -15z"/>
<path d="M3385 2241 c-74 -45 -105 -110 -105 -222 0 -81 37 -162 89 -196 56
-37 71 -27 23 15 -52 46 -72 100 -72 196 0 89 32 166 80 191 17 9 28 20 25 25
-8 12 -5 13 -40 -9z"/>
<path d="M6273 2239 c15 -9 17 -28 17 -157 0 -102 -4 -152 -12 -160 -9 -9 -1
-12 36 -12 47 0 47 0 32 22 -13 18 -16 53 -16 170 l0 148 -37 0 c-31 -1 -35
-3 -20 -11z"/>
<path d="M2161 2214 c-39 -33 -42 -81 -8 -114 l23 -23 -23 -23 c-33 -33 -32
-92 3 -125 21 -19 36 -24 80 -23 61 0 98 26 109 75 7 30 -15 84 -37 92 -9 3
-6 11 10 29 32 35 30 90 -4 117 -40 31 -113 29 -153 -5z m121 -11 c22 -20 23
-70 1 -95 -19 -21 -62 -24 -87 -5 -22 16 -26 78 -7 101 17 21 69 20 93 -1z
m-2 -153 c41 -41 14 -130 -40 -130 -12 0 -32 12 -47 26 -21 21 -24 32 -19 62
9 61 65 83 106 42z"/>
<path d="M2450 2212 c-33 -33 -45 -90 -38 -182 5 -73 30 -111 81 -124 65 -17
114 35 124 127 13 128 -25 207 -99 207 -30 0 -46 -7 -68 -28z m106 -23 c12
-24 15 -54 12 -130 -3 -85 -6 -101 -25 -120 -25 -25 -45 -21 -69 16 -24 37
-25 202 -1 239 25 37 62 35 83 -5z"/>
<path d="M3470 2231 c0 -5 7 -11 15 -15 23 -8 22 -268 -1 -290 -14 -15 -11
-16 32 -16 41 0 45 2 31 13 -15 11 -17 28 -15 136 l3 124 41 -114 c53 -150 62
-151 119 -6 23 59 45 110 48 114 4 3 7 -45 7 -108 0 -88 -4 -120 -16 -137 -15
-22 -15 -22 38 -22 41 1 49 3 36 11 -16 9 -18 27 -18 146 0 115 3 139 17 155
17 19 16 19 -27 16 l-44 -3 -45 -112 c-39 -100 -61 -136 -61 -102 0 6 -17 58
-37 115 l-37 104 -43 0 c-24 0 -43 -4 -43 -9z"/>
<path d="M4811 2093 c-30 -81 -63 -155 -73 -165 -17 -17 -16 -18 38 -18 55 0
56 0 36 18 -18 15 -19 21 -9 52 12 34 14 35 66 38 37 2 57 -1 62 -10 13 -19
11 -72 -3 -86 -9 -9 1 -12 45 -12 54 0 56 1 40 18 -10 9 -38 83 -62 165 -39
128 -47 147 -65 147 -18 0 -29 -23 -75 -147z m88 28 c12 -38 21 -72 21 -75 0
-3 -22 -6 -50 -6 l-49 0 26 75 c15 41 28 75 29 75 1 0 11 -31 23 -69z"/>
<path d="M6520 2231 c0 -5 7 -11 15 -15 23 -8 22 -268 -1 -290 -14 -15 -11
-16 37 -16 50 0 51 1 36 18 -11 12 -17 36 -17 69 l0 51 57 4 c68 6 103 37 103
94 0 48 -14 70 -51 83 -38 13 -179 15 -179 2z m158 -27 c17 -12 22 -25 22 -59
0 -51 -24 -75 -77 -75 l-33 0 0 68 c0 38 3 72 7 75 12 12 58 7 81 -9z"/>
<path d="M5910 2210 c0 -15 7 -20 25 -20 18 0 25 5 25 20 0 15 -7 20 -25 20
-18 0 -25 -5 -25 -20z"/>
<path d="M5290 2175 c0 -14 -9 -30 -20 -37 -25 -16 -26 -30 -2 -26 15 3 17 -8
20 -87 2 -77 5 -92 23 -107 28 -24 52 -23 80 3 l24 20 -28 -6 c-47 -10 -57 7
-57 102 l0 85 38 -4 c20 -1 37 2 37 7 0 6 -17 11 -37 13 -35 3 -38 6 -38 33 0
22 -5 29 -20 29 -15 0 -20 -7 -20 -25z"/>
<path d="M2822 2167 c-9 -10 0 -25 43 -67 l55 -54 -56 -57 c-38 -38 -52 -59
-44 -64 7 -5 33 13 66 46 l54 53 55 -54 c43 -43 57 -52 67 -42 10 10 1 24 -42
67 l-54 55 54 55 c36 37 51 58 44 65 -7 7 -28 -8 -64 -45 l-54 -55 -57 56
c-45 45 -58 53 -67 41z"/>
<path d="M3909 2111 c-26 -26 -29 -36 -29 -90 0 -49 4 -65 24 -88 32 -37 103
-40 138 -6 29 29 19 38 -19 17 -52 -30 -103 3 -103 66 0 18 7 20 76 20 l77 0
-6 38 c-8 47 -38 72 -89 72 -30 0 -46 -7 -69 -29z m110 -22 c6 -18 11 -34 11
-35 0 -2 -25 -4 -56 -4 -53 0 -55 1 -48 23 10 35 24 47 54 47 22 0 30 -6 39
-31z"/>
<path d="M4153 2125 c-36 -15 -42 -32 -17 -42 9 -3 21 3 30 16 29 41 84 21 84
-30 0 -24 -5 -28 -51 -39 -57 -14 -89 -39 -89 -70 0 -27 35 -60 64 -60 13 0
35 9 49 20 30 24 37 25 37 5 0 -10 10 -15 32 -15 29 0 30 1 15 18 -13 14 -17
38 -17 103 0 53 -5 90 -12 97 -16 16 -85 15 -125 -3z m97 -132 c0 -52 -60 -84
-91 -47 -16 19 -3 43 32 61 40 21 59 16 59 -14z"/>
<path d="M4360 2134 c0 -3 7 -13 16 -21 22 -22 17 -179 -6 -193 -11 -7 -1 -10
35 -10 38 0 46 3 37 12 -19 19 -16 153 4 172 21 22 61 20 74 -3 16 -32 13
-147 -6 -165 -14 -15 -11 -16 38 -16 41 1 49 3 36 11 -15 8 -18 24 -18 92 0
99 -14 127 -63 127 -18 0 -41 -7 -51 -15 -25 -19 -37 -19 -30 0 5 12 -2 15
-30 15 -20 0 -36 -3 -36 -6z"/>
<path d="M5063 2126 c14 -11 17 -29 17 -103 0 -56 -4 -93 -12 -101 -9 -9 -1
-12 37 -12 46 0 47 1 32 18 -11 12 -17 36 -17 70 0 87 29 130 71 104 28 -18
39 -14 39 13 0 21 -5 25 -29 25 -15 0 -40 -9 -55 -21 l-26 -20 0 20 c0 18 -6
21 -37 21 -34 -1 -36 -2 -20 -14z"/>
<path d="M5483 2122 c-42 -33 -56 -117 -29 -171 16 -29 53 -51 89 -51 26 0 87
35 87 50 0 14 -11 12 -34 -5 -43 -33 -103 -5 -108 50 l-3 30 77 3 77 3 -6 32
c-9 50 -40 77 -87 77 -23 0 -50 -8 -63 -18z m97 -23 c21 -39 13 -49 -40 -49
-42 0 -50 3 -50 18 0 53 66 76 90 31z"/>
<path d="M5693 2122 c24 -26 24 -173 1 -196 -14 -15 -11 -16 38 -16 41 1 49 3
36 11 -28 16 -26 149 3 175 16 15 24 16 39 6 32 -20 48 -15 42 13 -6 32 -46
34 -79 3 l-23 -21 0 21 c0 19 -6 22 -37 22 -34 0 -35 -1 -20 -18z"/>
<path d="M5890 2134 c0 -3 7 -12 15 -20 21 -22 21 -151 -1 -182 -15 -22 -15
-22 32 -22 37 0 45 3 36 12 -8 8 -12 48 -12 115 l0 103 -35 0 c-19 0 -35 -3
-35 -6z"/>
<path d="M6068 2128 c-17 -6 -28 -17 -28 -29 0 -25 22 -24 38 1 14 22 54 27
69 8 6 -7 13 -25 15 -40 4 -24 1 -28 -26 -33 -71 -14 -94 -26 -106 -55 -26
-62 35 -99 102 -62 30 16 38 17 38 6 0 -9 11 -14 31 -14 24 0 29 3 21 13 -5 6
-12 51 -14 99 -3 50 -10 93 -17 102 -15 18 -80 20 -123 4z m94 -114 c9 -8 -10
-66 -24 -76 -43 -27 -90 11 -62 50 16 23 73 40 86 26z"/>
<path d="M6803 2126 c14 -11 17 -29 17 -103 0 -56 -4 -93 -12 -101 -9 -9 -1
-12 36 -12 41 0 47 2 37 14 -8 9 -11 43 -9 92 2 60 7 79 20 88 13 8 23 8 38
-2 29 -18 40 -15 40 13 0 21 -5 25 -29 25 -15 0 -40 -9 -55 -21 l-26 -20 0 20
c0 18 -6 21 -37 21 -34 -1 -36 -2 -20 -14z"/>
<path d="M7057 2129 c-51 -30 -65 -147 -23 -196 20 -23 32 -28 68 -28 44 1
103 30 92 46 -3 5 -18 2 -34 -6 -16 -8 -38 -15 -49 -15 -25 0 -61 45 -61 76 0
23 3 24 79 24 l79 0 -9 38 c-4 20 -18 45 -30 55 -23 19 -84 22 -112 6z m93
-35 c16 -41 13 -44 -46 -44 -53 0 -55 1 -48 23 11 35 24 47 55 47 22 0 32 -6
39 -26z"/>
<path d="M7275 2115 c-41 -40 -32 -64 41 -104 34 -18 50 -33 52 -50 6 -42 -51
-57 -83 -21 -24 27 -35 25 -35 -4 0 -22 6 -26 44 -31 73 -11 116 13 116 65 0
31 -27 58 -79 80 -55 22 -51 70 5 70 22 0 37 -6 40 -15 10 -25 34 -17 34 10 0
24 -3 25 -55 25 -46 0 -60 -4 -80 -25z"/>
<path d="M7493 2125 c-26 -19 -31 -66 -9 -85 8 -6 34 -21 58 -33 24 -12 44
-30 46 -40 9 -45 -52 -63 -88 -27 -27 27 -40 25 -40 -4 0 -20 6 -25 40 -31 54
-9 98 2 116 31 26 39 11 69 -49 101 -40 22 -52 33 -52 52 0 35 37 46 68 20 33
-25 49 -24 45 4 -3 19 -10 22 -58 25 -38 2 -62 -2 -77 -13z"/>
<path d="M7683 2126 c14 -11 17 -29 17 -100 0 -73 3 -89 20 -106 25 -25 46
-25 87 -1 31 19 31 19 36 0 5 -20 32 -25 55 -10 10 6 10 10 -3 21 -12 10 -15
34 -15 111 l0 99 -37 0 c-34 -1 -36 -2 -20 -14 13 -11 17 -29 17 -89 0 -67 -3
-78 -22 -91 -28 -20 -43 -20 -62 0 -12 12 -16 37 -16 105 l0 89 -37 0 c-34 -1
-36 -2 -20 -14z"/>
<path d="M7963 2126 c14 -11 17 -29 17 -103 0 -56 -4 -93 -12 -101 -9 -9 -1
-12 37 -12 46 0 47 1 32 18 -23 25 -23 129 -1 160 16 23 48 29 59 12 12 -20
35 -10 35 15 0 21 -5 25 -29 25 -15 0 -40 -9 -55 -21 l-26 -20 0 20 c0 18 -6
21 -37 21 -34 -1 -36 -2 -20 -14z"/>
<path d="M8199 2111 c-26 -26 -29 -36 -29 -90 0 -81 28 -116 92 -116 29 0 52
7 70 21 35 28 25 37 -17 17 -42 -20 -78 -11 -93 22 -26 58 -19 65 63 65 l75 0
0 30 c0 77 -103 109 -161 51z m110 -17 c18 -40 14 -44 -44 -44 -63 0 -71 15
-31 55 29 29 59 24 75 -11z"/>
<path d="M8537 2064 c-4 -4 -7 -13 -7 -21 0 -10 32 -13 151 -13 138 0 150 1
147 18 -3 15 -19 17 -144 20 -77 1 -143 -1 -147 -4z"/>
<path d="M4513 1616 c15 -12 17 -32 17 -159 0 -86 -4 -148 -10 -152 -23 -14
-7 -25 35 -25 44 0 60 12 30 24 -21 8 -21 133 1 164 17 24 53 29 72 10 15 -15
16 -164 2 -173 -23 -14 -7 -25 35 -25 49 0 53 4 30 26 -11 11 -15 38 -15 98 0
68 -3 86 -18 99 -25 23 -64 21 -96 -4 l-26 -20 0 75 0 76 -37 0 c-34 -1 -36
-2 -20 -14z"/>
<path d="M6143 1612 c14 -15 17 -42 17 -160 0 -83 -4 -143 -10 -147 -23 -14
-7 -25 35 -25 44 0 60 12 30 24 -12 4 -15 32 -15 166 l0 160 -37 0 c-34 0 -35
-1 -20 -18z"/>
<path d="M8304 1588 c49 -48 66 -93 66 -179 0 -88 -24 -152 -72 -193 -36 -31
-39 -36 -20 -36 32 0 105 77 120 126 6 23 12 67 12 99 0 32 -6 76 -12 99 -15
48 -88 126 -118 126 -17 0 -13 -7 24 -42z"/>
<path d="M2540 1612 c0 -6 7 -12 15 -16 12 -4 15 -30 15 -140 0 -106 -3 -138
-15 -150 -23 -22 -19 -26 25 -26 40 0 48 7 31 25 -11 12 -19 255 -8 255 4 0 7
-6 7 -12 1 -30 80 -223 92 -226 10 -2 28 33 58 110 24 62 47 117 51 121 4 5 5
-49 2 -120 -3 -70 -10 -129 -14 -131 -24 -10 -4 -22 36 -22 42 0 58 11 35 25
-6 4 -10 63 -10 145 0 82 4 141 10 145 22 14 8 26 -27 23 l-38 -3 -45 -112
c-24 -62 -47 -113 -50 -113 -3 0 -23 51 -45 113 l-40 112 -42 3 c-24 2 -43 -1
-43 -6z"/>
<path d="M3820 1614 c0 -3 7 -12 15 -20 12 -12 15 -44 15 -150 0 -110 -3 -136
-15 -140 -31 -12 -13 -24 35 -24 54 0 58 3 35 26 -10 10 -15 35 -15 70 0 53 0
54 30 54 26 0 34 -8 71 -75 38 -71 43 -75 75 -75 38 0 43 9 14 28 -11 6 -31
35 -45 62 -14 28 -33 54 -41 57 -12 4 -7 12 20 35 29 24 36 37 36 64 0 50 -15
72 -58 84 -39 10 -172 14 -172 4z m166 -35 c8 -7 14 -30 14 -55 0 -50 -25 -74
-77 -74 l-33 0 0 68 c0 38 3 72 8 76 9 10 70 0 88 -15z"/>
<path d="M5129 1473 c-29 -81 -62 -155 -71 -165 -10 -10 -18 -20 -18 -23 0 -3
23 -5 50 -5 49 0 66 12 34 24 -12 5 -15 14 -10 38 9 48 23 58 77 58 44 0 51
-3 59 -26 15 -39 12 -74 -6 -74 -8 0 -12 -4 -9 -10 7 -12 105 -14 105 -2 0 4
-6 14 -12 20 -7 7 -33 79 -58 160 -38 122 -49 147 -66 150 -17 2 -27 -16 -75
-145z m103 -36 c3 -16 -5 -19 -44 -21 -27 -1 -48 1 -48 4 0 3 12 39 27 79 l27
75 18 -60 c10 -32 19 -67 20 -77z"/>
<path d="M6390 1610 c0 -5 5 -10 10 -10 6 0 10 -57 10 -150 0 -93 -4 -150 -10
-150 -5 0 -10 -4 -10 -10 0 -5 23 -10 50 -10 48 0 66 12 35 24 -11 4 -15 21
-15 66 l0 60 49 0 c62 0 99 28 108 82 7 49 -15 84 -64 97 -48 14 -163 14 -163
1z m161 -36 c23 -21 25 -71 3 -102 -11 -16 -25 -22 -55 -22 l-39 0 0 76 0 77
36 -6 c20 -3 45 -14 55 -23z"/>
<path d="M4150 1591 c0 -10 9 -21 19 -24 25 -6 30 -1 24 24 -7 25 -43 25 -43
0z"/>
<path d="M5780 1591 c0 -10 9 -21 19 -24 25 -6 30 -1 24 24 -7 25 -43 25 -43
0z"/>
<path d="M4810 1556 c0 -15 -8 -31 -20 -38 -11 -7 -20 -16 -20 -20 0 -5 9 -8
20 -8 18 0 20 -7 20 -88 0 -73 3 -92 18 -105 22 -20 42 -21 77 -5 32 15 33 30
0 22 -43 -11 -55 10 -55 97 l0 78 38 3 c48 4 48 22 0 26 -32 3 -37 7 -40 30
-4 37 -38 44 -38 8z"/>
<path d="M5400 1556 c0 -15 -8 -31 -20 -38 -11 -7 -20 -16 -20 -20 0 -5 9 -8
20 -8 19 0 20 -7 20 -89 0 -68 4 -93 16 -105 21 -22 57 -20 85 4 l24 20 -28
-6 c-46 -10 -57 8 -57 97 l0 78 38 3 c48 4 48 22 0 26 -32 3 -37 7 -40 30 -4
37 -38 44 -38 8z"/>
<path d="M2985 1498 c-74 -65 -34 -218 57 -218 36 0 88 29 88 48 0 12 -5 11
-25 -2 -50 -33 -115 -6 -115 49 0 24 2 25 75 25 74 0 75 0 75 25 0 33 -25 81
-45 89 -35 13 -84 6 -110 -16z m93 -10 c5 -7 12 -24 14 -38 3 -24 0 -25 -49
-28 -46 -3 -53 -1 -53 15 0 48 61 83 88 51z"/>
<path d="M3223 1505 c-36 -15 -42 -32 -17 -42 9 -3 21 3 30 16 17 23 53 28 72
9 7 -7 12 -26 12 -44 0 -30 -2 -32 -46 -37 -63 -7 -102 -44 -88 -84 15 -42 56
-53 105 -26 38 21 39 21 39 2 0 -14 7 -19 30 -19 34 0 37 5 15 26 -11 11 -15
38 -15 99 0 63 -4 88 -16 99 -19 20 -78 20 -121 1z m97 -134 c0 -16 -7 -37
-16 -46 -20 -20 -63 -16 -78 7 -13 22 15 55 53 61 14 2 29 5 34 6 4 0 7 -12 7
-28z"/>
<path d="M3430 1511 c0 -6 5 -11 10 -11 6 0 10 -40 10 -100 0 -60 -4 -100 -10
-100 -5 0 -10 -4 -10 -10 0 -5 20 -10 45 -10 25 0 45 5 45 10 0 6 -4 10 -10
10 -6 0 -10 33 -10 78 0 64 4 82 18 95 28 26 61 21 72 -9 16 -40 12 -140 -5
-158 -23 -22 -19 -26 30 -26 44 0 54 7 36 26 -5 5 -11 49 -13 97 -2 74 -6 91
-22 103 -28 20 -69 17 -94 -6 -26 -25 -34 -25 -30 -2 2 13 -5 18 -29 20 -19 2
-33 -1 -33 -7z"/>
<path d="M4120 1511 c0 -5 7 -11 15 -15 12 -4 15 -25 15 -95 0 -49 -4 -93 -10
-96 -23 -14 -7 -25 35 -25 49 0 53 4 30 26 -11 12 -15 40 -15 115 l0 99 -35 0
c-19 0 -35 -4 -35 -9z"/>
<path d="M4295 1495 c-29 -28 -32 -70 -9 -103 15 -21 15 -25 0 -41 -18 -20
-21 -42 -6 -57 8 -8 6 -15 -5 -24 -22 -18 -19 -67 4 -80 11 -5 46 -10 79 -10
75 0 112 25 112 75 0 43 -17 55 -87 61 -76 7 -84 10 -77 29 4 10 20 15 51 15
34 0 50 6 70 26 22 22 25 31 20 69 -6 39 -5 43 13 38 14 -4 20 0 20 11 0 13
-13 16 -80 16 -73 0 -83 -3 -105 -25z m106 -22 c25 -66 -32 -124 -73 -73 -35
43 -16 100 33 100 23 0 32 -6 40 -27z m23 -209 c26 -25 17 -47 -28 -64 -60
-23 -120 15 -96 60 8 16 21 20 60 20 31 0 54 -6 64 -16z"/>
<path d="M5550 1510 c0 -5 5 -10 10 -10 6 0 10 -38 10 -94 0 -53 -4 -98 -10
-101 -23 -14 -7 -25 35 -25 41 0 61 13 33 22 -16 6 -23 112 -8 148 15 36 45
48 69 26 25 -23 31 -20 31 14 0 26 -4 30 -26 30 -14 0 -39 -9 -55 -21 l-29
-20 0 20 c0 17 -6 21 -30 21 -16 0 -30 -4 -30 -10z"/>
<path d="M5750 1511 c0 -5 7 -11 15 -15 12 -4 15 -25 15 -95 0 -49 -4 -93 -10
-96 -23 -14 -7 -25 35 -25 49 0 53 4 30 26 -11 12 -15 40 -15 115 l0 99 -35 0
c-19 0 -35 -4 -35 -9z"/>
<path d="M5933 1505 c-18 -8 -33 -21 -33 -30 0 -22 33 -19 48 5 27 44 82 15
82 -44 0 -22 -5 -26 -29 -26 -90 0 -148 -73 -89 -114 30 -21 60 -20 91 4 25
20 25 20 30 0 4 -15 14 -20 36 -20 32 0 42 14 16 24 -12 4 -15 24 -15 94 0 73
-3 92 -18 105 -22 21 -75 21 -119 2z m97 -132 c0 -35 -27 -63 -61 -63 -58 0
-41 74 20 83 14 2 29 5 34 6 4 0 7 -11 7 -26z"/>
<path d="M6660 1511 c0 -5 7 -11 15 -15 12 -4 15 -25 15 -95 0 -49 -4 -93 -10
-96 -23 -14 -7 -25 35 -25 44 0 60 12 30 24 -21 8 -21 133 1 164 18 26 42 28
59 5 16 -21 35 -9 35 23 0 20 -5 24 -29 24 -15 0 -40 -9 -55 -21 l-26 -20 0
20 c0 17 -6 21 -35 21 -19 0 -35 -4 -35 -9z"/>
<path d="M6917 1499 c-46 -35 -56 -132 -20 -185 13 -18 50 -34 78 -34 32 0 85
29 85 47 0 17 -15 16 -30 -2 -7 -8 -27 -15 -46 -15 -37 0 -64 29 -64 67 0 22
4 23 70 23 77 0 88 8 76 55 -16 62 -97 86 -149 44z m91 -11 c5 -7 12 -24 14
-38 3 -24 0 -25 -49 -28 -46 -3 -53 -1 -53 15 0 48 61 83 88 51z"/>
<path d="M7152 1508 c-26 -13 -39 -54 -25 -77 5 -9 33 -29 61 -44 52 -28 64
-51 40 -75 -19 -19 -66 -14 -80 8 -16 26 -38 26 -38 0 0 -25 29 -40 78 -40 67
0 112 53 83 99 -5 7 -31 25 -57 40 -39 20 -49 31 -49 51 0 35 48 40 81 9 21
-19 24 -20 30 -5 13 33 -3 46 -53 45 -26 0 -58 -5 -71 -11z"/>
<path d="M7362 1503 c-21 -18 -26 -31 -23 -65 1 -10 22 -28 51 -43 27 -14 54
-33 59 -43 24 -45 -47 -73 -84 -32 -24 26 -35 25 -35 -4 0 -26 21 -36 80 -36
102 0 113 108 15 140 -42 14 -62 44 -44 66 17 21 67 18 81 -6 18 -28 30 -25
26 8 -3 25 -7 27 -54 30 -37 2 -56 -2 -72 -15z"/>
<path d="M7540 1511 c0 -5 7 -11 15 -15 12 -4 15 -25 15 -95 0 -85 1 -91 25
-107 28 -18 69 -13 98 13 16 15 17 14 17 -5 0 -18 6 -22 35 -22 36 0 47 13 20
24 -12 4 -15 26 -15 111 l0 105 -35 0 c-36 0 -47 -13 -20 -24 11 -4 15 -22 15
-76 0 -75 -19 -110 -58 -110 -34 0 -42 21 -42 117 l0 93 -35 0 c-19 0 -35 -4
-35 -9z"/>
<path d="M7820 1511 c0 -5 7 -11 15 -15 22 -8 22 -184 0 -192 -27 -11 -5 -24
41 -24 43 0 59 12 29 24 -24 9 -21 147 3 169 23 21 31 21 53 1 22 -20 39 -10
39 22 0 20 -5 24 -29 24 -15 0 -40 -9 -55 -21 l-26 -20 0 20 c0 17 -6 21 -35
21 -19 0 -35 -4 -35 -9z"/>
<path d="M8070 1492 c-35 -35 -45 -85 -30 -141 8 -32 19 -45 44 -58 41 -19 95
-11 121 17 24 26 13 37 -17 16 -48 -34 -100 -12 -110 46 l-5 27 76 3 76 3 -2
33 c-3 79 -96 111 -153 54z m98 -4 c7 -7 12 -25 12 -40 0 -27 -2 -28 -50 -28
-41 0 -50 3 -50 18 0 47 58 80 88 50z"/>
<path d="M2100 1095 c0 -13 383 -15 3385 -15 3002 0 3385 2 3385 15 0 13 -383
15 -3385 15 -3002 0 -3385 -2 -3385 -15z"/>
<path d="M6303 961 c-80 -58 -110 -197 -67 -316 12 -35 54 -85 85 -100 42 -22
56 -8 17 18 -54 36 -78 97 -78 197 0 100 24 161 77 196 18 12 29 24 26 28 -10
10 -18 7 -60 -23z"/>
<path d="M6870 970 c-20 -38 -190 -425 -190 -433 0 -5 7 -7 16 -5 11 2 51 83
115 227 55 124 99 226 99 228 0 12 -31 -1 -40 -17z"/>
<path d="M7820 982 c0 -4 14 -16 30 -25 113 -67 102 -339 -15 -405 -32 -17
-10 -25 24 -8 47 25 80 66 96 120 31 102 10 218 -47 273 -44 41 -88 64 -88 45z"/>
<path d="M3872 963 c-21 -4 -21 -6 -7 -26 8 -12 15 -36 15 -54 0 -33 0 -33
-49 -33 -58 0 -94 -24 -111 -75 -14 -43 -5 -107 20 -137 22 -27 80 -30 108 -5
25 22 32 21 32 -4 0 -15 4 -19 16 -15 9 3 25 6 37 6 19 0 19 1 4 13 -14 10
-17 36 -19 171 -2 96 -7 160 -13 161 -5 1 -20 0 -33 -2z m-8 -144 c5 -5 12
-35 14 -68 4 -54 2 -62 -21 -85 -29 -29 -45 -32 -72 -12 -13 10 -20 30 -23 74
-4 55 -2 63 22 87 26 26 55 27 80 4z"/>
<path d="M3036 920 c-60 -53 -73 -180 -26 -257 25 -42 80 -59 146 -47 44 8 49
12 52 38 5 41 -12 52 -32 21 -40 -61 -105 -50 -132 22 -22 57 -15 164 13 202
29 38 84 41 111 7 28 -36 44 -33 40 7 l-3 32 -67 3 c-62 3 -69 1 -102 -28z"/>
<path d="M4017 944 c-4 -4 -7 -16 -7 -26 0 -13 7 -18 26 -18 21 0 25 4 22 22
-3 23 -27 35 -41 22z"/>
<path d="M4768 932 c-43 -26 -63 -76 -62 -159 0 -57 4 -79 20 -100 63 -87 181
-76 225 20 35 78 20 187 -32 231 -37 31 -108 35 -151 8z m125 -33 c28 -38 35
-145 13 -202 -27 -71 -92 -83 -130 -24 -35 53 -32 184 6 232 27 35 82 32 111
-6z"/>
<path d="M6471 933 c14 -25 -44 -283 -68 -300 -14 -11 2 -13 89 -13 l105 0 12
41 c13 44 6 66 -13 35 -25 -44 -46 -56 -91 -56 -31 0 -43 4 -40 13 2 6 16 68
31 137 14 69 33 133 42 143 14 16 12 17 -32 17 -41 0 -45 -2 -35 -17z"/>
<path d="M7450 941 c0 -5 -3 -16 -6 -25 -4 -11 0 -16 14 -16 18 0 32 18 32 41
0 5 -9 9 -20 9 -11 0 -20 -4 -20 -9z"/>
<path d="M5330 896 c0 -7 -9 -25 -21 -40 -17 -21 -18 -26 -5 -26 13 0 16 -14
16 -79 0 -95 10 -126 44 -135 30 -7 76 12 76 32 0 11 -3 12 -15 2 -20 -16 -54
-3 -61 23 -3 13 -4 52 -2 87 l3 65 38 3 c50 4 48 22 -3 22 -38 0 -40 2 -40 30
0 20 -5 30 -15 30 -8 0 -15 -6 -15 -14z"/>
<path d="M6057 903 c-4 -3 -7 -14 -7 -24 0 -10 -10 -25 -22 -33 l-22 -16 22 0
c21 0 22 -4 22 -86 0 -96 8 -119 46 -128 28 -7 74 15 74 36 0 9 -3 9 -12 0
-18 -18 -46 -14 -58 7 -5 11 -10 54 -10 95 l0 76 40 0 c22 0 40 5 40 10 0 6
-18 10 -40 10 -38 0 -40 2 -40 30 0 28 -17 40 -33 23z"/>
<path d="M3298 838 c-17 -6 -28 -17 -28 -29 0 -25 26 -24 40 1 14 27 65 27 80
1 22 -43 13 -57 -44 -70 -29 -7 -61 -20 -71 -31 -24 -26 -16 -71 16 -89 24
-13 30 -13 68 6 31 16 41 17 41 7 0 -10 12 -14 38 -14 30 1 34 3 20 11 -15 8
-18 24 -18 92 0 105 -13 127 -73 126 -23 0 -54 -5 -69 -11z m102 -133 c0 -35
-35 -67 -68 -63 -23 2 -27 8 -27 33 0 32 30 55 73 55 17 0 22 -6 22 -25z"/>
<path d="M3513 832 c25 -28 24 -187 0 -201 -14 -8 -5 -10 37 -10 42 0 51 2 38
10 -26 15 -26 149 0 172 21 19 48 22 57 7 12 -20 35 -10 35 15 0 21 -5 25 -32
25 -19 0 -41 -9 -55 -22 l-23 -21 0 21 c0 19 -6 22 -37 22 -34 0 -35 -1 -20
-18z"/>
<path d="M4001 834 c16 -19 13 -182 -3 -201 -8 -10 0 -13 38 -13 37 0 45 3 36
12 -8 8 -12 48 -12 115 l0 103 -36 0 c-32 0 -35 -2 -23 -16z"/>
<path d="M4168 838 c-17 -6 -28 -17 -28 -29 0 -25 22 -24 38 1 14 22 51 27 70
8 7 -7 12 -24 12 -40 0 -24 -5 -28 -37 -34 -80 -14 -116 -51 -93 -93 22 -42
82 -50 111 -15 15 18 29 18 29 -1 0 -10 10 -15 31 -15 24 0 29 3 21 13 -5 6
-12 51 -14 99 -3 50 -10 93 -17 102 -15 18 -80 20 -123 4z m92 -135 c0 -33
-26 -63 -56 -63 -48 0 -49 61 -1 80 41 17 57 12 57 -17z"/>
<path d="M4417 830 c-76 -60 -51 -198 38 -215 31 -6 95 25 95 45 0 14 -11 12
-34 -5 -51 -39 -96 -1 -96 80 0 46 4 60 25 80 13 14 28 25 34 25 12 0 41 -28
41 -41 0 -5 7 -9 15 -9 10 0 15 10 15 30 0 30 -1 30 -54 30 -38 0 -60 -6 -79
-20z"/>
<path d="M5027 838 c6 -7 13 -53 15 -102 4 -79 7 -91 28 -108 26 -21 63 -18
91 8 22 19 29 18 29 -7 0 -15 4 -19 16 -15 9 3 25 6 37 6 20 1 20 2 5 11 -15
8 -18 26 -18 114 l0 105 -36 0 c-34 0 -35 -1 -20 -22 24 -34 21 -129 -5 -162
-23 -29 -50 -34 -69 -11 -7 9 -14 52 -16 103 l-3 87 -33 3 c-25 3 -30 1 -21
-10z"/>
<path d="M5483 832 c24 -26 25 -289 2 -298 -31 -12 -13 -24 37 -24 49 0 50 1
35 18 -10 10 -17 34 -17 54 l0 34 50 0 c41 -1 54 4 77 27 25 25 28 34 28 96 0
54 -4 74 -19 90 -23 26 -76 28 -111 5 -23 -15 -25 -15 -25 0 0 12 -10 16 -37
16 -34 0 -35 -1 -20 -18z m137 -12 c45 -24 50 -145 7 -175 -52 -37 -87 -5 -87
79 0 66 4 77 35 94 25 14 23 14 45 2z"/>
<path d="M5758 838 c7 -7 12 -44 12 -95 0 -77 2 -86 26 -109 27 -28 63 -27 95
2 21 19 30 18 27 -3 -2 -10 3 -18 10 -17 6 1 22 2 33 3 16 1 19 4 11 14 -6 7
-13 58 -14 113 l-3 99 -34 3 c-30 3 -33 1 -22 -11 8 -10 11 -42 9 -93 -3 -74
-4 -79 -31 -94 -27 -14 -29 -14 -48 9 -15 19 -19 39 -19 107 l0 84 -32 0 c-25
0 -29 -3 -20 -12z"/>
<path d="M6959 831 c-13 -10 -21 -23 -17 -27 5 -4 16 0 26 9 10 10 22 17 25
17 13 0 7 -64 -12 -137 l-19 -73 22 0 c19 0 24 9 35 62 15 76 34 113 66 134
47 31 57 -10 30 -121 -18 -77 -18 -75 4 -75 16 0 22 11 31 58 21 100 75 172
106 140 11 -11 11 -26 -3 -95 -14 -68 -15 -84 -4 -97 18 -21 33 -20 65 5 32
25 35 47 4 25 -12 -9 -26 -16 -30 -16 -12 0 -9 36 8 103 19 75 9 107 -34 107
-16 0 -41 -9 -55 -20 -14 -11 -27 -20 -30 -20 -3 0 -7 9 -10 20 -8 29 -58 26
-96 -5 l-30 -26 -3 23 c-4 31 -46 36 -79 9z"/>
<path d="M7410 835 c11 -13 10 -30 -5 -93 -19 -86 -18 -110 7 -126 13 -8 23
-6 45 10 14 11 29 27 31 35 4 10 0 9 -15 -3 -11 -10 -25 -18 -31 -18 -19 0
-17 12 23 188 5 20 2 22 -31 22 -32 0 -35 -2 -24 -15z"/>
<path d="M7542 832 c-13 -10 -20 -21 -16 -25 4 -4 16 1 26 10 34 31 40 3 18
-91 -25 -106 -25 -106 -1 -106 16 0 22 11 31 58 15 68 29 99 64 131 23 22 28
23 41 10 14 -13 13 -24 -2 -96 -14 -68 -15 -84 -4 -97 18 -21 33 -20 65 5 32
25 35 47 4 25 -12 -9 -26 -16 -30 -16 -12 0 -9 36 8 103 20 77 9 107 -37 107
-22 0 -39 -9 -59 -30 l-29 -31 -3 28 c-4 35 -42 42 -76 15z"/>
</g>
</svg>
