<?xml version="1.0" standalone="no"?>
<!DOCTYPE svg PUBLIC "-//W3C//DTD SVG 20010904//EN"
 "http://www.w3.org/TR/2001/REC-SVG-20010904/DTD/svg10.dtd">
<svg version="1.0" xmlns="http://www.w3.org/2000/svg"
 width="1080" height="510" viewBox="0 0 1080 510"
 preserveAspectRatio="xMidYMid meet">

<g transform="translate(0.000000,510.000000) scale(0.100000,-0.100000)"
fill="#000000" stroke="none">
<path d="M4000 4701 c0 -6 5 -13 10 -16 6 -3 10 -21 10 -39 0 -32 -1 -33 -40
-33 -44 0 -64 -13 -86 -54 -18 -35 -18 -70 0 -114 18 -43 57 -56 98 -32 24 14
28 14 28 2 0 -10 11 -15 35 -15 34 0 46 12 25 25 -6 4 -10 63 -10 146 l0 139
-35 0 c-19 0 -35 -4 -35 -9z m8 -123 c18 -18 15 -113 -4 -132 -21 -22 -40 -20
-58 6 -44 63 12 176 62 126z"/>
<path d="M3319 4685 c-42 -23 -62 -76 -57 -157 3 -64 7 -73 36 -99 54 -48 162
-37 162 16 0 36 -20 42 -42 12 -28 -38 -72 -37 -93 3 -28 55 -17 178 19 202
22 15 65 8 76 -12 6 -11 17 -20 25 -20 21 0 20 56 -1 64 -28 11 -98 6 -125 -9z"/>
<path d="M4730 4692 c0 -6 5 -14 10 -17 6 -4 10 -57 10 -125 0 -68 -4 -121
-10 -125 -23 -14 -7 -25 40 -25 48 0 67 14 35 26 -11 4 -15 21 -15 55 l0 49
43 0 c79 0 122 80 74 136 -23 27 -31 29 -106 32 -52 3 -81 0 -81 -6z m144 -44
c9 -12 16 -30 16 -40 0 -26 -36 -58 -65 -58 -24 0 -25 3 -25 60 0 60 0 60 29
60 20 0 35 -8 45 -22z"/>
<path d="M6069 4685 c-83 -45 -78 -243 7 -275 36 -14 70 -12 104 5 43 22 60
63 60 146 0 67 -2 73 -34 105 -27 27 -42 34 -72 34 -22 -1 -51 -7 -65 -15z
m106 -45 c18 -35 20 -145 2 -180 -17 -34 -66 -39 -92 -10 -27 30 -34 145 -11
188 14 27 22 32 51 32 28 0 37 -5 50 -30z"/>
<path d="M4140 4670 c0 -15 7 -20 25 -20 18 0 25 5 25 20 0 15 -7 20 -25 20
-18 0 -25 -5 -25 -20z"/>
<path d="M6540 4641 c0 -11 -10 -27 -22 -36 l-23 -15 23 -6 c20 -6 22 -12 22
-79 0 -80 13 -105 53 -105 23 1 57 21 57 35 0 4 -10 5 -22 2 -36 -10 -48 10
-48 79 l0 63 32 3 c46 4 49 28 4 28 -32 0 -36 3 -36 25 0 18 -5 25 -20 25 -13
0 -20 -7 -20 -19z"/>
<path d="M7167 4653 c-4 -3 -7 -15 -7 -25 0 -10 -7 -21 -15 -24 -8 -4 -15 -10
-15 -15 0 -5 7 -9 15 -9 12 0 15 -14 15 -68 0 -97 32 -133 91 -102 28 16 24
33 -6 26 -21 -5 -27 -2 -35 19 -6 15 -10 49 -10 76 l0 49 35 0 c46 0 49 27 3
32 -25 2 -34 8 -36 26 -3 21 -21 29 -35 15z"/>
<path d="M3545 4605 c-22 -8 -41 -15 -42 -15 -2 0 -3 -6 -3 -14 0 -26 21 -29
46 -5 30 28 57 17 62 -23 3 -23 -1 -26 -38 -31 -71 -9 -104 -62 -62 -100 23
-21 51 -22 79 -2 19 13 22 13 27 0 3 -9 18 -15 36 -15 33 0 38 11 15 30 -11 9
-15 33 -15 85 0 46 -5 76 -12 83 -24 19 -53 21 -93 7z m65 -124 c0 -22 -25
-51 -44 -51 -8 0 -20 7 -27 16 -11 14 -10 19 10 35 31 25 61 25 61 0z"/>
<path d="M3805 4604 c-19 -10 -31 -11 -33 -5 -4 13 -72 15 -72 2 0 -5 7 -11
15 -15 22 -8 22 -154 0 -162 -26 -10 -5 -24 35 -24 40 0 61 14 35 24 -21 8
-21 119 1 140 18 18 30 20 39 6 13 -22 36 -10 33 17 -4 33 -15 37 -53 17z"/>
<path d="M4285 4605 c-22 -8 -41 -15 -42 -15 -2 0 -3 -6 -3 -14 0 -26 21 -29
41 -7 32 34 69 21 69 -25 0 -17 -7 -22 -41 -27 -48 -6 -79 -31 -79 -63 0 -48
54 -69 97 -39 19 13 22 13 27 0 3 -9 18 -15 36 -15 33 0 38 11 15 30 -11 9
-15 33 -15 85 0 46 -5 76 -12 83 -24 19 -53 21 -93 7z m65 -124 c0 -22 -25
-51 -44 -51 -8 0 -20 7 -27 16 -11 14 -10 19 10 35 31 25 61 25 61 0z"/>
<path d="M4510 4609 c-42 -17 -60 -49 -60 -107 0 -43 5 -57 25 -77 35 -36 76
-33 134 11 1 1 0 7 -4 13 -4 7 -14 6 -30 -5 -50 -32 -93 15 -80 86 12 62 49
81 77 38 17 -26 38 -17 38 18 0 16 -6 24 -17 24 -10 0 -27 2 -38 5 -11 2 -31
0 -45 -6z"/>
<path d="M5025 4606 c-72 -31 -75 -167 -4 -196 45 -19 96 -5 119 33 35 57 17
148 -32 162 -48 14 -54 14 -83 1z m69 -38 c39 -55 4 -164 -44 -138 -27 14 -32
25 -32 73 -2 78 42 114 76 65z"/>
<path d="M5583 4605 c-41 -17 -53 -42 -53 -105 0 -41 5 -56 25 -75 31 -32 82
-33 119 -4 34 27 20 50 -15 25 -13 -9 -29 -16 -36 -16 -20 0 -53 38 -53 60 0
18 7 20 65 20 58 0 65 2 65 20 0 35 -22 69 -53 80 -16 5 -30 10 -31 10 -1 -1
-15 -7 -33 -15z m61 -31 c13 -35 7 -44 -34 -44 -44 0 -47 5 -24 38 18 26 49
29 58 6z"/>
<path d="M5835 4604 c-19 -10 -31 -11 -33 -5 -4 13 -72 15 -72 2 0 -5 7 -11
15 -15 11 -4 15 -23 15 -80 0 -41 -4 -78 -10 -81 -22 -13 -8 -25 29 -25 41 0
62 14 36 24 -21 8 -21 119 1 140 18 18 30 20 39 6 13 -22 36 -10 33 17 -4 33
-15 37 -53 17z"/>
<path d="M6758 4605 c-16 -7 -28 -10 -28 -4 0 5 -16 9 -35 9 -19 0 -35 -4 -35
-10 0 -5 5 -10 10 -10 6 0 10 -48 10 -124 0 -73 -4 -127 -10 -131 -23 -14 -7
-25 35 -25 42 0 58 11 35 25 -5 3 -10 21 -10 39 0 31 1 32 35 28 72 -9 121 65
97 147 -18 60 -57 81 -104 56z m52 -44 c13 -25 13 -87 0 -110 -13 -25 -37 -33
-61 -21 -15 9 -19 22 -19 68 0 32 5 63 12 70 18 18 56 14 68 -7z"/>
<path d="M4123 4592 c19 -21 25 -156 7 -167 -22 -13 -8 -25 29 -25 45 0 58 12
36 30 -11 9 -15 34 -15 96 l0 84 -37 0 c-34 0 -35 -1 -20 -18z"/>
<path d="M5180 4600 c0 -5 4 -10 9 -10 5 0 24 -43 41 -96 40 -119 54 -121 89
-15 27 82 28 81 57 -22 22 -81 40 -74 81 33 18 46 38 89 43 94 19 19 10 26
-30 26 -37 0 -39 -1 -28 -19 10 -16 8 -31 -7 -78 l-19 -58 -19 65 c-10 36 -20
71 -22 78 -3 6 -12 12 -22 12 -14 0 -24 -19 -42 -78 l-24 -77 -19 65 c-14 44
-16 66 -9 68 27 9 7 22 -34 22 -25 0 -45 -4 -45 -10z"/>
<path d="M6280 4601 c0 -6 5 -13 10 -16 6 -3 10 -39 10 -79 0 -58 4 -76 18
-89 23 -21 51 -22 80 -1 20 14 22 14 22 0 0 -12 10 -16 35 -16 34 0 46 12 25
25 -5 3 -10 46 -10 96 l0 89 -35 0 c-19 0 -35 -4 -35 -10 0 -5 5 -10 10 -10 6
0 10 -28 10 -63 0 -49 -4 -68 -18 -80 -41 -38 -62 -4 -62 99 l0 64 -30 0 c-16
0 -30 -4 -30 -9z"/>
<path d="M6900 4600 c0 -5 5 -10 10 -10 6 0 10 -28 10 -64 0 -36 4 -76 10 -90
12 -34 55 -44 92 -23 24 14 28 14 28 2 0 -10 10 -15 29 -15 33 0 49 15 26 24
-12 4 -15 25 -15 96 l0 90 -35 0 c-39 0 -42 -4 -20 -26 15 -16 21 -88 9 -118
-4 -9 -15 -21 -26 -27 -35 -19 -48 5 -48 92 l0 79 -35 0 c-19 0 -35 -4 -35
-10z"/>
<path d="M7390 4575 c0 -13 22 -15 135 -15 115 0 134 2 129 15 -5 12 -30 15
-135 15 -108 0 -129 -2 -129 -15z"/>
<path d="M7390 4485 c0 -13 19 -15 132 -13 94 2 133 7 136 16 3 9 -28 12 -132
12 -115 0 -136 -2 -136 -15z"/>
<path d="M8477 4072 c-42 -26 -77 -104 -77 -172 0 -95 33 -164 92 -193 46 -22
48 -12 6 23 -43 36 -60 81 -61 164 -1 82 17 130 61 166 39 32 25 41 -21 12z"/>
<path d="M8888 3895 c-67 -153 -82 -195 -70 -195 12 0 39 52 94 178 96 219 94
212 76 212 -9 0 -47 -74 -100 -195z"/>
<path d="M9832 4060 c54 -45 77 -134 57 -228 -9 -45 -19 -65 -51 -95 -22 -21
-38 -40 -36 -42 8 -9 70 30 87 54 67 97 47 274 -38 324 -47 28 -59 20 -19 -13z"/>
<path d="M3305 4070 c-24 -4 -26 -7 -12 -12 15 -7 17 -23 17 -136 0 -86 -4
-132 -12 -140 -9 -9 -2 -12 32 -12 34 0 41 3 32 12 -8 8 -12 56 -12 149 0 76
-3 140 -7 142 -5 2 -21 1 -38 -3z"/>
<path d="M6336 4062 c6 -4 13 -26 16 -50 3 -41 3 -43 -20 -37 -42 10 -88 -12
-107 -52 -20 -41 -14 -107 12 -135 20 -22 76 -24 93 -3 7 8 17 15 22 15 6 0 8
-7 4 -15 -4 -12 3 -15 32 -15 30 1 34 3 20 11 -16 9 -18 27 -18 149 l0 140
-32 0 c-18 0 -28 -4 -22 -8z m3 -116 c7 -9 11 -39 9 -77 -3 -59 -5 -64 -31
-73 -41 -15 -62 11 -62 78 0 30 6 60 14 69 17 21 54 22 70 3z"/>
<path d="M853 4042 c25 -27 25 -227 0 -254 -15 -17 -14 -18 27 -18 41 0 42 1
26 19 -14 15 -16 36 -13 122 2 63 6 96 11 84 4 -11 22 -58 39 -104 18 -47 37
-86 43 -88 6 -2 28 41 49 94 21 54 41 101 44 105 11 12 -1 -206 -11 -219 -8
-10 1 -13 38 -13 38 1 45 3 32 11 -16 9 -18 26 -18 134 0 108 2 125 18 134 14
8 9 10 -23 11 l-40 0 -39 -100 c-21 -55 -43 -97 -47 -94 -5 3 -9 9 -9 14 0 5
-14 47 -31 94 l-31 86 -40 0 c-39 0 -40 -1 -25 -18z"/>
<path d="M2026 3963 c-19 -54 -47 -119 -60 -145 l-24 -48 46 0 c41 0 44 1 27
14 -16 11 -17 19 -9 47 9 33 12 34 59 34 45 0 50 -2 59 -28 7 -20 7 -34 -2
-47 -11 -19 -9 -20 33 -20 45 0 45 0 31 23 -11 18 -43 114 -82 250 -3 9 -13
17 -23 17 -14 0 -27 -24 -55 -97z m68 -11 c9 -32 16 -61 16 -65 0 -4 -18 -7
-40 -7 -24 0 -40 5 -40 12 0 20 33 118 41 118 3 0 14 -26 23 -58z"/>
<path d="M2980 4041 c0 -15 6 -21 21 -21 14 0 19 5 17 17 -5 26 -38 29 -38 4z"/>
<path d="M3518 4048 c17 -17 17 -249 0 -266 -9 -9 -1 -12 37 -12 46 0 47 1 32
18 -10 11 -17 35 -17 59 l0 40 49 7 c59 8 91 40 91 92 0 53 -36 74 -128 74
-59 0 -73 -3 -64 -12z m134 -25 c42 -37 7 -113 -52 -113 l-30 0 0 65 0 65 32
0 c17 0 40 -7 50 -17z"/>
<path d="M5622 4035 c-61 -51 -67 -181 -11 -237 26 -27 34 -29 91 -26 l63 3 3
33 c4 36 -12 43 -28 11 -6 -11 -21 -24 -33 -28 -57 -21 -87 24 -87 129 0 66 2
74 30 101 33 34 64 33 89 -2 19 -27 33 -23 29 9 -3 25 -6 27 -59 30 -49 3 -61
-1 -87 -23z"/>
<path d="M6477 4053 c-14 -13 -6 -33 13 -33 13 0 20 7 20 20 0 19 -20 27 -33
13z"/>
<path d="M7132 4044 c-35 -24 -52 -68 -52 -134 0 -99 33 -139 112 -140 38 0
52 5 76 29 60 61 55 200 -9 245 -30 20 -98 21 -127 0z m105 -16 c19 -15 35
-104 28 -150 -12 -75 -44 -105 -92 -87 -38 14 -56 64 -51 142 3 61 7 72 32 94
28 24 54 24 83 1z"/>
<path d="M8619 4046 c9 -11 6 -41 -15 -132 -14 -66 -31 -125 -36 -131 -8 -10
8 -13 75 -13 47 0 88 3 90 8 10 17 18 72 10 72 -4 0 -16 -14 -25 -30 -15 -26
-23 -30 -58 -30 -25 0 -40 5 -40 12 0 32 44 216 56 236 14 21 14 22 -27 22
-34 0 -39 -2 -30 -14z"/>
<path d="M9477 4053 c-14 -13 -6 -33 13 -33 13 0 20 7 20 20 0 19 -20 27 -33
13z"/>
<path d="M2437 4024 c-4 -4 -7 -16 -7 -26 0 -10 -7 -21 -15 -24 -8 -4 -15 -10
-15 -15 0 -5 7 -9 15 -9 12 0 15 -15 15 -71 0 -39 5 -79 10 -90 14 -24 72 -26
91 -2 13 15 12 16 -9 10 -45 -11 -52 0 -52 79 l0 74 29 0 c17 0 33 5 36 10 4
6 -8 10 -29 10 -30 0 -35 3 -38 27 -3 26 -18 39 -31 27z"/>
<path d="M7627 4023 c-4 -3 -7 -15 -7 -25 0 -10 -7 -21 -15 -24 -8 -4 -15 -10
-15 -15 0 -5 7 -9 15 -9 12 0 15 -15 15 -78 0 -47 5 -83 12 -90 17 -17 60 -15
84 3 18 15 17 16 -13 10 -41 -8 -53 13 -53 94 l0 61 35 0 c44 0 46 18 3 22
-28 2 -34 8 -36 31 -3 26 -12 34 -25 20z"/>
<path d="M8260 4010 c0 -10 -10 -28 -22 -40 -18 -17 -19 -20 -5 -20 14 0 17
-11 17 -68 0 -80 17 -112 59 -112 16 0 35 7 42 16 12 15 11 16 -9 10 -39 -13
-52 9 -52 85 l0 69 35 0 c19 0 35 5 35 10 0 6 -16 10 -35 10 -32 0 -35 2 -35
30 0 20 -5 30 -15 30 -8 0 -15 -9 -15 -20z"/>
<path d="M1254 3970 c-35 -14 -54 -50 -54 -101 0 -64 28 -99 79 -99 37 0 81
22 81 41 0 6 -10 3 -22 -5 -45 -32 -92 -10 -100 44 -3 21 0 25 21 22 42 -6
111 8 111 23 0 27 -23 63 -47 74 -28 13 -40 13 -69 1z m66 -29 c21 -40 13 -51
-35 -51 -38 0 -45 3 -45 19 0 45 60 68 80 32z"/>
<path d="M1455 3968 c-35 -13 -48 -29 -35 -42 6 -6 17 -2 30 12 25 26 43 28
65 6 21 -22 15 -58 -10 -62 -49 -7 -67 -14 -85 -32 -24 -24 -25 -43 -4 -64 20
-20 63 -20 92 0 20 14 22 14 22 0 0 -11 10 -16 32 -16 29 0 30 1 15 18 -13 14
-17 38 -17 90 0 62 -3 73 -22 86 -26 18 -41 19 -83 4z m75 -121 c0 -31 -32
-59 -62 -55 -33 4 -32 48 2 65 39 20 60 16 60 -10z"/>
<path d="M1640 3969 c-14 -4 -19 -7 -12 -8 16 -1 17 -162 0 -179 -9 -9 -2 -12
31 -12 36 0 42 2 32 14 -8 9 -11 45 -10 95 2 45 -1 85 -7 90 -5 4 -20 5 -34 0z"/>
<path d="M1709 3960 l-24 -20 32 6 c29 6 34 3 43 -20 16 -42 12 -117 -7 -138
-15 -17 -14 -18 32 -18 46 0 47 1 32 18 -13 14 -17 38 -17 90 0 62 -3 73 -22
86 -29 21 -41 20 -69 -4z"/>
<path d="M2250 3971 c-17 -5 -21 -9 -12 -15 16 -10 17 -157 0 -174 -9 -9 -2
-12 31 -12 36 0 42 2 32 14 -8 9 -11 45 -10 95 2 45 -1 85 -7 90 -5 4 -20 5
-34 2z"/>
<path d="M2319 3959 c-23 -19 -23 -20 -2 -14 12 3 24 1 28 -5 12 -20 35 -10
35 15 0 31 -28 34 -61 4z"/>
<path d="M2625 3971 c-28 -12 -51 -41 -59 -74 -9 -38 10 -104 34 -117 28 -15
82 -12 108 6 30 21 17 38 -13 18 -33 -22 -73 -11 -86 23 -5 14 -8 30 -6 36 1
5 32 10 67 11 l65 1 -3 30 c-3 33 -43 75 -70 74 -9 0 -26 -4 -37 -8z m62 -41
c16 -32 5 -42 -43 -38 -33 2 -38 6 -36 23 9 50 57 59 79 15z"/>
<path d="M2795 3970 c-24 -4 -26 -7 -12 -12 14 -6 17 -20 17 -78 0 -39 -5 -80
-10 -91 -10 -17 -7 -19 31 -19 40 0 41 1 26 18 -24 27 -23 113 2 143 17 21 22
22 40 12 30 -19 43 -16 39 10 -2 17 -9 22 -32 20 -16 -1 -37 -9 -46 -18 -17
-15 -19 -15 -22 2 -2 15 -9 17 -33 13z"/>
<path d="M2975 3970 c-24 -4 -26 -7 -12 -12 14 -6 17 -20 17 -86 0 -47 -5 -83
-12 -90 -9 -9 -3 -12 29 -12 l42 0 -15 28 c-10 18 -14 52 -13 100 1 40 0 74
-2 75 -2 2 -17 1 -34 -3z"/>
<path d="M3121 3966 c-37 -13 -49 -30 -31 -41 6 -4 20 2 31 14 33 35 68 23 72
-24 1 -22 -3 -30 -18 -32 -51 -9 -67 -15 -85 -33 -24 -24 -25 -43 -4 -64 20
-20 63 -20 92 0 20 14 22 14 22 0 0 -11 10 -16 32 -16 29 0 30 1 15 18 -13 14
-17 38 -17 90 0 62 -3 73 -22 86 -26 19 -41 19 -87 2z m75 -111 c10 -24 -23
-65 -52 -65 -48 0 -43 57 7 71 37 11 39 10 45 -6z"/>
<path d="M3836 3959 c-21 -17 -26 -18 -26 -5 0 12 -9 16 -32 15 -18 0 -27 -3
-20 -6 16 -6 17 -164 0 -181 -9 -9 -2 -12 32 -12 34 0 41 3 32 12 -7 7 -12 39
-12 73 0 47 4 66 18 78 21 19 42 22 42 7 0 -5 7 -10 15 -10 9 0 15 9 15 25 0
32 -27 33 -64 4z"/>
<path d="M3995 3971 c-50 -21 -75 -86 -55 -146 6 -19 20 -40 30 -45 28 -15 83
-12 108 6 30 21 17 38 -13 18 -33 -22 -73 -11 -86 23 -13 35 -5 53 20 46 12
-3 40 -2 64 1 41 6 43 8 39 37 -5 31 -44 69 -71 68 -9 0 -25 -4 -36 -8z m62
-41 c16 -32 5 -42 -43 -38 -33 2 -38 6 -36 23 9 50 57 59 79 15z"/>
<path d="M4182 3970 c-52 -21 -41 -77 23 -108 35 -17 45 -27 45 -46 0 -35 -35
-44 -71 -17 -36 27 -41 26 -37 -1 3 -20 10 -23 57 -26 60 -4 91 15 91 54 0 23
-42 64 -65 64 -6 0 -20 9 -30 20 -15 16 -15 22 -5 35 16 19 59 19 66 0 9 -21
34 -19 34 4 0 27 -62 39 -108 21z"/>
<path d="M4370 3967 c-19 -10 -25 -20 -25 -47 0 -30 5 -36 48 -57 48 -24 59
-47 35 -71 -18 -18 -43 -15 -63 8 -24 26 -37 25 -33 -2 3 -20 10 -23 60 -26
51 -3 59 -1 73 22 24 36 11 63 -40 88 -48 24 -62 43 -44 64 15 18 43 18 59 -1
17 -20 30 -19 30 4 0 30 -56 40 -100 18z"/>
<path d="M4870 3973 c-8 -3 -23 -12 -32 -21 -16 -14 -18 -13 -18 1 0 12 -9 17
-31 17 -28 0 -29 -1 -15 -16 23 -22 22 -141 -1 -166 -15 -17 -14 -18 33 -18
38 1 45 3 32 11 -28 16 -25 129 3 155 16 15 24 16 39 6 27 -17 30 -15 30 13 0
24 -10 29 -40 18z"/>
<path d="M5004 3970 c-36 -14 -54 -50 -54 -105 0 -41 5 -56 23 -73 28 -26 82
-29 115 -6 33 23 27 37 -9 18 -42 -21 -74 -12 -88 28 -6 17 -9 33 -7 35 2 3
31 6 65 7 33 1 63 5 67 9 13 12 -17 74 -42 86 -29 13 -41 13 -70 1z m66 -36
c16 -40 13 -44 -35 -44 -34 0 -45 4 -45 16 0 54 62 76 80 28z"/>
<path d="M5256 3972 c-3 -5 10 -24 29 -42 l35 -34 -36 -37 c-47 -48 -27 -65
22 -18 l34 33 33 -32 c31 -31 57 -41 57 -24 0 4 -16 23 -35 42 l-35 34 36 37
c47 48 27 65 -22 18 l-34 -33 -33 32 c-35 34 -43 37 -51 24z"/>
<path d="M5861 3966 c-37 -13 -49 -30 -31 -41 6 -4 20 2 31 14 33 35 68 23 72
-24 1 -22 -3 -30 -18 -32 -51 -9 -67 -15 -85 -33 -24 -24 -25 -43 -4 -64 20
-20 63 -20 92 0 20 14 22 14 22 0 0 -11 10 -16 32 -16 29 0 30 1 15 18 -13 14
-17 38 -17 90 0 62 -3 73 -22 86 -26 19 -41 19 -87 2z m75 -111 c10 -24 -23
-65 -52 -65 -48 0 -43 57 7 71 37 11 39 10 45 -6z"/>
<path d="M6050 3971 c-17 -5 -21 -9 -12 -15 16 -10 17 -157 0 -174 -9 -9 -2
-12 31 -12 36 0 42 2 32 14 -8 9 -11 45 -10 95 2 45 -1 85 -7 90 -5 4 -20 5
-34 2z"/>
<path d="M6119 3959 c-23 -19 -23 -20 -2 -14 12 3 24 1 28 -5 12 -20 35 -10
35 15 0 31 -28 34 -61 4z"/>
<path d="M6620 3967 c-19 -7 -36 -20 -38 -29 -5 -24 20 -23 36 2 24 39 72 18
72 -31 0 -23 -5 -27 -41 -32 -57 -8 -86 -37 -73 -74 7 -22 17 -29 42 -31 19
-2 44 4 58 13 21 14 24 14 24 0 0 -10 9 -15 27 -15 21 0 24 3 15 12 -7 7 -12
43 -12 89 0 69 -3 80 -22 93 -26 19 -41 19 -88 3z m70 -127 c0 -33 -35 -58
-65 -46 -24 9 -15 48 15 63 39 20 50 16 50 -17z"/>
<path d="M6841 3966 c-52 -29 -69 -121 -30 -170 24 -30 81 -36 115 -12 27 20
14 28 -24 14 -45 -17 -72 9 -72 71 0 78 49 119 82 69 8 -12 19 -18 26 -14 20
12 13 36 -14 46 -34 13 -54 12 -83 -4z"/>
<path d="M7770 3971 c-17 -5 -21 -9 -12 -15 17 -10 17 -247 0 -264 -9 -9 -2
-12 32 -12 34 0 41 3 32 12 -7 7 -12 27 -12 45 0 32 2 33 39 33 53 0 69 8 86
41 47 90 -16 195 -92 155 -22 -11 -29 -11 -38 -1 -6 7 -20 10 -35 6z m124 -43
c23 -33 21 -103 -4 -128 -23 -23 -33 -24 -61 -10 -16 9 -19 22 -19 73 0 36 5
68 12 75 19 19 55 14 72 -10z"/>
<path d="M9058 3962 c-16 -9 -28 -20 -28 -24 0 -11 7 -10 30 4 10 7 22 10 25
6 5 -5 -15 -108 -31 -160 -4 -13 0 -18 14 -18 15 0 22 13 36 67 17 70 47 113
78 113 22 0 23 -23 3 -105 -18 -77 -18 -75 5 -75 14 0 20 7 20 23 1 12 9 47
20 77 14 41 16 59 8 75 -22 42 -46 45 -85 11 -27 -24 -27 -24 -38 -3 -14 28
-25 30 -57 9z"/>
<path d="M9278 3964 c-35 -19 -37 -38 -3 -22 41 19 49 0 30 -71 -18 -72 -13
-101 18 -101 25 1 64 27 54 36 -4 4 -13 1 -22 -6 -25 -21 -30 -4 -17 58 16 80
15 100 -7 112 -24 12 -20 13 -53 -6z"/>
<path d="M9456 3972 c-21 -3 -26 -6 -16 -12 12 -7 11 -21 -3 -85 -18 -83 -15
-105 15 -105 25 0 58 18 58 31 0 6 -8 6 -21 -1 -11 -7 -23 -9 -26 -6 -4 3 2
44 12 91 10 47 16 87 14 88 -2 1 -17 1 -33 -1z"/>
<path d="M9568 3964 c-16 -8 -28 -19 -28 -24 0 -13 6 -13 30 2 10 7 22 10 25
6 5 -5 -15 -108 -31 -160 -4 -13 0 -18 14 -18 16 0 22 12 32 61 15 67 50 119
82 119 19 0 20 -4 13 -47 -5 -27 -9 -66 -9 -88 -1 -36 2 -40 25 -43 16 -2 32
5 45 19 19 22 18 23 -28 4 -22 -9 -22 -4 -3 79 8 35 12 71 9 80 -13 33 -63 29
-94 -9 -12 -14 -14 -13 -24 6 -14 29 -25 31 -58 13z"/>
<path d="M4528 3958 c7 -7 12 -41 12 -81 0 -37 5 -77 10 -88 13 -23 72 -26 90
-4 7 8 16 15 21 15 5 0 6 -7 3 -15 -5 -11 2 -15 27 -15 26 0 30 3 21 12 -8 8
-12 45 -12 100 l0 88 -32 -1 c-18 0 -27 -3 -20 -6 8 -3 12 -28 12 -72 0 -76
-20 -109 -58 -96 -17 5 -22 18 -27 80 -4 40 -4 78 -1 84 5 7 -5 11 -25 11 -26
0 -30 -3 -21 -12z"/>
<path d="M6464 3954 c23 -22 22 -141 -1 -166 -15 -17 -14 -18 25 -18 23 0 42
5 42 10 0 6 -4 10 -10 10 -6 0 -10 37 -10 90 l0 90 -31 0 c-28 0 -29 -1 -15
-16z"/>
<path d="M7359 3961 c9 -6 14 -35 17 -86 2 -42 9 -83 15 -91 15 -19 59 -18 87
2 20 14 22 14 22 0 0 -11 10 -16 32 -16 30 0 30 1 14 19 -14 16 -17 34 -14
100 l3 81 -29 0 c-23 0 -27 -3 -18 -12 7 -7 12 -39 12 -73 0 -47 -4 -66 -18
-78 -47 -42 -72 -10 -72 92 l0 71 -32 0 c-23 0 -29 -3 -19 -9z"/>
<path d="M7998 3958 c5 -7 12 -48 14 -91 2 -55 8 -81 18 -87 23 -15 66 -12 80
5 7 8 16 15 21 15 5 0 9 -7 9 -15 0 -10 10 -15 33 -15 26 1 29 2 15 11 -15 8
-18 25 -18 99 l0 90 -31 0 c-28 0 -29 -1 -15 -16 24 -24 22 -118 -4 -144 -46
-46 -70 -18 -70 82 l0 78 -31 0 c-24 0 -29 -3 -21 -12z"/>
<path d="M810 3565 c0 -13 521 -15 4641 -15 3708 0 4640 3 4637 13 -4 9 -943
13 -4641 15 -4118 2 -4637 0 -4637 -13z"/>
<path d="M5448 3443 l-68 -4 0 -74 0 -75 46 2 c53 3 74 -16 74 -67 0 -58 -59
-85 -95 -45 -25 28 -47 27 -36 -2 17 -45 116 -46 151 -1 25 32 26 84 1 114
-15 19 -29 24 -65 24 l-46 0 0 43 0 42 60 0 c57 0 60 1 60 25 0 14 -3 24 -7
23 -5 -1 -38 -3 -75 -5z"/>
<path d="M5171 3347 c-33 -51 -61 -96 -61 -99 0 -4 26 -8 58 -10 53 -3 57 -5
60 -29 2 -15 -4 -34 -13 -43 -15 -15 -13 -16 31 -16 42 0 46 2 30 13 -26 19
-18 71 11 75 12 2 24 10 27 17 6 17 -10 30 -19 15 -3 -5 -13 -10 -21 -10 -11
0 -14 18 -14 90 0 69 -3 90 -14 90 -7 0 -41 -42 -75 -93z m59 -22 l0 -65 -45
0 -44 0 41 65 c23 36 43 65 45 65 2 0 3 -29 3 -65z"/>
<path d="M5675 3419 c-16 -11 -37 -24 -45 -29 -8 -5 -12 -12 -8 -16 4 -4 14
-1 23 6 8 7 22 10 30 6 12 -4 15 -24 15 -98 0 -102 -4 -112 -40 -127 -20 -8
-8 -10 55 -10 77 0 79 0 48 14 l-33 14 0 131 c0 71 -3 130 -7 129 -5 0 -21 -9
-38 -20z"/>
<path d="M2588 2572 c-26 -3 -41 -22 -18 -22 6 0 10 -50 10 -130 0 -80 -4
-130 -10 -130 -5 0 -10 -4 -10 -10 0 -5 20 -10 45 -10 25 0 45 5 45 10 0 6 -4
10 -10 10 -6 0 -10 53 -10 139 0 77 -3 141 -7 143 -5 2 -20 2 -35 0z"/>
<path d="M6758 2572 c-26 -3 -41 -22 -18 -22 6 0 10 -50 10 -130 0 -80 -4
-130 -10 -130 -5 0 -10 -4 -10 -10 0 -5 20 -10 45 -10 25 0 45 5 45 10 0 6 -4
10 -10 10 -6 0 -10 53 -10 139 0 77 -3 141 -7 143 -5 2 -20 2 -35 0z"/>
<path d="M7940 2570 c-27 -5 -31 -8 -17 -14 12 -6 17 -20 17 -45 0 -35 -2 -37
-27 -34 -45 7 -82 -13 -98 -52 -27 -64 -13 -128 35 -152 19 -9 30 -9 57 2 18
8 33 10 33 4 0 -5 16 -9 35 -9 33 0 48 14 24 22 -7 2 -11 48 -10 140 1 75 -2
138 -6 140 -4 2 -24 1 -43 -2z m-19 -120 c15 -9 19 -22 19 -68 0 -32 -5 -63
-12 -70 -18 -18 -56 -14 -68 7 -17 33 -12 99 10 121 23 23 25 23 51 10z"/>
<path d="M4290 2527 c-9 -23 -34 -86 -54 -139 -21 -54 -42 -98 -47 -98 -5 0
-9 -4 -9 -10 0 -5 24 -10 53 -10 45 1 50 2 35 14 -19 14 -22 33 -12 60 4 12
20 16 54 16 46 0 49 -2 55 -31 5 -23 3 -34 -12 -44 -16 -13 -12 -14 41 -15 56
0 58 1 44 18 -9 9 -34 75 -56 146 -45 147 -61 164 -92 93z m55 -118 c6 -16 1
-19 -34 -19 l-40 0 22 63 21 62 13 -44 c7 -24 15 -52 18 -62z"/>
<path d="M5950 2561 c0 -5 7 -11 15 -15 23 -8 22 -232 -2 -258 -15 -17 -14
-18 37 -18 51 0 52 1 37 18 -14 15 -17 42 -17 150 l0 132 -35 0 c-19 0 -35 -4
-35 -9z"/>
<path d="M2090 2551 c0 -6 5 -11 10 -11 6 0 10 -48 10 -125 0 -77 -4 -125 -10
-125 -5 0 -10 -4 -10 -10 0 -5 23 -10 50 -10 48 0 66 12 35 24 -10 4 -15 20
-15 51 l0 45 41 0 c79 0 126 84 80 141 -17 21 -29 24 -105 28 -58 2 -86 -1
-86 -8z m148 -39 c29 -37 6 -89 -43 -94 -29 -3 -30 -2 -33 46 -4 66 1 78 35
70 16 -3 34 -13 41 -22z"/>
<path d="M5493 2542 c14 -15 17 -40 17 -127 0 -87 -3 -112 -17 -127 -15 -17
-14 -18 35 -18 46 0 69 12 43 22 -5 2 -11 23 -12 48 -3 42 -2 45 21 48 81 9
110 33 110 91 0 62 -32 81 -133 81 -77 0 -79 -1 -64 -18z m134 -24 c17 -13 17
-73 1 -86 -7 -5 -26 -12 -42 -14 l-28 -3 0 58 c0 31 1 60 1 63 1 9 53 -5 68
-18z"/>
<path d="M6637 2553 c-4 -3 -7 -15 -7 -25 0 -13 7 -18 25 -18 20 0 25 5 25 25
0 18 -5 25 -18 25 -10 0 -22 -3 -25 -7z"/>
<path d="M6870 2536 c0 -21 5 -26 26 -26 21 0 25 4 22 23 -2 14 -11 23 -25 25
-19 3 -23 -1 -23 -22z"/>
<path d="M7433 2542 c14 -15 17 -40 17 -127 0 -87 -3 -112 -17 -127 -15 -17
-14 -18 35 -18 46 0 69 12 42 22 -14 5 -15 241 -1 246 29 10 6 22 -41 22 -49
0 -50 -1 -35 -18z"/>
<path d="M4667 2523 c-4 -3 -7 -14 -7 -24 0 -10 -9 -23 -20 -29 -14 -7 -20 -7
-20 0 0 15 -43 12 -68 -6 -20 -14 -22 -14 -22 0 0 11 -9 16 -29 16 -35 0 -46
-13 -26 -30 22 -18 21 -137 -2 -162 -15 -17 -14 -18 37 -18 51 0 52 1 37 18
-23 25 -23 124 -1 143 12 10 20 10 35 1 26 -16 39 -15 39 4 0 9 7 14 18 12 14
-3 17 -16 20 -80 3 -82 13 -100 57 -100 26 0 55 18 55 33 0 5 -12 6 -26 3 -35
-9 -44 7 -44 84 l0 62 35 0 c24 0 35 5 35 15 0 10 -11 15 -35 15 -31 0 -35 3
-35 25 0 24 -18 34 -33 18z"/>
<path d="M6490 2510 c0 -11 -9 -28 -20 -37 -17 -15 -18 -18 -5 -23 12 -4 17
-23 18 -78 3 -80 17 -104 61 -104 26 0 56 17 56 32 0 4 -15 7 -32 6 l-33 -1
-3 73 -3 72 36 0 c46 0 43 24 -3 28 -26 3 -32 8 -32 28 0 17 -5 24 -20 24 -13
0 -20 -7 -20 -20z"/>
<path d="M6990 2517 c0 -8 -9 -26 -21 -41 -17 -21 -18 -26 -5 -26 13 0 16 -12
16 -64 0 -79 11 -111 41 -119 23 -6 86 20 75 31 -4 3 -19 6 -34 7 -27 0 -27 1
-30 73 l-3 73 43 -3 43 -3 32 -85 c17 -47 32 -88 32 -91 1 -4 -8 -18 -20 -33
-16 -21 -24 -24 -35 -16 -17 15 -34 4 -34 -21 0 -15 7 -19 33 -19 45 0 56 14
117 150 28 63 55 119 61 125 18 18 9 25 -31 25 -41 0 -49 -7 -29 -27 9 -9 6
-27 -11 -72 -12 -34 -24 -61 -25 -61 -2 0 -13 28 -24 62 -19 56 -20 64 -6 74
24 18 6 24 -71 24 -68 0 -73 2 -76 22 -3 25 -38 38 -38 15z"/>
<path d="M2326 2472 c-3 -5 1 -15 9 -22 11 -9 15 -33 15 -85 0 -46 5 -76 13
-82 24 -19 45 -21 73 -7 19 10 30 12 32 5 2 -6 20 -11 39 -11 34 0 35 1 20 18
-13 14 -17 39 -17 105 l0 87 -29 0 c-33 0 -49 -15 -26 -24 11 -4 15 -21 15
-65 0 -64 -15 -91 -51 -91 -22 0 -28 20 -31 110 -3 62 -4 65 -30 68 -14 2 -29
-1 -32 -6z"/>
<path d="M2680 2471 c0 -5 5 -13 10 -16 6 -3 10 -42 10 -86 0 -46 -4 -79 -10
-79 -5 0 -10 -4 -10 -10 0 -5 20 -10 45 -10 25 0 45 5 45 10 0 6 -4 10 -10 10
-6 0 -10 30 -10 70 0 60 3 71 21 80 35 19 49 -3 49 -81 0 -39 -4 -69 -10 -69
-5 0 -10 -4 -10 -10 0 -5 21 -10 46 -10 45 0 45 0 30 22 -18 25 -21 100 -6
127 13 25 39 34 56 20 17 -14 20 -149 4 -149 -5 0 -10 -4 -10 -10 0 -5 21 -10
47 -10 44 0 45 1 30 18 -13 14 -17 38 -17 90 0 51 -4 75 -16 86 -20 20 -53 20
-82 0 -20 -14 -24 -14 -38 0 -19 20 -44 20 -70 1 -24 -18 -35 -19 -31 -2 1 7
-11 13 -30 15 -18 2 -33 -1 -33 -7z"/>
<path d="M3069 2451 c-24 -25 -29 -38 -29 -80 0 -65 29 -102 82 -104 75 -2
116 46 105 126 -11 84 -99 116 -158 58z m101 -22 c13 -23 13 -95 0 -120 -6
-11 -21 -19 -35 -19 -32 0 -45 26 -45 89 0 39 4 53 21 65 24 17 45 12 59 -15z"/>
<path d="M3265 2470 c-3 -6 1 -13 9 -16 13 -5 16 -22 16 -79 0 -41 -4 -77 -10
-80 -23 -14 -7 -25 37 -25 44 0 45 1 30 18 -19 21 -23 102 -7 131 13 25 39 34
56 20 17 -14 20 -149 4 -149 -5 0 -10 -4 -10 -10 0 -5 20 -10 45 -10 49 0 53
4 30 26 -10 11 -15 36 -15 84 0 49 -4 73 -16 84 -20 20 -53 20 -82 0 -20 -14
-22 -14 -22 0 0 18 -55 23 -65 6z"/>
<path d="M3543 2465 c-18 -8 -33 -21 -33 -30 0 -19 36 -20 44 0 7 20 52 19 60
-1 12 -32 5 -42 -38 -53 -55 -14 -78 -35 -74 -70 4 -38 48 -57 88 -37 17 8 30
10 30 5 0 -5 16 -9 36 -9 34 0 35 1 20 22 -11 15 -16 45 -16 90 0 96 -34 120
-117 83z m77 -124 c0 -25 -24 -43 -51 -39 -29 4 -34 21 -14 42 23 23 65 21 65
-3z"/>
<path d="M3715 2470 c-3 -6 1 -13 9 -16 23 -9 23 -140 -1 -166 -15 -17 -14
-18 37 -18 51 0 52 1 37 18 -20 22 -23 122 -5 140 15 15 48 16 48 2 0 -5 7
-10 15 -10 8 0 15 9 15 20 0 43 20 16 54 -72 20 -51 36 -97 36 -103 0 -5 -9
-21 -20 -35 -15 -20 -21 -23 -31 -12 -20 19 -29 15 -29 -13 0 -21 5 -25 28
-25 40 0 55 20 113 151 28 63 57 119 65 125 20 16 7 24 -38 24 -41 0 -43 -2
-27 -28 8 -13 5 -31 -12 -77 l-22 -60 -20 59 c-15 45 -17 64 -9 77 6 9 8 20 5
23 -14 13 -139 6 -161 -10 -20 -14 -22 -14 -22 0 0 18 -55 23 -65 6z"/>
<path d="M4819 2451 c-24 -25 -29 -38 -29 -80 0 -65 29 -102 82 -104 43 -1 96
29 79 46 -8 8 -14 8 -23 -1 -20 -20 -65 -14 -82 10 -29 41 -21 48 49 48 l65 0
0 30 c0 41 -39 80 -80 80 -21 0 -41 -9 -61 -29z m94 -31 c5 -18 0 -20 -39 -20
-43 0 -44 1 -33 23 7 12 17 25 22 29 16 10 44 -8 50 -32z"/>
<path d="M4996 2471 c-3 -5 1 -11 9 -15 12 -4 15 -24 15 -86 0 -47 -4 -80 -10
-80 -5 0 -10 -4 -10 -10 0 -5 20 -10 45 -10 44 0 60 12 30 24 -18 6 -21 96 -5
127 11 20 50 27 50 9 0 -20 28 -10 34 12 8 33 20 15 55 -80 36 -98 37 -103 12
-133 -16 -19 -22 -22 -32 -11 -20 19 -29 15 -29 -13 0 -21 5 -25 29 -25 39 0
64 34 121 162 23 54 49 103 56 109 21 17 7 29 -37 29 -40 0 -48 -7 -27 -28 9
-9 8 -24 -7 -68 -10 -30 -22 -57 -25 -59 -4 -2 -15 23 -25 56 -14 45 -16 62
-7 71 23 23 11 28 -61 28 -49 0 -80 -5 -95 -16 -20 -14 -22 -14 -22 0 0 17
-54 23 -64 7z"/>
<path d="M5720 2471 c0 -6 5 -13 10 -16 6 -3 10 -37 10 -75 0 -37 3 -76 6 -85
11 -28 51 -37 85 -20 16 9 29 11 29 5 0 -5 16 -10 35 -10 33 0 48 14 24 22 -7
2 -12 38 -13 93 l-1 90 -32 3 c-32 3 -44 -10 -23 -23 14 -9 13 -128 -2 -143
-18 -18 -46 -14 -58 7 -5 11 -10 51 -10 90 l0 71 -30 0 c-16 0 -30 -4 -30 -9z"/>
<path d="M6102 2464 c-36 -25 -27 -74 17 -96 46 -23 65 -43 58 -62 -9 -23 -47
-20 -74 5 -20 20 -23 20 -29 5 -10 -27 2 -43 37 -48 51 -8 98 9 105 37 10 41
0 58 -48 82 -51 26 -60 46 -28 63 15 8 24 6 40 -10 28 -28 42 -25 38 8 -3 24
-7 27 -48 30 -29 2 -53 -3 -68 -14z"/>
<path d="M6303 2468 c-22 -7 -33 -17 -33 -29 0 -23 23 -25 40 -4 24 29 70 11
70 -27 0 -12 -11 -19 -37 -24 -61 -10 -85 -30 -81 -67 4 -44 39 -61 85 -42 18
8 33 10 33 4 0 -5 16 -9 37 -9 34 0 35 1 20 18 -13 14 -17 37 -17 89 0 98 -27
119 -117 91z m77 -126 c0 -25 -19 -42 -47 -42 -31 0 -42 29 -18 46 28 20 65
18 65 -4z"/>
<path d="M6610 2471 c0 -5 7 -15 16 -22 13 -10 15 -28 12 -83 -2 -42 -9 -71
-16 -74 -28 -9 -9 -22 33 -22 25 0 45 5 45 10 0 6 -4 10 -10 10 -6 0 -10 38
-10 95 l0 95 -35 0 c-19 0 -35 -4 -35 -9z"/>
<path d="M6846 2472 c-3 -6 1 -12 9 -16 12 -4 15 -24 15 -86 0 -47 -4 -80 -10
-80 -5 0 -10 -4 -10 -10 0 -5 20 -10 45 -10 25 0 45 5 45 10 0 6 -4 10 -10 10
-5 0 -11 42 -12 93 l-3 92 -32 3 c-17 2 -34 -1 -37 -6z"/>
<path d="M7556 2471 c-3 -5 1 -11 9 -15 12 -4 15 -24 15 -86 0 -47 -4 -80 -10
-80 -5 0 -10 -4 -10 -10 0 -5 20 -10 45 -10 44 0 60 12 30 24 -17 6 -21 96 -5
125 13 25 39 34 56 20 17 -14 20 -149 4 -149 -5 0 -10 -4 -10 -10 0 -5 20 -10
45 -10 25 0 45 5 45 10 0 6 -4 10 -10 10 -6 0 -10 26 -10 59 0 111 -37 155
-102 118 -24 -14 -28 -14 -28 -2 0 17 -55 21 -64 6z"/>
<path d="M8069 2451 c-24 -25 -29 -38 -29 -80 0 -65 29 -102 82 -104 43 -1 96
29 79 46 -8 8 -14 8 -23 -1 -16 -16 -63 -15 -76 1 -5 6 -13 22 -16 34 -7 21
-4 22 61 25 l68 3 -3 30 c-2 17 -14 40 -28 53 -35 31 -79 29 -115 -7z m101
-42 c0 -5 -18 -9 -40 -9 -46 0 -54 19 -17 45 21 15 23 14 40 -6 9 -12 17 -25
17 -30z"/>
<path d="M8230 2474 c0 -3 18 -27 41 -54 l41 -49 -33 -40 c-19 -22 -37 -41
-41 -41 -5 0 -8 -4 -8 -10 0 -5 19 -10 41 -10 35 0 40 2 30 14 -10 12 -9 20 5
41 l18 27 18 -24 c20 -26 23 -38 8 -38 -5 0 -10 -4 -10 -10 0 -5 20 -10 45
-10 42 0 58 11 36 25 -5 3 -24 23 -41 45 l-31 39 40 44 c23 24 41 47 41 51 0
8 -65 8 -73 -1 -4 -3 -2 -12 3 -18 7 -9 5 -19 -8 -35 l-18 -22 -17 25 c-10 16
-13 28 -7 32 23 14 7 25 -35 25 -25 0 -45 -3 -45 -6z"/>
<path d="M8557 2454 c-4 -4 -7 -13 -7 -21 0 -10 29 -13 136 -13 124 0 135 2
132 18 -3 15 -18 17 -129 20 -69 1 -128 -1 -132 -4z"/>
<path d="M8552 2353 c3 -16 19 -18 136 -21 127 -2 132 -2 132 18 0 19 -6 20
-136 20 -124 0 -135 -2 -132 -17z"/>
<path d="M2943 1946 c15 -11 17 -31 17 -139 0 -73 -4 -128 -10 -132 -22 -13
-8 -20 33 -16 23 2 36 6 30 8 -10 4 -13 42 -13 149 l0 144 -37 0 c-34 -1 -36
-2 -20 -14z"/>
<path d="M3964 1938 c22 -31 23 -240 1 -261 -13 -13 -10 -15 25 -19 38 -3 51
4 30 17 -6 4 -10 63 -10 146 l0 139 -31 0 c-29 0 -30 -1 -15 -22z"/>
<path d="M1980 1937 c-55 -28 -49 -102 11 -135 56 -31 79 -53 79 -77 0 -54
-64 -74 -98 -30 -26 32 -32 32 -32 -4 0 -26 4 -30 40 -36 57 -10 105 9 121 46
19 47 2 78 -59 114 -77 44 -84 106 -14 113 26 3 34 -2 44 -22 15 -34 28 -33
28 3 0 17 -6 31 -16 35 -26 10 -77 7 -104 -7z"/>
<path d="M3470 1941 c0 -6 5 -11 10 -11 16 0 13 -260 -2 -262 -7 0 7 -4 32 -7
54 -8 57 -7 36 14 -10 10 -16 33 -16 59 l0 43 52 5 c62 6 88 32 88 88 0 56
-24 72 -120 78 -56 3 -80 1 -80 -7z m138 -27 c15 -10 22 -25 22 -46 0 -42 -25
-68 -67 -68 l-33 0 0 58 c0 32 3 62 7 65 11 12 48 7 71 -9z"/>
<path d="M5719 1923 c-6 -15 -28 -75 -50 -133 -22 -58 -46 -110 -55 -116 -12
-10 -6 -13 31 -16 25 -2 45 0 45 4 0 5 -4 8 -10 8 -12 0 -13 50 -1 68 5 9 24
12 56 10 43 -3 49 -6 58 -32 8 -24 6 -32 -9 -43 -16 -11 -12 -13 35 -13 46 0
51 2 38 15 -9 8 -29 61 -47 117 -17 57 -35 114 -39 128 -11 36 -39 38 -52 3z
m41 -92 l18 -61 -45 0 c-32 0 -44 4 -41 13 3 6 13 36 23 64 10 29 20 51 22 49
3 -2 13 -31 23 -65z"/>
<path d="M6953 1933 c25 -28 26 -247 0 -261 -12 -7 -5 -11 30 -13 26 -2 47 -1
47 3 0 5 -4 8 -10 8 -5 0 -10 25 -10 55 l0 55 39 0 c55 0 92 33 94 83 2 61
-25 79 -125 85 -82 5 -83 4 -65 -15z m125 -19 c16 -11 22 -25 22 -54 0 -43
-18 -60 -64 -60 -25 0 -26 2 -26 65 0 61 1 65 23 65 12 0 33 -7 45 -16z"/>
<path d="M3080 1919 c0 -25 33 -22 38 4 2 12 -3 17 -17 17 -15 0 -21 -6 -21
-21z"/>
<path d="M1849 1883 c-40 -46 -83 -139 -100 -218 -18 -85 -16 -286 4 -362 19
-73 64 -167 102 -212 41 -48 48 -27 10 29 -70 104 -103 283 -85 470 11 119 40
213 85 279 41 59 32 68 -16 14z"/>
<path d="M9010 1911 c0 -5 7 -14 16 -22 26 -21 64 -106 85 -187 14 -55 19
-109 19 -203 0 -182 -31 -312 -96 -396 -13 -18 -20 -34 -14 -38 10 -6 61 58
92 118 38 75 58 182 58 311 0 133 -16 217 -55 299 -36 78 -105 154 -105 118z"/>
<path d="M2580 1893 c0 -9 -7 -25 -17 -35 -15 -17 -15 -18 0 -18 14 0 17 -12
17 -79 0 -101 24 -131 81 -101 25 14 25 30 -1 23 -37 -10 -50 14 -50 88 l0 69
35 0 c19 0 35 5 35 10 0 6 -16 10 -35 10 -31 0 -35 3 -35 25 0 16 -6 25 -15
25 -8 0 -15 -8 -15 -17z"/>
<path d="M6100 1891 c0 -11 -9 -26 -20 -34 l-21 -14 21 -6 c18 -5 20 -13 20
-86 0 -75 2 -82 23 -92 15 -7 31 -7 50 0 34 13 35 30 1 23 -36 -7 -44 10 -44
91 l0 67 35 0 c19 0 35 5 35 10 0 6 -16 10 -35 10 -31 0 -35 3 -35 25 0 16 -6
25 -15 25 -8 0 -15 -9 -15 -19z"/>
<path d="M2140 1851 c0 -5 4 -11 9 -13 9 -3 71 -166 71 -187 0 -19 -31 -61
-46 -61 -8 0 -14 5 -14 10 0 6 -4 10 -10 10 -5 0 -10 -11 -10 -25 0 -19 5 -25
21 -25 33 0 67 46 118 161 25 59 53 114 60 123 12 14 9 16 -29 16 -40 0 -42
-1 -27 -17 14 -17 13 -23 -10 -78 -14 -33 -26 -61 -28 -63 -2 -2 -13 26 -25
63 -17 52 -19 69 -10 80 11 13 6 15 -29 15 -22 0 -41 -4 -41 -9z"/>
<path d="M2390 1840 c-11 -11 -20 -26 -20 -33 0 -17 39 -53 67 -61 30 -10 46
-32 38 -56 -9 -27 -60 -28 -77 0 -17 27 -28 25 -28 -5 0 -48 112 -44 137 5 16
32 2 55 -48 80 -48 25 -59 48 -34 66 25 18 31 18 55 -6 26 -26 30 -25 30 5 0
23 -3 25 -50 25 -37 0 -55 -5 -70 -20z"/>
<path d="M2739 1834 c-31 -33 -34 -120 -5 -153 26 -29 76 -36 114 -17 55 28
67 125 21 174 -30 33 -98 31 -130 -4z m96 -4 c23 -25 30 -98 13 -130 -10 -18
-22 -25 -43 -25 -21 0 -33 7 -42 25 -30 58 -4 149 43 150 6 0 19 -9 29 -20z"/>
<path d="M3063 1846 c13 -10 17 -28 17 -88 0 -44 -5 -79 -12 -86 -9 -9 -3 -12
31 -12 39 0 41 1 27 16 -12 12 -16 36 -16 100 l0 84 -32 0 c-30 -1 -31 -2 -15
-14z"/>
<path d="M3206 1829 c-44 -52 -31 -146 24 -169 30 -13 73 -5 91 16 15 18 3 32
-13 16 -19 -19 -66 -14 -78 7 -18 34 -12 109 10 131 11 11 25 20 30 20 6 0 18
-9 27 -20 23 -27 33 -25 33 5 0 23 -3 25 -49 25 -43 0 -53 -4 -75 -31z"/>
<path d="M3718 1848 c7 -7 12 -42 12 -85 0 -61 4 -77 21 -94 23 -23 60 -20 92
8 16 15 17 14 17 -6 0 -21 10 -23 60 -12 3 1 -3 6 -12 12 -15 8 -18 25 -18 99
l0 90 -31 0 c-27 0 -30 -2 -19 -15 16 -20 16 -130 0 -150 -8 -9 -25 -15 -39
-13 -25 3 -26 5 -29 91 l-3 87 -31 0 c-25 0 -29 -3 -20 -12z"/>
<path d="M4083 1846 c13 -11 17 -29 17 -89 0 -42 -4 -79 -10 -82 -21 -13 -8
-20 31 -17 24 3 36 7 29 12 -7 4 -13 32 -14 66 -1 47 3 63 21 84 18 20 25 23
40 14 14 -9 19 -26 21 -78 2 -42 -2 -73 -9 -82 -16 -19 -11 -21 36 -13 22 3
34 7 28 8 -9 1 -13 22 -13 69 0 57 4 72 21 88 15 14 24 16 37 8 21 -14 30
-153 11 -164 -6 -4 7 -9 30 -12 39 -3 52 4 31 17 -5 3 -10 39 -10 80 0 54 -4
78 -16 89 -20 21 -63 20 -86 -1 -17 -15 -19 -15 -36 0 -23 21 -65 22 -82 2 -7
-8 -16 -15 -21 -15 -5 0 -9 7 -9 15 0 10 -10 15 -32 15 -30 -1 -31 -2 -15 -14z"/>
<path d="M4469 1834 c-31 -33 -34 -120 -5 -153 26 -29 76 -36 114 -17 55 28
67 131 21 177 -30 30 -99 26 -130 -7z m96 -4 c23 -25 30 -98 13 -130 -10 -18
-22 -25 -43 -25 -21 0 -33 7 -42 25 -30 58 -4 149 43 150 6 0 19 -9 29 -20z"/>
<path d="M4678 1848 c17 -17 16 -175 0 -181 -7 -2 6 -6 30 -8 40 -4 54 3 32
16 -5 3 -10 34 -10 69 0 48 4 67 18 79 43 39 72 7 72 -78 0 -50 -4 -66 -17
-74 -14 -8 -7 -10 32 -10 39 0 46 2 33 10 -15 8 -18 24 -18 87 0 47 -5 83 -12
90 -17 17 -59 15 -86 -4 -20 -14 -22 -14 -22 0 0 11 -10 16 -32 16 -25 0 -29
-3 -20 -12z"/>
<path d="M4943 1848 c-13 -6 -23 -17 -23 -25 0 -18 27 -16 34 3 4 10 16 14 38
12 29 -3 33 -7 36 -34 3 -29 1 -32 -35 -37 -81 -13 -111 -73 -52 -106 23 -12
29 -12 59 2 38 19 43 21 36 8 -3 -5 8 -11 24 -13 17 -3 30 -1 30 4 0 4 -4 8
-10 8 -6 0 -10 33 -10 79 0 59 -4 84 -16 95 -18 18 -78 20 -111 4z m87 -121
c0 -31 -18 -47 -52 -47 -23 0 -28 4 -28 25 0 26 23 44 58 45 16 0 22 -6 22
-23z"/>
<path d="M5133 1842 c21 -23 24 -151 5 -170 -9 -9 -3 -12 31 -12 39 0 41 1 27
16 -16 16 -22 96 -10 128 11 28 41 38 58 20 19 -18 36 -10 36 17 0 14 -7 19
-29 19 -16 0 -34 -7 -41 -15 -7 -8 -16 -15 -21 -15 -5 0 -9 7 -9 15 0 10 -10
15 -32 15 -29 0 -30 -1 -15 -18z"/>
<path d="M5304 1838 c8 -13 29 -61 45 -106 l31 -84 -21 -29 c-21 -30 -34 -36
-44 -19 -11 18 -26 10 -23 -12 4 -27 35 -34 61 -14 10 8 42 67 72 132 30 64
59 122 65 128 18 18 11 26 -26 26 -31 0 -35 -2 -24 -15 13 -15 9 -32 -23 -103
l-20 -47 -23 69 c-22 65 -23 70 -6 82 15 12 11 13 -31 14 -47 0 -47 0 -33 -22z"/>
<path d="M5903 1842 c21 -23 24 -151 5 -170 -9 -9 -2 -12 33 -12 35 1 40 3 27
11 -14 8 -18 23 -18 64 0 63 6 82 30 95 14 7 23 6 34 -6 19 -18 36 -10 36 17
0 14 -7 19 -29 19 -16 0 -34 -7 -41 -15 -7 -8 -16 -15 -21 -15 -5 0 -9 7 -9
15 0 10 -10 15 -32 15 -29 0 -30 -1 -15 -18z"/>
<path d="M6256 1829 c-39 -45 -37 -110 4 -151 27 -26 36 -30 67 -25 38 7 72
31 60 44 -4 3 -13 1 -19 -5 -17 -17 -64 -15 -82 4 -9 8 -16 26 -16 40 0 23 3
24 65 24 62 0 65 1 65 24 0 74 -95 104 -144 45z m88 5 c9 -8 16 -24 16 -35 0
-16 -7 -19 -45 -19 -51 0 -59 16 -25 50 24 24 34 25 54 4z"/>
<path d="M6448 1848 c17 -17 16 -175 0 -181 -7 -2 6 -6 30 -8 40 -4 54 3 32
16 -5 3 -10 35 -10 70 0 54 3 66 22 79 19 14 24 14 38 1 23 -21 30 -19 30 10
0 19 -5 25 -23 25 -12 0 -33 -7 -45 -16 -20 -14 -22 -14 -22 0 0 11 -10 16
-32 16 -25 0 -29 -3 -20 -12z"/>
<path d="M6610 1852 c0 -4 4 -12 9 -17 13 -13 71 -165 71 -185 0 -8 -9 -26
-20 -40 -17 -22 -22 -23 -40 -12 -18 11 -20 10 -20 -13 0 -18 5 -25 19 -25 35
0 61 34 115 153 30 64 59 124 66 132 11 13 6 15 -29 15 -38 0 -40 -2 -29 -19
9 -15 7 -31 -12 -80 -12 -33 -24 -61 -25 -61 -1 0 -12 28 -25 62 -18 48 -20
66 -11 80 10 16 7 18 -29 18 -22 0 -40 -4 -40 -8z"/>
<path d="M7193 1846 c13 -10 17 -28 17 -88 0 -41 -5 -79 -11 -85 -8 -8 1 -12
30 -15 46 -4 47 -3 26 18 -18 18 -20 92 -4 128 15 32 34 39 54 20 18 -18 35
-10 35 17 0 14 -7 19 -29 19 -16 0 -34 -7 -41 -15 -7 -8 -16 -15 -21 -15 -5 0
-9 7 -9 15 0 10 -10 15 -32 15 -30 -1 -31 -2 -15 -14z"/>
<path d="M7396 1829 c-29 -34 -35 -89 -15 -133 14 -29 59 -51 91 -43 32 8 65
34 55 43 -4 4 -13 2 -19 -4 -17 -17 -64 -15 -82 4 -9 8 -16 26 -16 40 0 23 3
24 65 24 62 0 65 1 65 24 0 74 -95 104 -144 45z m88 5 c9 -8 16 -24 16 -35 0
-16 -7 -19 -45 -19 -51 0 -59 16 -25 50 24 24 34 25 54 4z"/>
<path d="M7600 1840 c-11 -11 -20 -26 -20 -33 0 -17 37 -50 73 -65 33 -14 44
-37 27 -57 -18 -21 -58 -19 -72 5 -17 27 -28 25 -28 -5 0 -20 6 -25 34 -30 62
-12 106 11 106 57 0 22 -7 33 -31 46 -61 33 -75 49 -63 69 16 26 40 27 63 4
27 -27 31 -26 31 4 0 23 -3 25 -50 25 -37 0 -55 -5 -70 -20z"/>
<path d="M7790 1842 c-35 -29 -21 -67 35 -94 48 -24 62 -43 44 -64 -17 -20
-50 -17 -76 8 l-23 21 0 -25 c0 -21 6 -28 30 -33 37 -8 85 2 100 20 6 8 10 26
8 42 -2 22 -13 33 -50 53 -35 18 -48 31 -48 47 0 36 61 42 74 7 9 -23 26 -16
26 11 0 23 -3 25 -49 25 -32 0 -56 -6 -71 -18z"/>
<path d="M7958 1848 c7 -7 12 -39 12 -74 0 -35 4 -74 10 -88 14 -37 54 -44 91
-17 29 22 29 22 29 1 0 -20 11 -22 60 -11 3 1 -3 6 -12 12 -15 8 -18 25 -18
99 l0 90 -32 0 c-30 -1 -31 -2 -15 -14 25 -19 24 -126 -1 -149 -10 -10 -25
-17 -33 -17 -30 0 -39 24 -39 102 l0 78 -32 0 c-25 0 -29 -3 -20 -12z"/>
<path d="M8200 1850 c0 -5 5 -10 10 -10 6 0 10 -33 10 -79 0 -44 -4 -83 -10
-86 -20 -13 -9 -20 30 -20 22 0 40 3 40 8 0 4 -5 7 -10 7 -7 0 -10 27 -8 71 3
81 20 105 58 81 27 -17 30 -16 30 13 0 21 -5 25 -29 25 -16 0 -34 -7 -41 -15
-7 -8 -16 -15 -21 -15 -5 0 -6 7 -3 15 5 11 -1 15 -25 15 -17 0 -31 -4 -31
-10z"/>
<path d="M8409 1834 c-34 -36 -35 -123 -1 -156 30 -31 93 -31 124 0 19 18 20
22 6 22 -9 0 -20 -4 -23 -10 -10 -17 -61 -11 -78 8 -10 10 -17 28 -17 40 0 20
5 22 65 22 65 0 65 0 65 28 0 69 -92 99 -141 46z m85 0 c9 -8 16 -24 16 -35 0
-16 -7 -19 -45 -19 -51 0 -59 16 -25 50 24 24 34 25 54 4z"/>
<path d="M8700 1780 c0 -6 50 -10 130 -10 80 0 130 4 130 10 0 6 -50 10 -130
10 -80 0 -130 -4 -130 -10z"/>
<path d="M3248 1408 c17 -17 17 -259 0 -276 -9 -9 -2 -12 32 -12 34 0 41 3 32
12 -8 8 -12 56 -12 150 l0 138 -32 0 c-25 0 -29 -3 -20 -12z"/>
<path d="M4263 1409 c15 -9 17 -27 17 -137 0 -86 -4 -132 -12 -140 -9 -9 -2
-12 32 -12 34 0 41 3 32 12 -8 8 -12 56 -12 150 l0 138 -37 0 c-31 -1 -35 -3
-20 -11z"/>
<path d="M2068 1398 c17 -17 17 -249 0 -266 -19 -19 125 -16 162 3 41 21 63
69 63 137 0 100 -47 138 -170 138 -52 0 -64 -3 -55 -12z m153 -37 c26 -27 29
-36 29 -94 0 -56 -4 -70 -26 -96 -21 -25 -33 -31 -65 -31 l-39 0 0 125 0 125
36 0 c26 0 43 -8 65 -29z"/>
<path d="M2370 1385 c0 -20 4 -26 18 -23 9 2 17 12 17 23 0 11 -8 21 -17 23
-14 3 -18 -3 -18 -23z"/>
<path d="M3384 1395 c-7 -18 3 -35 22 -35 8 0 14 10 14 25 0 27 -27 35 -36 10z"/>
<path d="M3783 1396 c14 -11 17 -31 17 -134 0 -105 -2 -122 -17 -131 -14 -8
-5 -10 37 -10 42 0 51 2 38 10 -13 7 -18 23 -18 58 l0 48 45 6 c53 5 81 27 90
68 15 69 -26 99 -137 99 -63 -1 -71 -2 -55 -14z m132 -20 c13 -10 19 -25 18
-52 -1 -43 -22 -64 -65 -64 -28 0 -28 0 -28 65 0 65 0 65 28 65 16 0 37 -6 47
-14z"/>
<path d="M5985 1283 c-26 -71 -54 -136 -63 -145 -14 -17 -12 -18 33 -18 43 0
47 2 31 13 -14 10 -17 21 -11 45 6 31 8 32 61 32 50 0 54 -2 60 -27 4 -14 2
-34 -5 -45 -10 -16 -7 -18 34 -18 45 0 45 0 31 23 -8 12 -31 77 -52 145 -50
162 -57 162 -119 -5z m78 17 c10 -33 17 -62 17 -65 0 -3 -18 -5 -40 -5 -24 0
-40 5 -40 12 0 20 33 118 40 118 4 0 14 -27 23 -60z"/>
<path d="M7250 1401 c0 -6 5 -11 10 -11 15 0 13 -243 -2 -258 -9 -9 -1 -12 38
-12 38 1 45 3 32 11 -13 7 -18 23 -18 58 l0 48 47 6 c80 9 119 82 74 138 -17
21 -30 24 -100 27 -55 3 -81 1 -81 -7z m140 -31 c41 -41 10 -110 -50 -110
l-30 0 0 65 0 65 30 0 c17 0 39 -9 50 -20z"/>
<path d="M2890 1355 c0 -8 -9 -24 -20 -35 -16 -16 -17 -20 -5 -20 12 0 15 -14
15 -65 0 -70 14 -112 39 -118 21 -4 71 13 71 25 0 5 -9 6 -20 3 -37 -12 -50
11 -50 86 l0 69 35 0 c19 0 35 5 35 10 0 6 -16 10 -35 10 -31 0 -35 3 -35 25
0 16 -6 25 -15 25 -8 0 -15 -7 -15 -15z"/>
<path d="M6400 1353 c0 -9 -7 -25 -17 -35 -15 -17 -15 -18 0 -18 14 0 17 -12
17 -73 0 -45 5 -80 13 -91 16 -23 63 -24 84 -3 14 14 12 15 -18 14 l-34 -2 -3
78 -3 77 31 0 c16 0 30 5 30 10 0 6 -13 10 -30 10 -25 0 -30 4 -30 25 0 18 -5
25 -20 25 -12 0 -20 -7 -20 -17z"/>
<path d="M2545 1323 c-40 -8 -75 -26 -75 -39 0 -20 23 -17 43 6 28 34 56 23
71 -28 5 -14 3 -23 -6 -26 -7 -2 -32 -9 -56 -15 -49 -14 -71 -45 -53 -78 15
-29 45 -34 86 -13 28 14 35 15 35 4 0 -9 11 -14 27 -14 21 0 24 3 15 12 -7 7
-12 42 -12 89 0 49 -4 80 -12 86 -19 14 -40 20 -63 16z m35 -151 c-19 -33 -66
-43 -77 -16 -9 24 10 48 43 55 40 8 52 -6 34 -39z"/>
<path d="M2734 1323 c-29 -5 -57 -37 -52 -59 2 -10 19 -28 38 -41 72 -46 76
-50 64 -70 -16 -27 -60 -29 -76 -4 -17 28 -28 26 -28 -4 0 -20 5 -25 28 -27
82 -5 112 8 112 52 0 29 -18 50 -65 71 -40 19 -43 63 -4 67 14 2 31 -4 39 -12
17 -22 30 -20 30 4 0 13 -7 20 -19 20 -11 0 -25 2 -33 4 -7 2 -23 1 -34 -1z"/>
<path d="M3085 1323 c-86 -21 -99 -166 -18 -199 68 -29 133 18 133 95 0 50
-18 81 -55 96 -19 8 -36 14 -37 14 -2 -1 -12 -3 -23 -6z m51 -27 c26 -19 28
-127 2 -152 -42 -43 -98 24 -84 101 11 58 44 78 82 51z"/>
<path d="M3543 1315 c-40 -17 -53 -42 -53 -100 0 -57 12 -80 47 -92 30 -10 88
0 99 18 10 17 -3 21 -26 9 -36 -19 -68 -5 -79 37 -12 42 -6 80 17 106 20 22
38 22 59 -3 23 -27 33 -25 33 5 0 18 -5 25 -19 25 -11 0 -25 2 -33 5 -7 2 -27
-2 -45 -10z"/>
<path d="M4813 1323 c-37 -7 -63 -50 -63 -103 0 -82 56 -124 127 -95 40 17 53
42 53 99 0 70 -49 111 -117 99z m61 -35 c33 -47 11 -158 -31 -158 -35 0 -53
31 -53 88 0 83 48 122 84 70z"/>
<path d="M5295 1323 c-34 -7 -75 -25 -75 -34 0 -19 23 -19 41 0 26 28 45 27
65 -4 23 -35 13 -51 -35 -59 -42 -6 -81 -35 -81 -59 0 -46 72 -66 111 -31 17
16 19 16 19 1 0 -13 9 -17 33 -17 26 1 29 2 15 11 -15 8 -18 24 -18 88 0 78
-5 92 -40 103 -8 2 -24 3 -35 1z m45 -130 c0 -42 -73 -73 -87 -37 -9 24 10 48
43 55 35 7 44 3 44 -18z"/>
<path d="M6603 1323 c-53 -10 -85 -94 -60 -156 18 -41 63 -60 109 -45 34 12
58 38 35 38 -9 0 -19 -4 -22 -10 -9 -14 -48 -12 -68 3 -9 6 -19 24 -22 39 l-7
27 69 3 68 3 -3 30 c-6 49 -47 78 -99 68z m45 -25 c5 -7 13 -23 16 -35 7 -22
5 -23 -44 -23 -49 0 -51 1 -45 23 8 24 32 47 51 47 6 0 16 -6 22 -12z"/>
<path d="M6836 1310 c-29 -14 -36 -15 -36 -4 0 9 -11 14 -32 14 -27 -1 -30 -2
-15 -11 14 -8 17 -24 17 -87 0 -47 -5 -83 -12 -90 -9 -9 -3 -12 31 -12 39 0
41 1 27 16 -24 24 -22 118 4 144 24 24 33 25 50 5 15 -18 30 -11 30 15 0 27
-24 31 -64 10z"/>
<path d="M7744 1323 c-58 -11 -89 -100 -57 -162 22 -43 62 -56 108 -37 36 16
54 36 31 36 -8 0 -18 -4 -21 -10 -12 -19 -63 -11 -79 12 -32 46 -22 58 47 58
35 0 66 3 69 6 9 8 -9 66 -24 80 -16 15 -47 22 -74 17z m44 -25 c5 -7 13 -23
16 -35 7 -22 5 -23 -44 -23 -49 0 -51 1 -45 23 8 24 32 47 51 47 6 0 16 -6 22
-12z"/>
<path d="M7927 1318 c-28 -10 -44 -45 -33 -73 3 -8 26 -24 51 -36 35 -16 45
-27 45 -45 0 -35 -44 -43 -75 -14 -22 21 -25 21 -31 6 -10 -26 9 -38 61 -38
95 -2 115 73 30 114 -48 24 -62 43 -44 64 16 20 39 17 66 -7 20 -20 23 -20 29
-5 4 10 3 21 -2 26 -16 14 -68 19 -97 8z"/>
<path d="M8113 1315 c-27 -11 -33 -20 -33 -45 0 -24 7 -35 31 -48 61 -33 75
-49 63 -69 -16 -26 -50 -28 -71 -4 -23 27 -33 26 -33 -3 0 -19 6 -24 33 -29
49 -8 86 3 103 29 23 34 9 61 -47 89 -50 26 -59 41 -37 63 18 18 39 15 65 -10
l23 -21 0 26 c0 15 -6 27 -12 27 -7 0 -22 2 -33 5 -11 3 -35 -2 -52 -10z"/>
<path d="M8615 1322 c-11 -2 -28 -11 -37 -20 -16 -14 -18 -14 -18 1 0 12 -9
17 -32 17 -29 0 -30 -1 -15 -18 23 -25 24 -144 1 -166 -14 -15 -11 -16 33 -16
37 1 44 3 31 11 -27 15 -25 129 2 154 18 17 21 17 45 1 24 -16 25 -16 25 8 0
29 -7 34 -35 28z"/>
<path d="M8751 1321 c-38 -10 -63 -52 -63 -104 0 -25 5 -54 11 -65 21 -40 102
-47 135 -11 20 21 20 22 1 14 -62 -24 -99 -12 -110 37 l-7 27 69 3 68 3 -2 29
c-4 50 -51 81 -102 67z m53 -33 c27 -38 20 -48 -29 -48 -38 0 -45 3 -45 19 0
23 25 51 45 51 8 0 21 -10 29 -22z"/>
<path d="M2353 1309 c14 -8 17 -24 17 -87 0 -47 -5 -83 -12 -90 -9 -9 -3 -12
31 -12 39 0 41 1 27 16 -12 12 -16 36 -16 100 l0 84 -32 0 c-27 -1 -30 -2 -15
-11z"/>
<path d="M3374 1304 c12 -11 16 -35 16 -84 0 -49 -4 -73 -16 -84 -14 -15 -12
-16 27 -16 34 0 40 3 31 12 -8 8 -12 45 -12 100 l0 88 -31 0 c-28 0 -29 -1
-15 -16z"/>
<path d="M4024 1304 c12 -11 16 -35 16 -88 0 -43 5 -77 12 -84 17 -17 68 -15
90 5 17 15 18 15 18 0 0 -12 9 -17 32 -17 25 0 29 3 20 12 -8 8 -12 45 -12
100 l0 88 -32 0 c-25 0 -29 -3 -20 -12 7 -7 12 -39 12 -73 0 -47 -4 -66 -18
-78 -47 -42 -72 -10 -72 92 l0 71 -31 0 c-28 0 -29 -1 -15 -16z"/>
<path d="M4388 1308 c16 -16 16 -160 0 -176 -9 -9 -2 -12 32 -12 34 0 41 3 32
12 -7 7 -12 39 -12 73 0 67 20 100 56 93 33 -6 47 -133 18 -162 -14 -15 -12
-16 27 -16 34 0 40 3 31 12 -7 7 -12 39 -12 73 0 47 4 66 18 78 45 41 72 10
72 -82 0 -47 -4 -62 -17 -70 -14 -8 -7 -10 30 -11 44 0 47 1 33 16 -12 11 -16
35 -16 88 0 43 -5 77 -12 84 -18 18 -69 15 -91 -5 -18 -17 -19 -17 -28 0 -13
22 -66 22 -91 0 -17 -15 -18 -15 -18 0 0 12 -9 17 -32 17 -25 0 -29 -3 -20
-12z"/>
<path d="M4983 1309 c14 -8 17 -24 17 -87 0 -47 -5 -83 -12 -90 -9 -9 -3 -12
31 -12 39 0 41 1 27 16 -24 24 -22 118 4 144 44 44 70 18 70 -70 0 -38 -5 -71
-12 -78 -9 -9 -2 -12 32 -12 34 0 41 3 32 12 -7 7 -12 39 -12 74 0 89 -11 114
-53 114 -18 0 -43 -7 -55 -16 -20 -14 -22 -14 -22 0 0 11 -10 16 -32 16 -27
-1 -30 -2 -15 -11z"/>
<path d="M5438 1308 c7 -7 12 -42 12 -88 0 -46 -5 -81 -12 -88 -9 -9 -2 -12
32 -12 34 0 41 3 32 12 -7 7 -12 39 -12 73 0 49 4 66 20 80 19 17 21 17 38 2
21 -19 32 -13 32 15 0 23 -46 25 -72 1 -17 -15 -18 -15 -18 0 0 12 -9 17 -32
17 -25 0 -29 -3 -20 -12z"/>
<path d="M5610 1303 c16 -30 70 -173 70 -188 0 -21 -50 -73 -57 -57 -7 19 -23
14 -23 -7 0 -25 21 -32 51 -17 16 8 40 48 79 133 30 66 61 128 69 137 12 14 9
16 -30 15 -24 0 -38 -3 -31 -6 6 -2 12 -13 12 -22 0 -28 -42 -123 -50 -114 -4
4 -15 31 -25 60 -15 43 -16 54 -6 67 12 14 8 16 -28 16 -36 0 -40 -2 -31 -17z"/>
<path d="M6208 1308 c7 -7 12 -42 12 -88 0 -46 -5 -81 -12 -88 -9 -9 -2 -12
32 -12 34 0 41 3 32 12 -7 7 -12 39 -12 73 0 49 4 66 20 80 19 17 21 17 38 2
21 -19 32 -13 32 15 0 23 -52 25 -70 3 -7 -8 -16 -15 -21 -15 -5 0 -6 7 -3 15
5 11 -2 15 -27 15 -26 0 -30 -3 -21 -12z"/>
<path d="M6921 1304 c7 -9 28 -55 45 -102 30 -79 31 -88 18 -113 -18 -35 -33
-44 -47 -30 -16 16 -27 13 -27 -8 0 -10 7 -22 16 -25 32 -12 65 24 110 122 24
54 52 114 63 135 l19 37 -35 0 c-30 0 -34 -2 -23 -15 9 -11 7 -26 -12 -75 -12
-33 -26 -60 -30 -60 -3 0 -16 28 -27 62 -16 46 -18 65 -10 75 9 10 3 13 -31
13 -38 0 -41 -2 -29 -16z"/>
<path d="M7498 1308 c7 -7 12 -42 12 -88 0 -46 -5 -81 -12 -88 -9 -9 -2 -12
32 -12 34 0 41 3 32 12 -7 7 -12 39 -12 73 0 49 4 66 20 80 16 14 23 16 32 7
18 -18 38 -14 38 8 0 25 -45 28 -72 3 -17 -15 -18 -15 -18 0 0 12 -9 17 -32
17 -25 0 -29 -3 -20 -12z"/>
<path d="M8263 1309 c14 -8 17 -24 17 -88 0 -58 4 -82 15 -91 21 -17 62 -16
84 4 22 20 32 21 25 1 -5 -11 2 -15 27 -15 26 0 30 3 21 12 -8 8 -12 45 -12
100 l0 88 -32 0 c-25 0 -29 -3 -20 -12 7 -7 12 -39 12 -74 0 -69 -17 -97 -54
-92 -24 3 -33 34 -35 121 l-1 57 -32 0 c-27 -1 -30 -2 -15 -11z"/>
<path d="M1700 955 c0 -13 424 -15 3755 -15 3331 0 3755 2 3755 15 0 13 -424
15 -3755 15 -3331 0 -3755 -2 -3755 -15z"/>
<path d="M4138 828 c17 -17 17 -259 0 -276 -9 -9 -2 -12 32 -12 34 0 41 3 32
12 -7 7 -12 39 -12 73 0 65 17 95 54 95 35 0 52 -133 20 -164 -14 -15 -12 -16
27 -16 34 0 40 3 31 12 -7 7 -12 42 -12 89 0 84 -10 102 -55 102 -14 0 -35 -9
-45 -18 -20 -18 -20 -17 -20 48 l0 67 -32 0 c-25 0 -29 -3 -20 -12z"/>
<path d="M5563 822 c24 -26 25 -243 1 -266 -14 -15 -11 -16 33 -16 37 1 44 3
31 11 -16 9 -18 27 -18 149 l0 140 -32 0 c-29 0 -30 -1 -15 -18z"/>
<path d="M3543 812 c24 -26 25 -233 1 -256 -14 -15 -11 -16 32 -16 36 0 44 3
36 13 -12 14 -19 101 -9 105 30 11 48 -2 79 -58 28 -51 37 -60 60 -60 l28 0
-45 66 -45 65 25 22 c23 21 29 38 26 84 -2 34 -48 53 -132 53 -69 0 -71 -1
-56 -18z m131 -18 c25 -25 20 -81 -8 -100 -24 -15 -74 -17 -68 -1 1 4 2 32 2
62 0 54 0 55 29 55 16 0 37 -7 45 -16z"/>
<path d="M3823 814 c-8 -21 13 -42 28 -27 13 13 5 43 -11 43 -6 0 -13 -7 -17
-16z"/>
<path d="M4680 713 c-23 -65 -51 -130 -61 -145 l-20 -28 48 0 c42 0 45 1 28
14 -16 11 -17 19 -9 47 9 33 12 34 59 34 45 0 50 -2 59 -28 7 -20 7 -34 -2
-47 -11 -19 -9 -20 33 -20 45 0 45 0 31 23 -7 12 -19 38 -24 57 -6 19 -23 74
-37 123 -37 124 -50 120 -105 -30z m85 -31 c7 -32 7 -32 -34 -32 -46 0 -49 7
-27 61 7 19 16 43 21 54 6 18 9 16 20 -15 7 -20 16 -50 20 -68z"/>
<path d="M5247 823 c-8 -18 -1 -38 16 -41 13 -3 17 3 17 22 0 24 -23 37 -33
19z"/>
<path d="M5780 820 c0 -5 5 -10 10 -10 15 0 13 -243 -2 -258 -9 -9 -1 -12 38
-12 38 1 45 3 32 11 -13 7 -18 23 -18 58 l0 48 49 7 c52 7 76 25 86 68 16 65
-27 98 -130 98 -37 0 -65 -4 -65 -10z m134 -23 c12 -9 18 -26 18 -52 0 -44
-20 -65 -64 -65 -28 0 -28 0 -28 65 0 65 0 65 28 65 16 0 36 -6 46 -13z"/>
<path d="M4400 775 c0 -8 -10 -23 -22 -35 -18 -17 -19 -20 -5 -20 14 0 17 -11
17 -64 0 -75 12 -113 37 -118 23 -5 73 11 73 24 0 5 -9 6 -20 3 -37 -12 -50
11 -50 86 l0 69 35 0 c19 0 35 5 35 10 0 6 -16 10 -35 10 -31 0 -35 3 -35 25
0 16 -6 25 -15 25 -8 0 -15 -7 -15 -15z"/>
<path d="M4910 773 c0 -9 -7 -25 -17 -35 -15 -17 -15 -18 0 -18 14 0 17 -12
17 -79 0 -58 4 -82 15 -91 21 -18 64 -16 83 4 16 15 15 16 -14 10 -40 -8 -45
1 -46 84 l-1 67 31 3 c42 4 41 20 0 24 -28 2 -32 7 -30 26 3 17 -2 22 -17 22
-13 0 -21 -6 -21 -17z"/>
<path d="M3980 743 c-46 -18 -64 -68 -39 -114 7 -15 7 -24 -1 -35 -7 -7 -10
-24 -7 -36 4 -13 0 -29 -9 -39 -53 -59 96 -109 157 -53 21 19 25 64 7 82 -7 7
-33 12 -58 12 -52 0 -93 21 -69 36 8 5 29 10 48 11 49 3 73 29 69 75 -3 31 0
38 14 38 10 0 18 5 18 10 0 6 -17 10 -37 10 -21 0 -47 2 -58 5 -11 2 -27 1
-35 -2z m56 -38 c31 -48 -16 -106 -56 -70 -22 20 -25 46 -10 76 15 27 46 24
66 -6z m32 -199 c7 -35 -54 -59 -102 -40 -16 6 -22 45 -9 58 4 4 30 6 58 4 40
-2 51 -7 53 -22z"/>
<path d="M5150 743 c-8 -3 -23 -12 -32 -21 -16 -14 -18 -13 -18 1 0 12 -9 17
-32 17 -25 0 -29 -3 -20 -12 17 -17 16 -175 0 -181 -7 -3 10 -6 37 -6 39 0 46
2 33 10 -27 16 -25 129 2 154 16 14 23 16 32 7 20 -20 38 -14 38 13 0 24 -10
29 -40 18z"/>
<path d="M5395 736 c-40 -12 -63 -46 -31 -46 9 0 16 5 16 10 0 6 11 15 25 22
32 14 55 -3 55 -42 0 -24 -5 -28 -37 -33 -50 -8 -83 -33 -83 -61 0 -44 45 -62
94 -36 29 14 36 15 36 4 0 -9 11 -14 27 -14 21 0 24 3 15 12 -7 7 -12 41 -12
83 0 101 -25 125 -105 101z m54 -162 c-16 -19 -58 -18 -66 2 -9 24 10 48 43
54 25 5 29 2 32 -18 2 -13 -2 -30 -9 -38z"/>
<path d="M6124 740 c-12 -5 -25 -13 -29 -19 -10 -17 -28 -13 -21 4 4 11 -2 15
-26 15 -25 0 -29 -3 -20 -12 7 -7 12 -42 12 -88 0 -46 -5 -81 -12 -88 -9 -9
-2 -12 32 -12 34 0 41 3 32 12 -18 18 -15 133 4 152 18 18 30 20 39 6 12 -19
37 -11 33 12 -4 25 -15 30 -44 18z"/>
<path d="M6254 736 c-38 -17 -58 -63 -51 -117 9 -70 60 -101 123 -74 40 16 58
42 23 31 -58 -18 -70 -18 -89 -1 -11 10 -20 29 -20 42 0 22 3 23 65 23 l65 0
0 29 c0 58 -58 91 -116 67z m64 -18 c7 -7 12 -22 12 -35 0 -21 -5 -23 -45 -23
-49 0 -56 10 -29 48 17 24 43 29 62 10z"/>
<path d="M6465 743 c-32 -8 -45 -24 -45 -55 0 -22 7 -33 31 -46 61 -33 75 -49
63 -69 -16 -26 -50 -28 -71 -4 -23 27 -33 26 -33 -3 0 -20 6 -24 37 -28 54 -6
82 2 99 28 23 34 10 58 -46 88 -33 18 -50 34 -50 46 0 27 45 38 69 16 23 -21
31 -20 31 4 0 11 -6 20 -12 20 -7 0 -22 2 -33 4 -11 2 -29 2 -40 -1z"/>
<path d="M6650 741 c-14 -4 -31 -19 -39 -33 -18 -32 -7 -49 51 -79 44 -23 56
-42 38 -64 -17 -21 -46 -19 -70 5 -26 26 -30 25 -30 -5 0 -21 5 -25 33 -27 82
-3 107 8 107 52 0 29 -18 50 -65 71 -40 19 -46 56 -10 65 17 4 32 1 44 -10 23
-21 31 -20 31 4 0 11 -6 20 -12 20 -7 0 -22 2 -33 4 -11 3 -31 1 -45 -3z"/>
<path d="M7140 743 c-8 -3 -23 -12 -32 -21 -16 -14 -18 -13 -18 1 0 12 -9 17
-32 17 -25 0 -29 -3 -20 -12 7 -7 12 -42 12 -88 0 -46 -5 -81 -12 -88 -9 -9
-2 -12 32 -12 34 0 41 3 32 12 -7 7 -12 39 -12 73 0 49 4 66 20 80 16 14 23
16 32 7 20 -20 40 -14 36 10 -3 23 -14 29 -38 21z"/>
<path d="M7280 743 c-82 -29 -92 -166 -14 -199 29 -12 39 -12 68 0 37 15 56
36 32 36 -8 0 -18 -4 -21 -10 -12 -19 -63 -11 -79 12 -33 46 -22 58 49 58 l65
0 0 29 c0 49 -55 90 -100 74z m48 -25 c7 -7 12 -22 12 -35 0 -21 -5 -23 -46
-23 -42 0 -45 1 -38 23 14 46 46 61 72 35z"/>
<path d="M3808 728 c16 -16 16 -160 0 -176 -9 -9 -2 -12 32 -12 34 0 41 3 32
12 -8 8 -12 45 -12 100 l0 88 -32 0 c-25 0 -29 -3 -20 -12z"/>
<path d="M5234 724 c12 -11 16 -35 16 -84 0 -49 -4 -73 -16 -84 -14 -15 -12
-16 27 -16 34 0 40 3 31 12 -8 8 -12 45 -12 100 l0 88 -31 0 c-28 0 -29 -1
-15 -16z"/>
<path d="M6794 724 c12 -11 16 -35 16 -88 0 -80 10 -98 55 -98 14 0 35 8 45
17 18 16 20 17 20 2 0 -12 9 -17 32 -17 25 0 29 3 20 12 -8 8 -12 45 -12 100
l0 88 -32 0 c-25 0 -29 -3 -20 -12 7 -7 12 -39 12 -73 0 -47 -4 -66 -18 -78
-47 -42 -72 -10 -72 92 l0 71 -31 0 c-28 0 -29 -1 -15 -16z"/>
</g>
</svg>
