<?xml version="1.0" standalone="no"?>
<!DOCTYPE svg PUBLIC "-//W3C//DTD SVG 20010904//EN"
 "http://www.w3.org/TR/2001/REC-SVG-20010904/DTD/svg10.dtd">
<svg version="1.0" xmlns="http://www.w3.org/2000/svg"
 width="1080" height="320" viewBox="0 0 1080 320"
 preserveAspectRatio="xMidYMid meet">

<g transform="translate(0.000000,320.000000) scale(0.100000,-0.100000)"
fill="#000000" stroke="none">
<path d="M2628 2753 c-31 -5 -37 -18 -13 -27 12 -4 15 -29 15 -137 0 -114 -2
-134 -17 -145 -16 -12 -11 -13 35 -14 28 0 52 5 52 10 0 6 -4 10 -10 10 -6 0
-11 62 -12 152 -2 91 -7 152 -13 153 -5 1 -22 0 -37 -2z"/>
<path d="M5553 2752 c-35 -3 -43 -16 -18 -26 12 -4 15 -30 15 -141 0 -83 -4
-135 -10 -135 -5 0 -10 -4 -10 -10 0 -5 20 -10 45 -10 25 0 45 5 45 10 0 6 -4
10 -10 10 -6 0 -10 56 -10 149 0 83 -3 151 -7 153 -5 2 -23 2 -40 0z"/>
<path d="M2100 2731 c0 -6 5 -11 10 -11 6 0 10 -52 10 -135 0 -83 -4 -135 -10
-135 -5 0 -10 -4 -10 -10 0 -5 26 -10 57 -10 l57 0 -23 21 c-17 16 -21 30 -19
62 3 39 5 42 33 45 54 5 74 12 95 34 26 28 27 88 1 119 -17 21 -29 24 -110 27
-62 3 -91 0 -91 -7z m159 -53 c21 -36 6 -78 -32 -91 -47 -15 -57 -4 -57 63 l0
61 37 -3 c28 -2 41 -9 52 -30z"/>
<path d="M4350 2730 c0 -5 4 -10 9 -10 11 0 22 -29 67 -177 29 -94 42 -123 55
-123 9 0 21 12 27 28 6 15 30 77 52 137 23 61 48 117 56 126 22 25 17 29 -36
29 -53 0 -60 -5 -34 -25 15 -10 13 -21 -17 -113 -18 -56 -36 -102 -39 -102 -3
0 -17 46 -32 103 -24 89 -26 103 -13 113 25 19 17 24 -40 24 -30 0 -55 -4 -55
-10z"/>
<path d="M6170 2731 c0 -5 7 -11 15 -15 23 -8 22 -242 -2 -268 -15 -17 -14
-18 43 -18 51 1 57 2 42 14 -13 10 -18 27 -18 65 0 45 3 51 20 51 20 0 72 -68
86 -112 4 -13 15 -18 46 -18 l40 0 -28 34 c-16 19 -39 51 -52 71 l-22 37 24
19 c47 37 41 114 -10 138 -29 13 -184 15 -184 2z m158 -33 c15 -15 16 -63 2
-89 -8 -13 -21 -19 -45 -19 l-35 0 0 60 0 60 33 0 c18 0 38 -5 45 -12z"/>
<path d="M6902 2713 c2 -20 9 -29 26 -31 19 -3 22 1 22 27 0 27 -4 31 -26 31
-22 0 -25 -4 -22 -27z"/>
<path d="M7230 2680 c0 -11 -9 -25 -20 -32 -11 -7 -20 -16 -20 -19 0 -4 9 -9
20 -12 18 -5 20 -14 20 -85 0 -64 3 -82 18 -95 23 -21 51 -22 80 -1 28 19 21
33 -14 26 -36 -7 -44 10 -44 91 l0 67 41 0 c52 0 48 24 -4 28 -32 3 -37 7 -37
28 0 17 -5 24 -20 24 -13 0 -20 -7 -20 -20z"/>
<path d="M2350 2641 c0 -6 5 -13 10 -16 6 -3 10 -39 10 -79 0 -59 4 -78 21
-100 23 -29 55 -33 85 -11 25 19 34 19 34 0 0 -10 10 -15 29 -15 35 0 46 13
26 30 -11 9 -15 35 -15 106 l0 94 -35 0 c-34 0 -46 -12 -25 -25 14 -9 13 -138
-2 -153 -17 -17 -55 -15 -62 4 -3 9 -6 51 -6 95 l0 79 -35 0 c-19 0 -35 -4
-35 -9z"/>
<path d="M2730 2641 c0 -5 7 -14 15 -21 22 -18 21 -147 -2 -172 -15 -17 -14
-18 37 -18 51 0 52 1 37 18 -19 21 -23 111 -7 141 11 22 35 32 55 25 19 -8 22
-153 3 -172 -9 -9 0 -12 42 -12 51 0 52 1 37 18 -19 21 -23 111 -7 141 13 25
39 34 56 20 17 -14 20 -159 4 -159 -5 0 -10 -4 -10 -10 0 -5 24 -10 53 -10 45
1 50 2 35 14 -15 11 -18 29 -18 93 0 65 -3 83 -18 96 -23 21 -61 22 -90 1 -21
-15 -25 -15 -41 0 -22 20 -60 20 -89 0 -20 -14 -22 -14 -22 0 0 12 -10 16 -35
16 -19 0 -35 -4 -35 -9z"/>
<path d="M3164 2635 c-31 -21 -47 -69 -41 -121 7 -65 34 -89 98 -89 43 0 54 4
75 28 20 23 24 39 24 88 0 52 -4 63 -26 84 -31 29 -97 34 -130 10z m86 -25
c22 -22 28 -106 10 -141 -15 -27 -56 -24 -76 6 -22 34 -15 122 12 142 24 17
30 17 54 -7z"/>
<path d="M3360 2641 c0 -5 7 -11 15 -15 24 -9 21 -164 -2 -182 -16 -12 -11
-13 35 -14 28 0 52 5 52 10 0 6 -4 10 -10 10 -6 0 -10 29 -10 68 0 57 4 72 21
88 15 14 24 16 37 8 13 -9 18 -29 20 -88 2 -48 -1 -76 -8 -76 -5 0 -10 -4 -10
-10 0 -5 20 -10 45 -10 25 0 45 5 45 10 0 6 -4 10 -9 10 -5 0 -11 39 -12 86
-3 71 -7 88 -23 100 -26 18 -70 18 -86 -1 -7 -8 -16 -15 -21 -15 -5 0 -6 7 -3
15 5 12 -3 15 -35 15 -23 0 -41 -4 -41 -9z"/>
<path d="M3658 2638 c-33 -11 -39 -48 -9 -48 10 0 21 7 25 15 8 22 53 19 66
-6 17 -31 6 -46 -40 -52 -55 -7 -82 -32 -78 -71 2 -21 12 -35 30 -45 24 -14
30 -14 62 2 20 9 36 12 36 7 0 -6 16 -10 37 -10 34 0 35 1 20 18 -13 14 -17
38 -17 95 0 55 -4 80 -16 91 -17 18 -74 20 -116 4z m88 -122 c8 -20 -12 -53
-35 -59 -28 -7 -54 14 -45 37 12 31 70 47 80 22z"/>
<path d="M3846 2641 c-3 -5 1 -11 9 -15 12 -4 15 -24 15 -91 0 -50 -4 -85 -10
-85 -5 0 -10 -4 -10 -10 0 -5 24 -10 53 -10 45 1 50 2 35 14 -14 10 -18 28
-18 78 0 36 5 69 12 76 15 15 48 16 48 2 0 -5 9 -10 20 -10 14 0 20 7 20 22 0
40 25 0 61 -95 31 -83 32 -90 18 -115 -12 -22 -22 -26 -47 -24 -28 2 -32 -1
-32 -23 0 -22 4 -25 33 -25 45 0 58 16 122 156 30 66 62 127 70 137 22 25 20
27 -28 27 -51 0 -63 -8 -40 -25 15 -11 15 -17 -6 -74 -13 -33 -27 -61 -31 -61
-4 0 -15 27 -25 60 -14 46 -16 63 -7 72 23 23 11 28 -66 28 -54 0 -84 -5 -100
-16 -20 -14 -22 -14 -22 0 0 12 -10 16 -34 16 -19 0 -37 -4 -40 -9z"/>
<path d="M4688 2638 c-17 -6 -28 -17 -28 -29 0 -23 35 -26 44 -3 4 10 15 14
33 12 20 -2 29 -10 34 -31 5 -19 4 -29 -4 -31 -7 -2 -30 -8 -51 -12 -52 -12
-81 -50 -67 -87 14 -35 53 -45 97 -24 19 9 34 12 34 7 0 -6 16 -10 37 -10 34
0 35 1 20 18 -13 14 -17 38 -17 94 0 60 -4 78 -18 91 -20 19 -72 21 -114 5z
m86 -116 c10 -16 -6 -50 -29 -60 -29 -13 -62 7 -52 32 10 25 70 46 81 28z"/>
<path d="M4895 2626 c-14 -14 -25 -29 -25 -34 0 -15 40 -62 53 -62 7 0 25 -11
42 -24 25 -20 28 -26 16 -40 -19 -22 -58 -20 -73 4 -19 29 -38 25 -38 -9 0
-28 3 -30 45 -37 78 -11 125 23 113 83 -2 10 -27 31 -56 46 -28 16 -52 34 -52
41 0 36 61 44 74 11 3 -8 13 -15 21 -15 12 0 15 8 13 28 -3 25 -7 27 -55 30
-45 3 -56 -1 -78 -22z"/>
<path d="M5110 2621 c-36 -35 -44 -107 -18 -158 23 -46 106 -54 143 -13 18 20
2 41 -18 21 -15 -15 -60 -14 -75 1 -7 7 -12 36 -12 65 0 64 27 101 60 83 11
-6 20 -15 20 -20 0 -6 9 -10 21 -10 16 0 20 5 17 28 -3 25 -7 27 -56 30 -47 3
-56 0 -82 -27z"/>
<path d="M5270 2642 c0 -4 5 -13 11 -19 6 -6 13 -47 14 -89 3 -67 6 -81 25
-96 27 -22 50 -23 76 -3 25 19 34 19 34 0 0 -10 10 -15 29 -15 35 0 51 19 27
32 -13 7 -16 26 -16 103 l0 95 -35 0 c-37 0 -44 -10 -20 -30 23 -19 20 -122
-3 -143 -47 -43 -72 -10 -72 97 l0 76 -35 0 c-19 0 -35 -4 -35 -8z"/>
<path d="M5693 2635 c-18 -8 -33 -21 -33 -30 0 -20 39 -20 46 0 8 20 60 19 68
-1 14 -37 7 -54 -24 -54 -93 0 -137 -96 -58 -124 18 -6 34 -4 57 7 17 8 31 11
31 6 0 -5 16 -9 35 -9 19 0 35 5 35 10 0 6 -4 10 -10 10 -6 0 -10 33 -10 78 0
96 -14 122 -68 122 -20 -1 -52 -7 -69 -15z m85 -132 c-3 -29 -40 -55 -65 -46
-22 8 -11 46 17 60 39 20 52 16 48 -14z"/>
<path d="M5870 2641 c0 -5 7 -11 15 -15 12 -4 15 -24 15 -91 0 -50 -4 -85 -10
-85 -5 0 -10 -6 -10 -12 0 -9 15 -12 52 -9 45 3 50 5 35 16 -23 17 -24 136 -1
156 12 10 20 10 35 1 33 -21 49 -15 49 18 0 27 -3 30 -32 30 -17 0 -40 -7 -50
-17 -17 -15 -18 -15 -18 0 0 13 -9 17 -40 17 -22 0 -40 -4 -40 -9z"/>
<path d="M6489 2621 c-25 -26 -29 -37 -29 -86 0 -50 4 -60 30 -87 27 -27 36
-30 72 -25 41 5 88 40 74 54 -4 4 -16 2 -26 -5 -26 -16 -75 -15 -88 1 -5 6
-12 23 -14 37 -3 24 -1 25 70 28 l73 3 -6 32 c-17 79 -99 104 -156 48z m104
-30 c7 -27 0 -31 -45 -31 -31 0 -38 4 -38 19 0 48 71 58 83 12z"/>
<path d="M6712 2634 c-42 -29 -23 -91 34 -108 30 -9 58 -42 51 -61 -9 -23 -64
-19 -77 5 -16 31 -40 25 -40 -9 0 -27 3 -30 44 -36 75 -12 116 9 116 60 0 33
-20 58 -56 69 -12 4 -30 16 -40 27 -18 20 -18 21 1 35 25 18 31 18 55 -6 28
-28 40 -25 40 10 0 30 -1 30 -53 30 -31 0 -61 -6 -75 -16z"/>
<path d="M6876 2641 c-3 -5 1 -11 9 -15 12 -4 15 -24 15 -91 0 -50 -4 -85 -10
-85 -5 0 -10 -4 -10 -10 0 -5 24 -10 53 -10 45 1 50 2 35 14 -15 11 -18 30
-18 110 l0 96 -34 0 c-19 0 -37 -4 -40 -9z"/>
<path d="M7048 2640 c-25 -15 -40 -48 -33 -71 4 -10 29 -31 56 -45 40 -20 50
-29 47 -47 -4 -31 -52 -36 -70 -8 -19 30 -38 26 -38 -8 0 -21 6 -30 23 -35 86
-23 156 24 131 89 -4 9 -28 27 -55 41 -50 25 -60 43 -36 62 16 14 54 5 61 -14
3 -8 13 -14 21 -14 12 0 15 8 13 28 -3 25 -7 27 -53 29 -27 2 -58 -2 -67 -7z"/>
<path d="M7398 2638 c-33 -11 -39 -48 -9 -48 10 0 21 7 25 15 7 19 50 19 66 0
21 -25 8 -49 -32 -56 -20 -3 -48 -13 -62 -23 -34 -21 -36 -68 -4 -90 28 -20
45 -20 81 -2 15 8 27 11 27 5 0 -5 16 -9 35 -9 39 0 42 4 20 26 -11 11 -15 36
-14 92 1 62 -2 78 -17 89 -21 15 -77 16 -116 1z m92 -124 c0 -31 -20 -54 -49
-54 -32 0 -46 21 -28 43 23 28 77 36 77 11z"/>
<path d="M7590 2641 c0 -6 5 -13 10 -16 6 -3 10 -44 10 -91 0 -49 -4 -84 -10
-84 -5 0 -10 -4 -10 -10 0 -5 23 -10 52 -10 49 0 50 1 35 18 -12 13 -17 37
-17 80 0 55 3 63 26 78 35 24 51 5 60 -68 5 -45 3 -63 -10 -83 l-16 -25 51 0
c50 0 51 1 36 18 -13 14 -17 38 -17 94 0 60 -4 78 -18 91 -23 21 -61 22 -90 1
-20 -14 -22 -14 -22 0 0 12 -10 16 -35 16 -19 0 -35 -4 -35 -9z"/>
<path d="M7880 2621 c-26 -26 -30 -37 -30 -86 0 -49 4 -60 29 -86 19 -19 40
-29 59 -29 37 0 88 38 73 53 -8 8 -14 8 -23 -1 -19 -19 -66 -15 -78 7 -18 34
-12 109 10 131 11 11 24 20 30 20 5 0 15 -9 22 -20 7 -11 21 -20 31 -20 14 0
18 6 15 28 -3 25 -7 27 -56 30 -47 3 -56 0 -82 -27z"/>
<path d="M8094 2635 c-49 -34 -58 -145 -15 -189 30 -30 102 -29 133 1 25 26
17 43 -12 25 -49 -30 -100 -6 -100 47 0 19 6 21 70 21 64 0 70 2 70 20 0 29
-26 76 -45 84 -29 11 -80 6 -101 -9z m86 -36 c18 -32 11 -39 -35 -39 -51 0
-59 16 -25 50 22 22 45 18 60 -11z"/>
<path d="M8387 2624 c-3 -3 -3 -12 0 -20 4 -11 34 -14 144 -14 132 0 139 1
139 20 0 19 -7 20 -138 20 -76 0 -141 -3 -145 -6z"/>
<path d="M8387 2510 c5 -19 14 -20 144 -20 132 0 139 1 139 20 0 19 -7 20
-144 20 -139 0 -144 -1 -139 -20z"/>
<path d="M3062 2070 c-95 -58 -112 -270 -29 -358 20 -22 68 -52 82 -52 15 0 1
18 -26 34 -47 27 -69 86 -69 181 0 95 21 148 71 188 40 32 19 36 -29 7z"/>
<path d="M4893 2072 c14 -15 17 -42 17 -147 0 -105 -3 -132 -17 -147 -15 -17
-14 -18 30 -18 26 0 47 5 47 10 0 6 -4 10 -10 10 -6 0 -10 58 -10 155 l0 155
-37 0 c-34 0 -35 -1 -20 -18z"/>
<path d="M1945 2068 c-49 -26 -61 -90 -25 -123 l20 -18 -22 -24 c-30 -32 -29
-86 0 -116 33 -33 120 -31 156 2 34 32 35 83 2 116 l-24 24 24 22 c24 22 30
52 18 84 -15 37 -104 58 -149 33z m101 -33 c35 -53 -12 -118 -70 -96 -25 10
-36 30 -36 66 0 55 76 76 106 30z m-11 -140 c61 -60 -13 -156 -77 -98 -27 24
-24 87 4 107 31 22 45 20 73 -9z"/>
<path d="M2207 2060 c-60 -47 -65 -219 -9 -275 52 -52 128 -22 151 61 33 119
-11 234 -89 234 -15 0 -39 -9 -53 -20z m92 -34 c21 -44 19 -188 -3 -220 -21
-34 -51 -33 -73 1 -26 39 -25 187 0 227 23 35 57 32 76 -8z"/>
<path d="M3160 2071 c0 -5 5 -11 12 -13 14 -5 12 -271 -3 -276 -24 -9 -5 -22
31 -22 44 0 48 4 25 26 -12 12 -15 42 -15 131 0 64 2 114 5 112 2 -3 22 -54
43 -114 23 -64 46 -111 54 -113 10 -2 28 31 59 110 l44 113 3 -115 c2 -94 0
-117 -13 -126 -25 -19 -17 -24 37 -24 49 0 50 1 35 18 -14 15 -17 41 -17 145
0 73 4 128 10 132 21 13 9 25 -24 25 -34 0 -34 0 -77 -109 -24 -60 -47 -108
-50 -105 -3 2 -23 51 -44 109 l-37 105 -39 0 c-21 0 -39 -4 -39 -9z"/>
<path d="M4370 2071 c0 -6 5 -13 10 -16 6 -4 10 -60 10 -135 0 -75 -4 -131
-10 -135 -23 -14 -7 -25 35 -25 49 0 53 4 30 27 -11 11 -15 30 -13 62 l3 46
55 7 c64 8 90 32 90 85 0 49 -15 71 -58 83 -46 12 -152 13 -152 1z m145 -36
c49 -48 22 -115 -46 -115 l-39 0 0 63 c0 35 3 67 7 70 14 15 55 6 78 -18z"/>
<path d="M6690 2074 c0 -3 7 -12 15 -20 12 -12 15 -42 15 -134 0 -92 -3 -122
-15 -134 -23 -23 -19 -26 35 -26 48 0 66 12 35 24 -11 4 -15 21 -15 61 l0 55
44 0 c54 0 93 28 102 74 13 70 -39 106 -151 106 -36 0 -65 -3 -65 -6z m157
-41 c18 -24 16 -78 -3 -97 -8 -9 -31 -16 -50 -16 l-34 0 0 71 0 72 37 -6 c21
-4 44 -14 50 -24z"/>
<path d="M2544 2009 c-3 -6 17 -34 45 -63 l51 -51 -51 -52 c-32 -31 -49 -55
-44 -63 5 -8 25 5 61 41 l54 53 53 -52 c42 -41 55 -50 65 -40 10 10 1 23 -40
65 l-52 53 53 54 c36 36 49 56 41 61 -7 5 -32 -12 -64 -44 l-52 -51 -49 50
c-52 53 -60 57 -71 39z"/>
<path d="M3605 1981 c-43 -18 -60 -50 -60 -113 0 -53 3 -62 28 -84 37 -32 87
-32 124 1 21 19 24 24 11 25 -9 0 -20 -4 -23 -10 -3 -5 -21 -10 -40 -10 -38 0
-65 28 -65 67 0 22 4 23 75 23 l75 0 -6 28 c-11 44 -24 62 -50 72 -30 12 -42
12 -69 1z m59 -27 c9 -8 16 -26 16 -40 0 -22 -4 -24 -44 -24 -51 0 -62 10 -45
42 21 41 47 48 73 22z"/>
<path d="M3824 1979 c-17 -5 -37 -16 -44 -24 -21 -25 15 -30 39 -6 26 26 36
26 61 1 33 -33 26 -58 -17 -66 -85 -15 -119 -53 -89 -99 19 -29 61 -33 92 -10
25 19 34 19 34 0 0 -10 10 -15 30 -15 30 0 41 15 18 22 -9 3 -14 34 -16 91 -4
75 -7 89 -25 102 -24 17 -38 17 -83 4z m71 -138 c0 -28 -44 -65 -67 -56 -38
15 -27 70 14 78 40 8 53 3 53 -22z"/>
<path d="M4092 1970 c-26 -16 -32 -17 -32 -5 0 11 -11 15 -37 15 -31 -1 -35
-3 -20 -11 14 -8 17 -25 17 -94 0 -46 -4 -87 -10 -90 -22 -13 -8 -25 30 -25
40 0 49 7 30 26 -6 6 -10 41 -8 80 3 62 5 70 30 83 44 25 58 4 58 -90 0 -46
-4 -79 -10 -79 -5 0 -10 -4 -10 -10 0 -5 20 -10 45 -10 44 0 60 12 30 24 -12
4 -15 24 -15 89 0 56 -4 88 -12 95 -27 21 -54 21 -86 2z"/>
<path d="M5112 1970 c-26 -16 -32 -17 -32 -5 0 11 -11 15 -37 15 -31 -1 -35
-3 -20 -11 14 -8 17 -25 17 -99 0 -53 -4 -90 -10 -90 -5 0 -10 -4 -10 -10 0
-5 21 -10 47 -10 44 0 45 1 30 18 -26 28 -23 136 3 162 23 23 41 25 58 8 15
-15 17 -168 2 -168 -5 0 -10 -4 -10 -10 0 -5 20 -10 45 -10 44 0 60 12 30 24
-25 9 -21 130 5 156 46 46 75 14 75 -83 0 -47 -4 -72 -12 -74 -29 -10 -10 -23
32 -23 49 0 53 4 30 26 -11 11 -15 38 -15 94 0 74 -2 81 -25 96 -23 15 -27 15
-64 -3 -32 -16 -42 -17 -53 -8 -24 24 -52 25 -86 5z"/>
<path d="M5480 1981 c-14 -4 -35 -22 -48 -41 -19 -29 -23 -44 -19 -84 6 -63
39 -96 97 -96 73 0 113 64 96 155 -10 52 -68 83 -126 66z m65 -31 c23 -25 30
-107 13 -140 -18 -33 -58 -38 -83 -10 -27 29 -27 120 -1 149 24 26 48 27 71 1z"/>
<path d="M5753 1970 c-27 -16 -33 -17 -33 -5 0 11 -11 15 -37 15 -31 -1 -35
-3 -20 -11 14 -8 17 -25 17 -99 0 -53 -4 -90 -10 -90 -5 0 -10 -4 -10 -10 0
-5 21 -10 47 -10 44 0 45 1 30 18 -26 29 -23 136 4 163 42 42 79 2 79 -88 0
-33 -5 -57 -15 -67 -23 -22 -19 -26 30 -26 41 0 61 13 33 22 -7 3 -13 37 -16
91 -4 75 -8 90 -25 102 -28 19 -36 19 -74 -5z"/>
<path d="M5975 1976 c-40 -12 -63 -46 -31 -46 9 0 16 4 16 10 0 5 9 14 20 20
27 14 58 -3 66 -36 7 -29 -7 -44 -43 -44 -34 0 -70 -20 -81 -44 -23 -51 32
-92 86 -65 15 7 30 15 35 17 4 2 7 -3 7 -12 0 -11 9 -16 30 -16 17 0 30 5 30
10 0 6 -4 10 -10 10 -6 0 -10 33 -10 80 0 73 -3 83 -25 105 -27 28 -33 29 -90
11z m73 -133 c-6 -50 -76 -78 -92 -37 -9 22 4 42 32 53 49 17 64 14 60 -16z"/>
<path d="M6243 1970 c-27 -16 -33 -17 -33 -5 0 11 -11 15 -37 15 -31 -1 -35
-3 -20 -11 14 -8 17 -25 17 -99 0 -53 -4 -90 -10 -90 -5 0 -10 -4 -10 -10 0
-5 20 -10 45 -10 44 0 60 12 30 24 -25 9 -21 130 5 156 24 24 33 25 50 5 19
-23 30 -18 30 15 0 36 -20 39 -67 10z"/>
<path d="M7064 1980 c-12 -5 -25 -13 -29 -19 -9 -16 -25 -13 -25 4 0 10 -10
15 -31 15 -29 0 -30 -1 -15 -22 22 -30 22 -151 1 -172 -23 -22 -19 -26 30 -26
49 0 53 4 30 26 -10 10 -15 35 -15 69 0 42 5 60 24 82 23 27 25 27 43 10 27
-24 33 -22 33 13 0 31 -9 35 -46 20z"/>
<path d="M7214 1980 c-37 -15 -64 -59 -64 -106 0 -77 32 -114 100 -114 32 0
99 49 68 50 -9 0 -20 -4 -23 -10 -3 -5 -21 -10 -40 -10 -38 0 -65 28 -65 67 0
22 4 23 70 23 70 0 70 0 70 28 -1 34 -19 58 -54 72 -32 12 -34 12 -62 0z m58
-27 c10 -9 18 -27 18 -40 0 -22 -3 -24 -47 -21 -45 3 -48 5 -45 28 2 24 26 50
46 50 5 0 18 -7 28 -17z"/>
<path d="M7430 1983 c-28 -10 -50 -36 -50 -58 0 -26 21 -46 73 -70 32 -15 38
-22 35 -44 -4 -35 -50 -42 -82 -12 -24 22 -36 19 -36 -10 0 -34 108 -41 140
-9 41 41 17 88 -60 120 -21 9 -30 19 -30 36 0 35 44 43 74 15 29 -27 36 -27
36 3 0 18 -7 25 -31 30 -36 7 -48 7 -69 -1z"/>
<path d="M7632 1983 c-29 -6 -56 -46 -47 -73 4 -11 28 -31 55 -45 52 -26 62
-40 48 -67 -12 -25 -64 -24 -80 2 -17 27 -28 25 -28 -4 0 -27 16 -36 69 -36
85 0 110 72 41 117 -72 46 -76 50 -64 70 16 26 50 28 71 4 23 -27 33 -26 33 3
0 18 -7 25 -31 30 -17 3 -34 5 -38 5 -3 -1 -16 -4 -29 -6z"/>
<path d="M8154 1980 c-12 -5 -25 -13 -29 -19 -9 -16 -25 -13 -25 4 0 10 -10
15 -32 15 -29 0 -30 -1 -15 -18 23 -25 24 -154 2 -176 -23 -22 -19 -26 30 -26
49 0 53 4 30 26 -10 10 -15 35 -15 69 0 42 5 60 24 82 24 27 25 27 44 9 25
-22 39 -15 37 16 -2 25 -19 31 -51 18z"/>
<path d="M8304 1980 c-40 -16 -64 -59 -64 -112 0 -64 38 -108 94 -108 37 0
110 49 74 50 -9 0 -20 -4 -23 -10 -3 -5 -21 -10 -40 -10 -38 0 -65 28 -65 67
0 22 4 23 70 23 68 0 70 1 70 26 0 38 -16 61 -51 73 -37 13 -37 13 -65 1z m60
-26 c9 -8 16 -27 16 -40 0 -24 -3 -25 -47 -22 -45 3 -48 5 -45 28 4 44 47 63
76 34z"/>
<path d="M4634 1964 c12 -11 16 -36 16 -94 0 -58 4 -83 16 -94 21 -22 56 -20
88 5 l26 20 0 -20 c0 -17 6 -21 37 -21 34 0 35 1 20 18 -13 15 -17 39 -17 110
l0 92 -37 0 c-31 -1 -35 -3 -20 -11 13 -8 17 -24 17 -78 0 -76 -18 -105 -62
-99 -22 3 -23 7 -26 96 l-3 92 -35 0 c-32 0 -34 -1 -20 -16z"/>
<path d="M6338 1967 c6 -6 27 -56 47 -109 34 -92 35 -99 21 -126 -16 -32 -42
-47 -51 -32 -11 18 -25 10 -25 -15 0 -19 5 -25 21 -25 35 0 78 58 129 174 26
60 55 117 64 127 15 18 14 19 -31 19 -42 0 -45 -1 -28 -14 18 -13 17 -16 -11
-84 -32 -78 -33 -78 -65 16 -18 54 -19 58 -2 69 14 11 10 13 -31 13 -38 0 -46
-3 -38 -13z"/>
<path d="M7788 1968 c7 -7 12 -42 12 -88 0 -115 40 -150 112 -99 28 20 29 20
26 3 -2 -15 4 -20 30 -22 33 -3 44 11 17 22 -12 4 -15 25 -15 101 l0 95 -32 0
c-25 0 -29 -3 -20 -12 7 -7 12 -41 12 -83 0 -75 -9 -95 -45 -95 -37 0 -45 20
-45 107 l0 83 -32 0 c-25 0 -29 -3 -20 -12z"/>
<path d="M8580 1895 c0 -13 22 -15 140 -15 118 0 140 2 140 15 0 13 -22 15
-140 15 -118 0 -140 -2 -140 -15z"/>
<path d="M4220 1501 c-21 -6 -22 -8 -7 -14 15 -6 17 -22 17 -145 0 -94 -4
-142 -12 -150 -9 -9 -1 -12 38 -12 38 1 45 3 32 11 -16 9 -18 28 -18 164 0
165 2 160 -50 146z"/>
<path d="M4346 1503 c-15 -4 -16 -7 -5 -14 22 -13 26 -252 5 -284 l-16 -25 46
0 c45 0 46 1 31 18 -14 16 -17 43 -17 165 0 153 1 151 -44 140z"/>
<path d="M6040 1501 c-21 -6 -22 -8 -7 -14 12 -5 17 -18 17 -49 l0 -43 -45 3
c-39 4 -49 0 -75 -26 -25 -26 -30 -38 -30 -81 0 -97 45 -137 114 -101 29 14
36 15 36 4 0 -9 12 -14 37 -14 32 0 35 2 20 13 -14 10 -17 35 -19 161 -2 89
-7 150 -13 152 -5 1 -21 -1 -35 -5z m-2 -133 c7 -7 12 -38 12 -70 0 -45 -5
-63 -20 -78 -44 -44 -90 -9 -90 70 0 25 7 56 16 68 17 24 62 30 82 10z"/>
<path d="M8490 1502 c0 -5 14 -19 31 -31 44 -33 69 -93 69 -171 0 -36 -5 -83
-11 -104 -11 -39 -50 -88 -79 -98 -8 -3 -11 -9 -7 -14 15 -15 78 30 104 74 21
35 27 62 31 121 3 68 1 82 -25 131 -31 61 -113 127 -113 92z"/>
<path d="M2133 1476 c15 -11 17 -31 17 -144 0 -114 -2 -132 -17 -141 -14 -8
-9 -10 26 -11 34 0 41 3 33 13 -10 12 -22 250 -12 240 3 -2 23 -52 45 -111 22
-58 45 -107 51 -109 7 -2 30 43 54 104 24 59 46 111 49 115 3 4 4 -46 3 -110
-2 -64 -8 -123 -14 -129 -8 -10 0 -13 37 -13 46 0 47 1 32 18 -14 15 -17 41
-17 137 0 96 3 122 17 137 15 17 14 18 -25 18 l-40 0 -42 -107 c-23 -60 -43
-109 -45 -111 -2 -2 -20 47 -41 107 l-39 111 -45 0 c-40 -1 -43 -2 -27 -14z"/>
<path d="M3387 1470 c-41 -32 -57 -72 -57 -140 0 -68 19 -118 52 -139 21 -13
130 -17 149 -6 5 4 9 19 9 36 0 33 -25 41 -33 9 -11 -41 -83 -45 -110 -6 -34
51 -31 179 7 223 30 34 73 34 101 -1 28 -35 37 -33 33 7 -3 32 -3 32 -64 35
-49 2 -65 -1 -87 -18z"/>
<path d="M4102 1468 c5 -34 38 -37 38 -4 0 20 -5 26 -21 26 -15 0 -20 -5 -17
-22z"/>
<path d="M5222 1473 c8 -10 29 -72 47 -138 18 -66 34 -128 37 -137 3 -10 14
-18 24 -18 19 0 42 59 73 191 7 27 14 49 17 49 4 0 19 -54 35 -120 39 -163 50
-162 105 8 23 70 51 139 61 155 l20 27 -48 0 c-36 0 -44 -3 -35 -12 7 -7 12
-21 12 -32 0 -26 -53 -206 -60 -206 -3 0 -14 42 -24 93 -29 141 -35 157 -56
157 -19 0 -22 -9 -66 -167 -8 -32 -18 -65 -21 -73 -3 -8 -19 37 -35 100 -28
108 -28 115 -12 127 15 11 10 13 -36 13 -50 0 -52 -1 -38 -17z"/>
<path d="M6733 1480 c15 -10 17 -28 17 -145 0 -117 -2 -135 -17 -144 -14 -8
-6 -10 36 -11 52 0 53 1 38 18 -11 12 -17 36 -17 64 l0 45 53 6 c65 8 97 39
97 96 0 61 -24 75 -134 79 -68 2 -87 0 -73 -8z m140 -22 c9 -7 20 -27 23 -45
8 -41 -30 -83 -76 -83 l-30 0 0 70 0 70 33 0 c18 0 41 -6 50 -12z"/>
<path d="M2551 1384 c-53 -37 -62 -133 -18 -181 27 -30 94 -31 128 -4 33 26
19 36 -20 14 -28 -16 -33 -17 -58 -3 -17 10 -30 27 -34 48 l-6 32 73 0 c56 0
74 3 74 14 0 28 -23 77 -40 86 -28 15 -73 12 -99 -6z m88 -35 c6 -18 11 -34
11 -35 0 -2 -22 -4 -50 -4 -39 0 -50 4 -50 16 0 32 20 54 49 54 24 0 31 -6 40
-31z"/>
<path d="M2768 1388 c-17 -6 -28 -17 -28 -29 0 -25 22 -24 38 1 14 22 51 27
70 8 7 -7 12 -24 12 -39 0 -23 -5 -27 -42 -33 -60 -10 -88 -30 -88 -65 0 -49
42 -68 94 -41 29 14 36 15 36 4 0 -9 11 -14 32 -14 25 0 29 3 20 12 -7 7 -12
42 -12 88 0 95 -15 120 -68 119 -20 0 -49 -5 -64 -11z m92 -131 c0 -54 -81
-79 -88 -28 -5 30 20 51 60 51 23 0 28 -4 28 -23z"/>
<path d="M2960 1390 c0 -5 5 -10 10 -10 15 0 13 -173 -2 -188 -9 -9 -1 -12 37
-12 46 0 47 1 32 18 -25 27 -23 133 1 155 25 23 59 21 72 -2 16 -31 13 -137
-6 -155 -14 -15 -11 -16 32 -16 36 0 44 3 36 13 -5 6 -12 49 -14 94 -3 46 -10
89 -18 97 -18 22 -62 20 -94 -5 l-26 -20 0 20 c0 17 -6 21 -30 21 -16 0 -30
-4 -30 -10z"/>
<path d="M3628 1389 c-17 -7 -28 -18 -28 -30 0 -24 12 -24 35 1 35 39 85 17
85 -38 0 -15 -9 -21 -40 -25 -58 -8 -90 -31 -90 -66 0 -49 42 -68 94 -41 29
14 36 15 36 4 0 -9 11 -14 32 -14 25 0 29 3 20 12 -7 7 -12 41 -12 83 0 94
-14 119 -65 122 -22 1 -52 -3 -67 -8z m90 -136 c-6 -50 -81 -70 -96 -25 -6 19
37 52 69 52 27 0 30 -3 27 -27z"/>
<path d="M3810 1391 c0 -5 7 -11 15 -15 12 -4 15 -29 15 -139 0 -90 -4 -137
-12 -145 -9 -9 -1 -12 38 -12 43 1 47 2 32 14 -12 8 -18 27 -18 51 0 35 2 37
26 32 44 -8 92 11 109 43 22 43 19 122 -6 154 -25 32 -67 34 -100 6 l-24 -19
36 6 c30 4 39 1 53 -18 18 -26 21 -84 6 -123 -13 -34 -54 -44 -81 -20 -17 15
-20 29 -19 84 4 112 4 110 -35 110 -19 0 -35 -4 -35 -9z"/>
<path d="M4080 1390 c0 -5 5 -10 10 -10 15 0 13 -173 -2 -188 -9 -9 -1 -12 37
-12 46 0 47 1 32 18 -13 15 -17 39 -17 110 l0 92 -30 0 c-16 0 -30 -4 -30 -10z"/>
<path d="M4498 1384 c-30 -16 -35 -28 -16 -40 7 -4 18 2 26 14 27 42 82 22 82
-29 0 -24 -5 -27 -44 -33 -69 -11 -100 -50 -76 -97 13 -24 81 -27 100 -4 7 8
16 15 21 15 5 0 9 -7 9 -15 0 -10 10 -15 31 -15 28 0 29 1 15 16 -12 11 -16
36 -16 94 0 58 -4 83 -16 94 -19 20 -80 20 -116 0z m92 -128 c0 -33 -27 -58
-59 -54 -56 6 -29 78 30 78 24 0 29 -4 29 -24z"/>
<path d="M4690 1391 c0 -5 7 -11 15 -15 22 -8 21 -158 -1 -180 -14 -15 -11
-16 32 -16 39 0 45 2 35 14 -7 9 -11 42 -9 87 3 81 20 105 58 81 29 -18 40
-15 40 13 0 21 -5 25 -29 25 -15 0 -41 -10 -56 -22 l-27 -21 6 21 c7 20 4 22
-28 22 -20 0 -36 -4 -36 -9z"/>
<path d="M4881 1383 c8 -9 30 -59 50 -112 34 -89 35 -98 22 -124 -17 -33 -38
-44 -57 -28 -15 13 -26 5 -26 -21 0 -13 8 -18 29 -18 41 0 67 35 130 178 30
67 58 122 62 122 5 0 9 5 9 10 0 6 -18 10 -40 10 -38 0 -54 -13 -27 -23 9 -3
7 -17 -7 -61 -33 -95 -38 -97 -66 -15 -19 54 -22 73 -12 76 28 10 9 23 -34 23
-42 0 -45 -2 -33 -17z"/>
<path d="M5699 1371 c-25 -26 -29 -37 -29 -86 0 -81 36 -114 114 -105 27 3 67
30 60 41 -3 5 -15 2 -27 -6 -45 -32 -107 -3 -107 50 0 24 2 25 70 25 l70 0 0
30 c0 75 -95 107 -151 51z m101 -10 c21 -41 13 -51 -40 -51 -54 0 -61 10 -34
48 19 27 60 29 74 3z"/>
<path d="M6185 1375 c-29 -28 -32 -61 -9 -93 15 -22 15 -25 -2 -43 -15 -17
-16 -23 -6 -40 10 -16 10 -23 -3 -35 -40 -41 -2 -84 74 -84 78 0 111 21 111
71 0 38 -24 53 -94 59 -45 4 -61 9 -61 20 0 10 14 17 47 20 67 8 91 33 85 87
-4 37 -2 43 14 43 11 0 19 5 19 10 0 6 -32 10 -75 10 -67 0 -79 -3 -100 -25z
m93 -7 c17 -17 15 -73 -2 -88 -42 -34 -92 22 -68 75 13 27 49 34 70 13z m36
-214 c16 -41 -44 -75 -98 -55 -32 13 -43 36 -26 56 18 21 116 21 124 -1z"/>
<path d="M6419 1371 c-25 -25 -29 -37 -29 -84 0 -77 25 -107 89 -107 34 0 53
5 64 18 25 28 20 34 -13 17 -16 -8 -36 -15 -45 -15 -23 0 -55 37 -55 65 0 24
2 25 71 25 l72 0 -6 38 c-12 74 -93 98 -148 43z m101 -17 c16 -41 13 -44 -40
-44 -43 0 -50 3 -50 19 0 50 73 71 90 25z"/>
<path d="M6993 1382 c21 -23 24 -171 5 -190 -9 -9 -1 -12 38 -12 39 1 45 3 31
11 -16 9 -18 23 -17 87 3 127 5 122 -37 122 -34 0 -35 -1 -20 -18z"/>
<path d="M7078 1386 c-25 -19 -22 -27 6 -20 13 3 27 1 30 -5 13 -21 36 -12 36
14 0 21 -5 25 -27 25 -16 0 -36 -7 -45 -14z"/>
<path d="M7235 1388 c-47 -27 -64 -89 -43 -153 10 -32 20 -42 48 -51 38 -13
85 -4 109 21 22 21 6 30 -21 11 -12 -9 -30 -16 -39 -16 -25 0 -57 31 -65 63
l-6 27 76 0 c57 0 76 3 76 14 0 28 -23 77 -40 86 -25 13 -70 12 -95 -2z m73
-20 c7 -7 12 -22 12 -35 0 -21 -5 -23 -45 -23 -48 0 -56 11 -35 51 12 21 50
25 68 7z"/>
<path d="M7448 1389 c-54 -31 -40 -82 30 -113 23 -10 43 -25 46 -32 17 -43
-41 -69 -78 -35 -29 27 -36 27 -36 -3 0 -20 6 -25 38 -28 20 -3 53 0 72 6 32
10 35 14 35 51 0 38 -3 42 -48 65 -46 24 -65 49 -52 70 9 15 61 12 75 -5 18
-22 30 -18 30 10 0 23 -3 25 -47 25 -27 0 -56 -5 -65 -11z"/>
<path d="M7642 1384 c-17 -12 -22 -24 -20 -47 3 -27 11 -36 56 -60 57 -31 68
-58 31 -78 -23 -12 -69 2 -69 21 0 5 -7 10 -15 10 -9 0 -15 -9 -15 -24 0 -20
6 -24 40 -29 55 -7 92 5 109 35 18 32 9 54 -30 76 -56 30 -81 56 -74 75 9 22
70 24 79 2 9 -24 26 -17 26 10 0 23 -3 25 -48 25 -27 0 -57 -7 -70 -16z"/>
<path d="M7810 1390 c0 -5 5 -10 10 -10 6 0 10 -31 10 -72 0 -116 34 -154 104
-118 29 14 36 15 36 4 0 -9 11 -14 31 -14 25 0 29 3 21 13 -6 7 -13 56 -14
108 l-3 94 -35 3 c-33 3 -34 3 -17 -15 26 -29 24 -136 -3 -163 -22 -22 -37
-25 -60 -10 -11 7 -16 33 -18 100 l-4 90 -29 0 c-16 0 -29 -4 -29 -10z"/>
<path d="M8083 1382 c21 -23 24 -171 5 -190 -9 -9 -1 -12 38 -12 38 1 45 3 32
11 -28 16 -26 139 3 165 16 15 24 16 39 6 29 -18 40 -15 40 13 0 20 -5 25 -27
25 -15 0 -37 -10 -50 -22 l-23 -21 0 21 c0 19 -6 22 -37 22 -34 0 -35 -1 -20
-18z"/>
<path d="M8324 1388 c-32 -15 -49 -55 -48 -110 1 -63 33 -100 88 -100 37 0 86
24 86 42 0 14 -12 12 -34 -5 -11 -8 -27 -15 -37 -15 -25 0 -56 31 -63 63 l-6
27 75 0 c56 0 75 3 75 14 0 28 -23 77 -40 86 -24 13 -69 12 -96 -2z m85 -39
c6 -18 11 -34 11 -35 0 -2 -22 -4 -50 -4 -39 0 -50 4 -50 16 0 32 20 54 49 54
24 0 31 -6 40 -31z"/>
<path d="M1870 1005 c0 -13 397 -15 3515 -15 3118 0 3515 2 3515 15 0 13 -397
15 -3515 15 -3118 0 -3515 -2 -3515 -15z"/>
<path d="M6159 877 c-57 -38 -83 -98 -83 -192 0 -104 30 -167 97 -202 43 -22
44 -8 3 27 -48 42 -71 119 -63 207 7 73 24 111 67 146 50 42 35 52 -21 14z"/>
<path d="M6602 691 c-51 -115 -92 -212 -92 -216 0 -3 7 -5 16 -3 9 2 50 81
105 206 49 112 89 207 89 213 0 5 -6 9 -13 9 -8 0 -52 -89 -105 -209z"/>
<path d="M7580 890 c0 -5 6 -10 13 -10 19 0 63 -49 77 -85 7 -16 12 -66 13
-110 0 -93 -25 -156 -74 -183 -30 -18 -38 -32 -16 -32 25 0 85 50 103 87 12
25 20 67 22 120 3 70 1 90 -18 128 -28 58 -120 123 -120 85z"/>
<path d="M3853 862 c10 -10 17 -35 17 -55 l0 -37 -49 0 c-43 0 -53 -4 -75 -31
-21 -24 -26 -41 -26 -83 0 -92 59 -134 125 -90 23 15 25 15 25 0 0 -12 10 -16
38 -16 33 1 35 2 20 14 -16 12 -18 32 -18 165 l0 151 -37 0 c-34 0 -35 -1 -20
-18z m1 -118 c11 -10 16 -34 16 -70 0 -74 -12 -94 -56 -94 -28 0 -36 5 -44 26
-18 47 -12 103 15 129 28 29 47 31 69 9z"/>
<path d="M3101 853 c-84 -42 -97 -232 -20 -287 23 -16 111 -22 143 -10 19 7
22 64 3 64 -7 0 -17 -10 -22 -22 -14 -31 -74 -37 -98 -10 -27 30 -39 118 -24
176 21 84 96 114 125 51 15 -32 32 -24 32 14 0 24 -5 30 -31 35 -48 9 -71 7
-108 -11z"/>
<path d="M4720 853 c-46 -24 -70 -73 -70 -146 0 -75 20 -121 61 -142 42 -22
112 -15 143 14 61 57 60 209 0 263 -31 27 -93 32 -134 11z m97 -27 c26 -22 28
-30 31 -108 3 -70 0 -88 -18 -116 -18 -29 -25 -33 -57 -30 -52 4 -76 47 -76
137 0 122 53 174 120 117z"/>
<path d="M4000 840 c0 -13 7 -20 20 -20 13 0 20 7 20 20 0 13 -7 20 -20 20
-13 0 -20 -7 -20 -20z"/>
<path d="M6310 851 c12 -8 10 -28 -14 -138 -15 -70 -35 -136 -43 -145 -15 -17
-11 -18 80 -18 53 0 98 3 101 8 10 16 18 82 10 82 -5 -1 -18 -15 -29 -33 -17
-27 -27 -33 -63 -35 -51 -4 -50 -10 -17 136 14 61 25 113 25 116 0 2 7 12 16
20 14 15 11 16 -33 16 -33 0 -43 -3 -33 -9z"/>
<path d="M7230 840 c0 -13 7 -20 20 -20 13 0 20 7 20 20 0 13 -7 20 -20 20
-13 0 -20 -7 -20 -20z"/>
<path d="M5240 816 c0 -7 -9 -25 -21 -40 -17 -21 -18 -26 -5 -26 13 0 16 -14
16 -78 0 -90 15 -122 58 -122 26 1 62 20 62 33 0 4 -14 4 -31 0 -41 -8 -49 6
-49 95 l0 72 35 0 c19 0 35 5 35 10 0 6 -16 10 -35 10 -32 0 -35 2 -35 30 0
20 -5 30 -15 30 -8 0 -15 -6 -15 -14z"/>
<path d="M5927 824 c-4 -4 -7 -15 -7 -25 0 -10 -9 -24 -20 -32 l-21 -14 21 -6
c18 -5 20 -13 20 -82 0 -42 5 -85 10 -96 12 -21 50 -25 81 -9 28 16 23 25 -13
25 l-33 0 -3 83 -3 82 36 0 c19 0 35 5 35 10 0 6 -15 10 -34 10 -30 0 -35 4
-38 27 -3 26 -18 39 -31 27z"/>
<path d="M3323 758 c-25 -12 -31 -38 -9 -38 7 0 19 7 26 15 15 18 51 20 68 3
7 -7 12 -24 12 -39 0 -24 -4 -27 -45 -32 -55 -6 -85 -30 -85 -68 0 -46 62 -65
108 -33 20 14 22 14 22 0 0 -11 10 -16 30 -16 17 0 30 5 30 10 0 6 -4 10 -9
10 -5 0 -11 41 -13 90 -2 67 -7 93 -18 100 -20 13 -89 11 -117 -2z m97 -128
c0 -20 -8 -35 -25 -46 -32 -21 -65 -10 -65 20 0 28 15 42 50 49 14 2 28 5 33
6 4 0 7 -12 7 -29z"/>
<path d="M3528 758 c16 -16 16 -180 0 -196 -9 -9 -1 -12 37 -12 46 0 47 1 32
18 -22 24 -23 119 -1 150 16 23 48 29 59 12 11 -18 25 -10 25 15 0 20 -5 25
-27 25 -15 0 -37 -10 -50 -22 l-23 -21 0 21 c0 18 -6 22 -32 22 -25 0 -29 -3
-20 -12z"/>
<path d="M3983 759 c14 -8 17 -25 17 -99 0 -53 -4 -90 -10 -90 -5 0 -10 -4
-10 -10 0 -5 21 -10 47 -10 44 0 45 1 30 18 -13 15 -17 39 -17 110 l0 92 -37
0 c-31 -1 -35 -3 -20 -11z"/>
<path d="M4143 760 c-13 -5 -23 -16 -23 -25 0 -19 26 -20 34 0 3 9 18 15 36
15 24 0 33 -6 41 -27 13 -35 5 -53 -24 -53 -41 0 -84 -20 -97 -45 -28 -53 44
-99 96 -60 25 19 34 19 34 0 0 -10 10 -15 30 -15 29 0 41 15 18 22 -7 3 -13
35 -15 88 -2 46 -8 89 -14 97 -13 15 -82 17 -116 3z m95 -124 c4 -19 -34 -66
-53 -66 -6 0 -19 6 -29 13 -27 20 -12 55 27 66 40 11 51 9 55 -13z"/>
<path d="M4370 741 c-25 -24 -30 -38 -30 -76 0 -100 59 -142 141 -100 16 9 27
20 24 25 -4 7 -13 6 -25 0 -31 -17 -68 -12 -84 12 -23 32 -20 100 5 132 25 31
43 33 66 6 24 -27 45 -26 41 3 -3 19 -10 22 -56 25 -47 3 -56 0 -82 -27z"/>
<path d="M4953 759 c14 -8 17 -24 17 -93 0 -68 3 -86 18 -99 23 -21 62 -22 88
-2 25 19 35 19 28 0 -5 -12 2 -15 31 -15 36 0 37 1 22 18 -13 15 -17 39 -17
110 l0 92 -32 0 c-25 0 -29 -3 -20 -12 7 -7 12 -41 12 -83 0 -78 -9 -95 -51
-95 -34 0 -39 13 -39 111 l0 79 -37 0 c-31 -1 -35 -3 -20 -11z"/>
<path d="M5383 752 c14 -15 17 -41 17 -142 0 -101 -3 -127 -17 -142 -15 -17
-14 -18 30 -18 42 0 63 12 38 22 -5 2 -11 21 -13 43 l-3 40 42 -3 c23 -2 51 2
62 8 50 26 66 120 31 178 -16 26 -26 32 -53 32 -18 0 -42 -7 -53 -15 -25 -19
-38 -19 -30 0 4 12 -3 15 -31 15 -34 0 -35 -1 -20 -18z m143 -23 c22 -25 26
-118 5 -143 -18 -21 -77 -21 -85 0 -3 9 -6 42 -6 74 0 49 4 61 22 74 30 21 41
20 64 -5z"/>
<path d="M5644 748 c11 -15 16 -45 16 -95 0 -52 4 -76 16 -87 20 -20 68 -21
84 -1 7 8 16 15 21 15 5 0 9 -7 9 -15 0 -11 11 -15 38 -15 33 1 35 2 20 14
-15 11 -18 30 -18 110 l0 96 -37 0 c-31 -1 -35 -3 -20 -11 13 -8 17 -24 17
-79 0 -76 -14 -100 -56 -100 -32 0 -44 32 -44 121 l0 69 -31 0 c-29 0 -30 -1
-15 -22z"/>
<path d="M6778 756 c-10 -7 -18 -19 -18 -26 0 -9 6 -7 20 5 35 32 41 7 20 -83
-24 -101 -24 -102 -2 -102 15 0 21 14 31 66 10 47 22 76 43 100 55 62 79 34
53 -64 -20 -79 -20 -104 2 -100 12 2 21 21 30 65 13 67 35 108 65 124 31 17
41 1 33 -50 -4 -25 -8 -66 -9 -91 -1 -40 2 -45 22 -48 13 -2 32 4 43 14 27 24
24 37 -5 19 -34 -23 -39 -7 -20 69 21 86 14 116 -28 116 -18 0 -41 -9 -54 -21
l-22 -21 -11 21 c-16 30 -62 27 -94 -5 l-25 -25 -4 23 c-4 27 -43 35 -70 14z"/>
<path d="M7193 758 c16 -12 16 -18 0 -93 -9 -45 -14 -89 -10 -98 8 -22 50 -22
70 1 24 26 21 39 -3 17 -11 -10 -23 -15 -27 -11 -6 6 4 80 23 169 6 26 5 27
-32 27 -32 0 -35 -2 -21 -12z"/>
<path d="M7320 752 c-14 -11 -19 -21 -13 -25 6 -4 16 0 23 8 33 40 38 4 14
-104 -9 -40 -14 -75 -11 -78 16 -16 35 12 46 67 9 46 21 71 46 98 31 34 35 36
50 21 14 -14 14 -21 -1 -86 -19 -78 -15 -103 16 -103 27 0 72 29 64 42 -3 5
-14 2 -25 -8 -17 -15 -19 -15 -25 -1 -3 9 1 45 9 79 18 80 9 108 -33 108 -19
0 -40 -9 -55 -24 -24 -24 -24 -24 -27 -2 -4 28 -47 33 -78 8z"/>
</g>
</svg>
