<?xml version="1.0" standalone="no"?>
<!DOCTYPE svg PUBLIC "-//W3C//DTD SVG 20010904//EN"
 "http://www.w3.org/TR/2001/REC-SVG-20010904/DTD/svg10.dtd">
<svg version="1.0" xmlns="http://www.w3.org/2000/svg"
 width="1080" height="291" viewBox="0 0 1080 291"
 preserveAspectRatio="xMidYMid meet">

<g transform="translate(0.000000,291.000000) scale(0.100000,-0.100000)"
fill="#000000" stroke="none">
<path d="M5448 2353 c-31 -5 -37 -18 -13 -27 23 -8 22 -281 -1 -290 -28 -11
-4 -26 41 -26 46 0 66 13 40 27 -12 7 -15 38 -17 162 -2 93 -7 155 -13 156 -5
1 -22 0 -37 -2z"/>
<path d="M2760 2331 c0 -6 5 -13 10 -16 6 -4 10 -62 10 -140 0 -78 -4 -136
-10 -140 -23 -14 -7 -25 35 -25 49 0 53 4 30 30 -13 14 -15 39 -13 121 l3 104
39 -107 c50 -141 59 -142 114 -5 l41 102 0 -106 c1 -88 -2 -108 -15 -113 -29
-11 -3 -26 47 -26 50 0 60 8 34 30 -12 10 -15 39 -15 142 0 105 3 130 15 134
29 12 14 24 -29 24 l-43 0 -38 -102 c-21 -57 -41 -106 -44 -110 -4 -4 -24 42
-45 102 l-38 110 -44 0 c-24 0 -44 -4 -44 -9z"/>
<path d="M4040 2194 c-29 -80 -60 -148 -67 -151 -7 -3 -13 -11 -13 -19 0 -10
14 -14 49 -14 50 0 74 13 46 24 -16 6 -20 52 -6 74 5 9 24 12 57 10 45 -3 49
-5 58 -37 8 -27 7 -35 -7 -43 -31 -17 -17 -28 36 -28 63 0 73 7 50 32 -10 11
-36 81 -59 156 -37 124 -44 137 -65 140 -23 3 -28 -7 -79 -144z m93 14 l16
-58 -44 0 -43 0 21 65 c12 36 24 62 27 57 4 -4 14 -33 23 -64z"/>
<path d="M5090 2310 c0 -25 4 -30 25 -30 21 0 25 5 25 30 0 25 -4 30 -25 30
-21 0 -25 -5 -25 -30z"/>
<path d="M5660 2332 c0 -5 7 -12 15 -16 23 -8 22 -271 -1 -280 -29 -11 -3 -26
46 -26 56 0 67 9 39 33 -13 12 -19 30 -19 62 l0 45 40 0 c55 0 86 17 105 57
19 40 13 83 -17 109 -16 15 -40 20 -114 22 -58 3 -94 0 -94 -6z m162 -39 c22
-20 23 -70 1 -95 -9 -10 -30 -18 -50 -18 l-33 0 0 65 0 65 32 0 c17 0 40 -7
50 -17z"/>
<path d="M4500 2286 c0 -7 -9 -25 -20 -39 -24 -30 -25 -37 -5 -37 12 0 15 -16
15 -80 0 -67 3 -83 20 -100 24 -24 57 -26 88 -4 28 19 21 33 -14 26 -36 -7
-44 10 -44 90 l0 67 37 3 c50 4 55 26 6 30 -33 3 -38 7 -41 31 -2 19 -9 27
-23 27 -10 0 -19 -6 -19 -14z"/>
<path d="M3201 2236 c-35 -19 -50 -54 -51 -114 0 -46 4 -58 29 -83 21 -20 39
-29 63 -29 41 0 105 37 90 52 -7 7 -16 6 -30 -1 -53 -28 -102 -5 -102 48 0 19
6 21 70 21 68 0 70 1 70 25 0 75 -73 118 -139 81z m79 -35 c18 -34 11 -41 -35
-41 -49 0 -56 11 -28 42 21 24 50 23 63 -1z"/>
<path d="M3418 2233 c-25 -10 -38 -22 -38 -34 0 -26 36 -25 50 1 20 38 70 18
70 -27 0 -17 -7 -24 -27 -29 -75 -16 -103 -38 -103 -82 0 -25 31 -52 59 -52
12 0 35 7 51 15 27 14 30 14 30 0 0 -11 10 -15 35 -15 37 0 44 10 20 30 -11 9
-15 34 -15 96 0 74 -2 84 -22 98 -28 20 -62 20 -110 -1z m82 -137 c0 -32 -36
-59 -62 -45 -24 13 -23 34 4 53 34 24 58 20 58 -8z"/>
<path d="M3620 2239 c-11 -8 -12 -12 -2 -16 15 -6 17 -179 2 -188 -23 -14 -7
-25 40 -25 51 0 61 8 35 30 -21 17 -20 118 1 148 18 25 59 29 68 6 3 -9 6 -46
6 -84 0 -52 -4 -69 -16 -74 -28 -11 -4 -26 41 -26 45 0 69 15 41 26 -13 5 -16
23 -16 88 0 69 -3 86 -20 104 -24 25 -58 28 -86 7 -25 -19 -34 -19 -34 0 0 17
-37 20 -60 4z"/>
<path d="M4288 2243 c-22 -6 -23 -19 -3 -27 22 -8 22 -171 -1 -180 -29 -11 -3
-26 47 -26 47 0 66 14 34 26 -22 9 -21 136 1 158 18 18 30 20 39 6 3 -5 15
-10 26 -10 14 0 19 7 19 30 0 35 -22 40 -70 15 -27 -14 -30 -14 -30 0 0 15
-24 18 -62 8z"/>
<path d="M4692 2237 c-95 -53 -64 -227 40 -227 35 0 88 29 88 47 0 15 -26 17
-35 3 -3 -5 -22 -10 -40 -10 -36 0 -55 20 -55 59 0 19 6 21 70 21 l70 0 0 31
c0 65 -79 108 -138 76z m78 -36 c18 -34 11 -41 -35 -41 -25 0 -45 5 -45 11 0
25 22 49 45 49 14 0 29 -8 35 -19z"/>
<path d="M4875 2240 c-18 -7 -19 -8 -2 -15 14 -6 17 -21 17 -95 0 -49 -4 -92
-10 -95 -23 -14 -7 -25 40 -25 51 0 61 8 35 30 -23 19 -20 121 4 151 17 21 22
22 40 12 35 -22 48 -16 43 17 -5 34 -34 41 -68 15 -25 -19 -34 -19 -34 0 0 16
-32 19 -65 5z"/>
<path d="M5063 2237 c-3 -5 2 -14 11 -19 23 -13 24 -173 0 -182 -28 -11 -4
-26 41 -26 45 0 69 15 41 26 -13 5 -16 25 -16 110 l0 105 -36 -3 c-19 -1 -38
-6 -41 -11z"/>
<path d="M5238 2233 c-25 -10 -38 -22 -38 -34 0 -25 32 -25 48 1 23 37 72 19
72 -27 0 -17 -7 -24 -27 -29 -56 -12 -68 -17 -85 -32 -10 -8 -18 -27 -18 -42
0 -51 62 -78 106 -45 25 19 34 19 34 0 0 -10 11 -15 35 -15 37 0 44 10 20 30
-11 9 -15 34 -15 96 0 74 -2 84 -22 98 -28 20 -62 20 -110 -1z m82 -136 c0
-31 -18 -47 -52 -47 -23 0 -28 4 -28 25 0 17 7 29 23 35 39 16 57 12 57 -13z"/>
<path d="M5935 2240 c-18 -7 -19 -8 -2 -15 14 -6 17 -21 17 -95 0 -49 -4 -92
-10 -95 -23 -14 -7 -25 40 -25 51 0 61 8 35 30 -23 19 -20 121 4 151 17 21 22
22 40 12 32 -20 41 -16 41 17 0 25 -4 30 -23 30 -13 0 -32 -7 -43 -15 -25 -19
-34 -19 -34 0 0 16 -32 19 -65 5z"/>
<path d="M6181 2236 c-35 -19 -50 -54 -51 -114 0 -46 4 -58 29 -83 21 -20 39
-29 63 -29 41 0 105 37 90 52 -7 7 -16 6 -30 -1 -53 -28 -102 -5 -102 48 0 19
6 21 70 21 68 0 70 1 70 25 0 75 -73 118 -139 81z m79 -35 c18 -34 11 -41 -35
-41 -49 0 -56 11 -28 42 21 24 50 23 63 -1z"/>
<path d="M6399 2235 c-56 -30 -42 -83 31 -120 41 -21 51 -30 48 -48 -4 -31
-62 -37 -78 -8 -16 31 -40 26 -40 -8 0 -32 17 -41 83 -41 27 0 45 7 62 25 43
42 32 76 -36 110 -54 28 -62 36 -53 59 8 20 60 21 68 1 3 -8 14 -15 24 -15 28
0 27 46 -2 54 -36 10 -80 6 -107 -9z"/>
<path d="M6607 2238 c-27 -10 -42 -40 -35 -75 2 -10 27 -31 56 -46 42 -23 53
-33 50 -50 -4 -31 -62 -37 -78 -8 -16 31 -40 26 -40 -8 0 -21 6 -30 23 -35 76
-20 147 10 147 63 0 32 -20 53 -73 75 -31 12 -38 20 -35 38 4 28 54 39 64 14
10 -26 44 -20 44 8 0 35 -61 47 -123 24z"/>
<path d="M7045 2240 c-18 -7 -19 -8 -2 -15 14 -6 17 -21 17 -95 0 -70 -3 -89
-16 -94 -29 -11 -3 -26 47 -26 47 0 66 14 34 26 -11 5 -15 23 -15 74 0 54 4
70 20 85 16 14 23 16 32 7 7 -7 20 -12 30 -12 13 0 18 8 18 30 0 35 -22 40
-70 15 -27 -14 -30 -14 -30 0 0 16 -32 19 -65 5z"/>
<path d="M7283 2230 c-21 -13 -35 -31 -42 -57 -13 -47 -13 -49 0 -95 18 -66
102 -90 156 -44 30 26 25 48 -7 28 -25 -15 -73 -15 -88 0 -7 7 -12 25 -12 40
l0 28 70 0 70 0 0 31 c0 40 -47 89 -87 89 -15 0 -42 -9 -60 -20z m87 -36 c6
-14 10 -27 10 -30 0 -2 -20 -4 -45 -4 -46 0 -53 7 -35 41 16 29 58 25 70 -7z"/>
<path d="M6770 2230 c0 -5 5 -10 10 -10 6 0 10 -32 10 -76 0 -72 10 -111 34
-126 19 -13 55 -9 81 8 23 15 25 15 25 0 0 -12 9 -16 34 -16 38 0 57 16 32 26
-13 5 -16 25 -16 105 l0 99 -42 0 c-39 0 -40 -1 -25 -18 25 -27 23 -133 -1
-155 -10 -10 -25 -17 -33 -17 -30 0 -39 24 -39 107 l0 83 -35 0 c-19 0 -35 -4
-35 -10z"/>
<path d="M7580 2200 c0 -19 7 -20 145 -20 138 0 145 1 145 20 0 19 -7 20 -145
20 -138 0 -145 -1 -145 -20z"/>
<path d="M7580 2110 c0 -19 7 -20 145 -20 138 0 145 1 145 20 0 19 -7 20 -145
20 -138 0 -145 -1 -145 -20z"/>
<path d="M2153 1650 c-80 -48 -118 -150 -111 -299 3 -72 10 -109 27 -149 24
-53 80 -112 106 -112 22 0 19 7 -19 41 -20 17 -42 50 -51 77 -35 100 -29 287
12 366 8 16 29 42 46 57 38 35 32 45 -10 19z"/>
<path d="M8626 1662 c-2 -4 10 -20 29 -35 52 -42 78 -120 78 -242 1 -130 -19
-201 -73 -255 -44 -44 -30 -56 22 -18 106 75 129 354 40 483 -28 41 -87 82
-96 67z"/>
<path d="M2919 1577 c-137 -93 -122 -361 24 -416 37 -14 34 -2 -9 33 -50 40
-67 85 -67 181 -1 97 24 163 72 191 30 18 41 34 22 34 -4 0 -23 -10 -42 -23z"/>
<path d="M4470 1593 c0 -5 14 -16 31 -25 47 -27 73 -96 73 -193 1 -96 -25
-159 -76 -190 -27 -16 -30 -20 -14 -23 44 -9 109 69 126 153 22 107 -18 223
-90 264 -41 23 -50 25 -50 14z"/>
<path d="M6864 1581 c-63 -38 -94 -108 -94 -210 0 -104 48 -187 123 -214 26
-10 21 0 -22 41 -46 44 -61 90 -61 187 0 83 24 142 69 176 51 38 39 53 -15 20z"/>
<path d="M8417 1594 c-3 -4 8 -16 25 -28 57 -38 73 -79 73 -186 0 -110 -17
-157 -71 -194 -44 -30 -32 -41 17 -16 24 13 48 37 66 67 25 43 28 57 28 138 0
106 -22 158 -82 200 -40 27 -46 29 -56 19z"/>
<path d="M2299 1531 c-45 -45 -39 -74 26 -137 30 -30 55 -62 55 -73 0 -26 -30
-59 -62 -66 -26 -7 -58 14 -71 46 -7 19 -27 -8 -27 -37 0 -18 8 -22 51 -27 89
-11 144 25 144 95 0 34 -7 45 -53 87 -28 26 -52 54 -52 62 0 56 91 84 110 34
12 -32 26 -32 34 0 10 39 0 45 -65 45 -54 0 -64 -3 -90 -29z"/>
<path d="M2553 1545 c12 -11 13 -24 6 -57 -40 -188 -52 -229 -67 -238 -13 -7
-2 -9 38 -10 36 0 50 3 41 9 -10 7 -12 22 -8 60 3 28 9 56 12 61 3 6 28 10 55
10 62 0 108 36 117 92 4 30 1 41 -20 62 -24 24 -33 26 -107 26 -72 0 -80 -2
-67 -15z m135 -17 c16 -16 15 -79 -3 -102 -14 -18 -92 -40 -99 -27 -2 3 3 36
11 74 15 66 16 67 47 67 18 0 37 -5 44 -12z"/>
<path d="M3883 1547 c17 -11 16 -21 -13 -147 -19 -87 -36 -139 -47 -147 -14
-11 -8 -13 38 -12 30 0 48 3 42 6 -16 6 -16 36 -2 103 l11 50 65 0 c56 0 64
-2 60 -17 -3 -10 -11 -42 -17 -71 -7 -28 -19 -56 -29 -62 -11 -7 -1 -9 39 -9
30 0 49 3 43 6 -19 7 -16 40 13 171 15 70 32 122 42 130 13 10 7 12 -37 12
-45 0 -50 -2 -38 -14 11 -12 12 -25 4 -70 l-10 -56 -64 0 c-46 0 -63 4 -63 13
0 28 29 110 42 118 8 5 -9 9 -41 9 -47 0 -52 -2 -38 -13z"/>
<path d="M5303 1550 c-15 -6 -23 -18 -23 -35 0 -32 11 -32 38 0 27 31 76 34
92 6 17 -33 11 -66 -17 -103 -92 -118 -123 -161 -123 -169 0 -5 45 -9 100 -9
l100 0 0 35 c0 38 -6 43 -24 21 -11 -14 -109 -26 -121 -15 -2 3 26 40 65 83
78 88 92 125 63 165 -17 22 -29 26 -74 28 -30 1 -64 -2 -76 -7z"/>
<path d="M6161 1542 c9 -15 6 -46 -16 -146 -16 -71 -35 -134 -42 -142 -25 -24
128 -19 177 6 48 25 89 90 96 156 12 101 -34 144 -154 144 -67 0 -71 -1 -61
-18z m144 -27 c51 -50 22 -193 -47 -235 -35 -21 -98 -27 -98 -10 0 11 48 236
55 258 7 21 64 14 90 -13z"/>
<path d="M6500 1545 c10 -12 7 -39 -15 -137 -15 -68 -33 -133 -41 -145 -14
-23 -14 -23 33 -22 27 0 42 3 36 6 -16 6 -16 31 -2 89 11 44 12 44 56 44 78 0
123 40 123 110 0 53 -29 70 -121 70 -71 0 -80 -2 -69 -15z m135 -22 c20 -19
15 -78 -9 -101 -14 -14 -91 -33 -100 -25 -3 4 17 94 29 131 6 18 61 15 80 -5z"/>
<path d="M7831 1542 c14 -22 -35 -257 -59 -284 -14 -17 -12 -18 32 -18 42 0
45 2 35 18 -9 15 -9 33 2 78 l15 59 63 3 63 3 -7 -43 c-4 -24 -15 -60 -25 -80
l-17 -38 43 0 c40 0 43 2 33 18 -14 22 35 257 59 285 14 16 12 17 -33 17 -40
0 -46 -2 -35 -15 9 -11 9 -27 0 -70 l-11 -55 -65 0 c-57 0 -65 2 -60 18 2 9 8
33 11 52 4 19 14 43 23 53 14 16 12 17 -32 17 -42 0 -45 -2 -35 -18z"/>
<path d="M4937 1524 c-4 -4 -7 -36 -7 -71 l0 -63 -66 0 c-48 0 -65 -3 -62 -12
3 -8 28 -14 66 -16 l61 -3 3 -67 c2 -52 6 -67 18 -67 12 0 16 15 18 67 l3 67
61 3 c38 2 63 8 66 16 3 9 -14 12 -62 12 l-65 0 -3 67 c-3 61 -14 84 -31 67z"/>
<path d="M5674 1489 c-3 -6 17 -34 45 -63 l51 -52 -50 -49 c-45 -44 -62 -75
-43 -75 4 0 31 23 60 52 l53 52 55 -54 c43 -43 57 -52 67 -42 10 10 1 24 -42
67 l-54 55 53 54 c36 36 49 56 41 61 -7 5 -32 -12 -64 -44 l-52 -51 -49 50
c-52 53 -60 57 -71 39z"/>
<path d="M3013 1445 c-15 -13 -23 -25 -16 -25 6 0 15 5 18 10 3 6 13 10 21 10
19 0 18 -29 -5 -123 l-19 -78 21 3 c16 2 24 16 37 68 18 73 42 116 72 126 39
12 43 -10 22 -106 l-21 -90 23 0 c18 0 23 7 29 48 10 69 40 130 70 144 43 19
51 0 31 -76 -20 -83 -20 -103 2 -114 20 -11 40 -6 65 16 26 23 20 35 -8 16
-14 -9 -29 -14 -32 -10 -4 3 1 39 10 79 21 88 21 92 1 111 -22 23 -48 20 -82
-9 -29 -25 -31 -25 -37 -6 -13 41 -78 34 -109 -11 -15 -21 -16 -21 -16 -2 0
23 -18 44 -36 44 -7 0 -26 -11 -41 -25z"/>
<path d="M3423 1444 c-26 -24 -22 -26 22 -8 19 8 19 -30 0 -111 -19 -78 -19
-85 4 -85 15 0 21 12 30 63 13 67 45 123 75 133 36 12 41 -11 23 -99 -21 -101
-21 -97 2 -97 15 0 21 12 30 61 12 69 42 125 73 134 37 12 43 -9 24 -88 -18
-77 -15 -101 12 -112 18 -7 63 23 70 46 3 9 -2 8 -17 -5 -37 -33 -47 -9 -27
68 20 81 20 91 0 111 -21 20 -59 13 -91 -17 -19 -18 -23 -19 -23 -5 0 9 -9 21
-21 27 -26 14 -73 -3 -94 -34 -15 -20 -15 -20 -15 0 0 23 -18 44 -36 44 -7 0
-26 -12 -41 -26z"/>
<path d="M4282 1450 c-36 -22 -71 -87 -72 -132 0 -86 68 -111 122 -44 21 25
23 10 6 -46 -14 -46 -50 -78 -88 -78 -35 0 -53 21 -44 54 8 33 -10 34 -31 2
-21 -32 -10 -54 35 -67 65 -20 122 2 154 58 9 15 56 231 56 255 0 15 -4 17
-18 9 -11 -6 -24 -6 -33 0 -22 14 -51 11 -87 -11z m86 -35 c8 -66 -53 -167
-92 -152 -36 14 -27 108 15 161 30 38 73 33 77 -9z"/>
<path d="M6959 1451 c-13 -10 -21 -23 -17 -27 4 -4 15 -1 23 6 30 25 34 -3 15
-90 -24 -105 -24 -100 -2 -100 15 0 22 13 32 58 20 91 61 151 95 139 19 -8 19
-43 0 -122 -19 -76 -19 -75 4 -75 15 0 22 14 35 73 18 79 59 136 90 124 20 -8
20 -36 1 -107 -16 -59 -13 -85 11 -94 21 -8 74 21 74 41 0 14 -2 14 -20 -2
-34 -31 -44 -7 -26 63 20 75 20 106 1 122 -19 15 -59 6 -85 -20 -24 -24 -30
-25 -30 -6 0 43 -60 44 -103 1 l-26 -26 -3 28 c-4 35 -35 42 -69 14z"/>
<path d="M7370 1451 c-29 -23 -22 -39 9 -20 11 7 23 10 27 7 5 -6 -11 -95 -32
-175 -5 -18 -2 -23 14 -23 16 0 22 10 32 53 6 28 14 60 17 70 8 29 54 77 74
77 15 0 19 -7 19 -37 0 -21 -4 -54 -9 -73 -22 -87 -22 -90 -2 -90 15 0 22 12
31 53 6 28 14 60 17 70 8 30 54 77 75 77 22 0 22 0 1 -143 -5 -34 8 -67 26
-67 17 0 71 42 66 51 -5 7 -14 4 -26 -7 -31 -28 -40 -6 -24 56 34 126 0 177
-75 114 -17 -15 -32 -25 -33 -23 -1 2 -7 13 -13 24 -17 31 -48 29 -87 -5 l-36
-31 -3 28 c-4 35 -33 41 -68 14z"/>
<path d="M8228 1454 c-39 -20 -68 -83 -68 -142 0 -78 54 -101 111 -46 35 33
35 31 8 -41 -22 -59 -40 -75 -88 -75 -35 0 -54 25 -40 52 6 11 5 19 -1 23 -16
10 -40 -14 -40 -40 0 -76 157 -69 194 9 17 36 68 267 61 274 -2 3 -10 0 -17
-5 -8 -6 -22 -7 -33 -2 -30 12 -57 10 -87 -7z m82 -19 c23 -27 -20 -144 -61
-165 -34 -19 -49 -5 -49 44 0 53 12 88 40 116 24 24 53 26 70 5z"/>
<path d="M1990 1005 c0 -13 386 -15 3415 -15 3029 0 3415 2 3415 15 0 13 -386
15 -3415 15 -3029 0 -3415 -2 -3415 -15z"/>
<path d="M5343 856 c-22 -10 -33 -22 -33 -36 0 -27 14 -25 44 5 43 43 96 24
96 -35 0 -31 -39 -70 -71 -70 -35 0 -28 -18 11 -24 62 -10 89 -65 54 -114 -22
-32 -78 -30 -100 3 -22 33 -34 32 -34 -4 0 -32 18 -41 82 -41 74 0 112 37 106
100 -2 25 -11 40 -34 55 l-30 20 34 32 c29 27 33 37 28 60 -4 15 -13 34 -21
42 -19 20 -95 24 -132 7z"/>
</g>
</svg>
