<?xml version="1.0" standalone="no"?>
<!DOCTYPE svg PUBLIC "-//W3C//DTD SVG 20010904//EN"
 "http://www.w3.org/TR/2001/REC-SVG-20010904/DTD/svg10.dtd">
<svg version="1.0" xmlns="http://www.w3.org/2000/svg"
 width="1080" height="488" viewBox="0 0 1080 488"
 preserveAspectRatio="xMidYMid meet">

<g transform="translate(0.000000,488.000000) scale(0.100000,-0.100000)"
fill="#000000" stroke="none">
<path d="M3973 4292 c14 -15 17 -41 17 -138 l0 -119 56 -2 c47 -2 59 1 80 22
22 22 25 32 22 82 -3 47 -7 59 -30 76 -24 18 -28 18 -57 4 l-31 -15 0 54 0 54
-37 0 c-34 0 -35 -1 -20 -18z m121 -108 c30 -29 14 -134 -20 -134 -3 0 -14 5
-25 10 -26 15 -28 114 -1 129 23 14 28 14 46 -5z"/>
<path d="M3821 4278 c-58 -153 -83 -214 -93 -225 -8 -10 -1 -13 38 -13 42 0
46 2 29 13 -13 10 -16 21 -11 40 6 24 11 27 50 27 39 0 45 -3 51 -27 5 -20 2
-31 -11 -40 -15 -11 -10 -13 36 -13 50 0 52 1 38 18 -8 9 -30 68 -49 130 -27
88 -38 112 -52 112 -9 0 -21 -10 -26 -22z m37 -84 c16 -56 17 -54 -24 -54 -27
0 -35 4 -31 14 3 8 11 33 18 55 14 47 20 44 37 -15z"/>
<path d="M5180 4291 c0 -6 5 -11 10 -11 6 0 10 -43 10 -109 0 -63 -4 -112 -10
-116 -24 -15 -5 -20 62 -14 40 3 81 9 91 13 28 13 47 61 47 120 0 47 -4 61
-29 88 -27 30 -34 33 -105 36 -51 3 -76 1 -76 -7z m142 -38 c36 -33 35 -136
-3 -174 -10 -10 -32 -19 -49 -19 l-30 0 0 103 c0 57 3 107 7 111 10 10 55 -2
75 -21z"/>
<path d="M5610 4275 c0 -18 5 -25 20 -25 15 0 20 7 20 25 0 18 -5 25 -20 25
-15 0 -20 -7 -20 -25z"/>
<path d="M6000 4290 c0 -5 5 -10 10 -10 15 0 13 -213 -2 -228 -9 -9 -1 -12 36
-12 44 0 46 1 31 16 -10 11 -15 29 -13 53 5 56 36 49 71 -16 24 -45 33 -53 57
-53 l29 0 -39 57 -38 57 24 29 c31 36 30 62 -1 92 -21 22 -33 25 -95 25 -40 0
-70 -4 -70 -10z m121 -20 c13 -7 19 -21 19 -45 0 -36 -20 -55 -59 -55 -18 0
-21 6 -21 48 0 64 15 76 61 52z"/>
<path d="M4790 4253 c0 -9 -7 -25 -17 -35 -15 -17 -15 -18 0 -18 14 0 17 -11
17 -69 0 -91 26 -120 81 -91 28 15 23 29 -8 27 -28 -2 -28 -1 -31 66 l-3 67
31 0 c16 0 30 5 30 10 0 6 -13 10 -30 10 -25 0 -30 4 -30 25 0 18 -5 25 -20
25 -12 0 -20 -7 -20 -17z"/>
<path d="M6450 4255 c0 -8 -10 -23 -22 -35 -18 -17 -19 -20 -5 -20 14 0 17
-11 17 -63 0 -97 38 -133 91 -86 l24 20 -26 -5 c-38 -8 -51 13 -47 76 3 50 5
53 31 56 37 4 35 22 -3 22 -25 0 -30 4 -30 25 0 16 -6 25 -15 25 -8 0 -15 -7
-15 -15z"/>
<path d="M4227 4219 c-27 -11 -45 -48 -32 -69 3 -5 24 -19 46 -30 24 -13 39
-27 39 -39 0 -33 -52 -37 -64 -5 -9 23 -26 16 -26 -10 0 -26 16 -36 59 -36 37
0 71 26 71 55 0 27 -9 37 -57 65 -18 11 -33 27 -33 35 0 20 44 20 60 0 18 -22
30 -18 30 10 0 14 -6 25 -12 25 -7 0 -22 2 -33 5 -11 2 -32 -1 -48 -6z"/>
<path d="M4404 4216 c-93 -40 -53 -198 46 -182 48 8 70 37 70 96 0 77 -50 114
-116 86z m66 -35 c23 -44 2 -131 -31 -131 -31 0 -52 85 -33 134 9 22 51 20 64
-3z"/>
<path d="M4954 4216 c-58 -26 -68 -126 -17 -166 31 -25 56 -25 94 -3 45 27 33
47 -13 22 -30 -16 -68 3 -68 36 0 24 3 25 55 25 54 0 55 1 55 28 0 51 -54 80
-106 58z m60 -32 c11 -29 6 -34 -29 -34 -19 0 -35 4 -35 9 0 24 14 41 35 41
13 0 26 -7 29 -16z"/>
<path d="M5518 4216 c-16 -8 -28 -11 -28 -5 0 5 -13 9 -30 9 -16 0 -30 -4 -30
-10 0 -5 5 -10 10 -10 14 0 13 -133 -1 -147 -8 -8 1 -12 30 -15 39 -3 52 4 31
17 -5 3 -10 30 -10 59 0 63 19 88 51 68 27 -17 31 -15 27 15 -4 33 -15 37 -50
19z"/>
<path d="M5784 4215 c-22 -17 -38 -20 -29 -5 4 6 -9 10 -31 10 -35 0 -36 -1
-21 -18 24 -26 25 -220 2 -228 -8 -4 -12 -10 -9 -15 7 -12 84 -11 84 1 0 6 -4
10 -10 10 -5 0 -10 16 -10 36 0 22 4 33 11 29 6 -4 26 -4 45 -1 41 8 64 46 64
104 0 65 -54 108 -96 77z m40 -37 c36 -52 2 -143 -44 -118 -27 15 -29 114 -2
129 24 15 29 14 46 -11z"/>
<path d="M6280 4217 c-19 -7 -36 -20 -38 -29 -4 -22 21 -24 38 -3 21 25 54 15
58 -17 3 -25 0 -28 -26 -28 -35 0 -82 -34 -82 -59 0 -31 35 -54 67 -45 15 4
46 6 68 5 32 -2 38 0 28 10 -8 8 -13 40 -13 80 0 59 -3 70 -22 83 -26 19 -32
19 -78 3z m60 -115 c0 -23 -19 -42 -42 -42 -27 0 -35 30 -13 46 27 20 55 18
55 -4z"/>
<path d="M6614 4220 c-53 -21 -73 -114 -35 -161 23 -29 91 -33 118 -7 23 24
13 30 -25 16 -27 -10 -34 -9 -51 7 -12 10 -21 26 -21 37 0 15 8 18 61 18 l62
0 -7 32 c-4 18 -12 38 -19 45 -17 17 -59 24 -83 13z m56 -39 c15 -29 13 -31
-30 -31 -22 0 -40 3 -40 6 0 18 24 44 40 44 11 0 24 -9 30 -19z"/>
<path d="M4558 4208 c7 -7 12 -31 12 -54 0 -71 11 -105 37 -117 20 -9 31 -8
54 5 24 14 29 15 29 3 0 -9 10 -15 23 -15 32 0 39 9 22 27 -11 10 -15 37 -15
89 l0 74 -31 0 c-26 0 -29 -2 -20 -14 19 -22 10 -126 -11 -140 -30 -18 -43 8
-43 84 l0 70 -34 0 c-27 0 -32 -3 -23 -12z"/>
<path d="M5590 4210 c0 -5 5 -10 10 -10 14 0 13 -133 -2 -148 -9 -9 -2 -12 32
-12 34 0 41 3 32 12 -7 7 -12 43 -12 90 l0 78 -30 0 c-16 0 -30 -4 -30 -10z"/>
<path d="M6840 4185 c0 -12 20 -15 120 -15 100 0 120 3 120 15 0 13 -20 15
-120 15 -100 0 -120 -2 -120 -15z"/>
<path d="M6840 4110 c0 -20 5 -21 118 -18 96 2 117 6 117 18 0 12 -21 16 -117
18 -113 3 -118 2 -118 -18z"/>
<path d="M4069 3733 c-65 -55 -88 -166 -50 -249 19 -42 63 -84 89 -84 9 0 5 7
-12 21 -43 34 -60 76 -60 154 0 80 21 135 59 155 25 13 33 30 16 30 -5 0 -24
-12 -42 -27z"/>
<path d="M4783 3752 c-10 -7 -44 -79 -129 -275 -26 -60 -30 -78 -18 -75 14 3
167 334 162 350 -2 4 -8 4 -15 0z"/>
<path d="M5463 3752 c-6 -4 -37 -66 -69 -137 -103 -236 -96 -217 -78 -213 15
3 168 333 162 350 -2 4 -8 4 -15 0z"/>
<path d="M6200 3755 c0 -3 15 -19 34 -36 76 -66 69 -238 -11 -298 -23 -17 -25
-20 -9 -21 27 0 82 61 95 105 24 85 6 162 -49 217 -33 34 -60 48 -60 33z"/>
<path d="M1650 3731 c0 -6 5 -11 10 -11 15 0 13 -233 -2 -248 -9 -9 -4 -12 23
-12 l34 0 -3 74 c-4 66 -2 75 16 85 11 6 28 8 37 5 14 -6 16 -19 13 -85 l-3
-79 34 0 c27 0 32 3 23 12 -7 7 -12 39 -12 73 0 69 -19 105 -54 105 -13 0 -29
-7 -36 -15 -21 -25 -25 -18 -25 42 0 56 -1 58 -27 61 -16 2 -28 -1 -28 -7z"/>
<path d="M3043 3722 c10 -10 17 -32 17 -48 0 -28 -2 -29 -38 -26 -51 5 -82
-20 -89 -75 -11 -86 38 -135 99 -100 24 14 28 14 28 2 0 -9 10 -15 25 -15 14
0 25 5 25 10 0 6 -4 10 -10 10 -6 0 -10 50 -10 130 l0 130 -32 0 c-29 0 -30
-1 -15 -18z m15 -155 c2 -36 -2 -51 -17 -66 -25 -25 -31 -25 -56 -7 -29 21
-26 103 5 128 35 28 64 5 68 -55z"/>
<path d="M4881 3722 c9 -14 5 -44 -15 -135 -31 -137 -30 -127 -12 -127 15 0
19 10 31 68 9 46 31 40 44 -13 6 -25 18 -48 25 -51 17 -7 56 13 56 28 0 6 -6
6 -16 -3 -19 -16 -29 -3 -39 50 -6 32 -3 38 29 64 43 35 45 47 8 47 -23 0 -28
-4 -28 -21 1 -22 -48 -68 -60 -56 -6 6 6 84 22 145 6 19 3 22 -25 22 -28 0
-30 -2 -20 -18z"/>
<path d="M8980 3725 c8 -10 11 -52 8 -140 l-3 -125 35 0 c26 0 31 3 22 12 -7
7 -12 39 -12 75 0 58 2 64 25 75 18 8 29 8 36 1 16 -16 24 -129 10 -137 -22
-14 -11 -26 24 -26 19 0 35 5 35 10 0 6 -4 10 -10 10 -6 0 -10 29 -10 68 0 73
-16 102 -55 102 -10 0 -27 -7 -37 -17 -17 -15 -18 -14 -18 45 l0 62 -31 0
c-26 0 -29 -2 -19 -15z"/>
<path d="M9414 3721 c-57 -34 -88 -144 -65 -229 12 -45 71 -112 97 -112 10 0
3 12 -19 33 -26 24 -37 46 -47 90 -18 91 12 197 61 212 10 4 19 11 19 16 0 13
-11 11 -46 -10z"/>
<path d="M9584 3723 c9 -21 -62 -233 -80 -240 -26 -10 -14 -23 22 -23 30 0 35
3 30 17 -8 19 11 83 25 83 15 0 40 -60 34 -80 -6 -17 -1 -20 29 -20 20 0 36 5
36 10 0 6 -4 10 -9 10 -7 0 -41 75 -41 92 0 4 23 21 50 39 28 18 50 34 50 36
0 2 -18 3 -40 3 -29 0 -38 -4 -34 -14 5 -13 -48 -66 -67 -66 -14 0 -11 14 16
86 31 82 31 84 -1 84 -20 0 -25 -4 -20 -17z"/>
<path d="M9880 3732 c0 -5 11 -14 25 -20 40 -18 59 -67 59 -152 0 -84 -16
-125 -61 -159 -20 -14 -23 -20 -12 -21 27 0 70 41 90 84 40 88 12 216 -55 257
-34 21 -46 23 -46 11z"/>
<path d="M795 3713 c4 -10 22 -70 40 -133 42 -152 53 -154 91 -16 16 58 32
102 35 98 3 -4 16 -51 28 -104 15 -63 28 -98 36 -98 8 0 30 49 55 125 23 69
46 125 51 125 5 0 9 5 9 10 0 6 -16 10 -35 10 -36 0 -43 -8 -25 -26 7 -7 2
-38 -16 -97 -15 -48 -30 -85 -32 -82 -3 3 -15 49 -27 103 -33 147 -52 136 -96
-56 -7 -29 -15 -52 -19 -52 -11 0 -49 175 -39 185 17 17 9 25 -27 25 -31 0
-35 -3 -29 -17z"/>
<path d="M2140 3720 c0 -5 5 -10 10 -10 15 0 13 -223 -2 -239 -22 -23 137 -9
162 14 28 25 27 79 -2 99 l-22 16 22 23 c39 41 27 81 -29 97 -44 13 -139 13
-139 0z m131 -20 c22 -12 26 -59 7 -78 -7 -7 -27 -12 -45 -12 -33 0 -33 0 -33
50 0 47 2 50 26 50 14 0 34 -5 45 -10z m15 -134 c13 -22 14 -29 2 -53 -10 -22
-21 -29 -51 -31 l-37 -3 0 55 0 56 35 0 c26 0 39 -6 51 -24z"/>
<path d="M3240 3721 c0 -6 5 -11 10 -11 6 0 10 -45 10 -115 0 -70 -4 -115 -10
-115 -5 0 -10 -5 -10 -11 0 -16 131 -5 159 13 67 41 67 193 0 228 -30 17 -159
26 -159 11z m123 -22 c32 -14 47 -49 47 -105 0 -76 -30 -113 -92 -114 -16 0
-18 12 -18 115 0 107 1 115 20 115 10 0 30 -5 43 -11z"/>
<path d="M6840 3721 c0 -6 5 -13 10 -16 6 -3 10 -52 10 -110 0 -58 -4 -107
-10 -110 -21 -13 -9 -25 25 -25 36 0 43 8 24 27 -6 6 -9 28 -7 49 3 38 4 39
43 42 47 4 71 23 80 62 8 38 -8 65 -46 79 -39 13 -129 15 -129 2z m122 -28
c40 -36 9 -103 -49 -103 -21 0 -23 4 -23 60 0 58 1 60 27 60 14 0 35 -7 45
-17z"/>
<path d="M8115 3713 c5 -10 23 -70 40 -133 42 -150 53 -153 90 -20 16 55 31
100 34 100 4 0 18 -44 31 -97 14 -53 30 -98 36 -100 6 -2 25 37 43 89 17 51
39 109 48 128 10 19 19 38 21 43 2 4 -12 7 -32 7 -36 0 -44 -8 -26 -26 7 -7 2
-38 -14 -93 -13 -45 -26 -85 -29 -87 -3 -3 -15 39 -27 93 -13 54 -27 103 -32
108 -16 17 -34 -20 -59 -115 -13 -50 -26 -90 -29 -90 -10 0 -47 175 -39 185
17 18 9 25 -27 25 -31 0 -35 -3 -29 -17z"/>
<path d="M1370 3705 c0 -8 9 -15 20 -15 11 0 20 7 20 15 0 8 -9 15 -20 15 -11
0 -20 -7 -20 -15z"/>
<path d="M3680 3705 c0 -8 7 -15 15 -15 8 0 15 7 15 15 0 8 -7 15 -15 15 -8 0
-15 -7 -15 -15z"/>
<path d="M5907 3713 c-13 -12 -7 -23 13 -23 11 0 20 7 20 15 0 15 -21 21 -33
8z"/>
<path d="M7400 3705 c0 -8 8 -15 18 -15 10 0 19 7 19 15 0 8 -9 15 -19 15 -10
0 -18 -7 -18 -15z"/>
<path d="M8693 3705 c0 -8 9 -15 19 -15 10 0 18 7 18 15 0 8 -8 15 -18 15 -10
0 -19 -7 -19 -15z"/>
<path d="M1890 3670 c0 -10 -8 -24 -17 -29 -17 -10 -17 -10 0 -11 14 0 17 -10
17 -69 0 -93 34 -127 86 -85 18 15 18 15 -8 10 -36 -8 -48 15 -48 88 l0 56 36
0 c21 0 33 4 29 10 -3 6 -19 10 -36 10 -22 0 -29 5 -29 20 0 11 -7 20 -15 20
-8 0 -15 -9 -15 -20z"/>
<path d="M7256 3660 c-8 -16 -10 -30 -5 -30 5 0 9 -31 9 -69 0 -93 34 -127 86
-85 18 15 18 15 -8 10 -36 -8 -48 15 -48 88 l0 56 36 0 c21 0 33 4 29 10 -3 6
-19 10 -36 10 -22 0 -29 5 -29 20 0 29 -16 24 -34 -10z"/>
<path d="M7920 3676 c0 -8 -7 -22 -16 -30 -14 -15 -14 -16 0 -16 13 0 16 -13
16 -73 0 -43 5 -78 12 -85 17 -17 53 -15 69 5 12 15 12 16 -5 10 -33 -13 -46
10 -46 79 l0 64 30 0 c17 0 30 5 30 10 0 6 -13 10 -30 10 -23 0 -30 4 -30 20
0 11 -7 20 -15 20 -8 0 -15 -6 -15 -14z"/>
<path d="M9206 3660 c-8 -16 -10 -30 -5 -30 5 0 9 -31 9 -69 0 -93 34 -127 86
-85 18 15 18 15 -9 9 -23 -5 -29 -1 -37 20 -6 15 -10 49 -10 76 l0 49 36 0
c21 0 33 4 29 10 -3 6 -19 10 -36 10 -22 0 -29 5 -29 20 0 29 -16 24 -34 -10z"/>
<path d="M6485 3669 c-5 -8 7 -26 34 -52 l43 -39 -42 -43 c-59 -60 -43 -82 16
-24 l44 43 44 -43 c58 -57 75 -36 17 23 l-41 42 40 39 c36 35 51 65 33 65 -4
0 -27 -19 -50 -42 l-43 -42 -44 43 c-31 31 -46 39 -51 30z"/>
<path d="M1197 3630 c-30 -24 -41 -75 -26 -118 18 -51 72 -68 117 -36 32 22
27 36 -7 17 -27 -16 -30 -16 -55 0 -16 11 -26 27 -26 42 0 24 3 25 60 25 52 0
60 3 60 19 0 10 -9 30 -21 45 -25 32 -66 34 -102 6z m83 -35 c0 -22 -4 -25
-40 -25 -46 0 -53 17 -20 50 26 26 60 12 60 -25z"/>
<path d="M1366 3625 c16 -25 16 -111 0 -147 -7 -15 -3 -18 30 -18 30 0 35 3
26 12 -7 7 -12 44 -12 95 l0 83 -30 0 c-30 0 -30 0 -14 -25z"/>
<path d="M1492 3634 c-24 -16 -29 -53 -11 -85 7 -15 7 -24 -1 -35 -7 -7 -10
-23 -7 -34 3 -11 1 -23 -4 -26 -16 -10 -9 -53 10 -64 34 -18 109 -12 131 10
43 43 9 90 -66 90 -22 0 -44 3 -47 7 -11 10 13 32 29 26 8 -3 28 0 44 7 32 13
46 45 37 80 -4 15 0 20 15 20 10 0 16 5 13 10 -10 16 -118 12 -143 -6z m73
-14 c15 -16 17 -26 9 -48 -11 -32 -43 -41 -61 -16 -17 24 -16 49 3 68 20 21
27 20 49 -4z m24 -169 c21 -14 4 -49 -29 -56 -16 -3 -38 -1 -49 5 -20 10 -28
40 -14 53 9 10 76 8 92 -2z"/>
<path d="M2408 3638 c-16 -5 -28 -16 -28 -24 0 -19 26 -18 34 2 4 10 15 14 33
12 22 -2 29 -9 31 -29 3 -24 -2 -28 -42 -38 -49 -12 -71 -39 -61 -71 9 -28 47
-35 84 -16 27 15 31 15 31 1 0 -10 9 -15 27 -15 21 0 24 3 15 12 -7 7 -12 39
-12 73 0 96 -32 123 -112 93z m72 -113 c0 -26 -32 -50 -56 -41 -20 8 -18 43 4
55 31 19 52 13 52 -14z"/>
<path d="M2593 3635 c-13 -9 -23 -24 -23 -34 0 -20 30 -51 48 -51 20 0 52 -39
46 -55 -8 -20 -63 -20 -70 0 -9 21 -24 19 -24 -4 0 -36 77 -44 110 -11 34 34
22 65 -38 89 -37 16 -49 41 -27 57 17 13 55 8 55 -7 0 -5 7 -9 16 -9 9 0 14 7
12 18 -4 24 -75 28 -105 7z"/>
<path d="M2765 3625 c-19 -18 -25 -35 -25 -70 0 -51 32 -95 70 -95 29 0 82 29
75 41 -4 5 -15 3 -28 -6 -12 -8 -27 -15 -34 -15 -20 0 -53 38 -53 60 0 18 7
20 60 20 57 0 60 1 60 25 0 61 -80 86 -125 40z m86 -17 c15 -27 0 -40 -42 -36
-28 2 -33 7 -31 23 7 44 52 52 73 13z"/>
<path d="M3503 3632 c19 -21 24 -136 7 -147 -21 -13 -9 -25 25 -25 19 0 35 5
35 10 0 6 -4 10 -10 10 -6 0 -10 26 -10 59 0 66 15 87 55 77 20 -5 25 -3 25
14 0 24 -26 26 -58 4 -20 -14 -22 -14 -22 0 0 11 -10 16 -32 16 -29 0 -30 -1
-15 -18z"/>
<path d="M3660 3640 c0 -5 5 -10 10 -10 6 0 10 -32 10 -75 0 -43 -4 -75 -10
-75 -5 0 -10 -4 -10 -10 0 -5 16 -10 35 -10 34 0 46 12 25 25 -5 3 -10 42 -10
86 0 78 0 79 -25 79 -14 0 -25 -4 -25 -10z"/>
<path d="M3770 3641 c0 -6 5 -13 10 -16 15 -9 13 -218 -2 -233 -9 -9 -3 -12
27 -12 30 0 36 3 27 12 -7 7 -12 27 -12 45 0 31 2 33 25 27 65 -16 112 34 102
108 -9 70 -55 97 -105 62 -20 -14 -22 -14 -22 0 0 10 -9 16 -25 16 -14 0 -25
-4 -25 -9z m124 -27 c19 -19 22 -104 4 -122 -17 -17 -65 -15 -72 4 -12 31 -6
97 11 116 20 22 37 23 57 2z"/>
<path d="M4158 3639 c-10 -5 -18 -15 -18 -21 0 -6 6 -6 15 2 28 23 34 -3 17
-77 -8 -40 -13 -76 -9 -79 13 -13 26 9 37 60 11 56 50 111 73 103 13 -4 13
-23 2 -104 -7 -44 -5 -54 9 -59 17 -6 72 23 62 33 -3 3 -12 0 -21 -7 -25 -21
-29 -4 -16 65 11 52 11 68 1 80 -19 22 -44 18 -75 -12 -17 -16 -26 -21 -22
-12 6 17 -10 39 -27 39 -6 0 -19 -5 -28 -11z"/>
<path d="M4447 3626 c-14 -13 -31 -43 -38 -66 -11 -36 -10 -46 2 -69 19 -33
48 -38 77 -10 13 11 25 19 27 18 7 -8 -25 -85 -42 -96 -37 -27 -91 -6 -77 31
7 19 -7 21 -24 4 -28 -28 5 -58 64 -58 75 0 101 45 129 225 l7 40 -49 3 c-41
2 -54 -2 -76 -22z m83 -28 c0 -59 -51 -131 -80 -113 -6 3 -10 27 -10 51 0 37
6 51 29 75 36 35 61 30 61 -13z"/>
<path d="M5127 3626 c-36 -33 -54 -103 -35 -136 20 -36 52 -37 84 -3 l26 28
-8 -30 c-18 -77 -58 -110 -103 -85 -17 8 -20 17 -15 38 7 27 7 27 -15 8 -25
-23 -26 -30 -5 -50 18 -18 85 -21 114 -6 29 15 41 44 65 155 l21 100 -52 2
c-42 2 -56 -2 -77 -21z m83 -28 c0 -60 -51 -131 -81 -112 -7 4 -9 26 -6 57 3
39 11 56 31 74 33 28 56 20 56 -19z"/>
<path d="M5526 3635 c-11 -8 -17 -18 -13 -21 4 -4 13 -1 21 5 24 20 27 -3 11
-71 -18 -79 -18 -88 -1 -88 10 0 19 20 26 56 14 65 60 127 81 107 9 -9 9 -26
-1 -77 -14 -76 -14 -81 2 -81 6 0 17 24 24 53 13 59 41 105 68 110 19 4 22
-41 5 -102 -9 -32 -8 -41 5 -54 12 -13 20 -13 41 -4 14 6 25 16 25 22 0 7 -6
8 -19 0 -29 -15 -32 -1 -14 68 12 50 13 65 3 77 -17 21 -42 19 -73 -5 -25 -20
-25 -20 -30 0 -7 27 -44 26 -73 -1 l-22 -21 -7 21 c-7 24 -32 27 -59 6z"/>
<path d="M5870 3641 c0 -5 4 -11 9 -13 6 -2 4 -28 -5 -63 -16 -69 -12 -105 14
-105 23 0 59 26 50 36 -4 4 -14 1 -22 -5 -24 -20 -28 4 -11 68 21 81 20 91
-10 91 -14 0 -25 -4 -25 -9z"/>
<path d="M5988 3639 c-25 -14 -23 -33 1 -19 30 15 34 -2 16 -69 -18 -72 -19
-94 -2 -89 6 3 17 25 24 51 20 82 61 133 87 107 7 -7 6 -24 -2 -55 -16 -61
-15 -94 3 -101 16 -7 71 24 61 33 -3 3 -12 0 -21 -7 -24 -20 -29 -4 -17 51 18
79 16 98 -14 105 -18 5 -31 1 -48 -15 -23 -21 -37 -27 -35 -13 5 32 -18 42
-53 21z"/>
<path d="M7083 3638 c-13 -6 -23 -17 -23 -25 0 -18 15 -17 30 3 8 8 25 14 39
12 20 -2 27 -9 29 -30 3 -23 -1 -27 -30 -33 -50 -10 -78 -32 -78 -60 0 -40 50
-58 86 -29 18 15 18 15 -4 9 -22 -6 -52 9 -52 26 0 16 32 39 57 39 22 0 25 -3
20 -27 -7 -35 8 -63 33 -63 21 0 27 15 10 25 -5 3 -10 37 -10 74 0 39 -5 72
-12 79 -15 15 -65 15 -95 0z"/>
<path d="M7380 3640 c0 -5 5 -10 10 -10 15 0 13 -143 -2 -158 -9 -9 -4 -12 25
-12 35 0 48 12 27 25 -5 3 -10 42 -10 86 0 78 0 79 -25 79 -14 0 -25 -4 -25
-10z"/>
<path d="M7522 3630 c-27 -25 -36 -60 -28 -105 11 -58 75 -84 124 -49 31 22
27 36 -5 18 -16 -7 -33 -14 -40 -14 -20 0 -43 30 -43 56 0 23 3 24 61 24 l61
0 -6 28 c-14 58 -82 81 -124 42z m72 -6 c9 -8 16 -24 16 -35 0 -16 -7 -19 -40
-19 -33 0 -40 3 -40 19 0 11 10 27 22 35 27 19 23 19 42 0z"/>
<path d="M7680 3640 c0 -5 5 -10 10 -10 15 0 13 -143 -2 -158 -9 -9 -4 -12 25
-12 35 0 48 12 27 25 -5 3 -10 28 -10 56 0 36 5 54 20 69 22 22 29 24 49 11
10 -6 12 -28 9 -85 l-3 -76 34 0 c27 0 32 3 23 12 -7 7 -12 37 -12 68 0 95
-37 132 -94 94 -24 -15 -26 -15 -26 0 0 10 -9 16 -25 16 -14 0 -25 -4 -25 -10z"/>
<path d="M8515 3625 c-20 -19 -25 -34 -25 -74 0 -42 4 -53 26 -70 15 -12 35
-21 45 -21 28 0 69 22 69 37 0 12 -4 11 -22 -1 -12 -9 -28 -16 -35 -16 -20 0
-53 38 -53 60 0 18 7 20 60 20 48 0 60 3 60 16 0 19 -19 56 -34 66 -23 16 -67
8 -91 -17z m88 -25 c6 -24 -9 -33 -49 -28 -35 4 -41 21 -14 48 24 24 54 14 63
-20z"/>
<path d="M8683 3632 c19 -21 24 -136 7 -147 -21 -13 -9 -25 25 -25 19 0 35 5
35 10 0 6 -4 10 -10 10 -6 0 -10 35 -10 85 l0 85 -32 0 c-29 0 -30 -1 -15 -18z"/>
<path d="M8810 3630 c-22 -22 -26 -51 -9 -81 7 -15 7 -24 -1 -34 -6 -7 -8 -24
-5 -38 4 -14 2 -28 -4 -31 -18 -11 -13 -44 8 -56 34 -18 109 -12 131 10 45 45
14 90 -61 90 -41 0 -50 3 -47 16 2 11 15 17 42 19 47 3 69 27 64 73 -3 26 0
32 15 32 10 0 15 5 12 10 -3 6 -33 10 -66 10 -46 0 -63 -4 -79 -20z m74 -6
c31 -30 14 -84 -26 -84 -18 0 -38 28 -38 54 0 16 26 46 40 46 5 0 16 -7 24
-16z m34 -191 c6 -42 -89 -58 -104 -18 -13 33 4 46 53 43 41 -3 48 -6 51 -25z"/>
<path d="M9768 3620 c-22 -22 -29 -38 -26 -59 1 -18 -5 -37 -16 -50 -10 -11
-16 -27 -13 -35 4 -9 -1 -20 -12 -26 -52 -28 -23 -70 48 -70 52 0 95 24 106
61 11 32 -12 49 -66 49 -27 0 -49 4 -49 9 0 14 28 33 40 26 18 -11 77 14 94
40 9 13 16 33 16 45 0 13 7 20 20 20 11 0 20 5 20 10 0 6 -29 10 -66 10 -60 0
-68 -3 -96 -30z m86 -24 c-9 -31 -34 -56 -56 -56 -24 0 -31 20 -19 54 20 50
90 52 75 2z m-36 -158 c-6 -45 -108 -64 -108 -20 0 29 21 42 68 42 39 0 43 -2
40 -22z"/>
<path d="M2010 3565 c0 -13 9 -16 43 -13 23 2 42 8 42 13 0 6 -19 11 -42 13
-34 3 -43 0 -43 -13z"/>
<path d="M780 3275 c0 -13 518 -15 4627 -13 3690 2 4627 6 4631 16 3 9 -927
12 -4627 12 -4111 0 -4631 -2 -4631 -15z"/>
<path d="M5687 3014 c-54 -126 -72 -174 -60 -172 9 2 44 68 89 172 41 93 74
171 74 173 0 1 -6 3 -13 3 -8 0 -46 -76 -90 -176z"/>
<path d="M5020 3172 c-8 -2 -27 -16 -42 -30 -75 -69 -65 -252 16 -305 37 -25
55 -20 24 6 -38 31 -58 86 -58 157 0 72 17 119 55 148 29 23 31 33 5 24z"/>
<path d="M6640 3172 c0 -5 11 -14 25 -20 53 -24 80 -142 55 -234 -7 -23 -25
-49 -48 -68 -24 -20 -31 -30 -20 -30 25 0 79 50 94 87 20 47 17 140 -6 190
-21 48 -100 106 -100 75z"/>
<path d="M4100 3143 c-56 -32 -55 -32 -47 -39 4 -4 13 -1 22 6 32 27 40 7 37
-94 -3 -94 -4 -96 -28 -96 -13 0 -24 -4 -24 -10 0 -6 30 -10 70 -10 66 0 98
15 48 22 -22 3 -23 8 -28 125 l-5 123 -45 -27z"/>
<path d="M4307 3159 c-59 -34 -63 -219 -7 -249 53 -29 106 2 121 70 28 123
-37 224 -114 179z m70 -39 c16 -31 17 -141 1 -175 -14 -30 -53 -34 -68 -6 -13
26 -13 167 1 192 14 27 50 21 66 -11z"/>
<path d="M4527 3159 c-45 -26 -64 -157 -32 -219 28 -54 103 -52 131 2 20 39
23 133 5 176 -19 45 -65 63 -104 41z m63 -24 c18 -22 25 -135 10 -179 -9 -28
-17 -36 -35 -36 -34 0 -45 28 -45 115 0 42 5 85 10 96 13 23 43 25 60 4z"/>
<path d="M4733 3146 c-27 -23 -28 -28 -28 -116 0 -84 2 -93 24 -111 41 -33 93
-21 119 28 15 28 16 144 1 176 -11 24 -47 47 -74 47 -8 0 -27 -11 -42 -24z
m85 -41 c16 -46 10 -148 -8 -170 -16 -20 -44 -19 -61 1 -18 22 -18 161 -1 192
21 36 54 25 70 -23z"/>
<path d="M5146 3075 c-11 -8 -17 -18 -13 -21 4 -4 13 -1 21 5 22 19 26 0 10
-64 -17 -75 -18 -98 -1 -93 6 3 17 25 23 50 14 55 26 77 53 102 34 31 45 10
30 -61 -7 -33 -9 -67 -6 -76 9 -23 40 -21 62 3 19 21 7 28 -13 8 -21 -21 -25
0 -11 66 10 53 10 68 -1 80 -18 23 -34 20 -71 -11 -21 -18 -31 -22 -27 -12 7
17 -9 39 -26 39 -6 0 -20 -7 -30 -15z"/>
<path d="M5436 3058 c-41 -41 -54 -99 -31 -134 19 -29 44 -31 78 -4 l26 20 -9
-28 c-14 -50 -30 -72 -57 -78 -33 -9 -59 8 -56 35 3 26 -13 27 -27 2 -15 -29
12 -51 61 -51 86 0 95 16 143 256 0 4 -21 8 -47 11 -44 3 -51 1 -81 -29z m84
-23 c0 -43 -23 -90 -50 -105 -32 -17 -43 -2 -38 51 6 56 30 89 65 89 20 0 23
-5 23 -35z"/>
<path d="M5835 3070 c-19 -20 -8 -29 12 -9 20 20 23 -8 8 -73 -18 -79 -18 -88
-1 -88 10 0 19 20 26 56 14 65 60 127 81 107 9 -9 9 -25 0 -73 -7 -34 -15 -69
-18 -77 -4 -11 0 -14 12 -12 13 3 22 19 30 54 14 62 30 91 55 105 34 18 37 -6
15 -110 -8 -38 8 -56 41 -45 15 6 30 17 32 25 5 13 3 13 -12 1 -29 -24 -36 0
-19 67 12 50 13 65 3 77 -17 21 -43 19 -74 -6 -20 -16 -26 -17 -26 -6 0 14
-20 27 -40 27 -5 0 -23 -12 -41 -27 -18 -16 -30 -22 -25 -15 9 14 -10 42 -29
42 -6 0 -20 -9 -30 -20z"/>
<path d="M6210 3063 c-38 -34 -55 -95 -37 -133 15 -31 58 -38 93 -15 34 22 30
38 -4 18 -41 -24 -62 -12 -62 34 0 73 62 133 89 86 11 -20 18 -17 23 12 2 17
-3 21 -34 23 -28 2 -43 -3 -68 -25z"/>
<path d="M6410 3061 c-76 -76 -30 -210 47 -139 l26 23 -7 -30 c-9 -37 -32 -74
-52 -82 -8 -3 -26 -2 -40 1 -21 6 -25 12 -21 31 5 31 -19 34 -28 5 -10 -32 12
-50 60 -50 57 0 73 7 90 40 11 22 55 196 55 220 0 3 -23 6 -51 7 -44 2 -55 -1
-79 -26z m87 -7 c9 -24 -14 -88 -42 -114 -21 -20 -27 -21 -41 -9 -19 16 -13
76 12 115 19 27 61 33 71 8z"/>
<path d="M4426 2151 c-3 -5 1 -11 9 -15 12 -4 15 -27 15 -115 0 -62 -4 -112
-10 -116 -22 -13 -8 -25 30 -25 22 0 40 5 40 10 0 6 -4 10 -10 10 -14 0 -12
114 2 128 17 17 45 15 52 -4 10 -25 7 -112 -4 -119 -22 -13 -8 -25 30 -25 22
0 40 5 40 10 0 6 -4 10 -10 10 -6 0 -10 28 -10 63 0 92 -33 127 -91 97 -18
-10 -19 -7 -19 45 0 54 0 55 -29 55 -17 0 -32 -4 -35 -9z"/>
<path d="M5950 2151 c0 -6 5 -13 10 -16 6 -3 10 -19 10 -36 0 -27 -3 -29 -35
-29 -54 0 -85 -36 -85 -97 0 -79 42 -114 101 -83 13 7 19 7 19 0 0 -5 16 -10
37 -10 34 0 35 1 20 18 -14 15 -17 41 -17 140 l0 122 -30 0 c-16 0 -30 -4 -30
-9z m9 -115 c18 -22 10 -107 -11 -120 -30 -18 -53 4 -56 56 -4 64 36 102 67
64z"/>
<path d="M3582 2123 c9 -10 29 -67 45 -128 24 -90 33 -111 49 -113 17 -2 22
10 43 90 13 51 27 96 30 101 4 4 15 -33 25 -82 10 -48 22 -94 26 -101 17 -28
37 2 74 111 21 63 43 120 49 127 7 9 0 12 -32 12 -38 0 -40 -2 -29 -19 9 -15
7 -35 -12 -102 -27 -93 -26 -93 -55 44 -15 69 -20 78 -38 75 -17 -2 -25 -20
-46 -101 -14 -54 -28 -92 -32 -85 -4 7 -14 46 -23 87 -13 56 -14 76 -5 87 10
12 3 14 -36 14 -45 0 -47 -1 -33 -17z"/>
<path d="M4150 2120 c0 -15 7 -20 25 -20 18 0 25 5 25 20 0 15 -7 20 -25 20
-18 0 -25 -5 -25 -20z"/>
<path d="M5078 2128 c15 -15 17 -228 2 -228 -5 0 -10 -4 -10 -10 0 -14 123
-13 154 1 14 7 30 26 36 43 9 26 7 35 -11 59 -19 26 -19 30 -5 46 20 22 21 65
0 85 -11 12 -36 16 -97 16 -63 0 -78 -3 -69 -12z m130 -20 c30 -30 0 -78 -49
-78 -28 0 -29 2 -29 45 0 44 1 45 33 45 18 0 38 -5 45 -12z m0 -120 c21 -18
10 -61 -19 -77 -40 -22 -59 -9 -59 42 0 24 3 47 7 51 9 9 53 -2 71 -16z"/>
<path d="M6154 2124 c23 -23 23 -200 -1 -226 -15 -17 -14 -18 30 -18 26 0 47
5 47 10 0 6 -4 10 -10 10 -5 0 -10 20 -10 45 0 66 29 62 69 -10 27 -47 35 -55
61 -55 31 0 41 14 16 23 -7 3 -25 27 -40 53 l-26 47 20 22 c25 27 26 77 2 98
-14 13 -38 17 -96 17 -70 0 -76 -1 -62 -16z m120 -20 c32 -32 11 -84 -34 -84
-29 0 -30 1 -30 50 0 46 2 50 24 50 14 0 32 -7 40 -16z"/>
<path d="M4660 2090 c0 -11 -7 -23 -15 -26 -8 -4 -15 -10 -15 -15 0 -5 7 -9
15 -9 12 0 15 -13 15 -61 0 -33 5 -69 10 -80 12 -22 59 -26 78 -7 19 19 14 27
-15 25 -27 -2 -28 -1 -31 61 l-3 62 31 0 c20 0 30 5 30 15 0 10 -10 15 -30 15
-23 0 -30 4 -30 20 0 13 -7 20 -20 20 -13 0 -20 -7 -20 -20z"/>
<path d="M6590 2090 c0 -11 -7 -23 -15 -26 -8 -4 -15 -10 -15 -15 0 -5 7 -9
15 -9 12 0 15 -14 15 -68 0 -40 5 -73 12 -80 15 -15 61 -15 76 0 19 19 14 27
-15 25 -27 -2 -28 -1 -31 61 l-3 62 31 0 c20 0 30 5 30 15 0 10 -10 15 -30 15
-23 0 -30 4 -30 20 0 13 -7 20 -20 20 -13 0 -20 -7 -20 -20z"/>
<path d="M3975 2045 c-33 -32 -36 -114 -5 -145 24 -24 77 -26 108 -4 31 21 19
35 -18 21 -36 -14 -63 -1 -68 32 -3 19 1 21 51 21 29 0 56 3 59 6 10 9 -11 68
-29 82 -27 20 -72 14 -98 -13z m73 -7 c23 -23 13 -38 -23 -38 -22 0 -35 5 -35
13 0 16 20 37 35 37 6 0 16 -5 23 -12z"/>
<path d="M4130 2065 c0 -4 7 -14 16 -22 12 -12 15 -30 12 -72 -2 -31 -8 -64
-12 -73 -7 -16 -3 -18 33 -18 l41 0 -15 24 c-12 18 -16 44 -14 93 l3 68 -32 3
c-18 2 -32 0 -32 -3z"/>
<path d="M4260 2043 c-21 -27 -21 -74 0 -81 5 -2 2 -14 -6 -28 -12 -18 -14
-27 -5 -38 9 -10 8 -16 -4 -26 -39 -32 1 -70 73 -70 39 0 57 5 72 20 45 45 14
90 -61 90 -37 0 -49 4 -49 15 0 10 11 15 35 15 46 0 79 31 73 70 -3 22 0 30
15 34 39 10 4 26 -58 26 -57 0 -66 -3 -85 -27z m78 -5 c25 -25 8 -78 -25 -78
-22 0 -37 44 -24 69 13 24 31 27 49 9z m16 -164 c9 -3 16 -14 16 -24 0 -21
-19 -30 -61 -30 -31 0 -45 19 -35 45 5 15 51 20 80 9z"/>
<path d="M5331 2057 c-14 -6 -26 -18 -29 -24 -5 -18 28 -16 48 2 23 20 50 9
50 -21 0 -19 -7 -24 -35 -30 -20 -3 -44 -17 -55 -32 -18 -22 -19 -28 -7 -46
17 -25 62 -33 84 -14 13 10 17 10 20 1 3 -7 18 -13 35 -13 30 0 30 1 15 18
-12 13 -17 37 -17 83 0 37 -5 70 -12 77 -15 15 -66 15 -97 -1z m67 -114 c-2
-22 -9 -29 -30 -31 -23 -3 -28 1 -28 18 0 12 9 24 23 30 35 14 39 12 35 -17z"/>
<path d="M5509 2049 c-27 -27 -21 -49 21 -76 53 -34 60 -42 54 -58 -8 -19 -53
-19 -60 0 -10 24 -36 18 -32 -7 3 -20 10 -23 55 -26 46 -3 54 0 68 22 22 33 8
59 -46 86 -27 14 -39 27 -37 38 4 22 41 27 58 7 18 -22 30 -18 30 10 0 23 -4
25 -45 25 -32 0 -51 -6 -66 -21z"/>
<path d="M5691 2053 c-42 -34 -44 -131 -4 -160 23 -18 74 -16 101 3 31 21 19
35 -18 21 -36 -14 -63 -1 -68 32 -3 19 1 21 51 21 29 0 56 3 59 6 10 9 -11 68
-29 82 -24 17 -67 15 -92 -5z m67 -15 c23 -23 13 -38 -23 -38 -22 0 -35 5 -35
13 0 16 20 37 35 37 6 0 16 -5 23 -12z"/>
<path d="M6413 2060 c-25 -10 -32 -40 -9 -40 7 0 19 7 26 15 17 21 37 19 50
-4 16 -31 12 -38 -27 -46 -46 -8 -73 -31 -73 -60 0 -41 46 -59 91 -35 13 7 19
7 19 0 0 -5 14 -10 30 -10 17 0 30 5 30 10 0 6 -4 10 -10 10 -5 0 -10 26 -10
58 0 78 -16 106 -60 109 -19 1 -45 -2 -57 -7z m72 -100 c11 -18 -15 -50 -40
-50 -33 0 -34 37 -2 50 29 12 35 12 42 0z"/>
<path d="M6737 2050 c-44 -35 -42 -136 3 -160 28 -15 73 -12 98 6 31 21 19 35
-18 21 -35 -13 -59 -3 -71 31 -8 21 -6 22 51 22 60 0 60 0 60 30 0 62 -71 91
-123 50z m71 -12 c23 -23 13 -38 -23 -38 -22 0 -35 5 -35 13 0 16 20 37 35 37
6 0 16 -5 23 -12z"/>
<path d="M6980 2035 c0 -12 20 -15 120 -15 100 0 120 3 120 15 0 13 -20 15
-120 15 -100 0 -120 -2 -120 -15z"/>
<path d="M4780 1995 c0 -12 20 -15 120 -15 100 0 120 3 120 15 0 13 -20 15
-120 15 -100 0 -120 -2 -120 -15z"/>
<path d="M6980 1955 c0 -12 20 -15 120 -15 100 0 120 3 120 15 0 13 -20 15
-120 15 -100 0 -120 -2 -120 -15z"/>
<path d="M4035 1578 c-89 -70 -85 -262 7 -318 35 -21 48 -25 48 -12 0 4 -10
12 -22 17 -52 23 -82 138 -58 225 7 27 25 57 47 77 39 37 22 46 -22 11z"/>
<path d="M5022 1583 c-8 -15 -49 -109 -133 -301 -16 -37 -17 -43 -4 -40 14 3
165 324 165 350 0 15 -19 9 -28 -9z"/>
<path d="M5803 1567 c20 -18 40 -50 46 -72 24 -87 7 -173 -46 -222 -39 -37
-33 -42 15 -13 92 56 96 248 7 318 -44 35 -61 26 -22 -11z"/>
<path d="M7445 1578 c-89 -70 -85 -262 7 -318 48 -29 54 -24 15 13 -20 18 -40
50 -46 72 -24 87 -7 173 46 222 39 37 22 46 -22 11z"/>
<path d="M8081 1434 c-90 -207 -86 -194 -69 -194 10 0 106 202 166 352 2 4 -3
8 -10 8 -9 0 -43 -64 -87 -166z"/>
<path d="M8970 1591 c0 -5 9 -12 19 -16 32 -10 61 -83 61 -153 0 -74 -17 -120
-55 -150 -36 -28 -24 -43 12 -16 51 39 67 70 71 143 2 38 -1 85 -8 105 -16 48
-100 121 -100 87z"/>
<path d="M1873 1569 c15 -9 17 -26 17 -134 0 -111 2 -124 18 -124 9 0 34 -1
56 -2 49 -1 76 24 83 78 8 58 -18 103 -58 103 -17 0 -39 -5 -50 -10 -18 -10
-19 -7 -19 45 l0 55 -32 0 c-27 -1 -30 -2 -15 -11z m125 -111 c18 -18 15 -103
-4 -122 -18 -19 -45 -21 -62 -4 -7 7 -12 35 -12 63 0 55 12 75 45 75 12 0 26
-5 33 -12z"/>
<path d="M2474 1564 c12 -12 16 -38 16 -115 0 -55 -5 -109 -10 -120 -10 -17
-7 -19 27 -19 29 0 34 3 25 12 -8 8 -12 53 -12 135 l0 123 -31 0 c-28 0 -29
-1 -15 -16z"/>
<path d="M1701 1515 c-12 -30 -31 -81 -42 -112 -12 -32 -28 -66 -37 -75 -14
-17 -12 -18 29 -17 24 0 38 3 32 6 -14 5 -17 41 -7 67 4 11 19 16 49 16 30 0
45 -5 49 -16 10 -26 7 -62 -6 -67 -7 -3 9 -6 37 -6 45 -1 48 0 33 15 -9 9 -31
67 -49 130 -40 135 -56 145 -88 59z m48 -39 c16 -64 15 -66 -24 -66 -19 0 -35
3 -35 7 0 17 36 111 41 107 4 -2 12 -24 18 -48z"/>
<path d="M3218 1559 c16 -18 17 -220 0 -237 -22 -22 111 -15 148 7 61 37 72
157 20 209 -23 23 -36 27 -104 30 -63 3 -75 2 -64 -9z m133 -28 c21 -17 24
-28 24 -89 0 -86 -18 -112 -77 -112 l-38 0 0 110 0 110 34 0 c19 0 44 -9 57
-19z"/>
<path d="M3650 1550 c0 -11 7 -20 15 -20 8 0 15 9 15 20 0 11 -7 20 -15 20 -8
0 -15 -9 -15 -20z"/>
<path d="M5477 1550 c-4 -15 0 -20 14 -20 12 0 19 7 19 20 0 11 -6 20 -14 20
-7 0 -16 -9 -19 -20z"/>
<path d="M6548 1547 c-36 -21 -48 -37 -29 -37 6 0 13 5 16 10 3 6 13 10 21 10
11 0 14 -19 14 -95 l0 -96 -32 -14 c-32 -14 -31 -14 47 -14 78 0 79 0 48 14
l-33 14 0 116 c0 63 -3 115 -7 115 -5 -1 -25 -11 -45 -23z"/>
<path d="M6742 1545 c-39 -50 -37 -179 4 -220 23 -23 79 -19 103 7 38 40 41
160 7 212 -23 37 -86 37 -114 1z m82 -7 c24 -34 22 -168 -2 -199 -42 -50 -76
6 -70 117 4 97 37 133 72 82z"/>
<path d="M6967 1552 c-50 -55 -48 -205 4 -232 33 -18 80 -8 102 21 37 50 35
171 -4 210 -24 24 -80 25 -102 1z m80 -22 c20 -40 17 -163 -5 -191 -40 -48
-72 0 -72 109 0 101 44 147 77 82z"/>
<path d="M7181 1544 c-37 -48 -41 -157 -7 -209 21 -32 84 -35 110 -6 42 46 45
177 5 220 -29 31 -82 28 -108 -5z m86 -14 c18 -36 17 -160 -3 -188 -38 -55
-74 -8 -74 98 0 53 5 82 16 98 20 28 44 25 61 -8z"/>
<path d="M2810 1520 c0 -11 -7 -23 -15 -26 -8 -4 -15 -10 -15 -15 0 -5 7 -9
15 -9 12 0 15 -14 15 -67 0 -83 7 -95 50 -91 41 4 51 24 13 23 -28 0 -28 1
-31 68 l-3 67 31 0 c16 0 30 5 30 10 0 6 -13 10 -30 10 -25 0 -30 4 -30 25 0
16 -6 25 -15 25 -8 0 -15 -9 -15 -20z"/>
<path d="M6056 1513 c-3 -4 13 -26 36 -50 l42 -43 -43 -44 c-57 -58 -36 -75
23 -17 l42 41 41 -41 c25 -25 46 -39 53 -34 8 5 -2 21 -31 51 l-43 44 43 44
c57 58 36 75 -23 17 l-42 -41 -39 40 c-40 41 -47 45 -59 33z"/>
<path d="M2131 1488 c-57 -30 -50 -63 21 -99 39 -20 47 -36 26 -57 -16 -16
-43 -15 -58 3 -17 21 -30 19 -30 -5 0 -20 22 -26 80 -21 74 7 66 80 -13 110
-21 8 -28 17 -25 34 4 27 39 35 58 12 17 -21 30 -19 30 5 0 11 -6 20 -12 20
-7 0 -22 3 -33 5 -11 3 -31 0 -44 -7z"/>
<path d="M2310 1487 c-83 -43 -57 -179 34 -179 50 0 77 27 83 84 4 37 1 49
-18 71 -29 32 -66 41 -99 24z m64 -23 c35 -35 13 -144 -29 -144 -27 0 -45 31
-45 76 0 76 35 108 74 68z"/>
<path d="M2984 1490 c-54 -21 -74 -120 -34 -160 28 -28 91 -27 116 2 19 21 19
21 -1 13 -47 -19 -72 -17 -89 6 -28 41 -21 49 44 49 57 0 60 1 60 24 0 47 -53
83 -96 66z m56 -36 c6 -14 10 -27 10 -30 0 -2 -20 -4 -45 -4 -49 0 -53 5 -29
38 21 30 52 28 64 -4z"/>
<path d="M3548 1484 c-16 -8 -28 -10 -28 -4 0 5 -14 10 -31 10 -28 0 -29 -1
-15 -16 19 -18 22 -114 6 -145 -10 -17 -7 -19 27 -19 29 0 34 3 25 12 -18 18
-15 123 4 139 12 10 20 10 35 1 26 -17 31 -15 27 10 -4 28 -16 31 -50 12z"/>
<path d="M3821 1484 c-17 -7 -31 -9 -31 -4 0 6 -15 10 -32 10 -27 -1 -30 -2
-15 -11 14 -9 17 -26 17 -117 0 -64 -4 -112 -11 -119 -8 -8 0 -12 25 -15 20
-2 36 0 36 4 0 4 -4 8 -10 8 -5 0 -10 15 -10 34 0 34 1 35 41 34 72 -1 108 68
76 144 -17 41 -42 51 -86 32z m49 -33 c15 -30 12 -97 -6 -115 -18 -19 -45 -21
-62 -4 -16 16 -16 110 0 126 18 18 56 14 68 -7z"/>
<path d="M4131 1484 c-11 -8 -21 -20 -21 -26 0 -6 6 -6 15 2 26 22 30 2 14
-75 -14 -69 -14 -75 2 -75 12 0 19 15 28 57 11 56 42 103 67 103 23 0 24 -17
9 -82 -18 -78 -18 -78 -1 -78 15 0 19 10 31 70 10 47 42 90 67 90 19 0 20 -4
13 -42 -4 -24 -8 -59 -9 -78 -1 -29 3 -36 22 -38 23 -4 52 13 52 29 0 5 -9 4
-20 -3 -28 -18 -34 -5 -21 46 16 64 14 94 -7 105 -13 7 -26 5 -47 -8 -28 -16
-30 -16 -47 1 -20 20 -41 15 -75 -15 l-23 -20 0 20 c0 27 -23 35 -49 17z"/>
<path d="M4524 1490 c-51 -20 -87 -107 -65 -156 15 -33 79 -34 107 -2 19 21
19 21 -1 13 -47 -19 -73 -18 -80 4 -8 26 9 88 31 112 20 23 54 25 54 4 0 -8 7
-15 15 -15 24 0 18 37 -7 44 -28 7 -28 7 -54 -4z"/>
<path d="M4718 1485 c-47 -26 -73 -105 -52 -159 9 -23 54 -20 82 7 l25 22 -7
-30 c-12 -52 -39 -80 -77 -80 -30 0 -34 3 -37 28 -4 37 -27 29 -27 -9 0 -25 5
-30 37 -38 46 -12 94 7 112 43 8 14 22 64 31 110 9 47 19 91 22 98 3 8 -3 13
-18 12 -13 0 -33 2 -44 5 -11 3 -32 -1 -47 -9z m65 -19 c17 -43 -43 -146 -77
-133 -30 12 -14 108 21 135 22 16 50 15 56 -2z"/>
<path d="M5110 1487 c-13 -7 -25 -18 -28 -25 -3 -11 -1 -11 16 -1 12 7 24 10
28 7 5 -6 -4 -61 -22 -135 -5 -17 -2 -23 10 -23 9 0 18 11 21 28 4 15 12 44
20 65 9 26 11 46 5 62 -12 31 -22 36 -50 22z"/>
<path d="M5570 1487 c-13 -7 -25 -18 -28 -25 -3 -11 -1 -11 16 -1 12 7 24 10
28 7 3 -4 -1 -38 -10 -77 -19 -85 -19 -81 -2 -81 9 0 19 20 26 53 7 28 17 57
22 63 9 12 -4 58 -19 67 -5 3 -20 0 -33 -6z"/>
<path d="M7536 1481 c-14 -10 -23 -21 -20 -24 4 -4 13 -2 21 5 7 6 16 8 20 4
6 -6 -11 -108 -24 -141 -3 -10 1 -15 14 -15 15 0 21 12 31 58 12 56 43 102 70
102 21 0 23 -19 8 -76 -8 -31 -12 -62 -9 -70 6 -17 45 -18 61 -2 17 17 15 33
-3 18 -25 -21 -29 -3 -15 67 12 60 11 67 -5 79 -20 15 -41 9 -72 -19 l-23 -20
0 20 c0 29 -22 35 -54 14z"/>
<path d="M7854 1490 c-51 -20 -87 -107 -65 -156 14 -31 56 -32 88 -3 l22 22
-9 -33 c-18 -62 -37 -81 -78 -78 -34 3 -37 5 -35 31 2 31 -13 32 -31 3 -18
-29 28 -59 79 -53 67 9 84 42 121 234 5 27 3 32 -12 31 -11 -1 -28 1 -39 5
-11 3 -30 2 -41 -3z m50 -56 c-1 -47 -36 -104 -64 -104 -24 0 -32 26 -21 73
11 48 38 79 65 75 18 -3 21 -10 20 -44z"/>
<path d="M8231 1484 c-11 -8 -21 -20 -21 -26 0 -6 6 -6 15 2 28 23 33 -3 15
-77 -16 -70 -16 -73 1 -73 13 0 19 11 24 44 12 74 60 135 87 108 8 -8 6 -30
-6 -76 -19 -79 -19 -76 -1 -76 8 0 17 12 21 28 19 86 45 132 76 132 19 0 20
-3 13 -47 -15 -90 -12 -108 13 -111 23 -4 52 13 52 29 0 5 -9 4 -20 -3 -29
-18 -33 -6 -19 59 7 33 9 67 6 76 -8 21 -46 22 -74 2 -19 -13 -22 -13 -27 0
-8 22 -56 18 -83 -7 -23 -21 -23 -21 -23 -1 0 27 -23 35 -49 17z"/>
<path d="M8623 1485 c-38 -16 -62 -50 -70 -98 -8 -52 10 -77 55 -77 37 1 81
24 69 37 -4 4 -13 1 -19 -5 -16 -16 -53 -15 -67 2 -15 18 2 91 26 119 20 21
49 22 57 2 8 -22 26 -18 26 5 0 11 -4 20 -9 20 -5 0 -15 2 -23 5 -7 2 -27 -2
-45 -10z"/>
<path d="M8823 1485 c-50 -21 -79 -102 -57 -159 9 -23 54 -20 81 6 27 25 29
14 7 -42 -16 -41 -42 -56 -81 -48 -12 2 -18 12 -18 31 1 34 -22 36 -31 3 -8
-33 0 -44 42 -52 42 -8 90 10 106 40 11 19 60 218 55 222 -14 10 -80 9 -104
-1z m61 -21 c17 -44 -43 -144 -78 -131 -18 7 -21 52 -7 90 20 51 72 76 85 41z"/>
<path d="M2578 1478 c7 -7 12 -40 12 -78 0 -38 5 -71 12 -78 16 -16 60 -15 77
1 11 10 14 10 18 0 3 -7 16 -13 31 -13 20 0 23 3 14 12 -7 7 -12 43 -12 90 0
78 0 78 -26 78 -22 0 -24 -3 -15 -14 7 -8 11 -38 9 -72 -3 -54 -5 -59 -31 -68
-38 -14 -47 2 -47 87 0 66 0 67 -27 67 -21 0 -24 -3 -15 -12z"/>
<path d="M3638 1478 c16 -16 16 -140 0 -156 -9 -9 -3 -12 27 -12 30 0 36 3 27
12 -7 7 -12 43 -12 90 l0 78 -27 0 c-21 0 -24 -3 -15 -12z"/>
<path d="M5188 1479 c-10 -5 -18 -15 -18 -21 0 -9 3 -9 12 0 7 7 21 12 31 12
21 0 21 -18 1 -122 -5 -31 -4 -38 9 -38 11 0 18 13 22 44 11 73 60 135 86 109
7 -7 5 -29 -5 -68 -8 -31 -12 -63 -9 -71 6 -17 45 -18 61 -2 17 17 15 33 -3
18 -25 -21 -29 -3 -16 65 7 35 10 69 6 74 -10 17 -56 13 -78 -6 -18 -17 -19
-17 -28 0 -11 19 -45 22 -71 6z"/>
<path d="M5449 1481 c11 -7 11 -19 -2 -76 -9 -37 -13 -73 -10 -81 10 -27 73
-10 73 20 0 6 -5 5 -12 -2 -31 -31 -37 9 -14 96 l14 52 -31 0 c-22 0 -28 -3
-18 -9z"/>
<path d="M5648 1479 c-10 -5 -18 -15 -18 -21 0 -9 3 -9 12 0 7 7 21 12 31 12
18 0 19 -5 12 -47 -15 -90 -12 -108 13 -111 23 -4 52 13 52 29 0 5 -9 4 -20
-3 -29 -18 -33 -6 -19 59 7 33 9 67 6 76 -7 19 -43 22 -69 6z"/>
<path d="M1610 1125 c0 -13 428 -15 3801 -15 3036 0 3800 3 3797 13 -4 9 -775
13 -3801 15 -3371 2 -3797 0 -3797 -13z"/>
<path d="M5963 1009 c15 -9 17 -26 17 -122 0 -75 -4 -117 -12 -125 -9 -9 -3
-12 27 -12 30 0 36 3 27 12 -18 18 -15 113 4 132 20 21 50 20 58 0 11 -28 6
-120 -6 -132 -9 -9 -3 -12 27 -12 30 0 36 3 27 12 -7 7 -12 40 -12 78 0 38 -5
71 -12 78 -15 15 -64 16 -73 2 -15 -24 -25 -6 -25 45 l0 55 -32 0 c-27 -1 -30
-2 -15 -11z"/>
<path d="M6398 1005 c-40 -22 -68 -90 -68 -166 0 -77 21 -124 69 -156 44 -30
53 -21 13 12 -73 62 -70 240 6 302 31 25 20 29 -20 8z"/>
<path d="M6567 998 c5 -30 -62 -219 -84 -235 -14 -11 -10 -13 27 -13 32 0 41
3 33 11 -14 14 5 79 24 79 18 0 43 -62 30 -77 -7 -10 -1 -13 26 -13 l35 0 -25
52 -25 52 24 18 c12 10 39 27 58 38 l35 19 -42 1 c-34 0 -43 -4 -43 -17 0 -19
-58 -65 -71 -57 -5 3 4 41 20 84 l28 80 -27 0 c-23 0 -27 -4 -23 -22z"/>
<path d="M6892 997 c76 -62 79 -241 5 -303 -37 -31 -31 -39 11 -14 95 58 97
267 3 323 -41 24 -51 21 -19 -6z"/>
<path d="M3828 999 c16 -18 17 -220 0 -237 -9 -9 -2 -12 33 -11 24 0 38 3 32
6 -8 3 -13 24 -13 54 l0 49 35 0 c67 0 108 74 71 125 -11 16 -29 20 -93 23
-64 3 -76 2 -65 -9z m120 -21 c7 -7 12 -26 12 -43 0 -38 -16 -55 -52 -55 -27
0 -28 1 -28 55 0 54 1 55 28 55 15 0 33 -5 40 -12z"/>
<path d="M4387 1004 c-14 -15 -6 -34 14 -34 14 0 19 5 17 17 -3 18 -20 27 -31
17z"/>
<path d="M5098 998 c5 -7 24 -64 40 -127 17 -62 33 -116 36 -118 16 -16 36 15
56 89 12 46 25 89 30 97 4 8 17 -25 32 -85 33 -135 44 -134 91 10 21 64 42
118 48 121 20 13 7 25 -26 25 -32 0 -34 -2 -23 -20 11 -18 -2 -81 -39 -180 -3
-8 -16 32 -30 90 -13 57 -26 106 -28 109 -16 15 -36 -22 -60 -109 -16 -56 -32
-95 -36 -88 -3 7 -14 46 -24 87 -14 58 -15 78 -6 93 10 16 8 18 -30 18 -32 0
-39 -3 -31 -12z"/>
<path d="M5680 990 c0 -11 7 -20 15 -20 8 0 15 9 15 20 0 11 -7 20 -15 20 -8
0 -15 -9 -15 -20z"/>
<path d="M4250 963 c0 -9 -7 -25 -17 -35 -15 -17 -15 -18 0 -18 14 0 17 -12
17 -75 0 -63 3 -76 19 -85 13 -7 28 -7 45 0 34 13 33 26 -1 25 -28 0 -28 1
-31 68 l-3 67 31 0 c16 0 30 5 30 10 0 6 -13 10 -30 10 -25 0 -30 4 -30 25 0
16 -6 25 -15 25 -8 0 -15 -8 -15 -17z"/>
<path d="M4907 973 c-4 -3 -7 -13 -7 -21 0 -8 -8 -21 -17 -28 -17 -13 -17 -13
0 -14 14 0 17 -10 17 -70 0 -62 3 -71 24 -85 19 -13 28 -14 50 -4 34 16 34 31
0 23 -35 -9 -44 7 -44 79 0 57 0 57 29 57 17 0 33 5 36 10 4 6 -8 10 -29 10
-32 0 -36 3 -36 25 0 24 -10 32 -23 18z"/>
<path d="M6200 963 c0 -9 -7 -25 -17 -35 -15 -17 -15 -18 0 -18 14 0 17 -12
17 -75 0 -63 3 -76 19 -85 13 -7 28 -7 45 0 34 13 33 26 -1 25 -28 0 -28 1
-31 68 l-3 67 31 0 c16 0 30 5 30 10 0 6 -13 10 -30 10 -25 0 -30 4 -30 25 0
16 -6 25 -15 25 -8 0 -15 -8 -15 -17z"/>
<path d="M4063 920 c-23 -9 -32 -30 -13 -30 6 0 21 7 34 15 28 18 56 10 56
-16 0 -10 1 -22 3 -25 1 -4 -19 -13 -45 -21 -68 -19 -86 -67 -36 -94 14 -7 27
-6 51 6 20 10 33 12 35 5 2 -5 16 -10 30 -9 15 0 21 3 15 6 -9 3 -13 27 -13
69 0 86 -10 104 -58 103 -20 0 -47 -4 -59 -9z m82 -110 c-6 -33 -15 -40 -46
-40 -24 0 -29 4 -29 24 0 27 11 34 52 35 22 1 26 -3 23 -19z"/>
<path d="M4374 914 c19 -18 22 -114 6 -145 -10 -17 -7 -19 27 -18 21 0 32 3
26 6 -9 3 -13 31 -13 89 l0 84 -31 0 c-28 0 -29 -1 -15 -16z"/>
<path d="M4502 907 c-29 -30 -31 -116 -4 -140 36 -33 107 -26 120 11 3 11 0
12 -16 3 -48 -25 -92 -4 -92 43 0 13 12 16 60 16 56 0 60 2 60 23 0 64 -82 93
-128 44z m85 -17 c12 -24 12 -25 -28 -28 -51 -4 -56 1 -35 33 21 31 46 29 63
-5z"/>
<path d="M4674 914 c19 -18 22 -114 6 -145 -10 -17 -7 -19 27 -18 21 0 32 3
26 6 -17 6 -17 125 -1 141 18 18 46 14 58 -7 14 -27 13 -114 -2 -129 -9 -9 -3
-12 27 -12 30 0 36 3 27 12 -7 7 -12 38 -12 71 0 32 -5 67 -10 78 -13 23 -62
26 -84 3 -15 -14 -16 -14 -16 0 0 11 -9 16 -31 16 -28 0 -29 -1 -15 -16z"/>
<path d="M5491 904 c-39 -50 -23 -134 29 -153 26 -9 39 -8 66 5 19 9 34 20 34
25 0 12 -17 11 -25 -1 -9 -14 -61 -12 -73 3 -5 6 -13 22 -16 34 -7 21 -4 22
56 25 61 3 63 4 60 28 -9 63 -91 84 -131 34z m89 -3 c18 -34 11 -41 -35 -41
-38 0 -43 3 -38 18 16 45 54 57 73 23z"/>
<path d="M5668 918 c7 -7 12 -40 12 -78 0 -38 -5 -71 -12 -78 -9 -9 -3 -12 27
-12 30 0 36 3 27 12 -7 7 -12 43 -12 90 l0 78 -27 0 c-21 0 -24 -3 -15 -12z"/>
<path d="M5786 908 c-20 -28 -20 -49 -2 -74 13 -16 12 -21 -1 -36 -11 -12 -12
-21 -5 -35 8 -13 6 -23 -6 -36 -22 -25 -6 -49 41 -61 74 -19 145 30 113 79
-10 15 -28 21 -67 25 -39 4 -54 9 -54 20 0 10 14 17 43 21 53 7 66 20 66 64 0
22 5 35 13 35 7 0 13 5 13 10 0 6 -30 10 -69 10 -61 0 -72 -3 -85 -22z m83 -2
c17 -20 10 -67 -11 -79 -23 -15 -48 8 -48 42 0 45 35 66 59 37z m29 -193 c-3
-25 -8 -28 -44 -31 -44 -3 -69 14 -58 42 5 12 19 16 56 16 48 0 49 -1 46 -27z"/>
<path d="M6754 907 c-19 -17 -27 -34 -28 -58 -1 -19 -9 -45 -18 -58 -10 -13
-15 -28 -11 -33 3 -5 -4 -16 -16 -24 -26 -19 -27 -50 -2 -64 51 -27 144 5 157
54 9 37 -2 46 -55 46 -26 0 -51 3 -54 7 -14 14 17 33 55 33 55 0 97 44 89 93
0 4 8 7 19 7 11 0 20 5 20 10 0 6 -28 10 -64 10 -54 0 -70 -4 -92 -23z m84
-13 c4 -29 -40 -79 -61 -71 -24 9 -21 53 4 78 25 25 53 21 57 -7z m-33 -165
c13 -20 -26 -49 -67 -49 -42 0 -59 20 -38 45 14 17 95 21 105 4z"/>
</g>
</svg>
