<?xml version="1.0" standalone="no"?>
<!DOCTYPE svg PUBLIC "-//W3C//DTD SVG 20010904//EN"
 "http://www.w3.org/TR/2001/REC-SVG-20010904/DTD/svg10.dtd">
<svg version="1.0" xmlns="http://www.w3.org/2000/svg"
 width="1080" height="426" viewBox="0 0 1080 426"
 preserveAspectRatio="xMidYMid meet">

<g transform="translate(0.000000,426.000000) scale(0.100000,-0.100000)"
fill="#000000" stroke="none">
<path d="M4780 3900 c0 -5 5 -10 10 -10 6 0 10 -47 10 -120 0 -73 -4 -120 -10
-120 -5 0 -10 -4 -10 -10 0 -5 18 -10 40 -10 38 0 52 12 30 25 -13 8 -13 62
-1 70 13 8 61 -64 54 -81 -4 -11 5 -14 36 -14 23 0 41 5 41 10 0 6 -4 10 -10
10 -5 0 -25 21 -45 47 l-36 48 29 25 c16 14 37 30 48 37 16 10 11 12 -35 12
-47 1 -52 -1 -41 -14 10 -13 10 -19 -5 -35 -35 -39 -45 -26 -45 60 l0 80 -30
0 c-16 0 -30 -4 -30 -10z"/>
<path d="M5700 3904 c0 -3 7 -12 15 -20 11 -12 15 -40 15 -114 0 -74 -4 -102
-15 -114 -23 -22 -19 -26 30 -26 49 0 53 4 30 26 -11 11 -14 41 -12 134 l2
120 -32 0 c-18 0 -33 -3 -33 -6z"/>
<path d="M4115 3876 c-43 -43 -31 -79 45 -125 56 -35 68 -71 29 -92 -26 -13
-69 2 -69 26 0 8 -7 15 -15 15 -21 0 -20 -56 1 -64 34 -13 92 -6 118 15 51 40
30 102 -50 142 -37 19 -48 41 -34 68 14 25 56 25 70 -1 16 -31 42 -26 38 8 -3
25 -7 27 -55 30 -45 3 -56 -1 -78 -22z"/>
<path d="M5250 3894 c0 -3 6 -11 13 -18 7 -7 27 -65 46 -129 45 -155 53 -154
111 4 25 67 51 124 58 126 27 11 10 23 -33 23 -42 0 -61 -13 -32 -23 9 -3 8
-18 -5 -68 -9 -35 -22 -77 -28 -94 -12 -29 -13 -28 -38 64 -19 69 -22 96 -14
99 28 9 9 22 -33 22 -25 0 -45 -3 -45 -6z"/>
<path d="M4300 3851 c0 -10 -7 -24 -16 -32 -14 -11 -14 -13 0 -21 12 -7 16
-25 16 -69 0 -33 5 -69 10 -80 12 -22 59 -26 78 -7 19 19 14 27 -15 25 -28 -2
-28 -1 -31 66 l-3 67 31 0 c16 0 30 5 30 10 0 6 -13 10 -30 10 -25 0 -30 4
-30 25 0 18 -5 25 -20 25 -13 0 -20 -7 -20 -19z"/>
<path d="M4504 3814 c-19 -10 -30 -12 -32 -5 -2 6 -17 11 -33 11 -29 0 -29 0
-13 -25 16 -25 16 -111 0 -147 -7 -16 -3 -18 33 -18 45 0 49 4 26 26 -19 20
-20 94 -1 120 13 16 18 17 36 6 24 -15 40 -8 40 18 0 25 -23 31 -56 14z"/>
<path d="M4643 3822 c-37 -5 -63 -48 -63 -103 0 -39 4 -51 26 -68 46 -36 105
-27 129 20 43 82 -7 164 -92 151z m51 -44 c30 -42 10 -128 -29 -128 -36 0 -59
86 -35 131 14 26 45 24 64 -3z"/>
<path d="M5044 3816 c-38 -17 -59 -63 -51 -114 8 -45 38 -72 81 -72 40 0 82
28 67 43 -8 8 -14 8 -23 -1 -20 -20 -56 -14 -74 13 -22 34 -11 45 52 45 50 0
54 2 54 24 0 28 -27 62 -55 70 -11 3 -34 -1 -51 -8z m60 -32 c11 -29 6 -34
-34 -34 -39 0 -39 1 -28 25 13 29 52 34 62 9z"/>
<path d="M5554 3815 c-43 -18 -61 -71 -45 -126 19 -63 86 -80 138 -35 24 21
28 32 28 75 0 37 -5 55 -20 70 -28 26 -64 32 -101 16z m64 -27 c7 -7 12 -35
12 -63 0 -69 -28 -95 -64 -59 -19 19 -22 104 -4 122 7 7 19 12 28 12 9 0 21
-5 28 -12z"/>
<path d="M6116 3815 c-14 -8 -26 -10 -26 -4 0 5 -17 9 -37 9 -34 -1 -36 -2
-20 -14 13 -10 17 -28 17 -79 0 -36 -4 -69 -10 -72 -22 -13 -8 -25 30 -25 22
0 40 5 40 10 0 6 -4 10 -10 10 -14 0 -12 114 2 128 17 17 45 15 52 -4 10 -25
7 -112 -4 -119 -22 -13 -8 -25 30 -25 22 0 40 5 40 10 0 6 -4 10 -10 10 -6 0
-10 28 -10 65 0 53 3 66 19 75 32 16 51 -12 51 -75 0 -30 -4 -57 -10 -60 -22
-13 -8 -25 30 -25 22 0 40 5 40 10 0 6 -4 10 -10 10 -6 0 -10 26 -10 59 0 87
-12 111 -54 111 -18 0 -39 -7 -46 -15 -11 -13 -14 -13 -24 -2 -18 23 -42 26
-70 12z"/>
<path d="M6414 3820 c-56 -22 -75 -127 -31 -168 29 -27 77 -28 108 -3 31 25
21 34 -19 19 -40 -15 -66 -2 -70 36 -3 26 -2 26 57 26 47 0 61 3 61 15 0 30
-24 64 -53 75 -16 5 -30 10 -31 9 -1 0 -11 -4 -22 -9z m54 -47 c3 -20 -1 -23
-32 -23 -38 0 -47 15 -24 38 20 20 53 10 56 -15z"/>
<path d="M5810 3810 c0 -5 5 -10 10 -10 6 0 10 -30 10 -69 0 -50 4 -74 16 -85
19 -19 55 -21 73 -3 11 10 14 10 18 0 3 -7 18 -13 34 -13 29 0 39 13 19 25 -5
3 -10 42 -10 86 l0 79 -30 0 c-16 0 -30 -4 -30 -10 0 -5 5 -10 10 -10 7 0 10
-23 8 -61 -3 -65 -19 -88 -52 -76 -13 5 -16 21 -16 82 l0 75 -30 0 c-16 0 -30
-4 -30 -10z"/>
<path d="M6640 3785 c0 -12 20 -15 120 -15 100 0 120 3 120 15 0 13 -20 15
-120 15 -100 0 -120 -2 -120 -15z"/>
<path d="M6640 3705 c0 -12 20 -15 120 -15 100 0 120 3 120 15 0 13 -20 15
-120 15 -100 0 -120 -2 -120 -15z"/>
<path d="M4863 3330 c-42 -25 -64 -70 -70 -140 -9 -92 23 -162 90 -196 37 -19
34 -10 -7 27 -76 67 -70 265 9 301 14 6 25 15 25 20 0 13 -12 10 -47 -12z"/>
<path d="M6050 3344 c0 -3 12 -15 26 -27 37 -29 54 -76 54 -149 0 -71 -26
-140 -59 -158 -12 -6 -21 -15 -21 -21 0 -5 13 -3 29 6 100 51 117 231 31 317
-34 34 -60 48 -60 32z"/>
<path d="M7562 3325 c-44 -37 -62 -83 -62 -159 0 -47 6 -78 20 -105 19 -39 77
-84 93 -74 5 3 -5 13 -21 23 -37 23 -62 85 -62 153 0 79 16 122 58 157 24 20
31 30 20 30 -9 0 -30 -11 -46 -25z"/>
<path d="M8356 3342 c-5 -9 -72 -159 -122 -275 -26 -60 -30 -78 -19 -75 14 3
165 324 165 350 0 10 -17 11 -24 0z"/>
<path d="M8662 3320 c42 -35 58 -78 58 -157 0 -68 -25 -130 -62 -153 -16 -10
-26 -20 -21 -23 19 -12 80 42 97 83 21 52 21 152 0 196 -19 39 -68 84 -92 84
-11 0 -4 -10 20 -30z"/>
<path d="M2908 3318 c7 -7 12 -27 12 -45 0 -32 -2 -33 -38 -33 -56 0 -87 -36
-87 -100 0 -76 50 -114 101 -75 25 19 35 19 28 0 -5 -11 2 -15 27 -15 26 0 30
3 21 12 -8 8 -12 54 -12 140 l0 128 -32 0 c-25 0 -29 -3 -20 -12z m0 -100 c18
-18 15 -108 -5 -130 -20 -22 -31 -23 -55 -1 -23 20 -24 90 -2 121 17 24 43 29
62 10z"/>
<path d="M5225 3155 c-61 -156 -74 -208 -46 -179 8 8 141 338 141 350 0 2 -6
4 -14 4 -8 0 -39 -68 -81 -175z"/>
<path d="M2262 3305 c-50 -36 -68 -128 -37 -200 15 -38 46 -55 100 -55 48 0
65 9 65 34 0 34 -11 38 -32 11 -28 -36 -73 -34 -93 5 -28 54 -17 169 19 192
22 15 65 8 76 -12 15 -29 32 -25 28 8 -3 25 -7 27 -53 30 -34 2 -57 -3 -73
-13z"/>
<path d="M3037 3314 c-14 -15 -6 -34 14 -34 14 0 19 5 17 17 -3 18 -20 27 -31
17z"/>
<path d="M3631 3304 c-29 -21 -51 -72 -51 -119 0 -119 101 -176 176 -101 32
32 34 37 34 106 0 66 -2 74 -29 101 -34 34 -92 40 -130 13z m106 -30 c11 -18
17 -47 17 -89 0 -78 -21 -115 -64 -115 -21 0 -35 8 -47 26 -24 37 -29 121 -10
167 14 33 20 37 51 37 27 0 40 -6 53 -26z"/>
<path d="M4990 3305 c9 -11 7 -35 -10 -112 -12 -54 -28 -108 -36 -120 l-14
-23 79 0 c44 0 82 3 84 8 10 17 18 72 10 72 -4 0 -16 -14 -25 -30 -14 -24 -24
-30 -53 -30 -19 0 -35 4 -35 10 0 34 45 208 58 223 14 16 12 17 -28 17 -36 0
-41 -2 -30 -15z"/>
<path d="M5747 3300 c-4 -15 0 -20 14 -20 12 0 19 7 19 20 0 11 -6 20 -14 20
-7 0 -16 -9 -19 -20z"/>
<path d="M6650 3293 c-24 -15 -38 -29 -31 -31 7 -2 18 1 24 7 23 23 27 8 27
-94 l0 -105 -25 0 c-14 0 -25 -4 -25 -10 0 -6 30 -10 70 -10 66 0 98 15 48 22
-22 3 -23 7 -26 126 -1 67 -6 122 -10 122 -4 0 -27 -12 -52 -27z"/>
<path d="M6863 3305 c-41 -29 -56 -135 -29 -200 28 -65 100 -72 136 -12 35 57
22 194 -20 217 -27 14 -62 12 -87 -5z m77 -26 c15 -27 12 -172 -3 -193 -17
-24 -48 -17 -65 14 -20 39 -12 178 12 195 21 16 43 10 56 -16z"/>
<path d="M7083 3305 c-12 -9 -26 -35 -33 -65 -32 -135 45 -236 126 -166 24 20
28 32 32 89 2 37 1 78 -2 92 -15 58 -76 83 -123 50z m84 -43 c11 -42 8 -145
-6 -170 -16 -30 -51 -26 -68 8 -25 49 -12 182 20 202 17 11 46 -10 54 -40z"/>
<path d="M7312 3313 c-34 -13 -56 -110 -42 -183 15 -82 85 -107 135 -48 25 30
27 37 23 116 -3 74 -6 86 -27 103 -22 18 -61 23 -89 12z m75 -51 c12 -43 8
-159 -6 -176 -17 -20 -45 -21 -60 -2 -16 19 -26 114 -17 160 13 70 66 82 83
18z"/>
<path d="M8037 3298 c5 -27 -34 -209 -48 -223 -20 -20 -6 -25 69 -25 l79 0 11
37 c13 43 6 57 -13 28 -28 -40 -36 -45 -71 -45 -31 0 -34 2 -29 23 3 12 14 62
25 111 12 50 26 96 32 103 8 10 3 13 -24 13 -31 0 -35 -3 -31 -22z"/>
<path d="M8477 3298 c5 -27 -34 -209 -48 -223 -20 -20 -6 -25 70 -25 l79 0 10
40 c12 48 4 51 -26 10 -18 -23 -30 -30 -57 -30 -32 0 -35 2 -30 23 3 12 14 62
24 110 11 48 25 94 31 102 11 13 7 15 -22 15 -31 0 -35 -3 -31 -22z"/>
<path d="M4080 3273 c0 -9 -7 -25 -17 -35 -15 -17 -15 -18 0 -18 14 0 17 -12
17 -73 0 -43 5 -78 12 -85 17 -17 53 -15 69 5 12 15 12 16 -5 10 -33 -13 -46
10 -46 79 l0 64 30 0 c17 0 30 5 30 10 0 6 -13 10 -30 10 -25 0 -30 4 -30 25
0 16 -6 25 -15 25 -8 0 -15 -8 -15 -17z"/>
<path d="M4660 3273 c0 -9 -7 -25 -17 -35 -15 -17 -15 -18 0 -18 14 0 17 -12
17 -73 0 -43 5 -78 12 -85 17 -17 51 -15 74 4 18 15 18 15 -5 10 -40 -8 -51
10 -51 80 l0 64 30 0 c17 0 30 5 30 10 0 6 -13 10 -30 10 -25 0 -30 4 -30 25
0 16 -6 25 -15 25 -8 0 -15 -8 -15 -17z"/>
<path d="M6247 3263 c-4 -4 12 -26 35 -50 l42 -43 -44 -45 c-29 -30 -41 -48
-34 -55 7 -7 25 5 54 35 l44 45 47 -46 c26 -25 49 -42 52 -37 4 6 -12 27 -33
48 -22 22 -40 44 -40 50 0 6 18 29 40 50 27 26 37 42 30 49 -7 7 -25 -5 -55
-34 l-45 -44 -43 42 c-24 23 -46 39 -50 35z"/>
<path d="M2463 3230 c-13 -5 -23 -16 -23 -25 0 -19 16 -20 27 -1 20 34 73 21
73 -18 0 -18 -7 -25 -32 -30 -47 -9 -78 -33 -78 -59 0 -45 47 -62 86 -31 18
15 18 15 0 10 -28 -9 -56 3 -56 24 0 22 28 40 61 40 18 0 21 -4 16 -27 -7 -35
8 -63 33 -63 21 0 27 15 10 25 -5 3 -10 37 -10 74 0 39 -5 72 -12 79 -14 14
-63 15 -95 2z"/>
<path d="M2633 3222 c19 -21 24 -136 7 -147 -21 -13 -9 -25 25 -25 19 0 35 5
35 10 0 6 -5 10 -11 10 -7 0 -10 24 -9 68 3 104 4 102 -32 102 -29 0 -30 -1
-15 -18z"/>
<path d="M2699 3224 c-12 -15 -11 -16 8 -10 12 4 24 2 28 -4 10 -17 25 -11 25
10 0 25 -41 28 -61 4z"/>
<path d="M3018 3228 c16 -16 16 -150 0 -166 -9 -9 -2 -12 32 -12 34 0 41 3 32
12 -7 7 -12 44 -12 95 l0 83 -32 0 c-25 0 -29 -3 -20 -12z"/>
<path d="M3153 3230 c-13 -5 -23 -16 -23 -25 0 -20 7 -19 37 5 31 24 63 12 63
-25 0 -18 -7 -25 -32 -30 -50 -11 -78 -32 -78 -60 0 -36 40 -53 78 -34 15 7
31 15 35 17 4 2 6 -2 5 -10 -2 -8 8 -14 27 -16 24 -3 28 -1 18 9 -7 7 -13 38
-13 69 0 76 -16 104 -60 107 -19 1 -45 -2 -57 -7z m77 -115 c0 -32 -41 -55
-65 -35 -8 7 -15 16 -15 21 0 16 32 39 56 39 19 0 24 -5 24 -25z"/>
<path d="M3345 3215 c-19 -18 -25 -35 -25 -70 0 -80 67 -121 121 -75 26 21 19
26 -13 9 -32 -17 -64 3 -72 43 -13 73 40 138 72 89 19 -28 32 -27 32 4 0 23
-4 25 -45 25 -35 0 -52 -6 -70 -25z"/>
<path d="M3838 3228 c7 -7 12 -37 12 -67 0 -95 39 -134 96 -97 21 15 24 15 24
1 0 -9 9 -15 25 -15 14 0 25 5 25 10 0 6 -4 10 -10 10 -6 0 -10 35 -10 85 l0
85 -27 0 c-21 0 -24 -3 -15 -12 7 -7 12 -38 12 -70 0 -50 -3 -60 -25 -74 -41
-27 -55 -6 -55 82 l0 74 -32 0 c-25 0 -29 -3 -20 -12z"/>
<path d="M4203 3222 c13 -15 17 -39 17 -116 0 -53 -5 -106 -10 -117 -10 -17
-7 -19 27 -19 29 0 34 3 25 12 -7 7 -12 26 -12 44 0 28 3 31 25 26 40 -7 74 6
90 38 25 48 16 119 -19 142 -19 13 -63 9 -76 -7 -11 -13 -8 -14 18 -9 37 8 52
-14 52 -78 0 -51 -13 -68 -51 -68 -33 0 -42 20 -39 88 4 79 3 82 -32 82 -29 0
-30 -1 -15 -18z"/>
<path d="M4420 3231 c0 -6 5 -13 10 -16 6 -3 10 -37 10 -74 0 -39 5 -72 12
-79 17 -17 49 -15 76 4 20 14 22 14 22 0 0 -10 9 -16 25 -16 25 0 33 14 15 25
-5 3 -10 42 -10 86 l0 79 -27 0 c-21 0 -24 -3 -15 -12 7 -7 12 -38 12 -70 0
-50 -3 -60 -25 -74 -41 -27 -55 -6 -55 82 0 72 -1 74 -25 74 -14 0 -25 -4 -25
-9z"/>
<path d="M5355 3220 c-19 -21 -7 -28 13 -8 25 25 30 -7 12 -80 -16 -68 -13
-91 9 -77 6 3 13 25 16 49 11 74 60 135 87 108 9 -9 4 -50 -18 -139 -5 -17 -2
-23 9 -23 17 0 22 12 33 73 7 42 47 97 70 97 17 0 18 -39 3 -93 -12 -45 -4
-77 20 -77 22 0 58 26 49 36 -4 4 -14 1 -22 -5 -23 -19 -25 0 -10 68 11 48 12
66 3 77 -17 20 -53 17 -75 -7 l-18 -20 -8 20 c-10 27 -47 27 -82 0 l-26 -20 0
20 c0 28 -40 28 -65 1z"/>
<path d="M5718 3227 c8 -9 7 -32 -5 -81 -14 -62 -14 -70 1 -84 12 -13 20 -13
41 -4 14 6 25 16 25 22 0 7 -6 8 -19 0 -29 -15 -32 -1 -16 66 21 85 20 94 -11
94 -21 0 -24 -3 -16 -13z"/>
<path d="M5824 3226 c-10 -8 -16 -18 -12 -22 4 -4 14 -1 23 6 26 22 29 3 12
-73 -21 -87 -21 -87 -3 -87 9 0 19 20 27 57 13 59 50 113 76 113 13 0 15 -8 8
-52 -14 -95 -12 -113 10 -116 23 -3 64 23 53 34 -4 4 -14 1 -22 -5 -23 -19
-26 1 -10 69 11 47 12 66 3 76 -17 20 -53 17 -75 -7 l-18 -20 -8 20 c-9 24
-36 27 -64 7z"/>
<path d="M7645 3220 c-19 -21 -7 -28 13 -8 22 22 25 -1 12 -74 -14 -83 -14
-83 2 -83 7 0 18 24 24 53 18 81 59 131 86 104 8 -8 6 -30 -6 -76 -20 -79 -20
-86 -2 -86 16 0 21 12 32 73 7 43 47 97 71 97 13 0 15 -8 8 -52 -14 -95 -12
-113 10 -115 22 -3 62 23 52 33 -4 4 -13 1 -21 -5 -24 -20 -28 4 -12 65 17 66
9 94 -28 94 -13 0 -31 -9 -42 -21 l-18 -20 -8 20 c-10 27 -47 27 -82 0 l-26
-20 0 20 c0 28 -40 28 -65 1z"/>
<path d="M2187 2874 c-4 -4 -4 -11 -1 -15 3 -5 1472 -9 3305 -9 2926 0 3299 2
3299 15 0 13 -373 15 -3298 15 -1814 0 -3302 -3 -3305 -6z"/>
<path d="M6406 2753 c-7 -16 -37 -82 -66 -148 -87 -200 -82 -185 -66 -185 8 0
44 69 90 173 42 94 76 175 76 180 0 17 -21 5 -34 -20z"/>
<path d="M5366 2735 c-15 -14 -34 -41 -42 -60 -18 -43 -18 -145 0 -188 15 -37
69 -87 94 -87 11 0 4 10 -20 30 -83 68 -77 259 9 312 25 16 26 17 7 18 -12 0
-33 -11 -48 -25z"/>
<path d="M5609 2747 c8 -10 1 -43 -29 -132 -22 -66 -40 -122 -40 -125 0 -3 27
-5 61 -5 56 0 63 3 89 32 36 40 58 108 43 131 -11 18 -64 22 -95 8 -16 -7 -17
-5 -4 25 31 76 30 79 -5 79 -25 0 -29 -3 -20 -13z m85 -143 c-1 -56 -35 -104
-74 -104 -39 0 -42 9 -24 66 18 56 48 86 78 82 18 -3 21 -10 20 -44z"/>
<path d="M7234 2729 c79 -69 74 -239 -8 -304 -21 -17 -26 -25 -15 -25 25 0 68
38 89 81 24 46 27 143 6 192 -15 36 -69 87 -92 87 -8 0 0 -13 20 -31z"/>
<path d="M3648 2738 c15 -15 17 -238 2 -238 -5 0 -10 -3 -10 -8 0 -4 18 -7 40
-7 22 0 40 3 40 7 0 5 -4 8 -10 8 -6 0 -10 27 -10 61 l0 60 53 -3 52 -3 3 -49
c2 -27 -2 -54 -7 -59 -18 -18 -13 -22 24 -22 35 0 44 8 25 20 -15 9 -13 218 2
233 9 9 3 12 -31 12 -39 0 -41 -1 -26 -16 11 -11 15 -30 13 -58 l-3 -41 -52
-3 -53 -3 0 48 c0 27 5 54 12 61 9 9 2 12 -32 12 -34 0 -41 -3 -32 -12z"/>
<path d="M6916 2734 c-9 -23 -8 -24 14 -24 13 0 20 7 20 20 0 24 -25 27 -34 4z"/>
<path d="M4484 2698 c-4 -13 -14 -28 -23 -35 -15 -11 -14 -12 2 -13 14 0 17
-10 17 -64 0 -82 22 -116 66 -101 15 6 29 16 32 23 3 11 0 12 -15 4 -32 -17
-45 1 -50 72 l-6 66 37 0 c45 0 48 18 4 22 -25 2 -33 8 -33 22 0 28 -22 31
-31 4z"/>
<path d="M4969 2685 c-9 -19 -13 -35 -8 -35 5 0 9 -24 9 -54 0 -96 26 -131 78
-106 l27 13 -30 6 c-29 6 -30 7 -33 74 l-3 67 31 0 c16 0 30 5 30 10 0 6 -13
10 -30 10 -25 0 -30 4 -30 25 0 36 -22 30 -41 -10z"/>
<path d="M6219 2698 c-7 -13 -19 -27 -27 -32 -10 -6 -11 -10 -3 -15 8 -5 5
-24 -9 -66 -25 -72 -25 -92 -1 -100 22 -7 71 10 71 24 0 6 -7 8 -15 5 -8 -4
-21 -4 -29 -1 -12 5 -11 16 7 71 20 64 22 66 54 66 18 0 33 5 33 10 0 6 -13
10 -30 10 -27 0 -29 2 -20 25 13 33 -14 35 -31 3z"/>
<path d="M3941 2651 c-43 -43 -34 -137 15 -160 34 -15 55 -14 82 5 31 21 28
36 -4 19 -41 -21 -84 0 -84 41 0 23 3 24 61 24 l62 0 -7 32 c-3 17 -11 37 -17
45 -17 20 -86 16 -108 -6z m77 -3 c7 -7 12 -20 12 -30 0 -14 -8 -18 -40 -18
-44 0 -52 16 -24 44 19 19 36 20 52 4z"/>
<path d="M4133 2660 c-23 -9 -29 -21 -16 -33 3 -4 17 3 30 15 29 27 56 16 61
-24 3 -22 -2 -26 -32 -32 -52 -10 -80 -37 -72 -69 8 -34 47 -45 81 -23 29 19
35 20 35 4 0 -7 11 -14 25 -14 14 -1 25 2 25 7 0 5 -4 9 -10 9 -6 0 -10 29
-10 66 0 86 -10 104 -58 103 -20 0 -47 -4 -59 -9z m77 -115 c0 -32 -41 -55
-65 -35 -8 7 -15 16 -15 21 0 16 32 39 56 39 19 0 24 -5 24 -25z"/>
<path d="M4308 2658 c15 -15 17 -158 2 -158 -5 0 -10 -4 -10 -8 0 -5 16 -8 35
-8 35 1 44 9 25 21 -5 3 -10 30 -10 59 0 40 5 57 20 71 16 14 23 16 32 7 18
-18 38 -14 38 8 0 25 -45 28 -72 3 -17 -15 -18 -15 -18 0 0 12 -9 17 -27 17
-21 0 -24 -3 -15 -12z"/>
<path d="M4608 2658 c15 -15 16 -144 2 -153 -20 -12 -9 -21 25 -21 35 1 44 9
25 21 -5 3 -10 30 -10 59 0 40 5 57 20 71 16 14 23 16 32 7 18 -18 38 -14 38
8 0 25 -45 28 -72 3 -17 -15 -18 -15 -18 0 0 12 -9 17 -27 17 -21 0 -24 -3
-15 -12z"/>
<path d="M4785 2657 c-11 -8 -15 -19 -10 -26 5 -9 14 -6 32 10 29 28 56 17 61
-23 3 -22 -2 -26 -32 -32 -52 -10 -80 -37 -72 -69 8 -34 47 -45 81 -23 29 19
36 20 33 5 -2 -6 6 -12 17 -13 19 -2 20 2 16 68 -5 105 -12 116 -64 116 -24 0
-51 -6 -62 -13z m85 -112 c0 -32 -41 -55 -65 -35 -8 7 -15 16 -15 21 0 16 32
39 56 39 19 0 24 -5 24 -25z"/>
<path d="M5121 2644 c-31 -39 -29 -107 4 -139 13 -14 34 -25 45 -25 26 0 80
27 80 40 0 13 -3 13 -34 -4 -35 -18 -65 -10 -77 21 -15 40 -11 43 51 43 59 0
60 0 60 28 0 62 -89 87 -129 36z m89 -3 c18 -34 11 -41 -35 -41 -38 0 -43 3
-38 18 16 45 54 57 73 23z"/>
<path d="M5815 2637 c-38 -38 -59 -100 -44 -128 14 -28 56 -34 95 -16 19 9 34
22 34 28 0 8 -4 8 -12 2 -41 -32 -92 -15 -86 28 3 22 8 24 68 29 l65 5 3 34
c4 39 -9 51 -56 51 -25 0 -43 -9 -67 -33z m90 -7 c0 -22 -5 -25 -42 -28 -49
-4 -52 2 -21 35 29 31 63 27 63 -7z"/>
<path d="M6030 2663 c-25 -9 -40 -25 -34 -34 3 -5 17 0 31 11 43 34 71 22 59
-26 -4 -15 -14 -24 -26 -24 -66 0 -138 -62 -110 -95 16 -19 37 -19 73 -1 19
11 27 12 27 3 0 -7 11 -13 25 -13 21 -2 25 2 20 17 -4 11 3 48 15 84 12 35 19
69 15 75 -6 10 -69 12 -95 3z m40 -102 c0 -16 -34 -49 -58 -56 -33 -10 -42 23
-13 47 24 19 71 25 71 9z"/>
<path d="M6547 2659 c12 -12 -32 -159 -48 -159 -5 0 -9 -4 -9 -8 0 -4 15 -8
33 -8 30 0 32 2 33 36 1 75 63 155 95 123 13 -13 -26 -143 -42 -143 -5 0 -9
-4 -9 -8 0 -4 15 -8 33 -8 30 0 32 2 33 36 1 76 63 155 96 122 14 -14 -13
-112 -37 -136 -21 -20 -19 -22 20 -22 29 0 34 3 30 17 -3 10 4 45 15 79 12 35
19 69 16 76 -7 19 -56 18 -84 -2 -20 -14 -23 -14 -28 0 -8 21 -53 20 -84 -1
-22 -16 -23 -16 -17 0 5 14 0 17 -25 17 -23 0 -29 -3 -21 -11z"/>
<path d="M6879 2656 c9 -10 6 -30 -13 -82 -14 -38 -30 -70 -36 -72 -22 -8 -8
-18 25 -18 30 0 34 3 29 21 -3 11 7 51 21 88 14 37 25 70 25 72 0 3 -14 5 -31
5 -26 0 -29 -3 -20 -14z"/>
<path d="M6989 2656 c9 -10 6 -30 -13 -82 -14 -38 -30 -70 -36 -72 -23 -8 -8
-18 25 -18 26 1 34 5 30 15 -8 21 24 114 47 134 29 25 58 22 58 -6 0 -36 -31
-118 -46 -124 -26 -10 -14 -20 21 -19 25 1 34 5 30 14 -3 8 5 42 17 76 12 34
19 70 15 79 -8 22 -55 22 -87 0 -22 -16 -23 -16 -17 0 5 14 0 17 -25 17 -25 0
-28 -3 -19 -14z"/>
<path d="M4780 1811 c0 -5 7 -11 15 -15 9 -3 15 -18 15 -36 0 -28 -2 -30 -40
-30 -56 0 -90 -34 -90 -90 0 -42 14 -79 34 -92 17 -12 61 -9 75 5 11 10 14 10
18 0 6 -15 63 -18 63 -3 0 6 -4 10 -10 10 -6 0 -10 50 -10 130 l0 130 -35 0
c-19 0 -35 -4 -35 -9z m20 -120 c5 -11 10 -34 10 -51 0 -45 -16 -70 -46 -70
-41 0 -59 74 -28 118 19 27 50 29 64 3z"/>
<path d="M4148 1781 c-32 -29 -33 -31 -33 -111 0 -77 2 -83 28 -106 20 -17 40
-24 72 -24 61 0 75 7 75 41 0 33 -25 40 -35 10 -14 -47 -75 -33 -94 20 -31 91
9 193 69 174 11 -4 25 -15 30 -26 16 -30 32 -22 28 14 -3 31 -4 32 -55 35 -45
3 -56 -1 -85 -27z"/>
<path d="M4917 1804 c-4 -4 -7 -16 -7 -26 0 -14 6 -19 23 -16 14 2 22 10 22
23 0 20 -25 32 -38 19z"/>
<path d="M5501 1794 c-47 -34 -66 -135 -36 -194 34 -66 115 -82 165 -32 54 54
50 177 -7 221 -31 25 -89 27 -122 5z m95 -25 c13 -14 20 -40 22 -87 3 -57 1
-71 -18 -94 -46 -60 -100 -14 -100 84 0 103 47 151 96 97z"/>
<path d="M5940 1761 c0 -10 -7 -24 -15 -31 -18 -15 -19 -30 -2 -30 8 0 11 -16
9 -52 -4 -86 33 -128 87 -98 30 16 26 30 -8 24 -32 -7 -41 10 -41 83 0 40 1
42 33 45 40 4 42 21 2 28 -21 4 -31 11 -33 28 -4 27 -32 30 -32 3z"/>
<path d="M6510 1761 c0 -10 -7 -24 -15 -31 -18 -15 -19 -30 -2 -30 8 0 11 -16
9 -52 -4 -86 33 -128 87 -98 30 16 26 30 -8 24 -32 -7 -41 10 -41 83 0 40 2
42 32 45 43 4 48 26 6 30 -25 2 -34 8 -36 26 -4 27 -32 30 -32 3z"/>
<path d="M4348 1719 c-21 -12 -24 -39 -4 -39 7 0 19 7 26 15 16 20 46 19 54
-1 12 -31 5 -41 -30 -47 -44 -7 -74 -32 -74 -62 0 -41 46 -59 91 -35 13 7 19
7 19 0 0 -5 14 -10 30 -10 29 0 40 13 20 25 -5 3 -10 37 -10 74 0 39 -5 72
-12 79 -15 15 -86 15 -110 1z m82 -108 c0 -40 -61 -56 -68 -18 -2 10 5 21 20
26 36 15 48 13 48 -8z"/>
<path d="M4523 1712 c19 -21 24 -136 7 -147 -22 -13 -8 -25 30 -25 22 0 40 5
40 10 0 6 -4 10 -10 10 -17 0 -12 116 5 130 12 10 19 10 27 2 20 -20 38 -13
38 13 0 21 -5 25 -28 25 -15 0 -33 -5 -40 -12 -9 -9 -12 -9 -12 0 0 7 -15 12
-37 12 -34 0 -35 -1 -20 -18z"/>
<path d="M4890 1720 c0 -5 5 -10 10 -10 6 0 10 -32 10 -75 0 -43 -4 -75 -10
-75 -5 0 -10 -4 -10 -10 0 -5 18 -10 40 -10 38 0 52 12 30 25 -5 3 -10 42 -10
86 l0 79 -30 0 c-16 0 -30 -4 -30 -10z"/>
<path d="M5019 1711 c-22 -18 -23 -20 -5 -27 12 -5 21 -2 28 9 12 23 45 21 58
-2 15 -29 12 -41 -10 -41 -11 0 -36 -7 -55 -14 -28 -12 -35 -20 -35 -43 0 -16
5 -34 12 -41 16 -16 60 -15 77 1 11 10 14 10 18 0 6 -15 63 -18 63 -3 0 6 -4
10 -10 10 -5 0 -10 26 -10 58 0 81 -15 106 -66 110 -29 2 -48 -3 -65 -17z m86
-91 c11 -18 -15 -50 -40 -50 -18 0 -25 5 -25 20 0 29 51 53 65 30z"/>
<path d="M5222 1708 c-28 -31 -36 -70 -22 -113 13 -38 35 -55 73 -55 28 0 76
34 64 46 -4 4 -13 2 -19 -4 -15 -15 -51 -15 -66 0 -7 7 -12 33 -12 58 0 25 5
51 12 58 17 17 47 15 54 -3 10 -25 34 -17 34 10 0 23 -3 25 -48 25 -37 0 -53
-5 -70 -22z"/>
<path d="M5700 1720 c0 -5 5 -10 10 -10 6 0 10 -29 10 -66 0 -36 5 -74 10 -85
12 -22 59 -26 79 -6 11 10 14 10 18 0 6 -15 63 -18 63 -3 0 6 -4 10 -10 10 -6
0 -10 35 -10 85 l0 85 -30 0 c-16 0 -30 -4 -30 -10 0 -5 5 -10 10 -10 7 0 10
-23 8 -61 -3 -65 -19 -88 -52 -76 -13 5 -16 21 -16 82 l0 75 -30 0 c-16 0 -30
-4 -30 -10z"/>
<path d="M6050 1721 c0 -6 5 -13 10 -16 6 -4 10 -53 10 -116 0 -66 -4 -109
-10 -109 -5 0 -10 -4 -10 -10 0 -5 18 -10 40 -10 22 0 40 5 40 10 0 6 -4 10
-10 10 -5 0 -10 14 -10 30 0 28 2 30 38 30 56 0 87 36 86 101 -1 59 -23 89
-69 89 -17 0 -36 -5 -43 -12 -9 -9 -12 -9 -12 0 0 7 -13 12 -30 12 -16 0 -30
-4 -30 -9z m136 -44 c17 -71 -14 -136 -53 -111 -22 13 -30 98 -12 120 19 23
58 18 65 -9z"/>
<path d="M6270 1720 c0 -5 5 -10 10 -10 6 0 10 -29 10 -66 0 -36 5 -74 10 -85
12 -22 59 -26 79 -6 11 10 14 10 18 0 6 -15 63 -18 63 -3 0 6 -4 10 -10 10 -6
0 -10 35 -10 85 l0 85 -30 0 c-16 0 -30 -4 -30 -10 0 -5 5 -10 10 -10 7 0 10
-23 8 -61 -3 -65 -19 -88 -52 -76 -13 5 -16 21 -16 82 l0 75 -30 0 c-16 0 -30
-4 -30 -10z"/>
<path d="M6710 1695 c0 -13 21 -15 125 -15 104 0 125 2 125 15 0 13 -21 15
-125 15 -104 0 -125 -2 -125 -15z"/>
<path d="M6710 1615 c0 -13 18 -15 122 -13 86 2 123 7 126 16 3 9 -26 12 -122
12 -106 0 -126 -2 -126 -15z"/>
<path d="M3474 1250 c-12 -5 -35 -25 -50 -46 -25 -32 -29 -48 -32 -114 -5 -91
18 -148 70 -180 41 -25 51 -16 15 13 -36 29 -57 85 -57 149 0 80 16 123 58
158 37 30 35 36 -4 20z"/>
<path d="M4241 1243 c-5 -10 -41 -92 -81 -181 -65 -149 -79 -195 -49 -165 12
12 159 340 159 355 0 15 -19 9 -29 -9z"/>
<path d="M5127 1235 c45 -36 67 -100 61 -178 -6 -74 -28 -121 -65 -140 -14 -8
-22 -17 -16 -20 5 -3 24 3 42 14 95 58 94 271 -1 329 -46 28 -59 25 -21 -5z"/>
<path d="M7538 1243 c-58 -37 -91 -146 -69 -231 13 -47 60 -107 91 -115 27 -7
25 1 -5 25 -41 32 -57 75 -58 152 0 78 16 121 58 154 42 33 30 44 -17 15z"/>
<path d="M8551 1218 c-10 -24 -46 -106 -80 -182 -58 -132 -68 -168 -37 -135
14 14 156 333 156 350 0 24 -23 5 -39 -33z"/>
<path d="M9910 1254 c0 -3 11 -15 25 -26 40 -31 56 -74 57 -143 0 -81 -16
-128 -54 -160 -39 -33 -31 -42 12 -13 96 65 106 224 20 310 -34 34 -60 48 -60
32z"/>
<path d="M1573 1229 c15 -9 17 -26 17 -129 0 -73 -4 -120 -10 -120 -5 0 -10
-4 -10 -10 0 -5 16 -10 35 -10 19 0 35 5 35 10 0 6 -4 10 -10 10 -5 0 -10 18
-10 40 0 22 4 40 9 40 16 0 70 -72 64 -86 -4 -10 5 -14 31 -14 l36 0 -46 57
-46 57 33 28 c19 15 37 28 42 28 4 0 7 5 7 10 0 6 -19 10 -41 10 -37 0 -40 -2
-28 -16 11 -14 10 -20 -14 -40 -16 -13 -32 -24 -38 -24 -5 0 -9 38 -9 85 l0
85 -32 0 c-27 -1 -30 -2 -15 -11z"/>
<path d="M2526 1213 c20 -40 19 -201 -2 -231 -15 -22 -15 -22 27 -22 34 0 40
3 31 12 -8 8 -12 54 -12 140 l0 128 -29 0 c-29 0 -30 0 -15 -27z"/>
<path d="M4352 1228 c16 -13 11 -45 -36 -243 -5 -18 0 -21 37 -22 55 -2 90 12
109 45 27 46 32 90 14 117 -20 30 -45 32 -80 4 -14 -11 -26 -19 -26 -17 0 2 7
25 15 52 21 70 20 76 -17 76 -27 0 -30 -2 -16 -12z m93 -157 c-1 -46 -5 -57
-29 -77 -21 -19 -31 -22 -46 -14 -15 8 -18 17 -13 43 11 60 46 110 72 105 12
-3 16 -16 16 -57z"/>
<path d="M6703 1229 c15 -9 17 -27 17 -137 l0 -128 55 -2 c47 -2 59 1 80 22
20 20 25 35 25 76 0 78 -51 114 -108 74 l-22 -15 0 60 0 61 -32 0 c-27 -1 -30
-2 -15 -11z m124 -111 c31 -40 20 -131 -17 -141 -10 -3 -28 2 -39 10 -27 18
-29 97 -4 125 19 21 46 23 60 6z"/>
<path d="M7648 1233 c18 -7 15 -40 -13 -159 -14 -58 -25 -107 -25 -108 0 -1
22 -3 49 -4 40 -2 55 3 80 24 39 33 57 93 39 132 -17 35 -43 39 -79 13 -16
-12 -29 -20 -29 -19 0 2 7 25 15 52 21 70 20 76 -17 75 -18 0 -27 -3 -20 -6z
m100 -145 c6 -67 -45 -132 -83 -105 -14 11 -15 19 -6 54 24 88 83 122 89 51z"/>
<path d="M890 1210 c-30 -30 -26 -73 10 -103 16 -14 39 -29 51 -32 26 -9 42
-50 29 -76 -15 -27 -80 -27 -87 1 -7 28 -33 25 -33 -4 0 -55 142 -46 156 11
11 42 -4 69 -58 104 -55 35 -68 60 -48 84 19 22 67 19 80 -5 13 -23 30 -18 30
10 0 36 -96 44 -130 10z"/>
<path d="M2050 1221 c0 -5 4 -11 10 -13 5 -1 26 -58 47 -126 26 -88 41 -122
51 -120 8 2 33 55 58 123 25 66 49 122 54 123 25 9 6 22 -32 22 -39 0 -40 -1
-24 -19 15 -17 15 -23 -15 -107 -17 -49 -32 -90 -34 -92 -1 -1 -15 41 -30 95
-18 66 -24 98 -16 101 26 9 8 22 -29 22 -22 0 -40 -4 -40 -9z"/>
<path d="M3926 1206 c7 -28 -32 -213 -47 -221 -26 -16 -1 -25 69 -25 l79 0 11
37 c13 43 6 57 -13 28 -28 -40 -36 -45 -71 -45 -31 0 -34 2 -29 23 3 12 14 62
25 111 12 50 26 96 32 103 8 10 3 13 -26 13 -34 0 -36 -2 -30 -24z"/>
<path d="M5750 1221 c0 -6 5 -13 10 -16 6 -3 10 -52 10 -110 0 -58 -4 -107
-10 -110 -22 -14 -8 -25 32 -25 39 0 40 1 25 18 -11 12 -17 36 -17 65 l0 47
55 0 55 0 0 -53 c0 -29 -5 -58 -12 -65 -9 -9 -2 -12 32 -12 34 0 41 3 32 12
-8 8 -12 50 -12 123 0 73 4 115 12 123 9 9 2 12 -32 12 -34 0 -41 -3 -32 -12
7 -7 12 -34 12 -60 l0 -48 -55 0 -55 0 0 42 c0 24 7 49 17 60 15 17 14 18 -25
18 -23 0 -42 -4 -42 -9z"/>
<path d="M9020 1204 c0 -9 7 -14 17 -12 25 5 28 28 4 28 -12 0 -21 -6 -21 -16z"/>
<path d="M1079 1173 c-6 -15 -16 -31 -22 -35 -8 -5 -6 -8 6 -8 15 0 17 -10 17
-73 0 -43 5 -78 12 -85 17 -17 51 -15 74 4 18 15 18 15 -5 10 -40 -8 -51 10
-51 80 l0 64 30 0 c17 0 30 5 30 10 0 6 -13 10 -30 10 -25 0 -30 4 -30 25 0
33 -18 32 -31 -2z"/>
<path d="M4999 1176 c-6 -13 -21 -29 -33 -34 -18 -9 -19 -11 -3 -11 17 -1 18
-6 11 -43 -5 -24 -8 -61 -9 -83 0 -34 3 -40 23 -43 25 -4 72 22 72 38 0 6 -11
3 -26 -6 -41 -27 -50 -7 -33 68 14 60 16 63 47 66 41 4 42 22 2 22 -27 0 -30
2 -24 25 8 33 -13 33 -27 1z"/>
<path d="M6593 1183 c-3 -10 -13 -26 -21 -35 -14 -16 -13 -18 1 -18 14 0 17
-12 17 -73 0 -43 5 -78 12 -85 17 -17 51 -15 74 4 18 15 18 15 -5 10 -40 -8
-51 10 -51 80 l0 64 30 0 c17 0 30 5 30 10 0 6 -13 10 -30 10 -25 0 -30 4 -30
25 0 29 -18 34 -27 8z"/>
<path d="M7337 1193 c-4 -3 -7 -14 -7 -24 0 -10 -8 -23 -17 -28 -17 -10 -17
-10 0 -11 14 0 17 -10 17 -66 0 -36 5 -74 10 -85 13 -23 49 -25 76 -4 18 15
18 15 -8 9 -35 -8 -48 17 -48 90 l0 56 36 0 c21 0 33 4 29 10 -3 6 -19 10 -36
10 -24 0 -29 4 -29 25 0 24 -10 32 -23 18z"/>
<path d="M8299 1176 c-6 -13 -21 -29 -33 -34 -18 -9 -19 -11 -3 -11 17 -1 18
-6 11 -43 -5 -24 -8 -61 -9 -83 0 -34 3 -40 23 -43 25 -4 72 22 72 38 0 6 -11
3 -26 -6 -41 -27 -50 -7 -33 68 14 60 16 63 47 66 41 4 42 22 2 22 -27 0 -30
2 -24 25 8 33 -13 33 -27 1z"/>
<path d="M9609 1176 c-6 -13 -21 -29 -33 -34 -19 -10 -19 -11 -2 -11 16 -1 17
-6 10 -38 -4 -21 -8 -58 -9 -83 0 -40 3 -45 23 -48 25 -4 72 22 72 38 0 6 -11
3 -26 -6 -41 -27 -50 -7 -33 68 14 60 16 63 47 66 41 4 42 22 2 22 -27 0 -30
2 -24 25 8 33 -13 33 -27 1z"/>
<path d="M5390 1167 c0 -7 18 -31 40 -52 l40 -39 -40 -41 c-37 -37 -51 -65
-33 -65 4 0 27 19 50 42 l43 42 44 -43 c58 -57 75 -36 17 23 l-41 42 40 39
c36 35 51 65 33 65 -4 0 -27 -19 -50 -42 l-43 -42 -43 42 c-45 44 -57 50 -57
29z"/>
<path d="M1200 1135 c8 -10 11 -41 8 -95 l-3 -80 34 0 c27 0 32 3 23 12 -7 7
-12 38 -12 69 0 66 19 96 50 79 26 -14 30 -13 30 10 0 24 -41 28 -60 5 -7 -8
-16 -15 -21 -15 -5 0 -6 7 -3 15 5 11 -2 15 -26 15 -28 0 -31 -2 -20 -15z"/>
<path d="M1390 1130 c-25 -25 -34 -61 -26 -105 8 -41 38 -65 82 -65 50 0 76
28 81 87 5 45 2 55 -20 77 -33 32 -88 35 -117 6z m82 -7 c35 -40 30 -114 -9
-140 -19 -13 -24 -12 -42 6 -31 31 -30 114 1 135 28 20 32 20 50 -1z"/>
<path d="M1809 1124 c-34 -36 -35 -117 0 -145 30 -25 73 -24 102 2 21 18 21
20 4 14 -61 -22 -95 -8 -95 41 0 23 3 24 60 24 65 0 72 8 49 53 -16 30 -28 37
-65 37 -20 0 -39 -9 -55 -26z m72 6 c11 -6 19 -21 19 -35 0 -22 -4 -25 -40
-25 -45 0 -53 19 -23 52 19 21 19 21 44 8z"/>
<path d="M2335 1125 c-19 -18 -25 -35 -25 -70 0 -85 75 -124 137 -71 24 21 28
32 28 76 0 42 -4 55 -24 71 -33 27 -86 25 -116 -6z m85 -5 c28 -28 28 -102 -1
-131 -18 -18 -23 -19 -42 -6 -39 26 -45 108 -10 142 19 20 29 19 53 -5z"/>
<path d="M2628 1138 c7 -7 12 -39 12 -76 0 -35 5 -72 10 -83 13 -23 48 -25 76
-4 25 19 35 19 28 0 -5 -11 1 -15 25 -15 31 0 31 0 16 24 -12 18 -16 44 -14
93 l3 68 -30 3 c-23 3 -27 1 -16 -9 20 -21 16 -123 -6 -142 -41 -38 -62 -8
-62 87 0 65 0 66 -27 66 -21 0 -24 -3 -15 -12z"/>
<path d="M2848 1138 c16 -16 16 -150 0 -166 -9 -9 -2 -12 32 -12 34 0 41 3 32
12 -7 7 -12 39 -12 75 0 58 2 64 25 75 19 9 28 9 37 0 14 -14 17 -119 4 -144
-7 -16 -3 -18 30 -18 30 0 35 3 26 12 -18 18 -15 123 4 142 37 37 64 7 64 -73
0 -27 -4 -53 -10 -56 -21 -13 -8 -25 27 -25 29 0 34 3 25 12 -7 7 -12 39 -12
76 0 35 -5 72 -10 83 -13 23 -57 25 -81 3 -17 -15 -19 -15 -34 0 -21 20 -59
21 -75 1 -7 -8 -16 -15 -21 -15 -5 0 -6 7 -3 15 5 11 -2 15 -27 15 -26 0 -30
-3 -21 -12z"/>
<path d="M3205 1125 c-35 -34 -35 -112 -2 -143 30 -28 78 -28 108 -1 l24 21
-22 -6 c-13 -3 -32 -9 -42 -12 -23 -7 -61 27 -61 56 0 18 7 20 60 20 57 0 60
1 60 25 0 61 -80 86 -125 40z m81 -11 c21 -32 8 -47 -37 -42 -28 2 -33 7 -31
23 3 20 28 45 44 45 4 0 15 -11 24 -26z"/>
<path d="M3535 1130 c-19 -21 -7 -28 13 -8 22 22 26 -2 12 -70 -7 -37 -15 -73
-18 -81 -3 -8 1 -12 13 -10 13 3 22 19 30 56 13 56 38 101 61 110 30 11 35
-12 19 -86 -18 -88 -18 -81 0 -81 8 0 17 12 21 28 18 81 26 100 49 122 40 37
52 16 36 -64 -14 -69 -10 -86 17 -86 21 1 58 28 49 36 -4 4 -13 1 -21 -5 -23
-19 -27 3 -12 67 15 66 8 92 -26 92 -12 0 -32 -9 -44 -21 l-22 -21 -7 21 c-8
27 -44 27 -78 1 -25 -20 -25 -20 -30 0 -7 26 -39 26 -62 0z"/>
<path d="M4581 1134 c-27 -19 -51 -71 -51 -112 0 -34 27 -62 59 -62 26 0 81
30 81 43 0 5 -3 7 -7 5 -5 -2 -21 -10 -36 -18 -35 -17 -62 -4 -62 31 0 21 6
25 42 30 46 6 69 21 78 50 15 45 -55 67 -104 33z m68 -8 c17 -20 4 -43 -31
-55 -40 -14 -48 -14 -48 3 0 15 45 66 58 66 5 0 15 -6 21 -14z"/>
<path d="M4782 1134 c-45 -32 -70 -132 -40 -162 18 -18 53 -14 74 9 l18 20 8
-20 c4 -12 16 -21 26 -21 23 0 59 26 50 36 -4 4 -14 1 -22 -5 -24 -20 -28 4
-11 74 8 37 15 69 15 73 0 15 -96 12 -118 -4z m62 0 c31 -12 10 -100 -33 -138
-20 -18 -23 -18 -37 -4 -22 22 -9 94 22 125 26 25 26 26 48 17z"/>
<path d="M6045 1125 c-19 -18 -25 -35 -25 -70 0 -82 75 -124 131 -74 21 18 21
20 4 14 -61 -22 -89 -11 -101 38 l-6 27 66 0 66 0 -6 28 c-16 65 -82 85 -129
37z m79 -1 c9 -8 16 -24 16 -35 0 -17 -6 -20 -42 -17 -37 3 -43 6 -40 23 3 19
28 45 43 45 4 0 15 -7 23 -16z"/>
<path d="M6243 1140 c-13 -5 -23 -16 -23 -25 0 -19 14 -19 30 0 16 20 56 19
64 -1 12 -31 6 -43 -26 -49 -48 -10 -78 -32 -78 -58 0 -44 46 -62 86 -33 18
13 17 14 -16 13 -27 -2 -35 2 -38 17 -5 23 23 46 56 46 19 0 23 -5 21 -27 -4
-53 0 -63 26 -63 25 0 33 14 15 25 -5 3 -10 37 -10 74 0 39 -5 72 -12 79 -14
14 -63 15 -95 2z"/>
<path d="M6413 1132 c19 -21 24 -136 7 -147 -21 -13 -8 -25 27 -25 29 0 34 3
25 12 -7 7 -12 37 -12 68 0 44 4 61 20 75 16 14 23 16 32 7 18 -18 28 -15 28
8 0 25 -36 27 -62 3 -17 -15 -18 -15 -18 0 0 12 -9 17 -32 17 -29 0 -30 -1
-15 -18z"/>
<path d="M6955 1125 c-35 -34 -35 -112 -2 -143 30 -28 78 -28 108 -1 l24 21
-22 -6 c-13 -3 -32 -9 -42 -12 -23 -7 -61 27 -61 56 0 18 7 20 60 20 57 0 60
1 60 25 0 61 -80 86 -125 40z m81 -11 c21 -32 9 -47 -36 -42 -41 4 -48 20 -21
47 27 27 37 26 57 -5z"/>
<path d="M7154 1140 c-28 -11 -38 -27 -23 -36 7 -4 17 0 24 9 15 22 61 22 69
1 12 -31 6 -43 -26 -49 -48 -10 -78 -32 -78 -58 0 -45 45 -61 88 -31 20 14 22
14 22 0 0 -10 9 -16 25 -16 14 0 25 5 25 10 0 6 -4 10 -10 10 -6 0 -10 31 -10
73 0 43 -5 78 -12 85 -14 14 -63 15 -94 2z m76 -108 c0 -25 -34 -55 -57 -50
-24 5 -29 39 -7 55 27 20 64 17 64 -5z"/>
<path d="M7882 1134 c-30 -21 -52 -66 -52 -107 0 -63 61 -88 114 -46 35 28 27
35 -12 12 -38 -22 -67 -9 -67 28 0 18 6 25 25 27 53 6 70 13 86 36 34 53 -37
90 -94 50z m67 -8 c17 -20 4 -43 -31 -55 -40 -14 -48 -14 -48 3 0 15 45 66 58
66 5 0 15 -6 21 -14z"/>
<path d="M8082 1134 c-31 -22 -52 -66 -52 -112 0 -62 35 -80 83 -42 25 20 25
20 30 0 3 -11 13 -20 24 -20 22 1 59 27 50 36 -4 4 -13 1 -22 -6 -26 -21 -28
-5 -11 71 9 39 16 74 16 78 0 14 -96 10 -118 -5z m62 0 c41 -16 -13 -154 -61
-154 -37 0 -21 116 20 145 25 17 21 17 41 9z"/>
<path d="M8635 1130 c-19 -21 -7 -28 13 -8 6 6 15 9 18 5 6 -6 -6 -84 -22
-144 -5 -17 -2 -23 9 -23 11 0 20 15 27 43 6 23 14 51 17 62 7 26 43 65 59 65
20 0 21 -20 8 -85 -17 -77 -17 -85 0 -85 9 0 18 19 25 51 13 58 38 106 60 114
28 11 34 -12 21 -74 -7 -33 -10 -67 -7 -76 9 -21 40 -19 62 5 19 21 7 28 -13
8 -21 -21 -25 0 -12 65 7 35 10 72 7 81 -9 22 -50 20 -72 -4 l-18 -20 -14 20
c-18 25 -43 25 -76 0 -25 -20 -25 -20 -30 0 -7 26 -39 26 -62 0z"/>
<path d="M8989 1141 c12 -8 12 -21 1 -84 -13 -79 -10 -97 18 -97 21 1 58 28
49 36 -4 4 -13 1 -22 -6 -31 -26 -31 -3 2 138 5 19 1 22 -28 22 -24 0 -30 -3
-20 -9z"/>
<path d="M9108 1139 c-10 -5 -18 -15 -18 -21 0 -6 6 -6 15 2 28 23 35 -1 20
-65 -18 -76 -18 -95 -1 -95 8 0 18 21 25 58 7 36 20 67 37 85 35 38 50 30 45
-24 -8 -103 -7 -114 15 -117 11 -2 28 6 39 18 19 21 8 29 -13 8 -21 -21 -25 0
-12 65 7 35 10 72 7 81 -9 22 -50 20 -72 -4 -18 -20 -36 -27 -34 -12 5 32 -18
42 -53 21z"/>
<path d="M9325 1130 c-19 -21 -7 -28 13 -8 21 21 26 -1 13 -67 -11 -52 -11
-68 -1 -80 19 -22 48 -18 75 11 l23 25 4 -23 c4 -30 39 -35 63 -8 10 11 13 20
7 20 -6 0 -14 -4 -17 -10 -12 -19 -25 -10 -25 18 0 15 7 52 15 82 8 30 12 56
10 58 -13 14 -34 -12 -40 -50 -12 -73 -62 -135 -88 -109 -6 6 -4 33 5 73 8 34
13 69 11 76 -7 19 -48 14 -68 -8z"/>
<path d="M9761 1124 c-36 -30 -56 -90 -42 -127 16 -41 72 -50 112 -18 32 26
19 36 -18 15 -39 -23 -63 -13 -63 26 0 27 3 30 30 30 62 0 103 41 86 85 -9 25
-70 19 -105 -11z m77 -11 c3 -23 -12 -38 -50 -47 -23 -5 -28 -3 -28 13 0 21
47 64 64 58 6 -2 12 -13 14 -24z"/>
<path d="M840 775 c0 -13 519 -15 4610 -15 4091 0 4610 2 4610 15 0 13 -519
15 -4610 15 -4091 0 -4610 -2 -4610 -15z"/>
<path d="M5336 669 c-94 -74 -88 -268 11 -330 17 -11 34 -16 37 -11 3 5 -5 15
-18 21 -35 19 -57 66 -63 132 -8 82 11 143 56 179 41 34 20 43 -23 9z"/>
<path d="M6122 673 c-8 -15 -49 -109 -133 -301 -16 -38 -17 -43 -3 -40 14 3
164 323 164 349 0 15 -19 10 -28 -8z"/>
<path d="M6429 663 c43 -34 61 -78 61 -152 0 -76 -24 -138 -62 -161 -16 -10
-26 -20 -21 -23 18 -11 72 32 93 73 25 50 29 150 7 202 -16 38 -70 88 -95 88
-12 0 -6 -9 17 -27z"/>
<path d="M4421 633 c-24 -15 -39 -29 -32 -31 6 -2 18 1 26 8 26 22 35 0 35
-89 0 -90 -8 -111 -42 -111 -10 0 -18 -4 -18 -10 0 -6 30 -10 70 -10 66 0 98
15 48 22 -22 3 -23 7 -26 126 -1 67 -6 122 -10 122 -4 -1 -27 -13 -51 -27z"/>
<path d="M4625 636 c-45 -45 -45 -177 1 -223 39 -38 91 -27 119 27 19 37 20
142 0 179 -24 48 -81 56 -120 17z m79 -8 c11 -16 16 -46 16 -103 0 -88 -13
-120 -45 -113 -33 6 -46 46 -43 131 3 64 7 81 23 93 25 19 31 18 49 -8z"/>
<path d="M4851 641 c-48 -48 -51 -182 -5 -228 30 -30 66 -29 101 1 27 23 28
28 28 116 0 84 -2 93 -24 111 -30 24 -76 24 -100 0z m73 -14 c39 -59 25 -209
-20 -215 -30 -4 -45 19 -51 81 -7 66 2 121 23 142 21 21 31 19 48 -8z"/>
<path d="M5082 653 c-40 -16 -58 -163 -27 -222 25 -50 73 -55 116 -12 27 28
29 34 29 109 0 65 -4 84 -21 106 -20 25 -61 34 -97 19z m64 -24 c15 -17 19
-37 19 -104 0 -86 -11 -115 -46 -115 -10 0 -23 8 -28 19 -28 51 -24 176 5 206
20 20 27 19 50 -6z"/>
<path d="M5807 640 c7 -26 -26 -188 -43 -217 -8 -12 -14 -25 -14 -28 0 -3 35
-5 78 -5 l79 0 11 37 c13 43 6 57 -13 28 -28 -40 -36 -45 -71 -45 -29 0 -34 3
-30 18 3 9 15 60 26 112 12 52 26 100 32 107 8 10 3 13 -25 13 -30 0 -34 -3
-30 -20z"/>
<path d="M6247 638 c5 -27 -34 -209 -48 -223 -20 -20 -6 -25 69 -25 l79 0 11
37 c13 43 6 57 -13 28 -28 -40 -36 -45 -71 -45 -29 0 -34 3 -30 18 3 9 14 59
25 111 12 51 26 100 32 107 9 11 5 14 -23 14 -31 0 -35 -3 -31 -22z"/>
<path d="M5415 560 c-19 -21 -7 -28 13 -8 22 22 25 -1 12 -74 -14 -83 -14 -83
2 -83 7 0 18 24 24 53 18 81 59 131 86 104 7 -7 5 -32 -6 -80 -19 -86 -19 -82
-2 -82 16 0 21 12 32 73 7 42 47 97 70 97 17 0 18 -39 3 -93 -12 -45 -4 -77
19 -77 21 1 58 28 49 36 -4 4 -13 1 -21 -5 -23 -19 -26 1 -10 69 11 47 12 66
3 76 -17 20 -53 17 -75 -7 l-18 -20 -8 20 c-10 27 -47 27 -82 0 l-26 -20 0 20
c0 28 -40 28 -65 1z"/>
</g>
</svg>
