<?xml version="1.0" standalone="no"?>
<!DOCTYPE svg PUBLIC "-//W3C//DTD SVG 20010904//EN"
 "http://www.w3.org/TR/2001/REC-SVG-20010904/DTD/svg10.dtd">
<svg version="1.0" xmlns="http://www.w3.org/2000/svg"
 width="1080" height="282" viewBox="0 0 1080 282"
 preserveAspectRatio="xMidYMid meet">

<g transform="translate(0.000000,282.000000) scale(0.100000,-0.100000)"
fill="#000000" stroke="none">
<path d="M4070 2301 c0 -6 5 -13 10 -16 6 -4 10 -63 10 -146 0 -86 -4 -139
-10 -139 -5 0 -10 -4 -10 -10 0 -5 25 -10 55 -10 30 0 55 5 55 10 0 6 -4 10
-10 10 -6 0 -10 58 -10 155 l0 155 -45 0 c-25 0 -45 -4 -45 -9z"/>
<path d="M7000 2301 c0 -6 5 -13 10 -16 6 -3 10 -22 10 -41 0 -32 -2 -34 -35
-34 -49 0 -90 -23 -105 -60 -17 -40 -8 -124 15 -150 22 -24 81 -27 113 -4 20
14 22 14 22 0 0 -12 11 -16 47 -16 44 0 45 1 30 18 -14 16 -17 43 -17 165 l0
147 -45 0 c-25 0 -45 -4 -45 -9z m8 -123 c7 -7 12 -40 12 -78 0 -38 -5 -71
-12 -78 -20 -20 -48 -14 -58 14 -31 81 12 188 58 142z"/>
<path d="M6166 2290 c-61 -19 -96 -76 -95 -157 1 -106 40 -154 124 -153 125 2
120 0 116 48 -1 27 3 52 13 68 l16 24 -60 0 c-60 0 -61 0 -47 -21 17 -23 12
-79 -6 -91 -74 -47 -121 154 -56 236 27 35 73 35 95 1 24 -36 44 -32 44 9 0
31 -3 34 -37 40 -48 7 -70 7 -107 -4z"/>
<path d="M7180 2270 c0 -27 3 -30 30 -30 27 0 30 3 30 30 0 27 -3 30 -30 30
-27 0 -30 -3 -30 -30z"/>
<path d="M2170 2256 c0 -42 18 -56 36 -30 24 35 35 44 49 44 12 0 15 -23 15
-135 0 -83 -4 -135 -10 -135 -5 0 -10 -4 -10 -10 0 -6 26 -10 59 -10 l60 0
-15 28 c-17 32 -20 247 -4 257 18 11 47 -4 59 -31 16 -35 35 -25 39 19 l3 37
-140 0 -141 0 0 -34z"/>
<path d="M7913 2262 c-15 -2 -23 -10 -23 -23 0 -10 -9 -24 -20 -31 -24 -15
-26 -28 -5 -28 12 0 15 -16 15 -84 0 -64 4 -88 16 -100 24 -24 74 -24 108 0
21 14 19 16 -23 18 -21 1 -26 8 -33 41 -5 22 -8 58 -6 80 3 37 5 40 36 43 46
5 43 32 -4 32 -33 0 -36 2 -32 25 6 29 2 33 -29 27z"/>
<path d="M2490 2201 c0 -6 5 -13 10 -16 6 -3 10 -46 10 -96 0 -53 -4 -89 -10
-89 -5 0 -10 -4 -10 -10 0 -5 25 -10 56 -10 47 0 55 2 45 14 -8 9 -11 43 -9
92 3 67 6 79 21 82 10 2 24 -4 31 -14 19 -26 46 -11 46 26 0 26 -3 30 -28 30
-16 0 -37 -7 -48 -15 -25 -19 -34 -19 -34 0 0 11 -11 15 -40 15 -22 0 -40 -4
-40 -9z"/>
<path d="M2763 2197 c-18 -7 -33 -15 -33 -19 0 -5 0 -15 0 -23 0 -22 38 -18
45 4 12 38 59 36 69 -2 10 -39 7 -45 -31 -52 -78 -14 -113 -48 -98 -95 11 -35
83 -43 118 -13 15 15 17 15 17 0 0 -13 10 -17 47 -17 44 0 45 1 30 18 -13 14
-17 38 -17 100 0 72 -2 83 -22 96 -26 19 -79 19 -125 3z m84 -123 c10 -27 -14
-64 -42 -64 -21 0 -25 5 -25 30 0 22 6 33 23 40 32 13 37 12 44 -6z"/>
<path d="M2970 2204 c0 -3 7 -12 15 -20 22 -23 21 -161 -2 -186 -15 -17 -13
-18 47 -18 61 0 63 1 46 19 -25 28 -19 148 9 167 33 21 47 3 52 -69 5 -52 2
-72 -11 -92 l-16 -25 55 0 c51 0 69 10 45 25 -5 3 -10 43 -10 89 0 68 -3 86
-18 99 -23 21 -62 22 -88 2 -25 -19 -34 -19 -34 0 0 11 -12 15 -45 15 -25 0
-45 -3 -45 -6z"/>
<path d="M3313 2200 c-59 -24 -50 -86 16 -120 47 -23 66 -51 49 -68 -19 -19
-56 -14 -68 8 -16 30 -40 25 -40 -9 0 -27 3 -29 44 -33 60 -4 104 6 121 28 31
41 10 82 -62 118 -38 19 -44 51 -11 62 16 5 27 1 39 -15 25 -31 51 -28 47 7
-3 25 -6 27 -58 29 -30 1 -65 -2 -77 -7z"/>
<path d="M3490 2201 c0 -6 5 -13 10 -16 6 -4 10 -63 10 -146 0 -86 -4 -139
-10 -139 -5 0 -10 -4 -10 -10 0 -6 27 -10 62 -10 59 0 60 1 45 18 -10 10 -17
33 -17 50 0 29 2 31 38 30 84 -1 112 31 112 127 0 46 -4 60 -25 80 -28 29 -70
32 -103 9 -20 -14 -22 -14 -22 0 0 12 -11 16 -45 16 -25 0 -45 -4 -45 -9z
m154 -37 c19 -18 22 -114 6 -145 -12 -21 -40 -25 -58 -7 -19 19 -15 128 5 150
20 22 27 22 47 2z"/>
<path d="M3780 2201 c0 -5 5 -13 10 -16 6 -3 10 -41 10 -83 0 -96 15 -122 67
-122 20 0 45 7 55 17 17 15 18 15 18 0 0 -13 10 -17 46 -17 37 0 44 3 36 13
-6 7 -13 58 -14 113 l-3 99 -42 3 c-40 3 -56 -9 -33 -23 6 -3 10 -40 10 -80 0
-65 -3 -76 -21 -85 -40 -22 -48 -7 -51 92 l-3 93 -42 3 c-24 2 -43 -1 -43 -7z"/>
<path d="M4220 2204 c0 -3 7 -12 15 -20 22 -23 21 -161 -2 -186 -15 -17 -14
-18 40 -18 53 0 71 10 47 25 -5 3 -10 37 -10 75 0 59 3 71 22 84 36 25 48 4
48 -83 0 -47 -5 -82 -12 -89 -9 -9 1 -12 45 -12 31 0 57 5 57 10 0 6 -4 10
-10 10 -6 0 -10 31 -10 73 0 61 3 77 20 92 35 31 50 5 50 -86 0 -46 -4 -79
-10 -79 -5 0 -10 -4 -10 -10 0 -5 25 -10 56 -10 44 0 54 3 46 13 -5 6 -12 52
-13 100 -3 74 -7 91 -23 103 -26 18 -66 18 -94 -2 -20 -14 -24 -14 -44 0 -28
20 -51 20 -88 1 -27 -14 -30 -14 -30 0 0 11 -11 15 -45 15 -25 0 -45 -3 -45
-6z"/>
<path d="M4714 2200 c-71 -28 -83 -164 -19 -206 28 -18 104 -21 135 -4 24 13
50 66 50 103 0 44 -22 87 -51 102 -31 16 -82 19 -115 5z m83 -40 c15 -30 17
-99 3 -135 -13 -33 -49 -31 -68 5 -16 30 -11 122 8 145 18 21 42 15 57 -15z"/>
<path d="M4930 2201 c0 -6 5 -13 10 -16 6 -3 10 -46 10 -96 0 -53 -4 -89 -10
-89 -5 0 -10 -4 -10 -10 0 -5 26 -10 57 -10 44 0 54 3 45 12 -7 7 -12 43 -12
90 0 66 3 79 19 88 34 18 51 -12 51 -90 0 -38 -4 -72 -10 -75 -24 -15 -6 -25
47 -25 44 0 54 3 45 12 -7 7 -12 37 -12 68 -1 68 -14 130 -32 141 -20 13 -62
10 -84 -6 -25 -19 -34 -19 -34 0 0 11 -11 15 -40 15 -22 0 -40 -4 -40 -9z"/>
<path d="M5260 2196 c-23 -9 -35 -19 -35 -32 0 -27 41 -32 50 -6 12 39 58 38
69 -1 10 -39 7 -44 -49 -56 -63 -14 -91 -44 -81 -86 10 -40 82 -51 119 -18 15
15 17 15 17 0 0 -13 10 -17 47 -17 44 0 45 1 30 18 -13 14 -17 38 -17 100 0
72 -2 83 -22 96 -27 19 -79 19 -128 2z m87 -122 c10 -27 -14 -64 -42 -64 -21
0 -25 5 -25 30 0 22 6 33 23 40 32 13 37 12 44 -6z"/>
<path d="M5480 2201 c0 -6 5 -13 10 -16 15 -9 13 -178 -2 -193 -9 -9 1 -12 45
-12 31 0 57 5 57 10 0 6 -4 10 -10 10 -11 0 -14 128 -4 154 8 20 38 21 54 1
22 -27 40 -18 40 20 0 32 -3 35 -28 35 -15 0 -38 -7 -50 -16 -20 -14 -22 -14
-22 0 0 12 -11 16 -45 16 -25 0 -45 -4 -45 -9z"/>
<path d="M5690 2202 c0 -4 4 -12 9 -17 6 -6 24 -50 41 -100 18 -49 36 -95 42
-102 6 -8 4 -20 -7 -36 -18 -29 -42 -41 -50 -27 -12 20 -35 10 -35 -15 0 -22
4 -25 33 -25 47 0 67 25 132 170 31 69 61 129 66 135 18 18 9 25 -31 25 -41 0
-49 -7 -29 -27 8 -8 5 -27 -12 -72 -13 -34 -26 -61 -29 -61 -3 0 -13 28 -23
61 -13 44 -15 65 -8 72 21 21 11 27 -44 27 -30 0 -55 -4 -55 -8z"/>
<path d="M6380 2201 c0 -6 5 -13 10 -16 15 -9 13 -178 -2 -193 -9 -9 1 -12 45
-12 31 0 57 5 57 10 0 6 -5 10 -10 10 -7 0 -10 28 -8 76 2 59 7 79 20 88 13 8
21 6 36 -7 29 -26 42 -21 42 18 0 32 -3 35 -28 35 -15 0 -38 -7 -50 -16 -20
-14 -22 -14 -22 0 0 12 -11 16 -45 16 -25 0 -45 -4 -45 -9z"/>
<path d="M6650 2197 c-45 -15 -56 -57 -16 -57 16 0 26 6 26 15 0 8 9 19 21 25
27 15 49 -3 49 -41 0 -26 -4 -29 -40 -35 -75 -12 -110 -62 -77 -108 16 -22 69
-24 101 -2 23 14 26 14 26 1 0 -11 11 -15 48 -15 41 1 45 2 30 14 -15 11 -18
29 -18 95 0 68 -3 84 -20 101 -23 23 -75 26 -130 7z m78 -144 c-2 -31 -7 -39
-27 -41 -30 -5 -45 10 -36 38 6 19 34 37 58 39 5 1 7 -16 5 -36z"/>
<path d="M7160 2201 c0 -6 5 -13 10 -16 6 -3 10 -46 10 -96 0 -53 -4 -89 -10
-89 -5 0 -10 -4 -10 -10 0 -5 26 -10 57 -10 44 0 54 3 45 12 -8 8 -12 48 -12
115 l0 103 -45 0 c-25 0 -45 -4 -45 -9z"/>
<path d="M7349 2182 c-27 -24 -33 -38 -37 -83 -4 -48 -1 -59 22 -86 38 -45
131 -50 166 -8 19 23 2 38 -23 20 -43 -30 -97 -6 -97 43 0 21 5 22 70 22 l70
0 0 31 c0 20 -10 40 -29 60 -41 40 -98 41 -142 1z m88 -4 c6 -7 13 -23 16 -35
5 -21 2 -23 -34 -23 -32 0 -39 4 -39 19 0 20 24 51 39 51 5 0 13 -6 18 -12z"/>
<path d="M7570 2200 c0 -5 5 -10 10 -10 15 0 13 -183 -2 -198 -9 -9 1 -12 45
-12 53 0 71 10 47 25 -5 3 -10 37 -10 75 0 59 3 71 22 84 36 25 48 4 48 -83 0
-47 -5 -82 -12 -89 -9 -9 1 -12 45 -12 31 0 57 5 57 10 0 6 -4 10 -10 10 -6 0
-10 35 -10 85 0 72 -3 88 -20 105 -24 24 -51 25 -90 5 -27 -14 -30 -14 -30 0
0 11 -11 15 -45 15 -25 0 -45 -4 -45 -10z"/>
<path d="M8187 2173 c-19 -19 5 -23 138 -23 122 0 145 2 145 15 0 13 -22 15
-138 15 -76 0 -142 -3 -145 -7z"/>
<path d="M8187 2074 c-18 -18 17 -24 144 -24 117 0 139 2 139 15 0 13 -22 15
-138 15 -76 0 -142 -3 -145 -6z"/>
<path d="M3593 1572 c14 -15 17 -42 17 -147 0 -105 -3 -132 -17 -147 -15 -17
-14 -18 30 -18 26 0 47 5 47 10 0 6 -4 10 -10 10 -6 0 -10 58 -10 155 l0 155
-37 0 c-34 0 -35 -1 -20 -18z"/>
<path d="M6843 1579 c15 -9 17 -27 17 -154 0 -90 -4 -145 -10 -145 -5 0 -10
-4 -10 -10 0 -5 21 -10 47 -10 44 0 45 1 30 18 -14 16 -17 43 -17 165 l0 147
-37 0 c-31 -1 -35 -3 -20 -11z"/>
<path d="M1853 1562 c25 -27 25 -256 0 -284 -15 -17 -14 -18 32 -18 46 0 47 1
31 19 -14 15 -16 37 -14 131 l3 113 40 -112 c28 -78 44 -111 54 -109 8 2 33
49 56 105 22 56 44 105 47 109 4 4 5 -47 1 -112 -3 -66 -10 -120 -15 -122 -23
-10 -3 -22 37 -22 25 0 45 5 45 10 0 6 -4 10 -10 10 -6 0 -10 53 -10 140 0 87
4 140 10 140 6 0 10 5 10 11 0 6 -16 9 -37 7 -37 -3 -37 -3 -78 -105 -22 -56
-43 -104 -46 -108 -3 -3 -23 43 -45 102 l-39 108 -45 3 c-43 3 -44 3 -27 -16z"/>
<path d="M3060 1571 c0 -6 5 -11 10 -11 6 0 10 -53 10 -140 0 -87 -4 -140 -10
-140 -5 0 -10 -4 -10 -10 0 -5 24 -10 53 -10 45 1 50 2 35 14 -14 10 -18 28
-18 70 l0 56 46 0 c87 0 134 84 81 146 -22 25 -31 28 -110 32 -61 3 -87 1 -87
-7z m148 -27 c16 -11 22 -25 22 -54 0 -48 -21 -70 -66 -70 l-34 0 0 70 c0 70
0 70 28 70 15 0 38 -7 50 -16z"/>
<path d="M5499 1553 c-65 -179 -96 -252 -112 -270 l-20 -23 51 0 c55 0 62 5
36 25 -14 10 -15 17 -5 48 12 36 13 37 66 37 46 0 53 -3 59 -22 9 -35 7 -68
-4 -68 -5 0 -10 -4 -10 -10 0 -5 23 -10 50 -10 28 0 50 5 50 10 0 6 -4 10 -9
10 -11 0 -22 29 -67 178 -30 98 -41 122 -56 122 -11 0 -23 -11 -29 -27z m43
-91 c10 -31 18 -60 18 -64 0 -5 -21 -8 -46 -8 -33 0 -45 4 -41 13 2 6 13 38
23 69 9 32 20 55 23 53 3 -3 13 -31 23 -63z"/>
<path d="M7080 1571 c0 -6 5 -11 10 -11 6 0 10 -53 10 -140 0 -87 -4 -140 -10
-140 -5 0 -10 -4 -10 -10 0 -5 24 -10 53 -10 45 1 50 2 35 14 -14 10 -18 28
-18 70 l0 56 44 0 c87 0 135 85 84 145 -23 26 -31 29 -111 33 -61 3 -87 1 -87
-7z m150 -31 c24 -24 26 -77 3 -102 -9 -10 -30 -18 -50 -18 l-33 0 0 70 0 70
30 0 c17 0 39 -9 50 -20z"/>
<path d="M6500 1550 c0 -13 7 -20 20 -20 13 0 20 7 20 20 0 13 -7 20 -20 20
-13 0 -20 -7 -20 -20z"/>
<path d="M5910 1516 c0 -14 -10 -32 -22 -40 l-22 -16 22 0 c21 0 22 -4 22 -84
0 -94 11 -116 59 -116 24 0 51 15 51 30 0 3 -15 5 -32 5 l-33 0 -3 83 -3 82
36 0 c19 0 35 5 35 10 0 6 -16 10 -35 10 -32 0 -35 2 -35 30 0 23 -4 30 -20
30 -15 0 -20 -7 -20 -24z"/>
<path d="M2294 1480 c-73 -29 -88 -159 -25 -207 23 -18 78 -16 112 4 31 19 40
40 12 27 -10 -4 -34 -9 -54 -12 -30 -3 -40 1 -53 19 -9 13 -16 34 -16 46 0 22
4 23 75 23 55 0 73 3 71 13 -3 6 -7 24 -10 39 -4 17 -18 34 -36 43 -32 17 -45
18 -76 5z m60 -26 c9 -8 16 -27 16 -40 0 -24 -3 -25 -47 -22 -45 3 -48 5 -45
28 4 44 47 63 76 34z"/>
<path d="M2514 1479 c-17 -5 -37 -16 -44 -24 -21 -25 15 -30 39 -6 27 27 46
27 65 -1 30 -42 16 -68 -35 -68 -31 0 -77 -28 -84 -50 -17 -52 54 -91 101 -55
25 19 34 19 34 0 0 -10 10 -15 30 -15 17 0 30 5 30 10 0 6 -4 10 -9 10 -5 0
-11 39 -12 86 -4 76 -7 88 -28 105 -25 21 -39 22 -87 8z m74 -135 c2 -14 -7
-29 -24 -43 -31 -25 -35 -25 -58 -8 -25 18 -13 53 22 66 38 14 57 9 60 -15z"/>
<path d="M2783 1470 c-27 -16 -33 -17 -33 -5 0 11 -11 15 -37 15 -31 -1 -35
-3 -20 -11 14 -8 17 -25 17 -99 0 -53 -4 -90 -10 -90 -5 0 -10 -4 -10 -10 0
-5 21 -10 47 -10 44 0 45 1 30 18 -26 28 -23 136 3 162 45 45 73 20 78 -70 4
-58 1 -75 -13 -90 -18 -20 -17 -20 28 -20 26 0 47 5 47 10 0 6 -4 10 -9 10 -5
0 -11 39 -13 87 -4 74 -8 89 -27 105 -29 23 -38 23 -78 -2z"/>
<path d="M3813 1470 c-27 -16 -33 -17 -33 -5 0 11 -11 15 -37 15 -31 -1 -35
-3 -20 -11 14 -8 17 -25 17 -99 0 -53 -4 -90 -10 -90 -5 0 -10 -4 -10 -10 0
-5 21 -10 47 -10 44 0 46 1 29 19 -13 15 -16 34 -14 87 3 62 5 70 30 83 44 25
58 4 58 -90 0 -46 -4 -79 -10 -79 -5 0 -10 -4 -10 -10 0 -5 21 -10 47 -10 44
0 45 1 30 18 -26 28 -23 136 3 162 43 43 69 21 77 -66 4 -57 2 -73 -11 -86
-24 -25 -20 -28 29 -28 49 0 53 4 30 26 -8 8 -12 21 -8 29 3 9 2 45 -2 81 -6
54 -11 67 -32 81 -24 16 -28 16 -63 -3 -36 -20 -38 -20 -60 -2 -28 23 -37 23
-77 -2z"/>
<path d="M4175 1481 c-43 -18 -60 -50 -60 -113 0 -53 3 -62 28 -84 38 -32 96
-33 133 -1 20 18 28 35 31 73 6 66 -9 102 -52 119 -38 17 -51 17 -80 6z m70
-31 c23 -25 30 -107 13 -140 -9 -17 -23 -26 -46 -28 -29 -3 -34 0 -48 34 -38
92 25 196 81 134z"/>
<path d="M4453 1470 c-27 -16 -33 -17 -33 -5 0 11 -11 15 -37 15 -31 -1 -35
-3 -20 -11 14 -8 17 -25 17 -99 0 -53 -4 -90 -10 -90 -5 0 -10 -4 -10 -10 0
-5 21 -10 47 -10 44 0 45 1 30 18 -26 28 -23 136 3 162 45 45 73 20 78 -70 4
-58 1 -75 -13 -90 -18 -20 -17 -20 28 -20 26 0 47 5 47 10 0 6 -4 10 -9 10 -5
0 -11 39 -12 86 -4 76 -7 88 -28 105 -29 24 -38 24 -78 -1z"/>
<path d="M4670 1476 c-19 -7 -36 -20 -38 -29 -5 -23 20 -21 41 3 20 24 40 25
61 4 27 -26 20 -63 -11 -70 -56 -12 -68 -17 -85 -32 -21 -17 -24 -62 -6 -80
17 -17 70 -15 94 3 24 18 35 19 32 3 -2 -8 9 -14 25 -16 26 -3 37 11 17 23 -5
3 -10 41 -10 84 0 46 -5 84 -12 94 -18 23 -66 29 -108 13z m80 -136 c0 -36
-38 -65 -70 -55 -30 9 -23 55 10 72 43 22 60 17 60 -17z"/>
<path d="M4876 1481 c-26 -5 -28 -7 -13 -20 23 -18 24 -152 2 -175 -23 -22
-19 -26 30 -26 41 0 61 13 33 22 -6 2 -13 31 -16 64 -4 53 -1 64 21 90 25 29
25 29 46 10 24 -22 45 -11 39 20 -5 23 -52 23 -78 -1 -21 -19 -34 -19 -27 0 8
19 -1 23 -37 16z"/>
<path d="M5715 1480 c-20 -4 -26 -8 -17 -13 15 -10 17 -187 2 -187 -5 0 -10
-4 -10 -10 0 -5 20 -10 45 -10 49 0 53 4 30 26 -10 10 -15 35 -15 73 0 48 4
61 25 81 23 22 26 22 43 7 26 -24 32 -21 32 13 0 36 -24 40 -63 10 -31 -24
-35 -25 -39 -2 -2 14 -10 16 -33 12z"/>
<path d="M6104 1471 c-89 -54 -57 -211 43 -211 39 0 94 32 80 46 -4 4 -13 2
-19 -4 -16 -16 -83 -15 -96 1 -6 7 -12 26 -14 42 l-3 30 74 3 73 3 -6 32 c-7
37 -48 77 -79 77 -12 0 -36 -9 -53 -19z m84 -34 c18 -37 9 -47 -44 -47 -39 0
-44 3 -44 22 0 29 29 60 54 56 12 -2 27 -15 34 -31z"/>
<path d="M6307 1482 c-24 -3 -25 -5 -12 -18 22 -23 21 -161 -2 -186 -15 -17
-14 -18 30 -18 26 0 47 5 47 10 0 6 -4 10 -10 10 -6 0 -10 31 -10 73 0 61 3
77 20 92 19 17 21 17 40 0 23 -21 44 -9 38 21 -5 27 -36 29 -69 5 -33 -25 -43
-26 -36 -6 7 18 0 22 -36 17z"/>
<path d="M6660 1476 c-19 -7 -36 -20 -38 -29 -5 -23 20 -21 41 3 20 24 40 25
61 4 27 -26 20 -63 -11 -70 -56 -12 -68 -17 -85 -32 -21 -17 -24 -62 -6 -80
17 -17 70 -15 94 3 25 19 35 19 28 0 -5 -11 1 -15 25 -15 17 0 31 5 31 10 0 6
-4 10 -10 10 -6 0 -10 34 -10 83 0 51 -5 90 -12 100 -18 23 -66 29 -108 13z
m80 -136 c0 -36 -38 -65 -70 -55 -30 9 -23 55 10 72 43 22 60 17 60 -17z"/>
<path d="M7366 1480 c-26 -4 -27 -6 -13 -19 23 -18 24 -152 2 -175 -23 -22
-19 -26 30 -26 41 0 61 13 33 22 -6 2 -13 31 -16 64 -4 53 -1 64 21 90 25 29
25 29 46 10 24 -22 45 -11 39 20 -5 27 -36 29 -69 5 -34 -25 -37 -26 -41 -3
-2 13 -10 16 -32 12z"/>
<path d="M7605 1481 c-38 -16 -58 -50 -63 -104 -4 -46 -1 -57 23 -85 31 -37
78 -43 126 -15 31 19 40 40 12 27 -10 -4 -34 -9 -54 -12 -30 -3 -40 1 -53 19
-9 13 -16 34 -16 46 0 22 4 23 75 23 l75 0 -6 28 c-11 44 -24 62 -50 72 -30
12 -42 12 -69 1z m65 -30 c5 -11 10 -29 10 -40 0 -18 -6 -21 -44 -21 -51 0
-62 10 -45 42 22 42 61 51 79 19z"/>
<path d="M7813 1480 c-28 -11 -46 -45 -38 -71 4 -10 28 -30 54 -44 52 -26 68
-49 50 -71 -17 -21 -67 -17 -81 6 -18 28 -30 25 -26 -7 3 -26 7 -28 50 -31 54
-4 86 10 97 41 12 33 -6 62 -55 85 -49 24 -63 45 -44 67 17 21 47 19 67 -5 23
-26 33 -25 33 4 0 33 -55 47 -107 26z"/>
<path d="M8017 1478 c-30 -11 -46 -51 -30 -77 6 -9 30 -27 54 -42 33 -19 44
-31 44 -50 0 -20 -5 -24 -37 -27 -29 -2 -39 1 -48 17 -15 28 -30 26 -30 -3 0
-28 16 -36 76 -36 49 0 84 25 84 60 0 23 -45 70 -66 70 -8 0 -23 9 -34 20 -16
16 -18 25 -10 40 14 26 55 26 74 -1 16 -23 36 -18 36 10 0 28 -61 38 -113 19z"/>
<path d="M8543 1478 c-13 -6 -23 -15 -23 -20 0 -4 -4 -8 -10 -8 -5 0 -10 7
-10 15 0 10 -10 15 -32 15 -25 0 -29 -3 -20 -12 15 -15 17 -188 2 -188 -5 0
-10 -4 -10 -10 0 -5 20 -10 45 -10 44 0 60 12 30 24 -25 9 -21 126 5 154 24
26 33 27 50 7 19 -23 30 -18 30 15 0 33 -16 38 -57 18z"/>
<path d="M8704 1481 c-73 -31 -88 -160 -25 -208 29 -22 87 -16 118 13 21 20
23 24 8 18 -11 -4 -36 -9 -56 -12 -30 -3 -40 1 -53 19 -9 13 -16 34 -16 46 0
22 4 23 70 23 l70 0 0 29 c0 56 -62 94 -116 72z m60 -27 c9 -8 16 -27 16 -40
0 -24 -3 -25 -47 -22 -45 3 -48 5 -45 28 4 44 47 63 76 34z"/>
<path d="M3328 1468 c7 -7 12 -42 12 -88 0 -88 16 -120 59 -120 16 0 40 9 55
21 l26 20 0 -20 c0 -17 6 -21 30 -21 17 0 30 5 30 10 0 6 -4 10 -10 10 -6 0
-10 40 -10 100 l0 100 -36 0 c-32 0 -34 -1 -20 -16 24 -23 22 -135 -2 -157
-25 -23 -59 -21 -72 2 -5 11 -10 54 -10 95 l0 76 -32 0 c-25 0 -29 -3 -20 -12z"/>
<path d="M5042 1463 c9 -10 31 -61 51 -113 33 -91 34 -96 19 -122 -19 -32 -41
-43 -56 -28 -17 17 -26 11 -26 -15 0 -20 5 -25 24 -25 42 0 73 40 126 160 28
63 58 125 66 138 14 22 14 22 -27 22 -36 0 -40 -2 -29 -15 14 -17 9 -41 -21
-111 l-22 -49 -24 70 c-18 53 -21 74 -13 88 9 15 5 17 -36 17 -44 0 -46 -1
-32 -17z"/>
<path d="M6488 1468 c15 -15 17 -188 2 -188 -5 0 -10 -4 -10 -10 0 -5 21 -10
47 -10 44 0 45 1 30 18 -13 15 -17 39 -17 110 l0 92 -32 0 c-25 0 -29 -3 -20
-12z"/>
<path d="M8184 1464 c12 -11 16 -36 16 -94 0 -58 4 -83 16 -94 20 -20 68 -21
84 -1 7 8 16 15 21 15 5 0 9 -7 9 -15 0 -11 11 -15 37 -15 34 0 35 1 20 18
-13 15 -17 39 -17 110 l0 92 -32 0 c-25 0 -29 -3 -20 -12 7 -7 12 -40 12 -79
0 -77 -15 -102 -59 -97 -26 3 -26 4 -29 96 l-3 92 -35 0 c-32 0 -34 -1 -20
-16z"/>
<path d="M2380 1021 c0 -5 7 -11 15 -15 12 -4 15 -30 15 -144 0 -94 -4 -142
-12 -150 -9 -9 -1 -12 38 -12 38 1 45 3 32 11 -16 9 -18 28 -18 164 l0 155
-35 0 c-19 0 -35 -4 -35 -9z"/>
<path d="M5080 1021 c0 -5 7 -11 15 -15 12 -4 15 -30 15 -144 0 -94 -4 -142
-12 -150 -9 -9 -1 -12 38 -12 38 1 45 3 32 11 -16 9 -18 28 -18 164 l0 155
-35 0 c-19 0 -35 -4 -35 -9z"/>
<path d="M5216 1021 c-3 -5 1 -11 9 -15 12 -4 15 -30 15 -144 0 -94 -4 -142
-12 -150 -9 -9 -1 -12 38 -12 38 1 45 3 32 11 -16 9 -18 28 -18 164 l0 155
-29 0 c-17 0 -32 -4 -35 -9z"/>
<path d="M6920 1025 c0 -4 7 -13 16 -22 9 -10 14 -29 12 -52 -3 -34 -5 -36
-36 -33 -48 5 -88 -15 -106 -53 -45 -93 12 -192 93 -164 17 6 31 15 31 20 0 5
5 9 10 9 6 0 10 -8 10 -18 0 -15 6 -18 30 -14 22 3 28 8 21 16 -6 7 -12 80
-13 162 l-3 149 -32 3 c-18 2 -33 0 -33 -3z m20 -151 c22 -57 6 -137 -29 -149
-56 -17 -92 46 -71 124 11 42 20 49 63 50 21 1 30 -5 37 -25z"/>
<path d="M4290 1007 c-84 -29 -116 -181 -56 -272 22 -33 80 -49 137 -38 40 8
44 11 47 41 4 39 -19 44 -36 7 -14 -29 -52 -41 -82 -25 -68 36 -66 219 3 264
30 20 72 8 82 -24 4 -12 12 -19 18 -17 17 5 21 56 5 61 -38 12 -87 13 -118 3z"/>
<path d="M1873 999 c15 -9 17 -27 17 -144 0 -117 -2 -135 -17 -144 -14 -8 -6
-10 35 -11 49 0 52 1 38 16 -10 10 -16 33 -16 63 l0 48 52 5 c65 7 98 39 98
98 0 62 -32 80 -139 80 -63 -1 -81 -3 -68 -11z m156 -40 c14 -25 11 -59 -7
-87 -5 -8 -28 -16 -51 -19 l-41 -6 0 72 0 72 42 -3 c33 -2 45 -8 57 -29z"/>
<path d="M4982 988 c5 -34 38 -37 38 -4 0 20 -5 26 -21 26 -15 0 -20 -5 -17
-22z"/>
<path d="M6112 993 c14 -16 30 -67 78 -250 8 -32 16 -43 30 -43 15 0 24 17 45
84 14 47 28 99 31 116 4 17 10 33 14 35 4 3 21 -48 37 -113 24 -97 32 -117 48
-117 15 0 27 25 61 129 24 71 50 139 59 152 l15 24 -47 0 c-38 -1 -44 -3 -30
-11 9 -5 17 -15 17 -22 0 -20 -63 -217 -68 -212 -2 2 -17 57 -32 122 -22 99
-30 118 -47 121 -17 3 -24 -11 -53 -115 -18 -65 -35 -122 -38 -127 -5 -9 -18
35 -47 157 -12 50 -11 59 2 72 13 13 8 15 -38 15 -49 0 -51 -1 -37 -17z"/>
<path d="M7633 999 c15 -9 17 -27 17 -144 0 -117 -2 -135 -17 -144 -14 -8 -6
-10 35 -11 53 0 53 0 38 22 -9 12 -16 41 -16 64 l0 41 50 5 c57 6 95 34 103
75 7 38 -10 79 -39 92 -32 14 -197 15 -171 0z m151 -31 c38 -53 5 -118 -59
-118 l-35 0 0 70 0 70 39 0 c30 0 44 -6 55 -22z"/>
<path d="M2133 903 c13 -15 17 -38 17 -101 0 -76 2 -83 25 -98 26 -17 58 -12
88 14 15 14 17 13 17 -1 0 -13 9 -17 38 -17 30 1 34 3 20 11 -15 8 -18 25 -18
109 l0 100 -30 0 c-16 0 -30 -4 -30 -10 0 -5 5 -10 10 -10 6 0 10 -31 10 -73
0 -77 -15 -107 -52 -107 -28 0 -37 25 -40 110 l-3 85 -35 3 c-33 3 -34 3 -17
-15z"/>
<path d="M2520 912 c0 -6 7 -12 15 -16 22 -8 21 -158 -1 -180 -14 -15 -11 -16
32 -16 37 0 45 3 36 12 -7 7 -12 41 -12 83 0 76 9 95 47 95 31 0 43 -28 43
-104 0 -51 -4 -67 -17 -75 -14 -8 -7 -10 32 -11 38 0 46 3 37 12 -16 16 -16
150 0 166 7 7 21 12 33 12 12 0 26 -5 33 -12 16 -16 16 -150 0 -166 -9 -9 -2
-12 32 -12 34 0 41 3 32 12 -7 7 -12 42 -12 88 0 86 -16 120 -57 120 -13 0
-37 -9 -52 -19 -27 -19 -27 -19 -39 0 -16 26 -62 25 -96 -2 -26 -20 -27 -20
-24 -3 2 15 -4 20 -29 22 -18 2 -33 -1 -33 -6z"/>
<path d="M2954 897 c-23 -20 -28 -34 -32 -84 -4 -52 -1 -63 20 -88 20 -23 33
-28 71 -29 38 -1 51 4 74 27 24 24 28 35 28 88 0 54 -3 63 -28 85 -38 32 -96
33 -133 1z m108 -19 c6 -13 12 -47 12 -76 0 -64 -26 -99 -67 -88 -45 11 -63
128 -27 171 19 23 67 19 82 -7z"/>
<path d="M3173 902 c21 -23 24 -171 5 -190 -9 -9 -2 -12 32 -12 34 0 41 3 32
12 -7 7 -12 40 -12 78 0 74 19 104 61 98 18 -2 25 -12 32 -43 11 -51 3 -125
-14 -136 -9 -6 3 -9 34 -9 44 0 47 1 33 16 -12 11 -16 36 -16 94 0 58 -4 83
-16 94 -21 22 -56 20 -88 -5 l-26 -20 0 20 c0 17 -6 21 -37 21 -34 0 -35 -1
-20 -18z"/>
<path d="M3468 909 c-17 -7 -28 -18 -28 -30 0 -24 12 -24 35 1 35 39 85 17 85
-38 0 -15 -9 -21 -40 -25 -59 -8 -90 -31 -90 -67 0 -56 65 -74 113 -32 15 14
17 13 17 -1 0 -12 9 -17 32 -17 25 0 29 3 20 12 -7 7 -12 41 -12 83 0 94 -14
119 -65 122 -22 1 -52 -3 -67 -8z m92 -131 c0 -47 -62 -77 -89 -44 -9 11 -9
20 -2 34 13 24 26 30 64 31 21 1 27 -4 27 -21z"/>
<path d="M3660 910 c0 -5 5 -10 10 -10 15 0 13 -173 -2 -188 -9 -9 -1 -12 36
-12 43 0 46 1 32 16 -22 21 -22 122 0 152 15 22 54 31 54 12 0 -5 7 -10 15
-10 9 0 15 9 15 25 0 32 -36 34 -74 4 l-26 -20 0 20 c0 17 -6 21 -30 21 -16 0
-30 -4 -30 -10z"/>
<path d="M3840 910 c0 -5 4 -10 9 -10 9 0 81 -186 81 -209 0 -6 -8 -23 -17
-37 -13 -21 -22 -25 -45 -20 -23 5 -28 2 -28 -14 0 -29 50 -27 78 3 11 12 46
79 78 150 31 70 61 127 65 127 5 0 9 5 9 10 0 6 -18 10 -40 10 -22 0 -40 -4
-40 -10 0 -5 5 -10 10 -10 6 0 10 -7 10 -16 0 -16 -38 -113 -50 -127 -7 -9
-50 99 -50 127 0 9 5 16 10 16 6 0 10 5 10 10 0 6 -20 10 -45 10 -25 0 -45 -4
-45 -10z"/>
<path d="M4508 909 c-17 -7 -28 -18 -28 -30 0 -24 12 -24 35 1 36 39 85 16 85
-39 0 -16 -6 -21 -25 -21 -38 0 -92 -25 -104 -48 -15 -29 2 -68 32 -76 29 -7
54 0 80 22 15 14 17 13 17 -1 0 -12 9 -17 32 -17 25 0 29 3 20 12 -7 7 -12 41
-12 83 0 94 -14 119 -65 122 -22 1 -52 -3 -67 -8z m92 -131 c0 -47 -62 -77
-89 -44 -9 11 -9 20 -2 34 13 24 26 30 64 31 21 1 27 -4 27 -21z"/>
<path d="M4703 902 c14 -15 17 -42 17 -148 0 -88 -4 -134 -12 -142 -9 -9 -1
-12 38 -12 38 1 45 3 32 11 -12 7 -18 22 -18 48 l0 37 51 0 c44 -1 54 3 75 27
19 23 24 39 24 86 0 99 -59 141 -124 90 l-26 -20 0 20 c0 17 -6 21 -37 21 -34
0 -35 -1 -20 -18z m157 -31 c15 -30 12 -113 -6 -139 -18 -26 -56 -29 -78 -6
-22 22 -22 121 1 146 22 24 69 24 83 -1z"/>
<path d="M4960 910 c0 -5 5 -10 10 -10 15 0 13 -173 -2 -188 -9 -9 -1 -12 38
-12 38 1 45 3 32 11 -15 8 -18 25 -18 109 l0 100 -30 0 c-16 0 -30 -4 -30 -10z"/>
<path d="M5383 905 c-34 -14 -41 -29 -22 -40 6 -4 19 2 30 14 34 36 78 24 82
-23 2 -26 -2 -29 -46 -41 -63 -16 -92 -44 -83 -79 10 -41 52 -53 99 -28 29 16
37 17 37 6 0 -9 11 -14 31 -14 29 0 30 1 15 22 -11 16 -16 46 -16 100 0 66 -3
79 -19 88 -27 14 -70 12 -108 -5z m97 -123 c0 -54 -80 -88 -96 -40 -5 16 -1
27 16 40 30 24 80 24 80 0z"/>
<path d="M5583 906 c14 -11 17 -29 17 -98 0 -52 -5 -89 -12 -96 -9 -9 -1 -12
38 -12 38 1 45 3 32 11 -28 16 -26 139 3 165 16 15 24 16 39 6 29 -18 40 -15
40 13 0 32 -36 34 -74 4 l-26 -20 0 20 c0 18 -6 21 -37 21 -34 -1 -36 -2 -20
-14z"/>
<path d="M5760 916 c0 -3 8 -20 19 -38 10 -18 31 -67 46 -109 26 -74 26 -78
10 -109 -14 -28 -20 -31 -46 -26 -24 5 -29 2 -29 -14 0 -15 7 -20 29 -20 39 0
57 24 121 167 29 65 60 126 68 136 14 16 12 17 -26 17 -42 0 -51 -7 -31 -27
11 -11 -37 -146 -50 -138 -4 2 -16 32 -26 65 -15 49 -16 66 -7 81 11 18 9 19
-33 19 -25 0 -45 -2 -45 -4z"/>
<path d="M6609 905 c-29 -16 -49 -60 -49 -107 0 -76 65 -123 133 -95 34 15 54
34 44 43 -2 3 -18 -3 -34 -12 -37 -22 -76 -13 -91 21 -23 51 -18 55 63 55 82
0 84 2 64 59 -18 51 -74 66 -130 36z m78 -17 c6 -7 13 -23 16 -35 5 -22 2 -23
-50 -23 -52 0 -54 1 -47 23 10 33 24 47 49 47 12 0 27 -6 32 -12z"/>
<path d="M7086 899 c-31 -24 -36 -78 -10 -104 15 -15 15 -17 0 -34 -19 -21
-21 -42 -4 -59 9 -9 9 -12 0 -12 -18 0 -31 -42 -21 -62 12 -23 80 -41 123 -32
49 9 78 39 74 77 -4 40 -35 57 -106 57 -45 0 -53 3 -50 18 2 12 16 19 52 23
63 7 90 37 83 92 -4 30 -2 37 10 35 9 -2 18 3 20 10 4 9 -15 12 -70 12 -60 0
-79 -4 -101 -21z m96 -24 c24 -53 -26 -109 -68 -75 -17 15 -19 71 -2 88 21 21
57 14 70 -13z m27 -199 c14 -17 5 -43 -20 -56 -58 -32 -139 16 -97 58 17 17
103 15 117 -2z"/>
<path d="M7319 891 c-25 -26 -29 -37 -29 -88 0 -66 20 -95 72 -108 31 -8 98
20 98 42 0 12 -3 12 -22 -1 -49 -34 -108 -8 -108 47 0 27 1 27 71 27 l72 0 -6
38 c-12 74 -93 98 -148 43z m101 -17 c16 -41 13 -44 -40 -44 -39 0 -50 4 -50
16 0 55 71 78 90 28z"/>
<path d="M7890 910 c0 -5 5 -10 10 -10 15 0 13 -173 -2 -188 -9 -9 -1 -12 36
-12 43 0 46 1 32 16 -24 23 -22 135 2 157 20 19 52 23 52 7 0 -5 7 -10 15 -10
9 0 15 9 15 25 0 32 -36 34 -74 4 l-26 -20 0 20 c0 17 -6 21 -30 21 -16 0 -30
-4 -30 -10z"/>
<path d="M8124 897 c-23 -20 -28 -34 -32 -84 -4 -52 -1 -63 21 -88 20 -23 33
-30 64 -30 42 0 98 29 88 46 -4 5 -15 3 -28 -6 -45 -32 -107 -3 -107 50 0 24
2 25 70 25 l70 0 0 30 c0 71 -90 105 -146 57z m96 -16 c21 -41 13 -51 -40 -51
-54 0 -61 10 -34 48 19 27 60 29 74 3z"/>
<path d="M8341 901 c-39 -39 -27 -68 39 -103 34 -17 46 -30 48 -50 3 -22 -2
-29 -21 -34 -26 -6 -67 10 -67 26 0 6 -7 10 -16 10 -10 0 -14 -7 -12 -22 7
-50 141 -44 154 7 10 42 0 59 -54 88 -42 23 -53 33 -50 50 4 28 65 38 74 13
10 -25 36 -20 32 7 -3 19 -10 22 -55 25 -42 2 -56 -1 -72 -17z"/>
<path d="M8558 909 c-54 -31 -40 -82 31 -113 22 -11 43 -27 47 -38 14 -44 -51
-66 -83 -28 -23 26 -33 25 -33 -4 0 -19 6 -24 36 -29 52 -9 93 2 111 30 23 34
4 68 -52 95 -44 21 -63 47 -50 68 9 15 61 12 75 -5 18 -22 30 -18 30 10 0 23
-3 25 -47 25 -27 0 -56 -5 -65 -11z"/>
<path d="M8720 910 c0 -5 5 -10 10 -10 6 0 10 -30 10 -69 0 -84 11 -117 44
-132 20 -10 31 -8 60 9 29 17 36 18 36 7 0 -11 11 -15 37 -15 32 0 34 2 20 13
-13 9 -17 32 -19 107 l-3 95 -35 3 c-33 3 -34 3 -17 -15 26 -29 24 -136 -3
-163 -28 -28 -58 -26 -70 6 -6 14 -10 59 -10 100 l0 74 -30 0 c-16 0 -30 -4
-30 -10z"/>
<path d="M8990 910 c0 -5 5 -10 10 -10 15 0 13 -173 -2 -188 -9 -9 -1 -12 38
-12 38 1 45 3 32 11 -28 16 -26 139 3 165 16 15 24 16 39 6 29 -18 40 -15 40
13 0 32 -36 34 -74 4 l-26 -20 0 20 c0 17 -6 21 -30 21 -16 0 -30 -4 -30 -10z"/>
<path d="M9219 891 c-25 -25 -29 -37 -29 -85 0 -73 29 -111 86 -110 41 0 98
30 88 45 -3 5 -15 2 -27 -6 -48 -34 -107 -5 -107 52 0 22 4 23 70 23 l70 0 0
30 c0 75 -95 107 -151 51z m101 -10 c21 -41 13 -51 -40 -51 -40 0 -50 3 -50
17 0 45 69 71 90 34z"/>
<path d="M1410 835 c0 -13 22 -15 140 -15 118 0 140 2 140 15 0 13 -22 15
-140 15 -118 0 -140 -2 -140 -15z"/>
</g>
</svg>
